<svg xmlns="http://www.w3.org/2000/svg" version="1.1" xmlns:xlink="http://www.w3.org/1999/xlink" xmlns:svgjs="http://svgjs.com/svgjs" width="39" height="39"><svg width="39" height="39" viewBox="0 0 39 39" fill="none" xmlns="http://www.w3.org/2000/svg">
<path fill-rule="evenodd" clip-rule="evenodd" d="M20.6936 3.74304C20.3841 4.05257 20.0975 4.37647 19.833 4.71475C19.7698 4.63426 19.7046 4.55376 19.6385 4.47326C19.419 4.21069 19.1977 3.96632 18.9725 3.74112C16.8786 1.64915 14.134 0.600769 11.3904 0.600769C8.64582 0.600769 5.90029 1.64723 3.80736 3.74112L3.80833 3.74208C1.71444 5.83597 0.667969 8.58054 0.667969 11.3242C0.667969 14.0687 1.71444 16.8133 3.80833 18.9072C4.03353 19.1324 4.27787 19.3538 4.54045 19.5722C4.61999 19.6384 4.69953 19.7026 4.78099 19.7658C4.44367 20.0303 4.11882 20.3178 3.80833 20.6283C1.71444 22.7222 0.667969 25.4668 0.667969 28.2104C0.667969 30.955 1.71444 33.7005 3.80833 35.7934L3.80929 35.7925C5.90318 37.8863 8.64774 38.9328 11.3914 38.9328C14.1359 38.9328 16.8805 37.8863 18.9744 35.7925C19.2839 35.482 19.5714 35.1581 19.8359 34.8207C19.8992 34.9022 19.9634 34.9817 20.0285 35.0603C20.247 35.3229 20.4684 35.5673 20.6936 35.7925C22.7875 37.8863 25.532 38.9328 28.2766 38.9328C31.0202 38.9328 33.7657 37.8863 35.8587 35.7934H35.8596C37.9516 33.6995 39 30.9549 39 28.2113C39 25.4668 37.9535 22.7222 35.8596 20.6283C35.6344 20.4031 35.3901 20.1817 35.1275 19.9632C35.048 19.8962 34.9675 19.8319 34.8879 19.7687C35.2243 19.5042 35.5492 19.2177 35.8596 18.9072C37.9516 16.8133 39 14.0687 39 11.3242C39 8.57958 37.9535 5.83405 35.8596 3.74112L35.8587 3.74208C33.7648 1.65011 31.0202 0.602685 28.2766 0.602685C25.532 0.602685 22.7875 1.64915 20.6936 3.74304ZM18.8364 6.2375C18.9619 6.00367 19.097 5.77368 19.2417 5.54752C19.1277 5.39323 19.0099 5.24278 18.8891 5.09808C18.7089 4.88246 18.5067 4.66013 18.2806 4.43397C16.3774 2.53079 13.8839 1.58016 11.3904 1.58016C8.89689 1.58016 6.40339 2.5327 4.50021 4.43301L4.50117 4.43397C2.59799 6.33716 1.64736 8.83066 1.64736 11.3242C1.64736 13.8177 2.5999 16.3121 4.50117 18.2143C4.72637 18.4395 4.94773 18.6427 5.16527 18.8219C5.3138 18.9455 5.46329 19.0634 5.61471 19.1755C5.83991 19.0308 6.07086 18.8957 6.30468 18.7692C6.20023 18.6983 6.09769 18.6245 5.99515 18.5488C5.65208 18.292 5.32434 18.0093 5.01577 17.6997C3.25441 15.9412 2.37374 13.6308 2.37374 11.3242C2.37374 9.01657 3.25443 6.70802 5.01387 4.94762H5.0129C6.7733 3.18723 9.08185 2.30654 11.3904 2.30654C13.698 2.30654 16.0065 3.18723 17.7669 4.94762C18.0707 5.25141 18.3534 5.57914 18.6141 5.92892C18.6907 6.0305 18.7645 6.13304 18.8364 6.2375ZM18.3438 7.283C18.1895 7.01851 18.0199 6.76072 17.835 6.51348C17.6117 6.21545 17.3587 5.92413 17.0741 5.63952C15.5053 4.06982 13.4479 3.28593 11.3904 3.28593C9.33292 3.28593 7.27641 4.07078 5.70671 5.63952C4.13701 7.21017 3.35313 9.26669 3.35313 11.3242C3.35313 13.3826 4.13797 15.4401 5.70671 17.0088C5.98462 17.2896 6.27787 17.5416 6.5807 17.7678C6.82794 17.9537 7.0857 18.1233 7.35019 18.2776C7.65972 18.152 7.9731 18.0409 8.2903 17.946C8.12356 17.8674 7.95872 17.7821 7.79676 17.6911C7.22849 17.3691 6.6976 16.9695 6.22037 16.4942C4.7925 15.0663 4.07855 13.1938 4.07855 11.3232C4.07855 9.45164 4.7925 7.57911 6.22037 6.15125C7.64824 4.7253 9.51979 4.01136 11.3904 4.01136C13.261 4.01136 15.1335 4.72529 16.5614 6.15316C17.0415 6.63423 17.4421 7.168 17.7621 7.73532C17.8522 7.89535 17.9356 8.05731 18.0123 8.22214C18.1081 7.90494 18.2183 7.59157 18.3438 7.283ZM5.0589 11.3232C5.0589 9.70175 5.67606 8.08126 6.91131 6.84601C8.14944 5.60981 9.76991 4.9917 11.3904 4.9917C13.0118 4.9917 14.6323 5.60981 15.8685 6.84601C16.2883 7.26479 16.6352 7.72478 16.9121 8.21447C17.1124 8.56904 17.2753 8.9399 17.4018 9.3213C17.1661 9.37593 16.9313 9.43917 16.6984 9.51009C16.5901 9.19385 16.4521 8.88528 16.2864 8.58629C16.0401 8.14547 15.7286 7.73149 15.3568 7.35871C14.2615 6.26433 12.8269 5.71713 11.3914 5.71713C9.95774 5.71713 8.52315 6.26433 7.42781 7.35871L8.12068 8.05156C9.0234 7.14788 10.2069 6.69556 11.3914 6.69556C12.5758 6.69556 13.7603 7.14788 14.664 8.05156C14.9745 8.36109 15.2313 8.7032 15.4344 9.06448C15.5724 9.31172 15.6865 9.57142 15.7765 9.83783C15.5504 9.92983 15.3271 10.0305 15.1067 10.1387C15.0473 9.95283 14.9745 9.77171 14.8872 9.59634C14.7023 9.2226 14.456 8.87282 14.1484 8.56808C13.3856 7.80528 12.388 7.42387 11.3914 7.42387C10.3938 7.42387 9.39427 7.80431 8.63338 8.56616L9.32622 9.25902C9.89545 8.68883 10.6439 8.40421 11.3914 8.40421C12.1398 8.40421 12.8892 8.68787 13.4565 9.25902C13.6913 9.49093 13.8743 9.75254 14.0114 10.0276C14.1062 10.2192 14.1791 10.4186 14.2289 10.6217C14.0056 10.7597 13.7852 10.9054 13.5705 11.0606C13.514 10.5901 13.3051 10.133 12.9438 9.77171C12.5154 9.34431 11.9539 9.12965 11.3914 9.12965C10.8298 9.12965 10.2673 9.34431 9.83988 9.77171L10.067 9.99978L9.83988 9.77362C9.41152 10.202 9.19684 10.7636 9.19684 11.3242C9.19684 11.8848 9.41152 12.4454 9.83988 12.8766C10.2002 13.2379 10.6573 13.4468 11.1278 13.5033C10.9726 13.7189 10.826 13.9394 10.6889 14.1626C10.4838 14.1128 10.2836 14.039 10.0919 13.9442C9.81784 13.809 9.56005 13.625 9.32622 13.3931C8.75699 12.8229 8.47142 12.0745 8.47142 11.3261C8.47142 10.5786 8.75507 9.83017 9.32622 9.25998L8.63338 8.56808C7.87249 9.32898 7.49107 10.3285 7.49107 11.3261C7.49107 12.3217 7.87249 13.3203 8.63338 14.0841C8.93907 14.3888 9.28691 14.6351 9.65874 14.8191C9.83602 14.9072 10.0191 14.981 10.2059 15.0404C10.0977 15.2599 9.99703 15.4832 9.90504 15.7093C9.64055 15.6193 9.37989 15.5033 9.12882 15.3624C8.76849 15.1602 8.4283 14.9053 8.12068 14.5968C7.217 13.6931 6.76371 12.5086 6.76371 11.3242C6.76371 10.1416 7.217 8.95619 8.12068 8.05252L7.42781 7.36062C6.33247 8.45404 5.78626 9.88862 5.78626 11.3242C5.78626 12.7597 6.33247 14.1943 7.42781 15.2896C7.79867 15.6605 8.2117 15.97 8.6506 16.2163C8.94672 16.3821 9.25818 16.5201 9.57825 16.6283C9.50638 16.8622 9.44313 17.0979 9.38851 17.3346C9.00423 17.2081 8.6305 17.0433 8.27401 16.842C7.79199 16.568 7.33391 16.222 6.91321 15.8013C5.67701 14.5632 5.0589 12.9437 5.0589 11.3232ZM10.5308 10.4636C10.2941 10.7013 10.1753 11.0118 10.1753 11.3242C10.1753 11.6356 10.2931 11.948 10.5308 12.1857C10.7685 12.4224 11.0799 12.5412 11.3914 12.5412C11.7009 12.5412 12.0095 12.4243 12.2462 12.1895L12.251 12.1837C12.2538 12.1809 12.2567 12.178 12.2596 12.1761C12.4924 11.9394 12.6084 11.6318 12.6084 11.3242C12.6084 11.0127 12.4896 10.7013 12.251 10.4646C12.0143 10.2279 11.7028 10.1081 11.3914 10.1081C11.0799 10.1081 10.7685 10.2259 10.5318 10.4646L10.5308 10.4636ZM12.9438 12.8766L12.94 12.8795C11.0397 14.7817 10.09 17.2742 10.09 19.7668C10.09 22.2411 11.0282 24.7164 12.9007 26.6138C12.9151 26.6273 12.9294 26.6416 12.9438 26.656H12.9428L12.9438 26.657L12.251 27.3498C12.0143 27.1112 11.7028 26.9924 11.3914 26.9924C11.0799 26.9924 10.7685 27.1112 10.5318 27.3498C10.2931 27.5865 10.1753 27.898 10.1753 28.2094C10.1753 28.5218 10.2931 28.8333 10.5318 29.0719C10.7704 29.3067 11.0799 29.4255 11.3914 29.4255C11.7028 29.4255 12.0142 29.3076 12.2529 29.07C12.4896 28.8323 12.6084 28.5209 12.6084 28.2094C12.6084 27.898 12.4896 27.5865 12.251 27.3498L12.9438 26.657C13.3722 27.0853 13.5859 27.6478 13.5859 28.2094C13.5859 28.771 13.3722 29.3335 12.9438 29.7619C12.5126 30.1893 11.952 30.4039 11.3914 30.4039C10.8308 30.4039 10.2692 30.1893 9.84081 29.7619L10.0775 29.5232L9.83988 29.7599C9.41152 29.3316 9.19684 28.77 9.19684 28.2094C9.19684 27.6488 9.41152 27.0872 9.83988 26.6589C10.2002 26.2947 10.6563 26.0858 11.1269 26.0293C10.9726 25.8146 10.826 25.5952 10.6889 25.3719C10.4848 25.4217 10.2855 25.4946 10.0928 25.5894C9.81494 25.7265 9.55524 25.9114 9.32429 26.1424C8.75314 26.7145 8.46949 27.4639 8.46949 28.2104C8.46949 28.9598 8.75506 29.7082 9.32429 30.2774C9.89352 30.8467 10.641 31.1294 11.3885 31.1294C12.136 31.1294 12.8844 30.8447 13.4536 30.2745C14.0248 29.7034 14.3103 28.9569 14.3103 28.2094C14.3103 27.4619 14.0248 26.7135 13.4555 26.1443L13.4565 26.1433C11.6961 24.3829 10.8164 22.0753 10.8164 19.7668C10.8164 17.4582 11.6971 15.1497 13.4565 13.3893C15.2169 11.6299 17.5254 10.7492 19.834 10.7492C22.1425 10.7492 24.4511 11.6299 26.2115 13.3893L25.5186 14.0821C23.9499 12.5115 21.8915 11.7286 19.834 11.7286C17.7765 11.7286 15.72 12.5134 14.1493 14.0821C12.5787 15.6509 11.7958 17.7093 11.7958 19.7668C11.7958 21.8243 12.5806 23.8808 14.1493 25.4514C14.9102 26.2142 15.2916 27.2118 15.2916 28.2094C15.2916 29.207 14.9102 30.2065 14.1493 30.9674C13.3875 31.7283 12.3889 32.1097 11.3904 32.1097C10.3938 32.1097 9.39618 31.7283 8.63338 30.9674L8.87582 30.723L8.63241 30.9655C7.87152 30.2046 7.4901 29.207 7.4901 28.2094C7.4901 27.2118 7.87152 26.2123 8.63241 25.4514C8.94194 25.1429 9.2898 24.8966 9.66067 24.7135C9.83699 24.6254 10.0191 24.5525 10.2059 24.4931C10.0977 24.2737 9.998 24.0513 9.906 23.8261C9.63864 23.9153 9.37892 24.0293 9.13168 24.1683C8.7704 24.3714 8.42828 24.6282 8.11875 24.9378C7.21507 25.8414 6.76275 27.0259 6.76275 28.2104C6.76275 29.3948 7.21507 30.5783 8.11875 31.482L7.42591 32.1749C6.33153 31.0795 5.78433 29.644 5.78433 28.2104C5.78433 26.7758 6.33153 25.3403 7.42591 24.2449C7.79869 23.8731 8.21268 23.5617 8.6535 23.3163C8.95249 23.1496 9.26201 23.0116 9.57729 22.9033C9.50637 22.6704 9.44313 22.4356 9.38851 22.1989C9.00711 22.3245 8.63625 22.4884 8.28168 22.6886C7.79198 22.9646 7.33199 23.3125 6.91321 23.7322C5.67701 24.9684 5.0589 26.5889 5.0589 28.2104C5.0589 29.8309 5.67701 31.4513 6.91321 32.6895L6.91225 32.6904C8.14846 33.9257 9.76991 34.5438 11.3904 34.5438C13.0109 34.5438 14.6323 33.9257 15.8685 32.6895C17.1047 31.4533 17.7248 29.8309 17.7248 28.2104C17.7248 26.5908 17.1067 24.9684 15.8685 23.7322L15.8714 23.7294L16.5614 23.0394C17.9883 24.4672 18.7022 26.3379 18.7022 28.2104C18.7022 30.0819 17.9883 31.9525 16.5614 33.3823C15.1335 34.8092 13.2629 35.5232 11.3904 35.5232C9.51883 35.5232 7.64822 34.8092 6.21844 33.3823L6.2194 33.3814C4.79249 31.9535 4.07855 30.081 4.07855 28.2104C4.07855 26.3398 4.7925 24.4672 6.22037 23.0394C6.70144 22.5593 7.23521 22.1587 7.80253 21.8386C8.25388 21.5847 8.72632 21.3815 9.21026 21.2311C9.17672 20.9848 9.1518 20.7385 9.13455 20.4913C8.58832 20.6503 8.0555 20.8688 7.5476 21.1439C6.88733 21.5042 6.26636 21.9632 5.70671 22.5229C4.13701 24.0954 3.35313 26.1529 3.35313 28.2094C3.35313 30.2669 4.13797 32.3234 5.70671 33.8941L5.01483 34.586C3.25443 32.8265 2.37374 30.518 2.37374 28.2094C2.37374 25.9009 3.25443 23.5923 5.01483 21.8319C5.64156 21.2062 6.33919 20.6915 7.08187 20.2881C7.7316 19.9345 8.41487 19.6662 9.11443 19.4841C9.12114 19.2301 9.13648 18.9752 9.1614 18.7222C8.39763 18.9005 7.65206 19.1726 6.94196 19.5358C6.06703 19.9853 5.24194 20.5794 4.50117 21.3202C2.59799 23.2234 1.64736 25.7169 1.64736 28.2104C1.64736 30.7039 2.5999 33.1974 4.50021 35.1006L4.50117 35.0996C6.40436 37.0028 8.89786 37.9534 11.3914 37.9534C13.8849 37.9534 16.3793 37.0009 18.2815 35.0996C20.1847 33.1964 21.1373 30.7029 21.1373 28.2094C21.1373 25.7159 20.1847 23.2215 18.2815 21.3192L18.9744 20.6264C19.2111 20.865 19.5225 20.9829 19.834 20.9829C20.1454 20.9829 20.4569 20.865 20.6936 20.6273C20.9322 20.3897 21.0501 20.0782 21.0501 19.7677C21.0501 19.4601 20.9351 19.1525 20.7032 18.9168L20.6936 18.9072C20.4569 18.6686 20.1454 18.5507 19.834 18.5507C19.5225 18.5507 19.2111 18.6686 18.9744 18.9062C18.7358 19.1439 18.6179 19.4553 18.6179 19.7658C18.6179 20.0763 18.7358 20.3878 18.9725 20.6254L18.2806 21.3173C17.8532 20.889 17.6395 20.3264 17.6395 19.7668C17.6395 19.2052 17.8532 18.6427 18.2815 18.2143C18.7099 17.7869 19.2734 17.5723 19.834 17.5723C20.3955 17.5723 20.9581 17.7869 21.3864 18.2143L21.3874 18.2163L21.396 18.2249C23.2982 20.1214 25.7869 21.0682 28.2766 21.0682C30.7701 21.0682 33.2636 20.1175 35.1668 18.2143C37.07 16.3121 38.0206 13.8177 38.0206 11.3242C38.0206 8.83066 37.0681 6.33716 35.1678 4.43493L35.1668 4.43589C33.2636 2.5327 30.7701 1.58207 28.2766 1.58207C25.7831 1.58207 23.2887 2.53366 21.3864 4.43589C20.6466 5.17474 20.0515 6.00175 19.6021 6.87572C19.2389 7.58582 18.9667 8.33042 18.7875 9.09419C19.0415 9.06927 19.2954 9.05394 19.5503 9.04723C19.7324 8.34768 20.0007 7.66536 20.3534 7.01563C20.7578 6.27295 21.2724 5.57627 21.8991 4.9505C23.6576 3.18818 25.9681 2.3075 28.2747 2.3075C30.5833 2.3075 32.8918 3.18818 34.6522 4.94858L34.6531 4.94762C36.4135 6.70706 37.2942 9.01561 37.2942 11.3242C37.2942 13.6308 36.4135 15.9412 34.6531 17.7016C32.8937 19.4611 30.5852 20.3427 28.2766 20.3427C25.97 20.3427 23.6614 19.4611 21.8991 17.7016L22.592 17.0088C24.1626 18.5795 26.2182 19.3624 28.2766 19.3624C30.3331 19.3624 32.3906 18.5775 33.9593 17.0088C35.53 15.4381 36.3148 13.3826 36.3148 11.3242C36.3148 9.26669 35.53 7.21017 33.9613 5.63952L33.9593 5.64143C32.3887 4.07078 30.3331 3.28785 28.2747 3.28785C26.2172 3.28785 24.1588 4.07269 22.5901 5.64143C22.0285 6.20012 21.5685 6.8211 21.2101 7.48233C20.9341 7.98927 20.7166 8.52112 20.5575 9.06736C20.8047 9.08461 21.052 9.10952 21.2983 9.14306C21.4497 8.66008 21.6519 8.18859 21.9068 7.73723C22.2259 7.168 22.6265 6.63423 23.1066 6.15508C24.5345 4.72721 26.407 4.01328 28.2776 4.01328C30.1482 4.01328 32.0197 4.72625 33.4476 6.15316C34.8755 7.58103 35.5894 9.45164 35.5894 11.3242C35.5894 13.1957 34.8755 15.0663 33.4476 16.4951C32.0197 17.923 30.1491 18.6369 28.2766 18.6369C26.4051 18.6369 24.5345 17.923 23.1056 16.4951L23.1066 16.4942C22.2029 15.5905 21.0185 15.1382 19.8359 15.1382C18.6505 15.1382 17.466 15.5905 16.5643 16.4942C15.6606 17.3979 15.2083 18.5823 15.2083 19.7649C15.2083 20.9503 15.6606 22.1347 16.5643 23.0365L15.8714 23.7294L15.8685 23.7322C14.7732 22.6369 14.227 21.2023 14.227 19.7668C14.227 18.3312 14.7751 16.8967 15.8685 15.8013C16.9639 14.707 18.3984 14.1598 19.834 14.1598C21.2695 14.1598 22.7041 14.7079 23.7994 15.8013L23.7975 15.8033C25.0337 17.0395 26.6561 17.6585 28.2766 17.6585C29.8971 17.6585 31.5176 17.0395 32.7548 15.8033C33.991 14.567 34.6091 12.9446 34.6091 11.3242C34.6091 9.70463 33.9919 8.0851 32.7567 6.84697C31.5204 5.61076 29.9 4.99266 28.2776 4.99266C26.6571 4.99266 25.0366 5.61076 23.7994 6.84697C23.3797 7.26479 23.0328 7.72669 22.7578 8.21543C22.5565 8.56904 22.3917 8.94086 22.2661 9.3213C22.5028 9.37593 22.7376 9.43917 22.9714 9.51009C23.0788 9.19577 23.2158 8.88815 23.3816 8.59108C23.6279 8.14739 23.9393 7.73244 24.3112 7.36062C25.4065 6.26529 26.8411 5.71906 28.2766 5.71906C29.7112 5.71906 31.1467 6.26529 32.2402 7.36062C33.3355 8.455 33.8817 9.89054 33.8817 11.3242C33.8817 12.7597 33.3355 14.1943 32.2402 15.2896C31.1448 16.3849 29.7102 16.9312 28.2766 16.9312C26.842 16.9312 25.4065 16.383 24.3121 15.2906L24.3112 15.2915C23.075 14.0553 21.4525 13.4372 19.8321 13.4372C18.2116 13.4372 16.5911 14.0553 15.3549 15.2915C14.1187 16.5287 13.4996 18.1492 13.4996 19.7697C13.4996 21.3901 14.1177 23.0106 15.3539 24.2468L14.663 24.9378C13.2351 23.5109 12.5212 21.6393 12.5212 19.7687C12.5212 17.8971 13.2351 16.0265 14.663 14.5987C16.0909 13.1708 17.9634 12.4578 19.834 12.4578C21.7046 12.4578 23.5752 13.1708 25.0031 14.5977L25.004 14.5968C25.9077 15.5004 27.0922 15.9518 28.2766 15.9518C29.4611 15.9518 30.6455 15.4995 31.5473 14.5968C32.451 13.6931 32.9043 12.5086 32.9043 11.3242C32.9043 10.1397 32.451 8.95524 31.5483 8.05347H31.5473C30.6446 7.1498 29.4592 6.69652 28.2766 6.69652C27.0922 6.69652 25.9077 7.1498 25.004 8.05347C24.6935 8.36301 24.4367 8.70416 24.2354 9.06736C24.0965 9.31364 23.9815 9.57142 23.8924 9.83783C24.1176 9.92983 24.3409 10.0305 24.5613 10.1387C24.6207 9.95283 24.6935 9.77171 24.7807 9.59634C24.9638 9.22548 25.2101 8.87762 25.5196 8.56808C26.2805 7.80528 27.279 7.42387 28.2766 7.42387C29.2723 7.42387 30.2708 7.80528 31.0327 8.56808L31.0337 8.56713C31.7955 9.32898 32.1779 10.3285 32.1779 11.3242C32.1779 12.3217 31.7964 13.3213 31.0356 14.0821C30.2747 14.843 29.2761 15.2244 28.2776 15.2244C27.28 15.2244 26.2805 14.843 25.5196 14.0821L26.2124 13.3893C26.7836 13.9604 27.5311 14.246 28.2776 14.246C29.0251 14.246 29.7735 13.9604 30.3437 13.3912C30.9148 12.8201 31.2004 12.0726 31.2004 11.3242C31.2004 10.5757 30.9148 9.82729 30.3465 9.25902L30.8161 8.78657L30.3417 9.2571C29.7735 8.68787 29.025 8.40421 28.2766 8.40421C27.5291 8.40421 26.7807 8.68883 26.2115 9.25902C25.9767 9.48997 25.7936 9.74966 25.6566 10.0276C25.5617 10.2192 25.4889 10.4186 25.4391 10.6217C25.6624 10.7597 25.8828 10.9054 26.0974 11.0606C26.154 10.5901 26.3629 10.133 26.7242 9.77171C27.1525 9.34431 27.7141 9.12965 28.2766 9.12965C28.8382 9.12965 29.4007 9.34431 29.8281 9.77171C30.2564 10.2001 30.4711 10.7626 30.4711 11.3242C30.4711 11.8867 30.2564 12.4482 29.8281 12.8766C29.4007 13.305 28.8382 13.5187 28.2766 13.5187C27.7141 13.5187 27.1525 13.305 26.7242 12.8766L26.7203 12.8718C24.8181 10.9725 22.3256 10.0228 19.834 10.0228C17.3424 10.0228 14.8518 10.9734 12.9496 12.8709C12.9476 12.8728 12.9457 12.8747 12.9438 12.8766ZM31.0337 8.56713L31.0346 8.56616H31.0327L31.0337 8.56713ZM20.0975 21.945C20.2528 22.1616 20.3994 22.382 20.5374 22.6072C20.7405 22.5564 20.9389 22.4845 21.1306 22.3897C21.4056 22.2545 21.6672 22.0696 21.8991 21.8348C22.1329 21.601 22.3189 21.3413 22.454 21.0672C22.5489 20.8746 22.6217 20.6743 22.6725 20.4692C22.4482 20.3322 22.2278 20.1856 22.0131 20.0303C21.9566 20.5008 21.7477 20.9579 21.3864 21.3192C21.0251 21.6795 20.568 21.8885 20.0975 21.945ZM23.3299 21.4965C23.418 21.3202 23.4918 21.1391 23.5503 20.9532C23.7707 21.0615 23.993 21.1611 24.2182 21.2531C24.1291 21.5195 24.0141 21.7792 23.8751 22.0284C23.6749 22.3868 23.418 22.7279 23.1066 23.0394C22.7951 23.3508 22.454 23.6076 22.0937 23.8079C21.8455 23.9469 21.5858 24.0619 21.3203 24.151C21.2283 23.9258 21.1277 23.7025 21.0204 23.4831C21.2053 23.4237 21.3864 23.3508 21.5618 23.2646C21.9355 23.0787 22.2853 22.8334 22.592 22.5267C22.8986 22.2181 23.1449 21.8702 23.3299 21.4965ZM21.6481 25.0729C21.719 25.3067 21.7822 25.5415 21.8368 25.7782C22.2182 25.6517 22.5891 25.4888 22.9446 25.2885C23.4286 25.0154 23.8905 24.6675 24.3131 24.2459C24.7347 23.8233 25.0826 23.3614 25.3557 22.8774C25.5569 22.5229 25.7199 22.151 25.8454 21.7696C25.6087 21.715 25.373 21.6518 25.1391 21.5809C25.0318 21.8971 24.8948 22.2057 24.729 22.5037C24.4798 22.9464 24.1703 23.3614 23.7994 23.7322C23.4286 24.1021 23.0146 24.4126 22.5709 24.6599C22.2738 24.8276 21.9643 24.9646 21.6481 25.0729ZM26.2038 23.3556C26.4587 22.9043 26.6609 22.4318 26.8123 21.9479C27.0577 21.9814 27.3049 22.0073 27.5521 22.0236C27.393 22.5708 27.1746 23.1026 26.8986 23.6105C26.5402 24.2698 26.0802 24.8927 25.5196 25.4524C24.9599 26.012 24.337 26.472 23.6777 26.8314C23.1689 27.1074 22.637 27.3249 22.0908 27.484C22.0745 27.2377 22.0486 26.9914 22.0151 26.7461C22.499 26.5947 22.9705 26.3925 23.4209 26.1376C23.9921 25.8156 24.5249 25.4169 25.004 24.9378C25.4822 24.4596 25.8818 23.9268 26.2038 23.3556ZM22.1109 28.4931C22.1042 28.748 22.0889 29.0019 22.0639 29.2559C22.8277 29.0767 23.5733 28.8045 24.2834 28.4413C25.1602 27.9938 25.9844 27.3977 26.7242 26.657C27.464 25.9172 28.0591 25.093 28.5085 24.2162C28.8736 23.5061 29.1448 22.7605 29.3231 21.9967C29.0691 22.0217 28.8152 22.037 28.5603 22.0437C28.3782 22.7433 28.1099 23.4275 27.7553 24.0772C27.3518 24.8199 26.8363 25.5166 26.2115 26.1424L26.2096 26.1443C25.5838 26.7691 24.8871 27.2847 24.1444 27.6881C23.4947 28.0417 22.8105 28.311 22.1109 28.4931ZM33.3661 20.7663C33.6 20.6398 33.829 20.5047 34.0552 20.3609C34.2094 20.474 34.359 20.5909 34.5027 20.7117C34.7202 20.8918 34.9416 21.0959 35.1668 21.3202C37.0681 23.2234 38.0206 25.7169 38.0206 28.2113C38.0206 30.7048 37.07 33.1983 35.1668 35.1015L35.1649 35.0996C33.2626 37.0009 30.7682 37.9534 28.2747 37.9534C25.7812 37.9534 23.2877 37.0028 21.3845 35.0996C21.1603 34.8734 20.9562 34.6521 20.777 34.4365C20.6543 34.2889 20.5374 34.1403 20.4262 33.9899C20.5709 33.7637 20.707 33.5337 20.8325 33.299C20.9034 33.4024 20.9763 33.504 21.052 33.6056C21.3088 33.9487 21.5925 34.2764 21.8991 34.586C23.6595 36.3464 25.97 37.227 28.2766 37.227C30.5852 37.227 32.8937 36.3464 34.6531 34.586C36.4126 32.8256 37.2933 30.516 37.2933 28.2094C37.2933 25.9009 36.4126 23.5923 34.6522 21.8319C34.3484 21.5281 34.0197 21.2464 33.6709 20.9848C33.5703 20.9091 33.4687 20.8362 33.3661 20.7663ZM32.3216 21.2589C32.0121 21.3844 31.6987 21.4946 31.3815 21.5904C31.5444 21.6671 31.7054 21.7505 31.8635 21.8396C32.4328 22.1587 32.9665 22.5593 33.4457 23.0394C34.8736 24.4672 35.5875 26.3379 35.5875 28.2104C35.5875 30.081 34.8745 31.9516 33.4476 33.3804C32.0197 34.8083 30.1491 35.5213 28.2766 35.5213C26.4051 35.5213 24.5345 34.8083 23.1056 33.3804C22.6303 32.9051 22.2307 32.3732 21.9087 31.804C21.8177 31.644 21.7343 31.482 21.6567 31.3172C21.5609 31.6334 21.4506 31.9468 21.3251 32.2554C21.4784 32.5179 21.648 32.7738 21.833 33.0201C22.0592 33.3229 22.3112 33.6161 22.5901 33.8941C24.1626 35.4638 26.2201 36.2476 28.2766 36.2476C30.3341 36.2476 32.3896 35.4628 33.9603 33.895L33.9593 33.8941C35.53 32.3234 36.3139 30.2669 36.3139 28.2094C36.3139 26.1519 35.5281 24.0935 33.9593 22.5248C33.6757 22.2411 33.3834 21.9872 33.0863 21.7639C32.8401 21.5799 32.5842 21.4112 32.3216 21.2589ZM30.0888 22.9033C30.1597 22.6695 30.2229 22.4347 30.2776 22.198C30.659 22.3245 31.0308 22.4884 31.3853 22.6906C31.8741 22.9646 32.336 23.3125 32.7538 23.7322C33.99 24.9684 34.6081 26.5899 34.6081 28.2104C34.6081 29.8299 33.991 31.4513 32.7557 32.6866H32.7548C31.5176 33.9228 29.8971 34.5409 28.2766 34.5409C26.6561 34.5409 25.0337 33.9228 23.7975 32.6866C23.3768 32.2669 23.0309 31.8088 22.7578 31.3258C22.5556 30.9684 22.3917 30.5956 22.2642 30.2113C22.5019 30.1567 22.7367 30.0934 22.9705 30.0216C23.0798 30.3426 23.2177 30.655 23.3845 30.9521C23.6308 31.391 23.9403 31.804 24.3112 32.1749C25.4065 33.2692 26.8411 33.8164 28.2766 33.8164C29.7102 33.8164 31.1448 33.2692 32.2402 32.1749L31.5473 31.482C30.6455 32.3857 29.4611 32.838 28.2766 32.838C27.0922 32.838 25.9077 32.3857 25.004 31.482C24.6954 31.1734 24.4405 30.8332 24.2383 30.4739C24.0965 30.2218 23.9815 29.9602 23.8914 29.6948C24.1166 29.6018 24.3399 29.5022 24.5603 29.3939C24.6197 29.5807 24.6935 29.7647 24.7817 29.942C24.9657 30.3138 25.212 30.6617 25.5196 30.9674C26.2824 31.7283 27.28 32.1097 28.2766 32.1097C29.2742 32.1097 30.2728 31.7283 31.0337 30.9684H31.0346C31.7955 30.2075 32.1769 29.2089 32.1769 28.2104C32.1769 27.2147 31.7955 26.2171 31.0346 25.4524C30.7279 25.1457 30.3801 24.9004 30.0063 24.7145C29.8291 24.6273 29.647 24.5535 29.4601 24.4941C29.5684 24.2737 29.6681 24.0504 29.761 23.8242C30.0284 23.9133 30.2881 24.0284 30.5363 24.1683C30.8976 24.3705 31.2397 24.6263 31.5492 24.9368C32.4529 25.8405 32.9052 27.025 32.9052 28.2094C32.9052 29.392 32.4529 30.5774 31.5492 31.4811L32.2421 32.1729C33.3364 31.0795 33.8836 29.6449 33.8836 28.2094C33.8836 26.7739 33.3364 25.3393 32.2421 24.244C31.8683 23.8721 31.4553 23.5607 31.0116 23.3144C30.7126 23.1486 30.404 23.0106 30.0888 22.9033ZM31.1966 28.2104C31.1966 28.9579 30.9129 29.7044 30.3427 30.2755L30.3417 30.2745C29.7725 30.8438 29.0241 31.1294 28.2766 31.1294C27.5291 31.1294 26.7807 30.8457 26.2115 30.2745C25.9786 30.0426 25.7937 29.7829 25.6585 29.5089C25.5627 29.3172 25.4889 29.116 25.4391 28.9109C25.6624 28.7748 25.8818 28.6291 26.0965 28.4739C26.153 28.9454 26.3619 29.4015 26.7261 29.7628C27.1544 30.1912 27.716 30.4058 28.2766 30.4058C28.8372 30.4058 29.3988 30.1912 29.8272 29.7628H29.8252L29.1372 29.0709C28.8995 29.3086 28.5881 29.4274 28.2747 29.4274C27.9633 29.4274 27.6509 29.3086 27.4151 29.0709C27.1765 28.8333 27.0586 28.5218 27.0586 28.2113C27.0586 27.9152 27.166 27.6191 27.3816 27.3862L27.417 27.3508L27.4525 27.3153C27.6844 27.0997 27.9805 26.9924 28.2766 26.9924C28.5881 26.9924 28.8995 27.1112 29.1362 27.3498C29.3748 27.5865 29.4927 27.898 29.4927 28.2094C29.4927 28.5209 29.3729 28.8323 29.1362 29.069L29.8281 29.7619C30.2564 29.3335 30.4711 28.771 30.4711 28.2094C30.4711 27.6478 30.2564 27.0853 29.8281 26.657C29.4668 26.2957 29.0097 26.0868 28.5382 26.0302C28.6935 25.8156 28.8391 25.5961 28.9762 25.3729C29.1803 25.4227 29.3806 25.4955 29.5732 25.5913C29.8482 25.7274 30.1079 25.9114 30.3437 26.1452C30.911 26.7135 31.1966 27.4619 31.1966 28.2104ZM27.4103 12.177L27.417 12.1837C27.6537 12.4224 27.9652 12.5412 28.2766 12.5412C28.5881 12.5412 28.8995 12.4224 29.1362 12.1837C29.3729 11.947 29.4927 11.6356 29.4927 11.3242C29.4927 11.0127 29.3748 10.7013 29.1362 10.4646C28.8995 10.2279 28.5881 10.1081 28.2766 10.1081C27.9652 10.1081 27.6537 10.2259 27.417 10.4646C27.1784 10.7013 27.0596 11.0127 27.0596 11.3242C27.0596 11.6327 27.1765 11.9413 27.4103 12.177ZM17.076 22.5229C16.3151 21.762 15.9337 20.7644 15.9337 19.7668C15.9337 18.7692 16.3151 17.7726 17.076 17.0107C17.8369 16.246 18.8364 15.8655 19.834 15.8655C20.8316 15.8655 21.8311 16.246 22.592 17.0069L21.8991 17.6997C21.3299 17.1286 20.5815 16.8449 19.834 16.8449C19.0865 16.8449 18.3381 17.1305 17.7688 17.6997C17.1977 18.269 16.9131 19.0184 16.9131 19.7649C16.9131 20.5143 17.1987 21.2627 17.7688 21.8338L17.076 22.5219V22.5229ZM17.7688 21.8338V21.8319C19.5283 23.5942 20.4099 25.9009 20.4099 28.2094C20.4099 30.516 19.5283 32.8246 17.7688 34.586C16.0084 36.3464 13.6999 37.227 11.3914 37.227C9.08473 37.227 6.77427 36.3464 5.01483 34.586L5.70671 33.8941C7.27737 35.4638 9.33389 36.2476 11.3914 36.2476C13.4498 36.2476 15.5073 35.4628 17.076 33.8941C18.6467 32.3234 19.4296 30.2669 19.4296 28.2094C19.4296 26.1529 18.6447 24.0954 17.076 22.5267L17.7688 21.8338ZM16.9974 28.2113C16.9974 26.7758 16.4502 25.3403 15.3549 24.2459L14.663 24.9378C15.5648 25.8414 16.0171 27.0259 16.0171 28.2113C16.0171 29.3939 15.5667 30.5783 14.663 31.482C13.7593 32.3857 12.5749 32.838 11.3904 32.838C10.2069 32.838 9.02243 32.3857 8.11875 31.482L7.42591 32.1749C8.51933 33.2692 9.95486 33.8164 11.3904 33.8164C12.825 33.8164 14.2605 33.2692 15.3549 32.1749C16.4502 31.0814 16.9974 29.6459 16.9974 28.2113Z" fill="black" fill-opacity="0.6"></path>
</svg><style>@media (prefers-color-scheme: light) { :root { filter: none; } }
@media (prefers-color-scheme: dark) { :root { filter: contrast(0.425531914893617) brightness(4); } }
</style></svg>