<?xml version="1.0" standalone="no"?>
<!DOCTYPE svg PUBLIC "-//W3C//DTD SVG 20010904//EN"
 "http://www.w3.org/TR/2001/REC-SVG-20010904/DTD/svg10.dtd">
<svg version="1.0" xmlns="http://www.w3.org/2000/svg"
 width="700.000000pt" height="700.000000pt" viewBox="0 0 700.000000 700.000000"
 preserveAspectRatio="xMidYMid meet">
<metadata>
Created by potrace 1.14, written by Peter Selinger 2001-2017
</metadata>
<g transform="translate(0.000000,700.000000) scale(0.100000,-0.100000)"
fill="#000000" stroke="none">
<path d="M1858 6885 c-2 -1 -27 -6 -57 -9 -189 -23 -408 -87 -591 -174 -483
-231 -865 -682 -1013 -1198 -26 -89 -28 -100 -46 -204 -6 -30 -13 -71 -16 -90
-11 -59 -14 -371 -4 -445 28 -226 73 -392 153 -575 112 -255 307 -515 518
-691 l57 -47 -37 -28 c-60 -46 -224 -213 -287 -293 -209 -266 -351 -600 -398
-941 -15 -104 -16 -421 -3 -500 26 -149 53 -262 87 -365 173 -520 577 -955
1079 -1162 239 -98 442 -141 698 -148 583 -16 1120 224 1514 677 l50 56 55
-65 c111 -131 261 -263 409 -359 196 -128 475 -240 694 -278 19 -3 46 -8 59
-11 69 -13 183 -20 326 -19 827 6 1568 562 1809 1356 19 62 37 130 40 152 4
21 8 41 10 45 2 3 7 30 11 60 4 30 9 63 12 75 9 35 11 393 3 439 -4 23 -10 62
-14 87 -27 217 -131 502 -256 705 -101 165 -271 364 -409 478 l-45 37 75 68
c206 186 343 366 459 600 71 143 136 328 155 441 3 19 7 37 9 40 2 3 7 31 11
61 4 30 11 82 15 115 8 65 6 417 -2 431 -3 5 -9 31 -12 58 -41 302 -189 641
-395 901 -250 316 -610 553 -1001 659 -179 48 -324 65 -540 61 -107 -1 -206
-5 -220 -8 -23 -5 -52 -10 -120 -22 -61 -10 -223 -57 -306 -88 -307 -118 -585
-315 -797 -567 l-38 -45 -42 50 c-305 363 -738 602 -1212 669 -84 12 -436 21
-447 11z m371 -179 c323 -36 613 -151 870 -345 84 -62 246 -219 311 -299 40
-50 42 -54 28 -80 -25 -48 -53 -92 -59 -92 -3 0 -26 29 -52 64 -25 34 -86 103
-134 151 -349 350 -820 519 -1318 472 -154 -15 -356 -70 -501 -137 -522 -241
-884 -744 -939 -1304 -11 -117 -6 -339 10 -416 3 -14 8 -38 10 -55 43 -239
164 -506 323 -705 85 -107 261 -271 337 -316 16 -9 11 -15 -44 -48 l-62 -38
-56 44 c-125 96 -285 274 -381 423 -77 120 -175 330 -202 435 -48 186 -49 196
-65 345 -43 428 76 852 343 1215 74 100 268 291 370 364 273 194 582 304 922
329 55 4 230 0 289 -7z m3039 -1 c142 -17 215 -33 364 -81 639 -207 1126 -819
1184 -1489 53 -618 -202 -1195 -691 -1565 -186 -140 -453 -266 -650 -305 -16
-3 -66 -13 -110 -22 -58 -12 -138 -17 -290 -17 -180 0 -226 3 -323 22 -339 68
-635 220 -886 456 -161 151 -326 182 -493 91 -131 -72 -205 -197 -204 -347 0
-123 33 -185 185 -355 92 -104 206 -273 265 -395 34 -71 96 -231 105 -273 2
-5 8 -28 14 -50 6 -22 14 -53 16 -70 3 -16 8 -41 11 -54 35 -179 35 -452 0
-631 -3 -14 -7 -34 -9 -45 -60 -312 -238 -636 -486 -883 -244 -243 -591 -424
-920 -477 -25 -4 -54 -10 -65 -12 -11 -3 -108 -7 -215 -8 -253 -4 -416 22
-630 102 -506 188 -895 594 -1060 1105 -92 284 -108 629 -44 908 9 36 18 75
20 87 18 91 134 354 207 469 94 149 236 311 360 411 40 32 74 60 77 63 20 20
141 96 220 138 114 61 226 107 338 138 87 24 86 24 82 -31 -1 -16 -3 -41 -4
-54 -1 -22 -13 -29 -106 -61 -178 -62 -321 -136 -450 -234 -357 -269 -580
-651 -640 -1096 -11 -80 -15 -322 -6 -365 2 -11 7 -45 11 -75 9 -76 48 -230
80 -320 154 -428 509 -788 940 -954 80 -30 234 -72 335 -91 57 -11 391 -15
440 -5 25 5 65 11 90 15 184 26 433 126 606 242 716 481 937 1415 510 2158
-51 89 -158 233 -232 310 -175 184 -222 388 -138 595 33 80 62 120 132 187
133 125 340 171 513 113 87 -29 133 -59 220 -138 167 -151 273 -225 434 -302
148 -71 332 -127 480 -147 77 -10 362 -10 439 0 352 47 696 223 945 482 252
263 400 580 447 960 6 50 5 289 -1 341 -72 567 -406 1036 -910 1279 -227 109
-427 155 -690 159 -118 2 -178 -4 -383 -40 -50 -9 -238 -76 -315 -112 -287
-135 -535 -360 -699 -632 -66 -111 -109 -208 -170 -385 l-14 -39 -66 -4 -67
-3 20 73 c24 86 80 229 121 311 139 277 382 542 650 705 225 138 489 226 743
248 39 4 71 7 72 8 6 5 239 -2 291 -9z m-2938 -324 c338 -71 618 -241 834
-506 74 -91 68 -83 100 -137 l27 -47 -29 -82 -29 -83 -23 44 c-83 164 -272
378 -424 480 -156 104 -351 183 -526 213 -85 14 -346 16 -420 2 -73 -13 -224
-56 -288 -81 -190 -76 -422 -247 -530 -393 -15 -20 -30 -38 -33 -41 -12 -10
-78 -120 -113 -186 -58 -113 -106 -255 -121 -359 -3 -22 -8 -47 -11 -55 -3 -8
-7 -71 -9 -140 -3 -113 2 -186 19 -277 3 -18 8 -47 11 -64 8 -44 57 -182 94
-263 100 -219 315 -453 526 -571 109 -61 108 -53 14 -86 l-84 -29 -92 62 c-81
55 -240 204 -312 292 -35 43 -125 184 -154 241 -67 135 -130 339 -144 473 -14
127 -8 319 12 442 32 184 145 449 249 582 12 14 32 41 46 59 36 47 167 179
220 221 200 158 432 260 690 302 120 20 375 13 500 -13z m2946 16 c12 -3 39
-8 60 -11 343 -54 717 -295 923 -595 109 -159 218 -420 237 -569 28 -219 24
-410 -11 -562 -87 -371 -265 -633 -600 -888 -23 -17 -115 -69 -187 -104 -238
-117 -523 -165 -793 -132 -310 38 -577 162 -815 380 -192 175 -327 234 -537
234 -297 0 -558 -192 -660 -485 -24 -71 -27 -94 -27 -210 -1 -110 3 -141 22
-200 41 -123 94 -212 183 -305 123 -129 195 -231 267 -380 106 -217 147 -397
146 -635 0 -296 -78 -554 -241 -799 -87 -131 -264 -309 -391 -394 -310 -206
-684 -288 -1042 -228 -79 14 -99 19 -195 47 -303 91 -587 303 -769 574 -82
121 -181 343 -200 448 -2 15 -7 35 -10 45 -27 90 -40 350 -24 482 60 483 359
905 791 1118 82 40 227 96 233 89 2 -1 6 -31 10 -65 5 -55 4 -63 -12 -68 -182
-62 -370 -177 -503 -307 -214 -209 -335 -448 -387 -762 -10 -58 -12 -293 -3
-340 4 -22 10 -56 13 -75 16 -98 66 -248 118 -353 152 -306 446 -557 774 -660
143 -45 256 -61 419 -60 197 2 381 46 558 133 138 69 238 141 347 250 205 203
335 466 376 755 10 68 11 271 3 320 -4 22 -10 58 -13 80 -9 64 -50 204 -85
287 -61 146 -137 259 -282 418 -88 98 -98 112 -149 212 -63 122 -84 212 -85
353 0 146 7 193 45 298 107 292 360 497 670 543 190 28 415 -26 579 -139 25
-17 85 -68 135 -115 184 -170 392 -281 627 -336 117 -27 306 -38 407 -25 31 4
73 9 92 12 105 14 278 72 390 130 425 223 693 651 705 1127 1 69 -1 152 -6
185 -5 33 -12 76 -14 95 -9 59 -45 181 -78 260 -110 266 -314 496 -565 639
-41 22 -76 41 -78 41 -2 0 -27 11 -56 24 -78 35 -211 73 -313 90 -83 13 -320
15 -385 3 -14 -3 -41 -8 -60 -11 -182 -35 -359 -111 -520 -223 -98 -69 -276
-256 -337 -354 -45 -72 -102 -189 -142 -291 -10 -27 -12 -28 -73 -21 -35 3
-64 7 -66 8 -6 5 54 157 95 239 79 158 158 265 292 394 215 207 519 354 801
388 30 3 57 8 58 9 6 5 315 -2 338 -8z m-3100 -301 c311 -35 591 -199 786
-460 56 -75 140 -232 153 -286 6 -24 2 -26 -47 -38 -65 -15 -78 -15 -78 -1 0
5 -18 48 -41 95 -71 147 -171 268 -304 367 -144 107 -284 164 -475 193 -60 9
-232 6 -290 -6 -30 -6 -66 -13 -79 -16 -44 -9 -146 -47 -206 -77 -204 -102
-390 -299 -475 -504 -54 -130 -72 -215 -76 -363 -6 -238 51 -432 181 -615 103
-145 281 -289 424 -341 70 -26 70 -26 52 -94 -18 -71 -11 -71 -156 0 -329 160
-562 471 -623 833 -9 53 -9 295 0 362 14 110 68 265 132 379 159 284 448 493
778 562 13 2 59 7 103 11 44 3 81 6 82 7 4 3 104 -2 159 -8z m3127 -17 c426
-86 766 -411 873 -834 24 -95 28 -130 29 -255 0 -165 -5 -215 -34 -320 -83
-307 -288 -561 -574 -710 -90 -47 -223 -95 -296 -106 -20 -3 -54 -9 -77 -13
-68 -13 -234 -10 -325 5 -237 38 -428 134 -619 309 -222 205 -426 293 -692
300 -289 6 -537 -92 -739 -294 -270 -270 -361 -655 -243 -1026 47 -146 131
-279 265 -420 132 -138 224 -306 276 -504 32 -119 40 -349 17 -473 -98 -540
-567 -933 -1116 -936 -515 -2 -975 350 -1102 844 -26 104 -28 116 -31 269 -3
120 0 169 16 242 60 287 209 521 444 698 63 47 267 155 294 155 11 0 22 -19
33 -57 9 -32 16 -58 15 -59 -1 -1 -45 -22 -98 -47 -363 -173 -584 -526 -578
-922 2 -163 32 -290 102 -430 167 -339 493 -550 867 -561 338 -9 631 130 840
401 66 86 144 246 166 340 55 240 36 482 -54 675 -45 96 -120 205 -198 289
-224 239 -331 486 -338 780 -12 513 307 962 793 1115 46 15 98 29 115 31 17 3
56 9 86 14 133 22 349 0 501 -50 167 -55 289 -133 474 -302 125 -115 290 -202
462 -242 94 -23 278 -27 383 -8 419 72 734 378 821 796 25 122 20 325 -10 440
-75 283 -259 515 -513 645 -99 51 -129 62 -223 86 -90 22 -131 27 -235 27
-408 2 -768 -235 -931 -611 -17 -40 -33 -64 -41 -61 -7 2 -33 8 -58 15 -55 14
-55 24 -5 132 162 352 505 601 895 649 30 4 56 8 57 8 9 9 228 -8 306 -24z
m-3053 -307 c233 -62 430 -219 534 -428 55 -111 55 -107 -13 -136 l-58 -25
-23 53 c-104 252 -352 421 -630 429 -305 9 -584 -187 -679 -477 -114 -347 58
-725 394 -866 28 -11 50 -24 50 -29 0 -4 -11 -31 -24 -60 l-23 -52 -51 20
c-131 51 -290 181 -371 303 -289 436 -113 1025 369 1229 155 66 363 81 525 39z
m2975 13 c22 -4 73 -18 114 -31 293 -98 515 -363 558 -669 15 -107 2 -288 -27
-360 -4 -11 -20 -49 -34 -86 -76 -189 -248 -357 -447 -439 -292 -121 -645 -58
-874 155 -178 166 -301 248 -468 315 -70 28 -201 65 -262 74 -16 2 -50 8 -75
11 -76 13 -295 7 -377 -10 -330 -65 -599 -227 -802 -480 -137 -172 -243 -416
-267 -615 -3 -30 -8 -58 -10 -61 -6 -11 -5 -220 1 -279 18 -162 55 -283 135
-445 65 -131 126 -218 235 -335 39 -41 85 -95 102 -120 227 -332 186 -777 -97
-1060 -203 -203 -497 -287 -777 -220 -380 90 -648 438 -637 826 3 99 8 131 35
219 58 188 177 349 340 457 52 34 161 88 180 88 4 0 19 -26 34 -57 25 -55 23
-72 -9 -73 -5 0 -36 -14 -70 -31 -273 -139 -422 -437 -370 -741 87 -496 657
-743 1074 -464 161 107 282 298 306 481 28 217 -33 411 -181 576 -249 276
-385 543 -420 824 -3 28 -9 66 -11 85 -6 39 -6 232 0 270 2 14 7 50 10 80 36
277 189 581 401 795 143 145 373 292 550 350 441 145 915 83 1282 -167 85 -59
107 -77 206 -168 32 -30 76 -67 96 -82 39 -28 150 -86 179 -94 10 -2 44 -11
77 -19 167 -42 384 -2 540 100 53 34 146 128 187 188 204 299 144 714 -136
936 -290 231 -688 206 -945 -59 -54 -56 -112 -143 -141 -214 l-23 -54 -56 25
c-31 14 -57 26 -59 28 -7 7 44 114 85 178 157 246 421 389 708 381 55 -1 118
-5 140 -9z m-3051 -311 c91 -23 174 -71 241 -140 61 -62 117 -153 129 -210 6
-29 3 -33 -48 -67 -31 -20 -58 -37 -61 -37 -3 0 -5 9 -5 20 0 10 -9 44 -21 75
-29 78 -112 166 -197 207 -62 31 -74 33 -167 33 -93 0 -105 -2 -165 -32 -187
-92 -272 -295 -205 -490 36 -107 141 -206 254 -240 31 -9 58 -18 60 -20 2 -1
-12 -28 -33 -58 -42 -64 -48 -65 -156 -9 -130 68 -220 179 -258 322 -51 185
-2 373 132 507 68 68 176 129 256 144 73 14 178 12 244 -5z m3031 1 c135 -35
270 -141 333 -261 101 -193 70 -437 -75 -599 -61 -68 -194 -146 -275 -161
-111 -20 -251 -3 -342 43 -61 31 -77 43 -180 136 -44 40 -89 78 -100 86 -12 8
-23 18 -26 22 -13 17 -188 124 -267 163 -120 59 -267 111 -378 132 -11 2 -31
6 -45 9 -119 26 -433 27 -570 2 -105 -19 -113 -22 -250 -68 -576 -193 -1013
-736 -1078 -1337 -13 -124 -5 -433 12 -461 2 -3 7 -24 10 -46 26 -164 121
-398 228 -562 63 -97 119 -166 235 -289 149 -159 171 -438 49 -628 -40 -63
-134 -149 -195 -181 -137 -69 -319 -79 -447 -23 -158 68 -277 212 -311 376
-53 259 86 507 336 603 l49 18 35 -56 c39 -60 39 -73 3 -73 -13 0 -49 -13 -82
-30 -261 -130 -300 -481 -73 -660 199 -157 492 -88 600 144 66 141 37 320 -70
432 -241 253 -388 511 -465 816 -13 51 -27 117 -31 147 -4 30 -9 63 -12 75
-17 70 -10 363 11 489 95 561 440 1029 943 1281 156 78 354 144 491 162 26 3
70 10 97 14 56 9 390 5 445 -5 134 -25 280 -62 335 -85 11 -4 36 -14 55 -21
148 -53 366 -186 504 -307 154 -135 175 -150 231 -171 194 -73 402 11 492 197
34 70 37 85 38 162 0 99 -19 162 -69 233 -118 166 -345 216 -521 112 -63 -36
-140 -126 -164 -190 -12 -31 -21 -62 -21 -70 0 -8 -4 -16 -8 -19 -12 -7 -112
66 -112 82 0 8 16 48 36 90 63 130 186 232 329 273 76 22 193 24 270 4z
m-3072 -309 c46 -20 85 -60 108 -112 65 -146 -41 -304 -204 -304 -89 0 -184
76 -203 163 -40 179 132 324 299 253z m3024 3 c43 -14 98 -68 118 -116 43
-101 -3 -230 -100 -279 -45 -23 -133 -29 -175 -12 -124 52 -177 192 -115 306
55 101 156 139 272 101z m-1512 -1518 c78 -35 126 -104 131 -183 7 -130 -88
-231 -216 -231 -130 0 -226 106 -215 238 11 142 171 236 300 176z m392 -305
c38 -24 37 -28 -12 -131 -54 -113 -155 -204 -283 -254 l-51 -20 -33 47 c-19
26 -37 52 -41 59 -5 8 11 17 50 28 73 21 150 71 196 127 44 54 82 137 86 192
1 4 13 0 29 -10 15 -9 42 -27 59 -38z m2178 -84 c245 -213 421 -477 519 -775
30 -89 42 -137 61 -236 32 -168 36 -434 10 -572 -3 -13 -7 -40 -10 -61 -9 -59
-41 -176 -76 -274 -165 -469 -544 -856 -1019 -1039 -85 -33 -262 -83 -323 -91
-166 -21 -219 -25 -333 -23 -268 4 -517 65 -758 186 -218 110 -435 286 -575
467 l-42 55 33 60 c18 34 35 61 38 61 3 0 20 -23 38 -50 19 -27 70 -88 114
-135 142 -151 291 -261 473 -350 142 -69 264 -109 422 -139 172 -32 442 -31
602 3 690 146 1195 686 1292 1381 11 80 14 310 5 373 -4 20 -8 53 -11 73 -15
106 -64 292 -95 359 -147 323 -325 552 -558 714 l-34 24 59 33 c32 18 63 34
68 34 6 0 51 -35 100 -78z m-1878 -73 c8 -3 3 -23 -14 -64 -72 -171 -219 -327
-388 -413 -103 -53 -107 -52 -134 13 -13 31 -22 57 -20 59 2 1 45 22 94 46 74
36 106 60 176 130 73 73 94 101 134 183 l47 96 46 -23 c26 -13 52 -25 59 -27z
m1525 -43 c151 -96 310 -254 416 -412 88 -131 189 -373 207 -494 4 -24 8 -47
10 -50 17 -27 26 -310 14 -410 -42 -347 -187 -640 -435 -882 -163 -159 -352
-270 -572 -337 -91 -29 -113 -34 -187 -46 -329 -55 -679 8 -962 173 -194 114
-396 308 -502 484 l-23 38 29 79 c21 61 31 77 40 69 7 -6 13 -16 13 -23 0 -6
32 -61 72 -121 241 -365 649 -586 1083 -588 78 0 233 12 245 19 4 3 25 7 46
11 22 3 80 19 129 35 478 159 824 576 892 1075 12 94 7 301 -10 400 -68 383
-316 730 -654 916 -41 22 -72 42 -70 44 6 6 140 52 154 53 7 1 36 -14 65 -33z
m-1277 -40 c60 -15 60 -16 5 -133 -86 -184 -239 -360 -408 -471 -96 -62 -235
-127 -256 -119 -14 6 -40 102 -31 117 3 5 11 10 17 10 18 0 163 76 226 119
149 101 307 305 365 474 8 20 16 21 82 3z m354 -62 c8 -8 -42 -139 -91 -239
-143 -288 -372 -512 -671 -656 -56 -27 -109 -49 -118 -49 -8 0 -19 -4 -25 -9
-5 -5 -24 -12 -41 -16 -32 -6 -33 -6 -33 28 0 19 -3 48 -6 64 -6 28 -4 30 68
58 359 139 641 423 768 773 l23 62 61 -6 c34 -4 63 -8 65 -10z m321 -4 c0 -27
-77 -245 -116 -328 -200 -430 -580 -770 -1025 -916 -57 -19 -116 -37 -131 -40
-27 -6 -27 -6 -23 41 2 27 4 58 4 69 1 17 11 24 49 34 84 24 245 92 334 142
346 194 615 518 737 888 18 52 33 100 35 105 5 13 136 18 136 5z m305 -79
c401 -197 644 -583 643 -1021 0 -72 -7 -165 -15 -207 -88 -471 -455 -832 -932
-917 -120 -22 -334 -13 -452 17 -358 93 -639 330 -778 657 -17 40 -31 75 -31
79 0 6 107 41 125 41 3 0 5 -6 5 -13 0 -7 16 -46 36 -87 131 -275 367 -470
659 -546 113 -29 300 -40 395 -23 30 6 68 13 85 16 51 9 185 61 252 98 258
142 431 373 505 675 20 84 17 347 -6 435 -23 92 -31 113 -83 220 -100 208
-288 385 -511 481 -46 20 -61 31 -57 42 3 8 10 34 16 58 8 30 17 44 28 44 9 0
61 -22 116 -49z m-122 -281 c132 -68 237 -158 315 -272 226 -329 186 -773 -94
-1054 -115 -116 -272 -203 -414 -229 -239 -44 -453 -2 -641 126 -121 82 -229
210 -290 345 -16 35 -29 66 -29 69 0 10 114 55 121 48 3 -5 12 -25 19 -45 20
-64 104 -181 176 -247 84 -75 208 -146 269 -152 6 -1 17 -5 25 -9 8 -4 40 -11
70 -15 308 -41 604 116 734 388 49 103 68 185 68 302 1 280 -153 519 -410 637
-37 17 -68 32 -70 33 -7 5 51 115 61 115 7 0 47 -18 90 -40z m-132 -277 c184
-92 294 -282 285 -492 -19 -425 -520 -648 -851 -378 -82 66 -157 178 -170 252
-5 27 -1 33 46 63 29 18 55 29 59 25 4 -4 12 -26 18 -48 18 -65 73 -146 129
-191 196 -160 484 -98 597 127 77 154 49 332 -72 453 -47 48 -152 106 -190
106 -34 0 -34 17 0 69 22 34 40 51 54 51 12 0 54 -16 95 -37z m-3168 -274 c75
-38 115 -106 116 -194 1 -115 -95 -215 -206 -215 -130 0 -222 91 -223 220 0
160 171 264 313 189z m3020 7 c104 -43 157 -176 112 -282 -73 -176 -321 -179
-398 -4 -79 178 105 362 286 286z"/>
</g>
</svg>
