<svg xmlns="http://www.w3.org/2000/svg" xmlns:xlink="http://www.w3.org/1999/xlink" viewBox="0 0 464.24 359.04"><defs><style>.cls-1,.cls-28,.cls-31,.cls-33,.cls-34,.cls-35,.cls-37,.cls-38,.cls-41,.cls-42{fill:none;}.cls-2{fill:#f7c69b;}.cls-3{fill:#ffda99;}.cls-4{isolation:isolate;}.cls-5{clip-path:url(#clip-path);}.cls-6{opacity:0.09;}.cls-40,.cls-43,.cls-6{mix-blend-mode:color-burn;}.cls-7{fill:#fff2d6;}.cls-8{fill:#ffc339;}.cls-9{fill:#aa985b;}.cls-10{fill:#a9975b;}.cls-11{fill:#00437a;}.cls-12{fill:#1571cb;}.cls-13{fill:#3a7beb;}.cls-14{fill:#ff96cc;}.cls-15{fill:#88edea;}.cls-16{fill:#f14c0e;}.cls-17{fill:#622d15;}.cls-18{clip-path:url(#clip-path-2);}.cls-19{fill:#240115;}.cls-20{fill:#d73021;}.cls-21{fill:#f24c0e;}.cls-22{fill:#ff97cd;opacity:0.25;}.cls-23{fill:#6effff;}.cls-24{fill:#fff;}.cls-25{clip-path:url(#clip-path-3);}.cls-26{clip-path:url(#clip-path-4);}.cls-27{fill:#ffc239;}.cls-28{stroke:#a9975b;}.cls-28,.cls-31,.cls-33,.cls-34,.cls-35,.cls-37,.cls-38,.cls-41,.cls-42{stroke-miterlimit:10;}.cls-29{fill:#97faf5;}.cls-29,.cls-36{opacity:0.5;}.cls-30{fill:#2ec2b4;}.cls-31,.cls-37{stroke:#89eeeb;}.cls-31,.cls-34,.cls-38,.cls-41,.cls-42{stroke-width:2px;}.cls-32{fill:#fff3d7;}.cls-33{stroke:#fff;}.cls-34,.cls-35{stroke:#aa985b;}.cls-36{fill:#96f9f4;}.cls-38{stroke:#88edea;}.cls-39{clip-path:url(#clip-path-5);}.cls-40{opacity:0.43;}.cls-41{stroke:#3a7bec;}.cls-42{stroke:#d83021;}.cls-43{opacity:0.11;}</style><clipPath id="clip-path" transform="translate(29.08 30.18)"><rect class="cls-1" width="400" height="300"/></clipPath><clipPath id="clip-path-2" transform="translate(29.08 30.18)"><path class="cls-2" d="M221.4,141.71c-2.17-6.48-9.72-12.43-19.74-10-10.85,2.6-15.54,14.55-14.51,25.43,1.1,11.49.5,7.41-.49,15.93-3,26.41,20.84,26,26.11,21.9,4.74-3.64,7.27-6.77,9-22a2.74,2.74,0,0,0,3.06-2.9c0-3.06-2.5-3-2.5-3S224.45,150.83,221.4,141.71Z"/></clipPath><clipPath id="clip-path-3" transform="translate(29.08 30.18)"><polygon class="cls-3" points="133.29 135.92 79.22 123.17 81.04 65.29 135.06 102.69 133.29 135.92"/></clipPath><clipPath id="clip-path-4" transform="translate(29.08 30.18)"><path class="cls-1" d="M65.43,123.87l2-74.31c.06-2.29,2.43-3.84,4-2.6l67,53.17a2.51,2.51,0,0,1,.91,2.14l-1.92,37.12"/></clipPath><clipPath id="clip-path-5" transform="translate(29.08 30.18)"><path class="cls-1" d="M44.91,120.4c-9.32,0-7.53,9.89-7.53,9.89h13.2l10.71,6.17s4.27,6.77,14.89,9.93S99.8,143,99.8,143L61,132.38l-8.44-4.84S53.34,120.4,44.91,120.4Zm0,3.48c1.5,0,2.72.43,2.72,2.18s-1.22,2.18-2.72,2.18-2.73-.48-2.73-2.18S43.37,123.88,44.88,123.88Z"/></clipPath></defs><g class="cls-4"><g id="Layer_2" data-name="Layer 2"><g id="_1" data-name="1"><g class="cls-5"><g class="cls-6"/><polygon class="cls-7" points="154.48 218.49 108.3 229.2 108.33 223.97 154.48 214.09 154.48 218.49"/><polygon class="cls-8" points="156.81 226.08 111.55 238.08 111.57 232.91 156.82 221.71 156.81 226.08"/><polygon class="cls-9" points="151.51 264.72 103.91 284.39 103.94 279.04 151.51 260.24 151.51 264.72"/><polygon class="cls-9" points="159.49 242.62 128.57 253.01 128.59 248.12 159.5 238.29 159.49 242.62"/><polygon class="cls-7" points="158.44 252.41 107.65 271.43 107.67 266.16 158.44 248.05 158.44 252.41"/><polygon class="cls-9" points="171.95 247.35 161.48 251.27 161.49 246.97 171.95 243.24 171.95 247.35"/><polygon class="cls-9" points="156.8 235.16 139.78 240.3 139.79 235.62 156.81 230.79 156.8 235.16"/><polygon class="cls-7" points="170.48 231.03 164.94 232.7 164.94 228.48 170.49 226.9 170.48 231.03"/><polygon class="cls-7" points="134.84 241.79 93.16 254.38 93.19 248.87 134.85 237.03 134.84 241.79"/><polygon class="cls-9" points="121.05 255.53 99.58 262.75 99.61 257.34 121.07 250.51 121.05 255.53"/><polygon class="cls-3" points="351.86 86.59 330.83 86.59 353.62 59.07 383.29 59.07 351.86 86.59"/><polygon class="cls-10" points="368.13 70.05 347.15 70.05 350.42 66.25 372.35 66.25 368.13 70.05"/><polygon class="cls-10" points="359.48 76.75 342.6 76.75 345.4 73.54 363 73.54 359.48 76.75"/><path class="cls-11" d="M223.48,196.2s5.71,6.3,24.69,10.41,22.15,16.68,22.15,16.68l-1.73,6.6-4.45,1.55-4.48-1.9-3.68,2.1a5.26,5.26,0,0,1-5.1.06l-4-2.17-8.21,3.54L232,229.52l-7.62,3.54-6.24-3.56-7.08,3.55-6.56-3.56-5.35,2.68a3.76,3.76,0,0,1-3.44,0l-5-2.65L183.52,233l-6.93-3.55L170.05,233l-7.8-3.56-5.86,2.79-5.2-.8-2.84-4.32s-3.9-12.39,25.12-20.52c9.36-2.24,16.32-4.49,19.1-9.61Z" transform="translate(29.08 30.18)"/><ellipse class="cls-12" cx="251.63" cy="222.57" rx="2.88" ry="2.51"/><path class="cls-12" d="M224.42,191s2.84-5.08,10.9-3.52c5,.95,8.87,5.69,8.87,5.69s-3.52,3.59-11.92,1.76S224.42,191,224.42,191Z" transform="translate(29.08 30.18)"/><path class="cls-13" d="M218.53,186.86s.94-.5,1.76,3.7a10.8,10.8,0,0,0,4.13,6.43,21.38,21.38,0,0,1-19.78,8.4c-13-1.63-12.87-4.2-13.07-6.77a3,3,0,0,1,1.83-3.25s-4.2-2.1-2.71-4.81S218.53,186.86,218.53,186.86Z" transform="translate(29.08 30.18)"/><path class="cls-13" d="M224.42,191s2.3-4.13,10,0,9.75,7.39,9.75,7.39a12.41,12.41,0,0,1-11.37,1.49c-6.64-2.31-8-7.45-8-7.45Z" transform="translate(29.08 30.18)"/><path class="cls-14" d="M240.84,124.66l-.78-5.69-1.6,5.85a6.37,6.37,0,0,1-3.84,4.21l-2.74,1.06,2.62.68a4.37,4.37,0,0,1,3.28,3.71l.77,5.66,1.61-5.84a6.37,6.37,0,0,1,3.82-4.21l2.7-1.05-2.58-.67A4.37,4.37,0,0,1,240.84,124.66Z" transform="translate(29.08 30.18)"/><path class="cls-15" d="M170.25,165.25l-.4-9c0-.23-.34-.21-.39,0l-1.74,9.09a8.7,8.7,0,0,1-6.45,6.67l-5.17,1.18c-.21,0-.24.36,0,.38l5,.45a6,6,0,0,1,5.58,5.83l.45,9.14c0,.23.35.2.39,0l1.61-9.19a8.71,8.71,0,0,1,6.36-6.76l4.68-1.15c.22,0,.24-.35,0-.38l-4.41-.43A6,6,0,0,1,170.25,165.25Z" transform="translate(29.08 30.18)"/><path class="cls-10" d="M179.13,185l-.21-4.49c0-.11-.16-.1-.19,0l-.87,4.54a4.34,4.34,0,0,1-3.23,3.34l-2.58.59c-.11,0-.12.18,0,.19l2.51.22a3,3,0,0,1,2.79,2.92l.22,4.57c0,.12.17.1.19,0l.81-4.6a4.33,4.33,0,0,1,3.18-3.38l2.34-.58c.11,0,.12-.17,0-.19l-2.21-.21A3,3,0,0,1,179.13,185Z" transform="translate(29.08 30.18)"/><path class="cls-16" d="M242.89,162.32a.14.14,0,0,1,.27,0c.14,1.4.57,4.11,1.87,4.53,1.11.37,3.43-.12,4.9-.49a.14.14,0,0,1,.1.25c-1.3.77-3.19,2.16-3,3.79.18,1.39,2,2,3.14,2.18a.14.14,0,0,1,0,.28c-1.25.24-3.25.9-3.64,2.65a6.62,6.62,0,0,0,.71,4.22.14.14,0,0,1-.22.16c-1.12-1.16-3-2.89-4.42-2.83-1.67.07-3,1.9-3.6,3a.14.14,0,0,1-.26-.08c.2-1.3.32-3.52-1-4.26a6.45,6.45,0,0,0-4-.41.14.14,0,0,1-.1-.26c1.27-.75,3.62-2.34,3.68-3.86s-1-3.63-1.67-4.74a.14.14,0,0,1,.21-.18c.87.67,2.46,1.61,4,1S242.49,163.75,242.89,162.32Z" transform="translate(29.08 30.18)"/><path class="cls-12" d="M217.63,189.77c-9,14.15-24.23,5.6-24.23,5.6s-3.84-1.86-2.87-4.46Z" transform="translate(29.08 30.18)"/><ellipse class="cls-17" cx="248.75" cy="203.52" rx="12.21" ry="13.52"/><path class="cls-2" d="M221.4,141.71c-2.17-6.48-9.72-12.43-19.74-10-10.85,2.6-15.54,14.55-14.51,25.43,1.1,11.49.5,7.41-.49,15.93-3,26.41,20.84,26,26.11,21.9,4.74-3.64,7.27-6.77,9-22a2.74,2.74,0,0,0,3.06-2.9c0-3.06-2.5-3-2.5-3S224.45,150.83,221.4,141.71Z" transform="translate(29.08 30.18)"/><g class="cls-18"><path class="cls-17" d="M185.55,156.91s12.34-.74,16.36-5.42l3.71-15.78-.67,16h.15l1.73-14.21,1.73,14s9.66,4.16,17,1.57c0,0-.24-24.57-20-23.08S185.55,148.66,185.55,156.91Z" transform="translate(29.08 30.18)"/></g><path class="cls-19" d="M211.37,157.33h-.06a10.52,10.52,0,0,0-2.63,0h-.06a1.16,1.16,0,0,1-1.16-1.17h0a1.16,1.16,0,0,1,1.16-1.16h.06a10.52,10.52,0,0,1,2.63,0h.06a1.16,1.16,0,0,1,1.16,1.16h0A1.16,1.16,0,0,1,211.37,157.33Z" transform="translate(29.08 30.18)"/><path class="cls-19" d="M196.92,157.33h0a10.6,10.6,0,0,0-2.64,0h-.06a1.16,1.16,0,0,1-1.16-1.17h0a1.16,1.16,0,0,1,1.16-1.16h.06a10.6,10.6,0,0,1,2.64,0h0a1.16,1.16,0,0,1,1.17,1.16h0A1.17,1.17,0,0,1,196.92,157.33Z" transform="translate(29.08 30.18)"/><path class="cls-20" d="M195.12,177.71s-1.46-2.53,1.29-3a3.47,3.47,0,0,1,3.27,1.2,2.86,2.86,0,0,1,4-.34c1.37.94,1.09,2.87,3.52,1.92s-1.3,4-6.06,4.19C195.89,181.84,193.89,179.23,195.12,177.71Z" transform="translate(29.08 30.18)"/><path class="cls-17" d="M189.4,161.84a10,10,0,0,0,5.24.91c2.16-.16,2.49,1.38,3.15,1.31a1,1,0,0,0,.43-1.84c-.93-.71-2.42-1.38-5.08-1Z" transform="translate(29.08 30.18)"/><path class="cls-17" d="M215.16,161.84a10,10,0,0,1-5.24.91c-2.16-.16-2.49,1.38-3.16,1.31a1,1,0,0,1-.42-1.84c.92-.71,2.42-1.38,5.08-1Z" transform="translate(29.08 30.18)"/><path class="cls-21" d="M201.11,170.56a3.72,3.72,0,0,1,.8-.19.67.67,0,0,1,.68.35.82.82,0,0,1-.23.77,2.22,2.22,0,0,1-3.45-.17,1.16,1.16,0,0,1-.24-.61c0-.66.48-.57.86-.42A2.33,2.33,0,0,0,201.11,170.56Z" transform="translate(29.08 30.18)"/><path class="cls-19" d="M199.23,184.64a3.74,3.74,0,0,1,2.27.46,1.91,1.91,0,0,0,.59.25.47.47,0,0,0,.52-.27.54.54,0,0,0-.05-.37,2.22,2.22,0,0,0-1.76-1.11,4.76,4.76,0,0,0-3.15.64,1.83,1.83,0,0,0-1,1.24c-.1.82.66.15.87,0A3.19,3.19,0,0,1,199.23,184.64Z" transform="translate(29.08 30.18)"/><path class="cls-22" d="M197.37,151.48a11.83,11.83,0,0,1,.32-5.76,20.11,20.11,0,0,0-1.84,5.91,17.79,17.79,0,0,1,.37-4.65,34.51,34.51,0,0,0-1.67,5.16,11.22,11.22,0,0,1,.46-5.08,15.38,15.38,0,0,0-2,6l.11-5.27a31.06,31.06,0,0,0-2,6.25,9.56,9.56,0,0,1,.24-4.77,31.15,31.15,0,0,1,7.6-13.84,19.56,19.56,0,0,0-2.25,4.59,24,24,0,0,1,3.55-4.16,14.94,14.94,0,0,0-2.1,4.16q1.38-2.21,2.93-4.3l-1.5,4.22a10.3,10.3,0,0,1,3.5-4.4c.23.89-1,2.44-1.42,3.24-.66,1.34-1.26,2.7-1.79,4.09A50.46,50.46,0,0,0,197.37,151.48Z" transform="translate(29.08 30.18)"/><path class="cls-23" d="M212.53,132.4s8.74,11.22,8.89,34.43c0,0-.16,1.93.4,2s1-.62,1.87-.27c.7.27,1,1.33.85,3a3.61,3.61,0,0,0-.13-3.31,1.89,1.89,0,0,0-2.07-1.19s1.95-15.28-.68-24.51A15.47,15.47,0,0,0,212.53,132.4Z" transform="translate(29.08 30.18)"/><path class="cls-14" d="M203.07,178.4a.41.41,0,0,1,.4.11.34.34,0,0,1,0,.28,1.21,1.21,0,0,1-.6.56,4.39,4.39,0,0,1-2.82.21,1.91,1.91,0,0,1-.73-.28c-.21-.15-.5-.56-.26-.79s.95,0,1.15,0A25,25,0,0,0,203.07,178.4Z" transform="translate(29.08 30.18)"/><path class="cls-23" d="M219,186.86a19,19,0,0,1-3,5.15s1.57-.07,1.6,2,1.57,1.89,1.57,1.89,1.08.29,1.31,2a4.18,4.18,0,0,0,1,2.25l2.9-3.19a11,11,0,0,1-4.33-7.51A4.06,4.06,0,0,0,219,186.86Z" transform="translate(29.08 30.18)"/><path class="cls-23" d="M231.05,189.54a45.92,45.92,0,0,1,12,9.53l1.24-.77A32.2,32.2,0,0,0,231.05,189.54Z" transform="translate(29.08 30.18)"/><path class="cls-23" d="M226.12,198.3a51.35,51.35,0,0,0,24.19,11.49c14.86,2.68,16,6.66,16,6.66S262,209.3,245.84,206C233.46,203.52,226.12,198.3,226.12,198.3Z" transform="translate(29.08 30.18)"/><path class="cls-19" d="M212.53,205s-9.42,6.42-31.37-.44c0,0,7.63-2.11,10.4-6C191.56,198.51,191.51,206.67,212.53,205Z" transform="translate(29.08 30.18)"/><path class="cls-3" d="M141.89,255.74l-23.14-.15c-.71,0-.39-.55.67-1.19l25.23-15.26a2.63,2.63,0,0,1,1.23-.33l12.07.07c.37,0,.53.16.36.35l-14.05,15.33A3.84,3.84,0,0,1,141.89,255.74Z" transform="translate(29.08 30.18)"/><polygon class="cls-8" points="175.47 278.36 162.66 278.28 165.4 276.48 177.36 276.56 175.47 278.36"/><polygon class="cls-8" points="171.59 282.05 157.07 281.96 160.56 279.67 174.01 279.75 171.59 282.05"/><polygon class="cls-9" points="97.72 228.31 77.43 233.55 77.43 209.46 97.72 208.02 97.72 228.31"/><path class="cls-24" d="M137.37,139.39l-1.34,26a2.86,2.86,0,0,1-2.52,2.69l-66.92,6.33a2.32,2.32,0,0,1-2.45-2.5l1-36.45" transform="translate(29.08 30.18)"/><path class="cls-24" d="M65.43,123.87l2-74.31c.06-2.29,2.43-3.84,4-2.6l67,53.17a2.51,2.51,0,0,1,.91,2.14l-1.92,37.12" transform="translate(29.08 30.18)"/><polygon class="cls-8" points="141.07 183.62 113.73 184.63 113.98 177.32 141.32 177.85 141.07 183.62"/><polygon class="cls-9" points="162.26 192.78 144.06 194.02 144.59 182.13 162.81 181.92 162.26 192.78"/><polygon class="cls-24" points="161.35 184.46 147.51 184.81 147.56 183.7 161.4 183.44 161.35 184.46"/><polygon class="cls-24" points="160.4 186.8 146.45 187.32 146.5 186.21 160.45 185.77 160.4 186.8"/><polygon class="cls-24" points="161.12 189.08 147.28 189.75 147.33 188.66 161.17 188.05 161.12 189.08"/><polygon class="cls-24" points="160.16 191.43 146.23 192.28 146.28 191.18 160.22 190.4 160.16 191.43"/><polygon class="cls-3" points="162.37 166.1 108.29 153.35 110.12 95.48 164.13 132.88 162.37 166.1"/><g class="cls-25"><polygon class="cls-9" points="166.07 133.81 105.48 154.24 103.06 152.29 165.37 132.5 166.07 133.81"/><polygon class="cls-9" points="104.86 91.07 163.5 167.25 164.3 166.65 107.39 91.36 104.86 91.07"/></g><g class="cls-26"><path class="cls-24" d="M137.37,139.39l-1.34,26a2.86,2.86,0,0,1-2.52,2.69l-66.92,6.33a2.32,2.32,0,0,1-2.45-2.5l1-36.45" transform="translate(29.08 30.18)"/></g><polygon class="cls-7" points="246.82 119.89 185.7 119.89 189.98 124.96 245.31 124.96 246.82 119.89"/><polygon class="cls-27" points="245.51 124.29 189.42 124.29 189.98 124.96 245.31 124.96 245.51 124.29"/><path class="cls-28" d="M171.75,85.33c5-.57,13.36-1.84,14.27-4.16.51-1.47-1.11-1.14-1.65-.87a4.16,4.16,0,0,0-2.56,4.08,2.6,2.6,0,0,0,1.33,2c1.66.85,3.35-.42,4.82-1.37a15.64,15.64,0,0,1,4.71-2c1.06-.26,2.37-.33,3,.53.36.45.45,1.07.81,1.53.78,1,2.4.71,3.45,0,.84-.56,1.55-1.34,2.41-1.83a.4.4,0,0,1,.61.35c0,.69.19,1.39.82,1.37a1.31,1.31,0,0,0,.6-.24l2.32-1.34a.4.4,0,0,1,.61.32c.06.58.27,1.12.8,1.2a1.4,1.4,0,0,0,1-.32c1.3-.87,2.55-2.13,4.07-2.18a.41.41,0,0,1,.41.41c0,.72-.62,1.54-.11,2a1.29,1.29,0,0,0,1.09.21l2.56-.3c1.51-.19,3.66.77,3.15,1.91a1,1,0,1,1-1.7-1.09c.7-.87,7-3.34,11.19-2.46,1.64.35,3.28.78,4.93,1.08a5.78,5.78,0,0,0,4.8-1.12" transform="translate(29.08 30.18)"/><path class="cls-27" d="M377.17,33.15,325,68.41a4.45,4.45,0,0,0-1.46,3.36v35.41c0,1.31.65,2.18,1.46,1.95l34.82-9.92,4.52,9.71c.24.53.94.39,1.19-.25l4.91-12.49,6.72-1.91a5.08,5.08,0,0,0,3.41-4.66V34.54C380.58,32.5,379,31.89,377.17,33.15Z" transform="translate(29.08 30.18)"/><path class="cls-10" d="M330.3,81.85a7.18,7.18,0,0,1-.2,1.66,7.28,7.28,0,0,1-.54,1.53,5.63,5.63,0,0,1-.81,1.22,3,3,0,0,1-1,.77,1.53,1.53,0,0,1-.95.17,1.37,1.37,0,0,1-.77-.44,2.44,2.44,0,0,1-.5-1,4.86,4.86,0,0,1-.18-1.4,7.18,7.18,0,0,1,.18-1.59,7.48,7.48,0,0,1,.5-1.47,5.83,5.83,0,0,1,.77-1.23,3.32,3.32,0,0,1,.95-.83,1.68,1.68,0,0,1,1-.24,1.29,1.29,0,0,1,.81.39,2.22,2.22,0,0,1,.54,1A4.91,4.91,0,0,1,330.3,81.85Zm-.87.45a3,3,0,0,0-.14-1,1.61,1.61,0,0,0-.36-.62.81.81,0,0,0-.52-.26,1.06,1.06,0,0,0-.63.16,2.12,2.12,0,0,0-.62.52,3.77,3.77,0,0,0-.51.8,5.65,5.65,0,0,0-.34,1,4.82,4.82,0,0,0-.13,1.07,3.23,3.23,0,0,0,.13.94,1.73,1.73,0,0,0,.34.62.84.84,0,0,0,.51.28,1,1,0,0,0,.62-.13,2,2,0,0,0,.63-.5,3.18,3.18,0,0,0,.52-.79,5.14,5.14,0,0,0,.36-1A4.56,4.56,0,0,0,329.43,82.3Zm-1.61,13.58-.72-.3,6.61-20,.8.19Zm8.75-8.15a6.94,6.94,0,0,1-.22,1.75,7,7,0,0,1-.61,1.57,5.64,5.64,0,0,1-.9,1.25,3.19,3.19,0,0,1-1.08.76,1.85,1.85,0,0,1-1.07.12,1.71,1.71,0,0,1-.85-.51,2.73,2.73,0,0,1-.56-1,5.17,5.17,0,0,1-.2-1.49,7.18,7.18,0,0,1,.2-1.66,7.31,7.31,0,0,1,.56-1.53,6,6,0,0,1,.85-1.26,3.69,3.69,0,0,1,1.07-.82,1.89,1.89,0,0,1,1.08-.2,1.63,1.63,0,0,1,.9.46,2.56,2.56,0,0,1,.61,1A4.83,4.83,0,0,1,336.57,87.73Zm-1,.43a3,3,0,0,0-.16-1,1.77,1.77,0,0,0-.4-.69,1,1,0,0,0-.58-.29,1.29,1.29,0,0,0-.7.12,2.28,2.28,0,0,0-.7.53,3.74,3.74,0,0,0-.56.81,5.27,5.27,0,0,0-.38,1,4.73,4.73,0,0,0-.14,1.13,3.24,3.24,0,0,0,.14,1,1.92,1.92,0,0,0,.38.68,1,1,0,0,0,.56.32,1.25,1.25,0,0,0,.7-.09,2.16,2.16,0,0,0,.7-.5,3.11,3.11,0,0,0,.58-.81,4.69,4.69,0,0,0,.4-1A4.57,4.57,0,0,0,335.6,88.16Z" transform="translate(29.08 30.18)"/><path class="cls-10" d="M340.92,88.67a2.27,2.27,0,0,1-.27,1,1.32,1.32,0,0,1-.68.68.54.54,0,0,1-.67-.13,1.21,1.21,0,0,1-.26-.81,2.31,2.31,0,0,1,.26-1,1.37,1.37,0,0,1,.67-.69.54.54,0,0,1,.68.12A1.18,1.18,0,0,1,340.92,88.67Zm-.32-3.44-1.25.56V73.14l1.25-.69Z" transform="translate(29.08 30.18)"/><path class="cls-10" d="M345.43,82.5l-1.9.86V81.84l2.05-1L346,76.5l-2,1V76l2.21-1.12.56-5.81,1.19-.66-.57,5.86L350,72.9l.59-6,1.27-.7-.61,6,1.9-1v1.64l-2.08,1-.46,4.57,2-.92v1.63l-2.15,1-.62,6-1.23.51.61-5.93L346.6,82,346,87.78l-1.15.47Zm1.33-2.16,2.63-1.22.44-4.53-2.65,1.32Z" transform="translate(29.08 30.18)"/><path class="cls-10" d="M360.13,76.49l-1.64.74V75.52a7.29,7.29,0,0,1,.15-1.51,7.42,7.42,0,0,1,.42-1.36,9.92,9.92,0,0,1,.61-1.22c.23-.39.46-.78.7-1.16l.67-1.06a10.26,10.26,0,0,0,1-1.84,5.36,5.36,0,0,0,.4-2.11,3.16,3.16,0,0,0-.24-1.33,1.48,1.48,0,0,0-.66-.73,1.56,1.56,0,0,0-1-.15,3,3,0,0,0-1.14.39,5.15,5.15,0,0,0-2,2,7.66,7.66,0,0,0-.94,2.86l-1.51.46a10.78,10.78,0,0,1,1.52-4.24,8.48,8.48,0,0,1,3-2.93,5.54,5.54,0,0,1,1.79-.66,2.46,2.46,0,0,1,1.5.16,2.26,2.26,0,0,1,1,1.08,4.48,4.48,0,0,1,.39,2,8.73,8.73,0,0,1-.17,1.75,8.09,8.09,0,0,1-.49,1.51,10.1,10.1,0,0,1-.73,1.38L362,70.22c-.34.49-.63.93-.86,1.31a7.31,7.31,0,0,0-.56,1.12,5,5,0,0,0-.31,1.15,7.91,7.91,0,0,0-.1,1.37Zm.62,3.89a2.42,2.42,0,0,1-.36,1.23,1.8,1.8,0,0,1-.92.85.78.78,0,0,1-.91-.1,1.19,1.19,0,0,1-.35-.92,2.46,2.46,0,0,1,.35-1.21,1.89,1.89,0,0,1,.91-.86.79.79,0,0,1,.92.08A1.18,1.18,0,0,1,360.75,80.38Z" transform="translate(29.08 30.18)"/><path class="cls-10" d="M372,59.54,376,56l.62,1.47L372.52,61l2.58,2.54-1.38,1.81-2.59-2.61-2.49,5.05-1.28-.48,2.41-4.89L366,63l.54-2,3.73-.59V56l1.66-.91Z" transform="translate(29.08 30.18)"/><path class="cls-29" d="M223.94,76.38H136a3.06,3.06,0,0,1-2.14-.88l-50.95-51a3,3,0,0,1,2.13-5.16H251.21a3,3,0,0,1,2.66,4.45l-27.26,51A3,3,0,0,1,223.94,76.38Z" transform="translate(29.08 30.18)"/><path class="cls-30" d="M223.32,63.09l-89.12.24a2.47,2.47,0,0,1-1.51-.48L108.08,35.21c-1.34-1-.39-2.78,1.51-2.78L233,32.86c1.6,0,2.63,1.31,1.87,2.39l-9.68,27A2.3,2.3,0,0,1,223.32,63.09Z" transform="translate(29.08 30.18)"/><path class="cls-24" d="M168.38,45.94l1.6,9a.72.72,0,0,0,1.08.49l7.27-4.52a.71.71,0,0,0-.05-1.24l-8.87-4.51A.71.71,0,0,0,168.38,45.94Z" transform="translate(29.08 30.18)"/><polygon class="cls-15" points="210.15 101.66 169.47 101.66 166.75 98.17 209.42 98.17 210.15 101.66"/><polygon class="cls-19" points="251.1 100.91 209.99 100.91 209.59 98.97 251.8 98.97 251.1 100.91"/><path class="cls-8" d="M181.78,69.77a1.68,1.68,0,0,1-1.7,2.1,2.86,2.86,0,0,1-2.63-2.1,1.69,1.69,0,0,1,1.67-2.23A2.86,2.86,0,0,1,181.78,69.77Z" transform="translate(29.08 30.18)"/><path class="cls-31" d="M276.81,170.89a8.63,8.63,0,0,1,4-5.24l3-2.06a7.67,7.67,0,0,0,3.07-4.35l.1-.37a8.61,8.61,0,0,0-1.66-7.68h0a8.66,8.66,0,0,1-1.66-7.68l.11-.39a8.63,8.63,0,0,1,4-5.24l3-1.74a8.63,8.63,0,0,0,4-5.24l.05-.18" transform="translate(29.08 30.18)"/><path class="cls-31" d="M282.85,172.5A8.64,8.64,0,0,0,282,166l-1.58-3.28a7.7,7.7,0,0,1-.49-5.3l.1-.37a8.62,8.62,0,0,1,5.26-5.84h0a8.62,8.62,0,0,0,5.27-5.83l.1-.39a8.6,8.6,0,0,0-.87-6.54l-1.74-3a8.6,8.6,0,0,1-.87-6.54l.05-.18" transform="translate(29.08 30.18)"/><path class="cls-32" d="M297.59,275.05h-91c-1.28,0-2.34-1.33-2.37-2.91l-.64-33.5c0-.44.51-.79,1.15-.79h45.81a4.14,4.14,0,0,1,2.18.79l43.39,33.5C298.17,273.72,298.86,275.05,297.59,275.05Z" transform="translate(29.08 30.18)"/><path class="cls-10" d="M257.48,242.3H203.66l-.07-3.66c0-.44.51-.79,1.15-.79h45.81a4.14,4.14,0,0,1,2.18.79Z" transform="translate(29.08 30.18)"/><polyline class="cls-33" points="275.57 269.66 279.61 271.21 280.04 269.66"/><polygon class="cls-8" points="251.37 275.97 236.43 275.97 236.25 274.19 250.61 274.19 251.37 275.97"/><polygon class="cls-24" points="262.98 270.86 235.92 270.86 235.78 269.44 261.9 269.44 262.98 270.86"/><polygon class="cls-8" points="276.06 281.4 236.96 281.4 236.74 279.18 274.14 279.18 276.06 281.4"/><polygon class="cls-8" points="272.33 288.3 237.64 288.3 237.36 285.45 270.34 285.45 272.33 288.3"/><polygon class="cls-8" points="308.69 297.36 238.53 297.36 238.16 293.58 304.37 293.58 308.69 297.36"/><polygon class="cls-24" points="400.42 295.16 326.01 266.77 326.01 212.09 400.42 218.39 400.42 295.16"/><polygon class="cls-10" points="385.05 278 334.69 261.12 334.69 221.78 385.05 228.38 385.05 278"/><polyline class="cls-34" points="404.65 248.11 415.26 260.24 404.65 267.01"/><polygon class="cls-27" points="308.19 91.33 313.46 85.9 313.49 85.9 320.05 79.16 320.02 79.16 312.22 79.16 294.45 79.16 296.93 85.9 305.97 85.9 300.91 91.35 296.96 91.36 299.26 96.9 311.99 91.32 308.19 91.33"/><polygon class="cls-27" points="278.6 91.49 274.59 96.56 274.56 96.56 270.23 102.04 270.26 102.04 277.03 102.04 292.46 102.04 289.98 96.56 281.61 96.56 285.86 91.47 289.81 91.45 287.07 85.51 274.8 91.5 278.6 91.49"/><path class="cls-27" d="M313.78,165.64c0,6.72-5.08,11.34-10.47,10.47-4.63-.74-7.93-5.39-7.93-10.47s3.3-9.74,7.93-10.48C308.7,154.29,313.78,158.92,313.78,165.64Z" transform="translate(29.08 30.18)"/><path class="cls-3" d="M306.74,160.91a3.18,3.18,0,0,0-2.47,1.57h0l-1,1.37-.94-1.28h0a2.39,2.39,0,0,0-2.17-1.21,3,3,0,0,0-2.47,3.19,3.42,3.42,0,0,0,.92,2.39l4.66,5.45,5.43-5.23a3.64,3.64,0,0,0,1.3-2.83A3.24,3.24,0,0,0,306.74,160.91Z" transform="translate(29.08 30.18)"/><path class="cls-8" d="M191.68,258.39c-1.4,6.84-12.05,13.44-23.56,13.48s-16.35-6.55-11.59-13.43c4-5.78,13.62-9.82,22-9.82S192.86,252.64,191.68,258.39Z" transform="translate(29.08 30.18)"/><path class="cls-10" d="M171.38,266.9h-2.06c-5.43,0-8-3-6-6.49h0l19.94,0h0C182.13,263.83,176.8,266.88,171.38,266.9Z" transform="translate(29.08 30.18)"/><path class="cls-16" d="M171.38,266.9h-2.06c-3.89,0-6.38-1.58-6.68-3.79,0-.25.89-.59,2.19-.94,5.55-1.51,11.06-1.53,15.27-.06,1,.35,1.62.69,1.37.93A15.15,15.15,0,0,1,171.38,266.9Z" transform="translate(29.08 30.18)"/><path class="cls-35" d="M186.18,255.72c-.2.09-3.69,2-3.69,2l2.5,2" transform="translate(29.08 30.18)"/><path class="cls-35" d="M164.84,255.75c.12.08,1.89,2,1.89,2l-4.33,2" transform="translate(29.08 30.18)"/><path class="cls-32" d="M191.05,266.89c.48,1.48-.91,3.2-3.14,3.8s-4.41-.22-4.74-1.78,1.82-9.13,1.82-9.13S190.6,265.46,191.05,266.89Z" transform="translate(29.08 30.18)"/><path class="cls-32" d="M149.88,267c-1.81,1.5-1.95,3.23-.22,3.81s4.66-.24,6.4-1.82,6.34-9.18,6.34-9.18S151.64,265.55,149.88,267Z" transform="translate(29.08 30.18)"/><polygon class="cls-36" points="420.71 191.63 362.45 188.18 329.22 175.55 320.57 163.91 324.34 161.14 338.67 171.76 341.63 166.02 334.2 156.16 324.33 161.13 315.52 144.54 338.89 134.71 368.11 163.85 420.71 162.43 420.71 191.63"/><polyline class="cls-37" points="321.97 156.8 335.39 150.7 342.01 156.69"/><polyline class="cls-37" points="319.89 152.76 336.57 145.1 342.04 150.13"/><polyline class="cls-37" points="317.73 148.71 337.68 140.04 342.01 144.12"/><line class="cls-38" x1="420.63" y1="75.19" x2="420.63" y2="232.83"/><polygon class="cls-38" points="420.71 191.63 362.45 188.18 329.22 175.55 320.57 163.91 324.34 161.14 338.67 171.76 341.63 166.02 334.2 156.16 324.33 161.13 315.52 144.54 338.89 134.71 368.11 163.85 420.71 162.95 420.71 191.63"/><circle class="cls-30" cx="362.45" cy="188.47" r="1.3"/><circle class="cls-30" cx="420.71" cy="191.63" r="1.3"/><circle class="cls-30" cx="420.71" cy="162.95" r="1.3"/><circle class="cls-30" cx="368.45" cy="163.11" r="1.3"/><circle class="cls-30" cx="329.09" cy="175.79" r="1.3"/><circle class="cls-30" cx="334.2" cy="156.8" r="1.3"/><circle class="cls-30" cx="341.23" cy="166.01" r="1.3"/><circle class="cls-30" cx="338.42" cy="170.65" r="1.3"/><circle class="cls-30" cx="341.6" cy="156.16" r="1.3"/><circle class="cls-30" cx="341.6" cy="149.68" r="1.3"/><circle class="cls-30" cx="341.6" cy="143.8" r="1.3"/><circle class="cls-30" cx="338.89" cy="134.32" r="1.3"/><circle class="cls-30" cx="337.59" cy="140.04" r="1.3"/><circle class="cls-30" cx="336.38" cy="145.3" r="1.3"/><circle class="cls-30" cx="335.27" cy="150.7" r="1.3"/><circle class="cls-30" cx="324.37" cy="161.04" r="1.3"/><circle class="cls-30" cx="315.31" cy="144.56" r="1.3"/><circle class="cls-30" cx="317.29" cy="148.93" r="1.3"/><circle class="cls-30" cx="319.37" cy="153" r="1.3"/><circle class="cls-30" cx="321.4" cy="156.99" r="1.3"/><circle class="cls-30" cx="320.33" cy="163.95" r="1.3"/><circle class="cls-30" cx="420.63" cy="75.19" r="2"/><polygon class="cls-36" points="324.27 266.22 350.22 259.48 362.96 299.29 362.31 314.46 333.36 314.46 331.21 297.98 324.27 266.22"/><line class="cls-37" x1="330.38" y1="264.64" x2="337.1" y2="290.16"/><line class="cls-37" x1="337.1" y1="262.89" x2="342.73" y2="283.43"/><line class="cls-37" x1="343.62" y1="261.19" x2="346.58" y2="271.47"/><polyline class="cls-38" points="340.79 298.71 344.27 271.37 353.84 271.25 355.35 298.71"/><polyline class="cls-37" points="346.58 271.47 346.58 278.03 351.17 278.03 351.44 271.25"/><polyline class="cls-38" points="362.28 314.63 411.53 314.63 411.53 296.41"/><polygon class="cls-38" points="324.27 266.22 350.22 259.48 362.96 299.29 362.31 314.46 333.36 314.46 331.21 297.98 324.27 266.22"/><circle class="cls-30" cx="411.53" cy="314.63" r="1.3"/><circle class="cls-30" cx="411.53" cy="296.64" r="2"/><circle class="cls-30" cx="324.28" cy="266.06" r="1.3"/><circle class="cls-30" cx="330.38" cy="264.31" r="1.3"/><circle class="cls-30" cx="337.1" cy="262.67" r="1.3"/><circle class="cls-30" cx="343.62" cy="260.97" r="1.3"/><circle class="cls-30" cx="350.18" cy="259.48" r="1.3"/><circle class="cls-30" cx="362.96" cy="298.71" r="1.3"/><circle class="cls-30" cx="362.28" cy="314.63" r="1.3"/><circle class="cls-30" cx="333.34" cy="314.58" r="1.3"/><circle class="cls-30" cx="331.18" cy="298.36" r="1.3"/><circle class="cls-30" cx="337.1" cy="289.85" r="1.3"/><circle class="cls-30" cx="340.79" cy="298.36" r="1.3"/><circle class="cls-30" cx="355.35" cy="298.71" r="1.3"/><circle class="cls-30" cx="344.19" cy="271.26" r="1.3"/><circle class="cls-30" cx="354.05" cy="271.26" r="1.3"/><polyline class="cls-38" points="51.37 122.23 51.37 160.46 66.07 160.46"/><path class="cls-29" d="M52.57,141.73l9-5.5L99.8,126.3s-13-6.58-23.62-3.42a32.32,32.32,0,0,0-16,10.52L50.58,139H37.38s-1.79,9.89,7.53,9.89C53.34,148.87,52.57,141.73,52.57,141.73Zm-10.42,1.48c0-1.7,1.22-2.18,2.73-2.18s2.72.42,2.72,2.18-1.22,2.18-2.72,2.18S42.15,144.93,42.15,143.21Z" transform="translate(29.08 30.18)"/><circle class="cls-30" cx="51.37" cy="122.04" r="2"/><circle class="cls-30" cx="51.37" cy="160.39" r="1.3"/><path class="cls-38" d="M52.57,141.73l9-5.5L99.8,126.3s-13-6.58-23.62-3.42a32.32,32.32,0,0,0-16,10.52L50.58,139H37.38s-1.79,9.89,7.53,9.89C53.34,148.87,52.57,141.73,52.57,141.73Zm-10.42,1.48c0-1.7,1.22-2.18,2.73-2.18s2.72.42,2.72,2.18-1.22,2.18-2.72,2.18S42.15,144.93,42.15,143.21Z" transform="translate(29.08 30.18)"/><circle class="cls-30" cx="79.66" cy="169.17" r="1.3"/><circle class="cls-30" cx="81.51" cy="172.1" r="1.3"/><circle class="cls-30" cx="66.32" cy="169.21" r="1.3"/><circle class="cls-30" cx="130.54" cy="156.62" r="1.3"/><path class="cls-29" d="M44.91,120.4c-9.32,0-7.53,9.89-7.53,9.89h13.2l10.71,6.17s4.27,6.77,14.89,9.93S99.8,143,99.8,143L61,132.38l-8.44-4.84S53.34,120.4,44.91,120.4Zm0,3.48c1.5,0,2.72.43,2.72,2.18s-1.22,2.18-2.72,2.18-2.73-.48-2.73-2.18S43.37,123.88,44.88,123.88Z" transform="translate(29.08 30.18)"/><path class="cls-38" d="M44.91,120.4c-9.32,0-7.53,9.89-7.53,9.89h13.2l10.71,6.17s4.27,6.77,14.89,9.93S99.8,143,99.8,143L61,132.38l-8.44-4.84S53.34,120.4,44.91,120.4Zm0,3.48c1.5,0,2.72.43,2.72,2.18s-1.22,2.18-2.72,2.18-2.73-.48-2.73-2.18S43.37,123.88,44.88,123.88Z" transform="translate(29.08 30.18)"/><circle class="cls-30" cx="90.22" cy="162.39" r="1.3"/><circle class="cls-30" cx="79.66" cy="160.73" r="1.3"/><circle class="cls-30" cx="81.69" cy="157.54" r="1.3"/><circle class="cls-30" cx="66.32" cy="160.39" r="1.3"/><circle class="cls-30" cx="90.4" cy="166.93" r="1.3"/><circle class="cls-30" cx="130.54" cy="173.02" r="1.3"/><g class="cls-39"><g class="cls-40"/><path class="cls-29" d="M52.57,141.73l9-5.5L99.8,126.3s-13-6.58-23.62-3.42a32.32,32.32,0,0,0-16,10.52L50.58,139H37.38s-1.79,9.89,7.53,9.89C53.34,148.87,52.57,141.73,52.57,141.73Zm-10.42,1.48c0-1.7,1.22-2.18,2.73-2.18s2.72.42,2.72,2.18-1.22,2.18-2.72,2.18S42.15,144.93,42.15,143.21Z" transform="translate(29.08 30.18)"/></g><rect class="cls-36" x="80.55" y="202.38" width="55.41" height="5.1" transform="translate(285.48 56.88) rotate(67.58)"/><polygon class="cls-36" points="138.99 245.81 130.9 226.22 125.92 236.83 127.99 241.83 138.99 245.81"/><polygon class="cls-36" points="96.14 256.26 95.73 248.21 125.92 236.83 127.99 241.83 96.14 256.26"/><rect class="cls-37" x="80.55" y="202.38" width="55.41" height="5.1" transform="translate(285.48 56.88) rotate(67.58)"/><polygon class="cls-37" points="138.99 245.81 130.9 226.22 125.92 236.83 127.99 241.83 138.99 245.81"/><polygon class="cls-37" points="96.14 256.26 95.73 248.21 125.92 236.83 127.99 241.83 96.14 256.26"/><circle class="cls-30" cx="130.61" cy="226.34" r="1.3"/><circle class="cls-30" cx="138.61" cy="245.73" r="1.3"/><circle class="cls-30" cx="150.53" cy="259.64" r="1.3"/><circle class="cls-30" cx="145.54" cy="261.7" r="1.3"/><circle class="cls-30" cx="128.03" cy="241.94" r="1.3"/><circle class="cls-30" cx="125.85" cy="236.66" r="1.3"/><circle class="cls-30" cx="129.4" cy="208.42" r="1.3"/><circle class="cls-30" cx="124.41" cy="210.48" r="1.3"/><polyline class="cls-38" points="187.43 311.74 36.11 311.74 36.11 261.08 58.73 261.08"/><circle class="cls-30" cx="58.6" cy="261.08" r="2"/><circle class="cls-30" cx="187.43" cy="311.74" r="2"/><circle class="cls-30" cx="36.11" cy="311.74" r="1.3"/><circle class="cls-30" cx="36.11" cy="261.08" r="1.3"/><polygon class="cls-36" points="107.23 261.4 108.8 249.92 116.62 249.92 114.83 268.29 96.99 278.78 96.99 311.74 68.96 311.74 72.25 234.32 90.76 230.89 113.05 235.02 113.05 241.73 95.59 245.45 96.46 262.7 107.23 261.4"/><polygon class="cls-38" points="107.23 261.4 108.8 249.92 116.62 249.92 114.83 268.29 96.99 278.78 96.99 311.74 68.96 311.74 72.25 234.32 90.76 230.89 113.05 235.02 113.05 241.73 95.59 245.45 96.46 262.7 107.23 261.4"/><polyline class="cls-37" points="113.04 235.06 85.79 240.52 86.44 262.38"/><polyline class="cls-37" points="104.39 233.41 80.97 238.31 80.88 262.2"/><polyline class="cls-37" points="97.73 232.18 76.18 236.12 75.59 262.38"/><circle class="cls-30" cx="108.82" cy="250.1" r="1.3"/><circle class="cls-30" cx="116.62" cy="250.1" r="1.3"/><circle class="cls-30" cx="97.06" cy="278.86" r="1.3"/><circle class="cls-30" cx="97.06" cy="311.81" r="1.3"/><circle class="cls-30" cx="68.96" cy="311.81" r="1.3"/><circle class="cls-30" cx="107.03" cy="261.4" r="1.3"/><circle class="cls-30" cx="114.71" cy="268.38" r="1.3"/><circle class="cls-30" cx="96.43" cy="262.38" r="1.3"/><circle class="cls-30" cx="95.83" cy="245.56" r="1.3"/><circle class="cls-30" cx="86.41" cy="261.98" r="1.3"/><circle class="cls-30" cx="80.88" cy="261.98" r="1.3"/><circle class="cls-30" cx="75.59" cy="261.98" r="1.3"/><circle class="cls-30" cx="113.04" cy="241.82" r="1.3"/><circle class="cls-30" cx="113.04" cy="235.06" r="1.3"/><circle class="cls-30" cx="104.38" cy="233.41" r="1.3"/><circle class="cls-30" cx="97.11" cy="232.14" r="1.3"/><circle class="cls-30" cx="90.8" cy="230.89" r="1.3"/><circle class="cls-30" cx="72.26" cy="234.36" r="1.3"/><circle class="cls-30" cx="76.4" cy="236.36" r="1.3"/><circle class="cls-30" cx="80.88" cy="238.46" r="1.3"/><circle class="cls-30" cx="85.63" cy="240.59" r="1.3"/><polyline class="cls-38" points="348.13 40.4 326.94 40.4 326.94 57.9"/><circle class="cls-30" cx="326.94" cy="57.9" r="2"/><circle class="cls-30" cx="348.13" cy="40.4" r="2"/><circle class="cls-30" cx="326.94" cy="40.4" r="1.3"/><polyline class="cls-38" points="178.16 41.74 60.03 41.74 60.03 81.41"/><circle class="cls-30" cx="60.03" cy="81.41" r="2"/><circle class="cls-30" cx="178.16" cy="41.74" r="2"/><circle class="cls-30" cx="60.03" cy="41.74" r="1.3"/><path class="cls-41" d="M265.09,105.26h-4.27a8.2,8.2,0,0,0-6.64,3.4h0a8.14,8.14,0,0,1-6.63,3.4h-.38a8.14,8.14,0,0,1-5.78-2.4l-2.34-2.33a8.14,8.14,0,0,0-5.78-2.4h-.18a8.14,8.14,0,0,0-5.78,2.4l-1.93,1.93a8.19,8.19,0,0,1-5.78,2.39h-.7a8.21,8.21,0,0,1-5.79-2.39L210.49,107a7.29,7.29,0,0,0-4.74-1.76h-.36a8.2,8.2,0,0,0-6.64,3.4h0a8.16,8.16,0,0,1-6.63,3.4h-.38a8.18,8.18,0,0,1-5.79-2.4l-2.33-2.33a8.14,8.14,0,0,0-5.78-2.4h-.18a8.14,8.14,0,0,0-5.78,2.4L170,109.26a8.21,8.21,0,0,1-5.79,2.39h-.69a8.21,8.21,0,0,1-5.79-2.39l-1.44-1.44a5.7,5.7,0,0,0-6-1.33h0a5.72,5.72,0,0,0-3.75,5.37v6.33a8.17,8.17,0,0,0,3.4,6.64h0a8.17,8.17,0,0,1,3.39,6.63v.38a8.21,8.21,0,0,1-2.39,5.79L148.55,140a8.17,8.17,0,0,0-2.39,5.78v.18a8.17,8.17,0,0,0,2.39,5.78l1.93,1.93a8.18,8.18,0,0,1,2.4,5.79v.69a8.18,8.18,0,0,1-2.4,5.79l-2.24,2.62a7.29,7.29,0,0,0-1.75,4.74v.36a8.17,8.17,0,0,0,3.4,6.64h0a8.17,8.17,0,0,1,3.39,6.63v.38a8.21,8.21,0,0,1-2.39,5.79l-2.34,2.33a8.19,8.19,0,0,0-2.39,5.78v.18a8.17,8.17,0,0,0,2.39,5.78l1.93,1.93a8.18,8.18,0,0,1,2.4,5.79v.69a8.18,8.18,0,0,1-2.4,5.79l-.9,1.15a6.09,6.09,0,0,0-.64,6.51h0a6.09,6.09,0,0,0,5.44,3.35h.69c2.63,0,6.07-1.27,7.61-3.4h0a8.17,8.17,0,0,1,6.63-3.4h.38a8.14,8.14,0,0,1,5.78,2.4l2.34,2.33a8.14,8.14,0,0,0,5.78,2.4h.18a8.14,8.14,0,0,0,5.78-2.4l1.93-1.93a8.17,8.17,0,0,1,5.78-2.39h.7a8.17,8.17,0,0,1,5.78,2.39l2.63,2.25a7.29,7.29,0,0,0,4.74,1.75h.36a8.2,8.2,0,0,0,6.64-3.4h0a8.17,8.17,0,0,1,6.63-3.4h.38a8.14,8.14,0,0,1,5.78,2.4l2.34,2.33a8.14,8.14,0,0,0,5.78,2.4h.18a8.14,8.14,0,0,0,5.78-2.4l1.93-1.93a8.17,8.17,0,0,1,5.78-2.39h.7a8.21,8.21,0,0,1,5.79,2.39l1.44,1.45a5.7,5.7,0,0,0,6,1.32h0a5.7,5.7,0,0,0,3.75-5.36v-6.34a8.17,8.17,0,0,0-3.4-6.64h0a8.16,8.16,0,0,1-3.39-6.63v-.38A8.17,8.17,0,0,1,266,200l2.34-2.34a8.17,8.17,0,0,0,2.39-5.78v-.18a8.17,8.17,0,0,0-2.39-5.78L266.38,184a8.14,8.14,0,0,1-2.4-5.78v-.7" transform="translate(29.08 30.18)"/><path class="cls-42" d="M265.09,112.11h-4.27a8.17,8.17,0,0,1-6.64-3.4h0a8.17,8.17,0,0,0-6.63-3.4h-.38a8.18,8.18,0,0,0-5.78,2.4L239.05,110a8.14,8.14,0,0,1-5.78,2.4h-.18a8.14,8.14,0,0,1-5.78-2.4l-1.93-1.93a8.19,8.19,0,0,0-5.78-2.39h-.7a8.21,8.21,0,0,0-5.79,2.39l-2.62,2.25a7.29,7.29,0,0,1-4.74,1.75h-.36a8.17,8.17,0,0,1-6.64-3.4h0a8.18,8.18,0,0,0-6.63-3.4h-.38a8.22,8.22,0,0,0-5.79,2.4L183.62,110a8.14,8.14,0,0,1-5.78,2.4h-.18a8.14,8.14,0,0,1-5.78-2.4L170,108.11a8.21,8.21,0,0,0-5.79-2.39h-1.6a7.74,7.74,0,0,0-5.36,2.34l-.71.77a11.81,11.81,0,0,0-3.16,8v1.32a8.19,8.19,0,0,1-3.39,6.64h0a8.16,8.16,0,0,0-3.4,6.63v.38a8.21,8.21,0,0,0,2.39,5.79l2.34,2.33a8.17,8.17,0,0,1,2.39,5.78v.18a8.17,8.17,0,0,1-2.39,5.78l-1.93,1.93a8.18,8.18,0,0,0-2.4,5.79v.69a8.18,8.18,0,0,0,2.4,5.79l2.24,2.62a7.29,7.29,0,0,1,1.75,4.74v.36a8.19,8.19,0,0,1-3.39,6.64h0a8.16,8.16,0,0,0-3.4,6.63v.38a8.21,8.21,0,0,0,2.39,5.79l2.34,2.33a8.19,8.19,0,0,1,2.39,5.78v.18a8.17,8.17,0,0,1-2.39,5.78l-1.93,1.93a8.18,8.18,0,0,0-2.4,5.79v.69a9.56,9.56,0,0,0,2.4,5.79A9.23,9.23,0,0,0,155.5,225c4.06.51,5.89,2.12,7.18,3.9h0a8.17,8.17,0,0,0,6.63,3.4h.38a8.14,8.14,0,0,0,5.78-2.4l2.34-2.33a8.14,8.14,0,0,1,5.78-2.4h.18a8.14,8.14,0,0,1,5.78,2.4l1.93,1.93a8.17,8.17,0,0,0,5.78,2.39h.7a8.17,8.17,0,0,0,5.78-2.39l2.63-2.25a7.29,7.29,0,0,1,4.74-1.75h.36a8.2,8.2,0,0,1,6.64,3.4h0a8.17,8.17,0,0,0,6.63,3.4h.38a8.14,8.14,0,0,0,5.78-2.4l2.34-2.33a8.14,8.14,0,0,1,5.78-2.4h.18a8.14,8.14,0,0,1,5.78,2.4l1.93,1.93a8.17,8.17,0,0,0,5.78,2.39h1.61a7.7,7.7,0,0,0,5.36-2.34l.71-.76a11.83,11.83,0,0,0,3.16-8.05v-1.32a8.19,8.19,0,0,1,3.39-6.64h0a8.14,8.14,0,0,0,3.4-6.63v-.38a8.17,8.17,0,0,0-2.39-5.78l-2.34-2.34a8.18,8.18,0,0,1-2.4-5.78v-.18a8.18,8.18,0,0,1,2.4-5.78l1.93-1.93a8.18,8.18,0,0,0,2.4-5.78v-.7" transform="translate(29.08 30.18)"/><circle class="cls-30" cx="420.63" cy="232.83" r="2"/><g class="cls-43"/></g></g></g></g></svg>