<?xml version="1.0" encoding="UTF-8"?>
<svg width="425px" height="325px" viewBox="0 0 425 325" version="1.1" xmlns="http://www.w3.org/2000/svg" xmlns:xlink="http://www.w3.org/1999/xlink">
    <!-- Generator: Sketch 52.1 (67048) - http://www.bohemiancoding.com/sketch -->
    <title>Slice 1</title>
    <desc>Created with Sketch.</desc>
    <defs>
        <radialGradient cx="50%" cy="50%" fx="50%" fy="50%" r="50%" id="radialGradient-1">
            <stop stop-color="#A8E5E0" stop-opacity="0.25" offset="0%"></stop>
            <stop stop-color="#A8E5E0" stop-opacity="0.25" offset="32.8016089%"></stop>
            <stop stop-color="#A8E5E0" stop-opacity="0" offset="100%"></stop>
        </radialGradient>
        <radialGradient cx="50%" cy="50%" fx="50%" fy="50%" r="50.2145923%" gradientTransform="translate(0.500000,0.500000),scale(0.995726,1.000000),translate(-0.500000,-0.500000)" id="radialGradient-2">
            <stop stop-color="#A8E5E0" stop-opacity="0.5" offset="0%"></stop>
            <stop stop-color="#A8E5E0" stop-opacity="0.5" offset="32.8016089%"></stop>
            <stop stop-color="#A8E5E0" stop-opacity="0" offset="100%"></stop>
        </radialGradient>
        <radialGradient cx="50%" cy="50%" fx="50%" fy="50%" r="50%" id="radialGradient-3">
            <stop stop-color="#A8E5E0" stop-opacity="0.5" offset="0%"></stop>
            <stop stop-color="#A8E5E0" stop-opacity="0.5" offset="32.8016089%"></stop>
            <stop stop-color="#A8E5E0" stop-opacity="0" offset="100%"></stop>
        </radialGradient>
        <radialGradient cx="50%" cy="50%" fx="50%" fy="50%" r="50%" gradientTransform="translate(0.500000,0.500000),scale(1.000000,0.994286),translate(-0.500000,-0.500000)" id="radialGradient-4">
            <stop stop-color="#FF97CB" offset="0%"></stop>
            <stop stop-color="#FF97CB" stop-opacity="0.1" offset="70.4052875%"></stop>
            <stop stop-color="#A8E5E0" stop-opacity="0" offset="100%"></stop>
        </radialGradient>
        <radialGradient cx="50%" cy="50%" fx="50%" fy="50%" r="50%" id="radialGradient-5">
            <stop stop-color="#FF97CB" offset="0%"></stop>
            <stop stop-color="#FF97CB" stop-opacity="0.1" offset="70.4052875%"></stop>
            <stop stop-color="#A8E5E0" stop-opacity="0" offset="100%"></stop>
        </radialGradient>
        <radialGradient cx="50%" cy="50%" fx="50%" fy="50%" r="50%" id="radialGradient-6">
            <stop stop-color="#A8E5E0" stop-opacity="0.1" offset="0%"></stop>
            <stop stop-color="#A8E5E0" stop-opacity="0.1" offset="32.8016089%"></stop>
            <stop stop-color="#A8E5E0" stop-opacity="0" offset="100%"></stop>
        </radialGradient>
    </defs>
    <g id="Page-1" stroke="none" stroke-width="1" fill="none" fill-rule="evenodd">
        <g id="Illustration-1-alt" transform="translate(-3.000000, 16.000000)">
            <circle id="Oval" fill="url(#radialGradient-1)" cx="116.63" cy="189.5" r="116.5"></circle>
            <path d="M76.86,85.35 L141.65,83.14 L154.45,90.37 C154.45,90.37 153.59,121.21 155.14,130.81 L87.2,130.81 L77.92,128.95 C77.92,128.95 78.94,100.48 76.86,85.35 Z" id="Path" fill="#FFF2D6"></path>
            <path d="M76.86,83.95 L85.93,89.67 L154.45,88.85 L152.03,87.85 C148.950998,86.5217233 146.130966,84.6597569 143.7,82.35 L142.45,81.14 C142.45,81.14 132.03,77.28 117.84,80.14 C117.84,80.14 112.25,77.22 108.95,80.35 C108.562996,80.8778592 108.290511,81.4807318 108.15,82.12 C97.6885973,81.0839901 87.1293107,81.7015514 76.86,83.95 Z" id="Path" fill="#FF96CC"></path>
            <path d="M108.15,82.07 C108.15,82.07 108.38,83.87 111.9,84.26 C109.783946,84.6280309 107.652133,83.6997879 106.48,81.9 C106.48,81.9 107.49,81.97 108.15,82.07 Z" id="Path" fill="#240115"></path>
            <ellipse id="Oval" fill="#240115" cx="123.21" cy="82.68" rx="1.06" ry="1"></ellipse>
            <path d="M97.16,81.62 C97.16,81.62 98.29,85.19 94.76,86.09 C91.23,86.99 94.66,85.57 94.76,83.89 C94.830358,83.1449046 94.7206094,82.3938125 94.44,81.7 L95.83,81.7 L97.16,81.62 Z" id="Path" fill="#D73021"></path>
            <path d="M128.26,79.06 C128.26,79.06 132.43,81.06 134.26,84.26 C136.09,87.46 137.46,87.68 137.46,87.68 L145.8,87.68 C143.92653,86.4983401 142.24108,85.0421109 140.8,83.36 C139.735734,81.8626173 138.343712,80.6279242 136.73,79.75 C133.932619,79.2700353 131.098181,79.0391306 128.26,79.06 Z" id="Path" fill="#00437A"></path>
            <path d="M77.14,87.68 L85.48,91.49 C85.48,91.49 142.71,89.77 154.42,91.49" id="Path" stroke="#A9975B" stroke-width="0.48"></path>
            <path d="M76.86,89.58 C79.8080959,90.6002882 82.687393,91.8094593 85.48,93.2 L155.14,93.2" id="Path" stroke="#A9975B" stroke-width="0.48"></path>
            <path d="M77.14,91.49 C77.14,91.49 81.49,91.63 86.63,96.05 C91.5488473,95.4070112 96.5122346,95.1695445 101.47,95.34 C109.61,95.62 156.28,94.91 156.28,94.91" id="Path" stroke="#A9975B" stroke-width="0.48"></path>
            <path d="M77.14,94.48 L86.2,97.91 C86.2,97.91 147.43,95.91 155.14,97.19" id="Path" stroke="#A9975B" stroke-width="0.48"></path>
            <path d="M77.39,97.05 L85.47,100.05 C85.47,100.05 136,98.34 155.13,98.55" id="Path" stroke="#A9975B" stroke-width="0.48"></path>
            <path d="M77.39,99.34 C77.39,99.34 83.19,102.19 85.47,103.05 C85.47,103.05 124.58,99.76 155.13,101.19" id="Path" stroke="#A9975B" stroke-width="0.48"></path>
            <path d="M77.39,101.76 C77.39,101.76 83.62,104.19 86.62,105.04 C86.62,105.04 134.43,103.04 155.13,103.04" id="Path" stroke="#A9975B" stroke-width="0.48"></path>
            <polyline id="Path" stroke="#A9975B" stroke-width="0.48" points="78.1 105.05 85.49 108.05 155.14 105.62"></polyline>
            <path d="M78.09,106.54 L85.48,110.75 C85.48,110.75 105.33,108.11 155.14,108.65" id="Path" stroke="#A9975B" stroke-width="0.48"></path>
            <path d="M78.09,109.33 C78.09,109.33 79.09,109.9 85.48,112.61 C85.48,112.61 110.32,110.32 155.14,110.97" id="Path" stroke="#A9975B" stroke-width="0.48"></path>
            <path d="M76.86,110.97 C80.9564021,111.99939 84.944655,113.419221 88.77,115.21 C88.77,115.21 119.77,112.86 155.14,113.09" id="Path" stroke="#A9975B" stroke-width="0.48"></path>
            <polyline id="Path" stroke="#A9975B" stroke-width="0.48" points="77.41 113.09 87.2 117.61 155.71 115.35"></polyline>
            <path d="M77.39,115.89 C77.39,115.89 82.05,116.46 84.62,118.89 L155.7,117.6" id="Path" stroke="#A9975B" stroke-width="0.48"></path>
            <path d="M78.09,117.6 C80.49,119.03 84.63,121.33 84.63,121.33 C84.63,121.33 124.31,117.93 155.71,121.33" id="Path" stroke="#A9975B" stroke-width="0.48"></path>
            <path d="M77.39,120.74 L85.47,123.55 C85.47,123.55 136.47,121.7 155.7,122.55" id="Path" stroke="#A9975B" stroke-width="0.48"></path>
            <polyline id="Path" stroke="#A9975B" stroke-width="0.48" points="76.63 122.63 85.49 125.74 156.28 123.83"></polyline>
            <polyline id="Path" stroke="#A9975B" stroke-width="0.48" points="78.04 124.8 86.49 127.74 155.14 126.27"></polyline>
            <polyline id="Path" stroke="#A9975B" stroke-width="0.48" points="77.98 127.03 86.06 129.54 154.45 128.92"></polyline>
            <polyline id="Path" stroke="#86EBE8" stroke-width="2" points="32.22 149.69 32.22 214.75 51.97 214.75 51.97 275.82 138 275.82"></polyline>
            <circle id="Oval" fill="#2EC1B3" cx="32.22" cy="214.75" r="1.3"></circle>
            <circle id="Oval" fill="#2EC1B3" cx="52.02" cy="214.75" r="1.3"></circle>
            <circle id="Oval" fill="#2EC1B3" cx="52.02" cy="275.82" r="1.3"></circle>
            <circle id="Oval" fill="#2EC1B3" cx="138" cy="275.83" r="2"></circle>
            <polygon id="Path" fill="#96F9F4" opacity="0.5" points="32.22 122.56 70.65 122.56 111.02 113.68 113.6 121.43 92.06 129.1 92.26 129.81 132.5 129.83 132.5 138.06 69.52 147.43 32.22 149.69"></polygon>
            <path d="M32.21,122.56 L70.65,122.56 L111.02,113.68 L113.6,121.43 L92.25,129.03 C92.0714853,129.10149 91.9666414,129.287441 91.9978654,129.477187 C92.0290893,129.666932 92.1879905,129.809483 92.38,129.82 L132.49,129.82 L132.49,138.06 L69.49,147.43 L32.18,149.69 L32.21,122.56 Z" id="Path" stroke="#88EDEA" stroke-width="2"></path>
            <circle id="Oval" fill="#2EC1B3" cx="113.52" cy="121.37" r="1.3"></circle>
            <circle id="Oval" fill="#2EC1B3" cx="92.26" cy="129.29" r="1.3"></circle>
            <circle id="Oval" fill="#2EC1B3" cx="70.49" cy="122.39" r="1.3"></circle>
            <circle id="Oval" fill="#2EC1B3" cx="32.22" cy="122.39" r="1.3"></circle>
            <circle id="Oval" fill="#2EC1B3" cx="32.22" cy="149.69" r="1.3"></circle>
            <circle id="Oval" fill="#2EC1B3" cx="69.51" cy="147.35" r="1.3"></circle>
            <circle id="Oval" fill="#2EC1B3" cx="132.5" cy="129.94" r="1.3"></circle>
            <circle id="Oval" fill="#2EC1B3" cx="132.5" cy="138.11" r="1.3"></circle>
            <circle id="Oval" fill="#2EC1B3" cx="110.92" cy="113.68" r="1.3"></circle>
            <g id="Group" opacity="0.43" style="mix-blend-mode: color-burn;" transform="translate(0.000000, 73.000000)" fill="url(#radialGradient-3)">
                <circle id="Oval" cx="116.63" cy="116.5" r="116.5"></circle>
            </g>
            <path d="M270.1,61.3 C270.1,61.3 306.93,49.3 312.35,44.86 C312.35,44.86 323.35,74.11 337.76,92.65 C326.065173,105.77085 311.696405,116.235432 295.62,123.34 C295.62,123.34 280.57,77.99 270.1,61.3 Z" id="Path" fill="#FFC239"></path>
            <path d="M167.08,145.36 C167.08,145.36 168.94,181.53 167.65,188.81 C167.65,188.81 204.65,202.41 211.04,204.2 C211.04,204.2 233.97,190.7 239.39,187.39 L241.86,144.71 L195.98,134.26 L167.08,145.36 Z" id="Path" fill="#FFF2D6"></path>
            <path d="M167.08,145.36 C167.08,145.36 189.19,135.14 196.93,131.63 C196.93,131.63 219.46,139.37 225.11,140.76 C230.76,142.15 241.31,145.71 241.31,145.71 C241.31,145.71 215.83,157.82 209.68,161.71 C209.68,161.73 173.77,148.58 167.08,145.36 Z" id="Path" fill="#FFFFFF"></path>
            <path d="M167.13,147.24 C167.13,147.24 193.37,158.76 209.64,163.53 L241.86,146.35" id="Path" stroke="#A9975B" stroke-width="0.5"></path>
            <path d="M167.08,148.76 C167.08,148.76 202.27,162.38 209.18,164.87 L241.86,148" id="Path" stroke="#A9975B" stroke-width="0.5"></path>
            <path d="M241.93,150.14 C238.23,150.39 208.93,166.85 208.93,166.85 L167.08,150.14" id="Path" stroke="#A9975B" stroke-width="0.5"></path>
            <path d="M242.24,152.39 C237.51,151.66 208.81,168.49 208.81,168.49 C178.14,155.67 165.2,151.49 165.2,151.49" id="Path" stroke="#A9975B" stroke-width="0.5"></path>
            <path d="M166.48,153.84 C166.48,153.84 199.97,166.07 209.68,170.73 C209.68,170.73 235.4,155.68 241.86,153.84" id="Path" stroke="#A9975B" stroke-width="0.5"></path>
            <polyline id="Path" stroke="#A9975B" stroke-width="0.5" points="167.08 155.91 209.69 172.62 242.76 154.42"></polyline>
            <polyline id="Path" stroke="#A9975B" stroke-width="0.5" points="167.13 157.56 209.69 174.34 242.24 155.91"></polyline>
            <path d="M167.08,159.78 C167.08,159.78 194.08,171.7 209.68,175.89 C209.68,175.89 234.16,163.89 241.47,158.5" id="Path" stroke="#A9975B" stroke-width="0.5"></path>
            <path d="M165.2,161.73 C165.2,161.73 194.73,172.34 209.64,177.73 C209.64,177.73 237.53,162.06 241.18,161.2" id="Path" stroke="#A9975B" stroke-width="0.5"></path>
            <path d="M167.13,164.37 C167.13,164.37 203.03,177.07 210.21,179.65 L241.21,162.49" id="Path" stroke="#A9975B" stroke-width="0.5"></path>
            <polyline id="Path" stroke="#A9975B" stroke-width="0.5" points="166.49 166.38 209.64 181.51 241.19 165.13"></polyline>
            <path d="M166.48,168.49 C166.48,168.49 205.48,181.26 209.63,183.78 L241.18,166.85" id="Path" stroke="#A9975B" stroke-width="0.5"></path>
            <path d="M166.48,170.73 C166.48,170.73 185.27,174.31 211.64,187.2 C211.64,187.2 219.75,178.27 241.47,168.49" id="Path" stroke="#A9975B" stroke-width="0.5"></path>
            <path d="M166.48,172.62 L209.94,186.38 L211.64,187.2 L215.45,183.78 C215.45,183.78 236.85,172.58 241.86,170.78" id="Path" stroke="#A9975B" stroke-width="0.5"></path>
            <polyline id="Path" stroke="#A9975B" stroke-width="0.5" points="167.08 175.32 210.04 188.82 241.47 172.62"></polyline>
            <path d="M167.08,177.75 C167.08,177.75 196.34,184.99 209.73,190.75 C209.73,190.75 234.45,178.36 241.47,175.35" id="Path" stroke="#A9975B" stroke-width="0.5"></path>
            <path d="M167.65,179.65 L209.83,193.65 C219.757901,187.405674 230.254745,182.115399 241.18,177.85" id="Path" stroke="#A9975B" stroke-width="0.5"></path>
            <path d="M167.65,181.51 C167.65,181.51 189.65,188.21 210.13,195.96 C210.13,195.96 236.8,182.96 240.13,180.04" id="Path" stroke="#A9975B" stroke-width="0.5"></path>
            <polyline id="Path" stroke="#A9975B" stroke-width="0.5" points="167.65 183.22 210.64 198.08 239.96 182.5"></polyline>
            <path d="M167.99,184.92 C167.99,184.92 200.77,197.87 208.42,199.99 L239.56,184.37" id="Path" stroke="#A9975B" stroke-width="0.5"></path>
            <path d="M167.8,187.65 C194.92,196.94 211.31,202.46 210.8,202.3 L239.39,186.7" id="Path" stroke="#A9975B" stroke-width="0.5"></path>
            <path d="M179.9,101.66 C179.9,101.66 181.76,137.83 180.47,145.11 C180.47,145.11 217.47,158.71 223.86,160.51 C223.86,160.51 246.79,147 252.21,143.69 L254.68,101.01 L208.8,90.56 L179.9,101.66 Z" id="Path" fill="#FFF2D6"></path>
            <path d="M179.9,101.66 C179.9,101.66 202.01,91.41 209.75,87.93 C209.75,87.93 232.28,95.67 237.93,97.06 C243.58,98.45 254.13,102.06 254.13,102.06 C254.13,102.06 228.65,114.17 222.5,118.06 C222.5,118.04 186.59,104.88 179.9,101.66 Z" id="Path" fill="#FFFFFF"></path>
            <path d="M179.95,103.54 C179.95,103.54 206.19,115.06 222.46,119.83 L254.68,102.65" id="Path" stroke="#A9975B" stroke-width="0.5"></path>
            <path d="M179.9,105.06 C179.9,105.06 215.09,118.68 222,121.17 L254.68,104.31" id="Path" stroke="#A9975B" stroke-width="0.5"></path>
            <path d="M254.75,106.44 C251.05,106.69 221.75,123.16 221.75,123.16 L179.9,106.44" id="Path" stroke="#A9975B" stroke-width="0.5"></path>
            <path d="M255.06,108.69 C250.33,107.96 221.63,124.79 221.63,124.79 C190.97,111.97 178.02,107.79 178.02,107.79" id="Path" stroke="#A9975B" stroke-width="0.5"></path>
            <path d="M179.3,110.14 C179.3,110.14 212.79,122.37 222.5,127.03 C222.5,127.03 248.22,112.03 254.68,110.14" id="Path" stroke="#A9975B" stroke-width="0.5"></path>
            <polyline id="Path" stroke="#A9975B" stroke-width="0.5" points="179.9 112.22 222.5 128.93 255.58 110.73"></polyline>
            <polyline id="Path" stroke="#A9975B" stroke-width="0.5" points="179.96 113.87 222.5 130.65 255.06 112.22"></polyline>
            <path d="M179.9,116.08 C179.9,116.08 206.9,128 222.5,132.19 C222.5,132.19 246.98,120.19 254.29,114.8" id="Path" stroke="#A9975B" stroke-width="0.5"></path>
            <path d="M178.02,118.04 C178.02,118.04 207.55,128.65 222.46,134.04 C222.46,134.04 250.35,118.37 254,117.51" id="Path" stroke="#A9975B" stroke-width="0.5"></path>
            <path d="M179.95,120.67 C179.95,120.67 215.86,133.37 223.03,135.95 L254.03,118.79" id="Path" stroke="#A9975B" stroke-width="0.5"></path>
            <polyline id="Path" stroke="#A9975B" stroke-width="0.5" points="179.31 122.69 222.46 137.82 254.01 121.43"></polyline>
            <path d="M179.3,124.79 C179.3,124.79 218.3,137.56 222.45,140.08 L254,123.14" id="Path" stroke="#A9975B" stroke-width="0.5"></path>
            <path d="M179.3,127.03 C179.3,127.03 198.09,130.62 224.47,143.5 C224.47,143.5 232.57,134.57 254.29,124.79" id="Path" stroke="#A9975B" stroke-width="0.5"></path>
            <path d="M179.3,128.92 L222.76,142.68 L224.47,143.5 L228.27,140.08 C228.27,140.08 249.67,128.89 254.68,127.08" id="Path" stroke="#A9975B" stroke-width="0.5"></path>
            <polyline id="Path" stroke="#A9975B" stroke-width="0.5" points="179.9 131.62 222.86 145.12 254.29 128.93"></polyline>
            <path d="M179.9,134.05 C179.9,134.05 209.16,141.29 222.55,147.05 C222.55,147.05 247.27,134.65 254.29,131.64" id="Path" stroke="#A9975B" stroke-width="0.5"></path>
            <path d="M180.47,135.95 L222.65,149.95 C232.574965,143.697712 243.072259,138.403861 254,134.14" id="Path" stroke="#A9975B" stroke-width="0.5"></path>
            <path d="M180.47,137.81 C180.47,137.81 202.42,144.51 222.96,152.26 C222.96,152.26 249.62,139.26 252.96,136.34" id="Path" stroke="#A9975B" stroke-width="0.5"></path>
            <polyline id="Path" stroke="#A9975B" stroke-width="0.5" points="180.47 139.53 223.46 154.38 252.78 138.81"></polyline>
            <path d="M180.81,141.23 C180.81,141.23 213.59,154.14 221.24,156.29 L252.39,140.67" id="Path" stroke="#A9975B" stroke-width="0.5"></path>
            <path d="M180.62,143.96 C207.74,153.24 224.13,158.76 223.62,158.61 L252.21,143" id="Path" stroke="#A9975B" stroke-width="0.5"></path>
            <path d="M170.97,60.99 C170.97,60.99 172.83,97.16 171.54,104.45 C171.54,104.45 208.54,118.04 214.94,119.84 C214.94,119.84 237.86,106.33 243.28,103.02 L245.76,60.34 L199.87,49.9 L170.97,60.99 Z" id="Path" fill="#FFF2D6"></path>
            <path d="M170.97,60.99 C170.97,60.99 193.08,50.74 200.82,47.26 C200.82,47.26 223.35,55 229.01,56.39 C234.67,57.78 245.21,61.39 245.21,61.39 C245.21,61.39 219.73,73.5 213.57,77.39 C213.57,77.37 177.67,64.21 170.97,60.99 Z" id="Path" fill="#FFF6EA"></path>
            <path d="M171.02,62.87 C171.02,62.87 197.27,74.39 213.53,79.14 L245.76,61.96" id="Path" stroke="#A9975B" stroke-width="0.5"></path>
            <path d="M170.97,64.39 C170.97,64.39 206.17,78.01 213.08,80.5 L245.76,63.64" id="Path" stroke="#A9975B" stroke-width="0.5"></path>
            <path d="M245.82,65.77 C242.12,66.03 212.82,82.49 212.82,82.49 L170.97,65.77" id="Path" stroke="#A9975B" stroke-width="0.5"></path>
            <path d="M246.13,68.02 C241.39,67.29 212.7,84.14 212.7,84.14 C182.04,71.32 169.1,67.14 169.1,67.14" id="Path" stroke="#A9975B" stroke-width="0.5"></path>
            <path d="M170.39,69.47 C170.39,69.47 203.87,81.71 213.58,86.37 C213.58,86.37 239.3,71.31 245.77,69.47" id="Path" stroke="#A9975B" stroke-width="0.5"></path>
            <polyline id="Path" stroke="#A9975B" stroke-width="0.5" points="170.97 71.55 213.58 88.26 246.66 70.06"></polyline>
            <polyline id="Path" stroke="#A9975B" stroke-width="0.5" points="171.03 73.2 213.58 89.98 246.13 71.55"></polyline>
            <path d="M170.97,75.42 C170.97,75.42 197.97,87.33 213.57,91.52 C213.57,91.52 238.05,79.52 245.36,74.13" id="Path" stroke="#A9975B" stroke-width="0.5"></path>
            <path d="M169.1,77.37 C169.1,77.37 198.63,87.98 213.53,93.37 C213.53,93.37 241.42,77.69 245.08,76.83" id="Path" stroke="#A9975B" stroke-width="0.5"></path>
            <path d="M171.02,80.01 C171.02,80.01 206.93,92.7 214.1,95.28 L245.1,78.12" id="Path" stroke="#A9975B" stroke-width="0.5"></path>
            <polyline id="Path" stroke="#A9975B" stroke-width="0.5" points="170.38 82.02 213.54 97.15 245.08 80.76"></polyline>
            <path d="M170.39,84.14 C170.39,84.14 209.39,96.92 213.53,99.43 L245.09,82.51" id="Path" stroke="#A9975B" stroke-width="0.5"></path>
            <path d="M170.39,86.37 C170.39,86.37 189.17,89.95 215.55,102.84 C215.55,102.84 223.65,93.9 245.37,84.12" id="Path" stroke="#A9975B" stroke-width="0.5"></path>
            <path d="M170.39,88.25 L213.85,102.01 L215.55,102.84 L219.36,99.41 C219.36,99.41 240.75,88.22 245.77,86.41" id="Path" stroke="#A9975B" stroke-width="0.5"></path>
            <polyline id="Path" stroke="#A9975B" stroke-width="0.5" points="170.97 90.95 213.93 104.45 245.37 88.26"></polyline>
            <path d="M170.97,93.39 C170.97,93.39 200.24,100.62 213.63,106.39 C213.63,106.39 238.34,93.99 245.36,90.98" id="Path" stroke="#A9975B" stroke-width="0.5"></path>
            <path d="M171.54,95.28 L213.73,109.28 C223.653949,103.02868 234.151474,97.738061 245.08,93.48" id="Path" stroke="#A9975B" stroke-width="0.5"></path>
            <path d="M171.54,97.14 C171.54,97.14 193.49,103.84 214.03,111.59 C214.03,111.59 240.69,98.59 244.03,95.67" id="Path" stroke="#A9975B" stroke-width="0.5"></path>
            <polyline id="Path" stroke="#A9975B" stroke-width="0.5" points="171.54 98.86 214.53 113.71 243.85 98.14"></polyline>
            <path d="M171.88,100.56 C171.88,100.56 204.67,113.56 212.32,115.62 L243.46,100" id="Path" stroke="#A9975B" stroke-width="0.5"></path>
            <path d="M171.7,103.29 C198.82,112.57 215.2,118.1 214.7,117.94 L243.29,102.34" id="Path" stroke="#A9975B" stroke-width="0.5"></path>
            <path d="M209.64,148.69 C209.64,148.69 211.33,205.05 209.64,214.61 C209.64,214.61 259.01,235.73 267.36,238.09 C267.36,238.09 297.45,220.36 304.57,216.01 L307.82,147.84 L247.58,134.14 L209.64,148.69 Z" id="Path" fill="#FFF6EA"></path>
            <path d="M209.64,148.69 C209.64,148.69 238.64,135.23 248.83,130.69 C248.83,130.69 278.41,140.85 285.83,142.69 C293.25,144.53 309.45,146.91 309.45,146.91 C309.45,146.91 272.14,164.31 265.57,170.23 C265.57,170.19 218.39,152.91 209.64,148.69 Z" id="Path" fill="#FFDA99"></path>
            <path d="M209.71,151.14 C209.71,151.14 244.16,166.26 265.51,172.52 L307.82,149.96" id="Path" stroke="#A9975B" stroke-width="0.5"></path>
            <path d="M209.64,153.14 C209.64,153.14 255.84,171.02 264.92,174.29 L307.82,152.14" id="Path" stroke="#A9975B" stroke-width="0.5"></path>
            <path d="M307.9,154.97 C303.04,155.3 264.59,176.91 264.59,176.91 L209.64,154.97" id="Path" stroke="#A9975B" stroke-width="0.5"></path>
            <path d="M308.31,157.92 C302.11,156.92 264.42,179.05 264.42,179.05 C224.17,162.22 207.18,156.78 207.18,156.78" id="Path" stroke="#A9975B" stroke-width="0.5"></path>
            <path d="M208.86,159.82 C208.86,159.82 252.86,175.88 265.57,182 C265.57,182 299.33,162.24 307.82,159.82" id="Path" stroke="#A9975B" stroke-width="0.5"></path>
            <polyline id="Path" stroke="#A9975B" stroke-width="0.5" points="209.64 162.54 265.57 184.48 309 160.59"></polyline>
            <polyline id="Path" stroke="#A9975B" stroke-width="0.5" points="209.71 164.71 265.57 186.74 308.31 162.54"></polyline>
            <path d="M209.64,167.62 C209.64,167.62 245.11,183.27 265.57,188.76 C265.57,188.76 297.7,173 307.3,165.94" id="Path" stroke="#A9975B" stroke-width="0.5"></path>
            <path d="M207.18,170.19 C207.18,170.19 245.94,184.12 265.51,191.19 C265.51,191.19 302.12,170.62 306.93,169.49" id="Path" stroke="#A9975B" stroke-width="0.5"></path>
            <path d="M209.71,173.65 C209.71,173.65 256.84,190.32 266.26,193.7 L306.93,171.14" id="Path" stroke="#A9975B" stroke-width="0.5"></path>
            <polyline id="Path" stroke="#A9975B" stroke-width="0.5" points="208.86 176.29 265.52 196.15 306.93 174.64"></polyline>
            <path d="M208.86,179.05 C208.86,179.05 260.08,195.82 265.5,199.13 L306.93,176.91" id="Path" stroke="#A9975B" stroke-width="0.5"></path>
            <path d="M208.86,182 C208.86,182 233.52,186.7 268.15,203.62 C268.15,203.62 278.79,191.89 307.3,179.05" id="Path" stroke="#A9975B" stroke-width="0.5"></path>
            <path d="M208.86,184.47 L265.91,202.54 L268.15,203.62 L273.15,199.13 C273.15,199.13 301.23,184.43 307.82,182" id="Path" stroke="#A9975B" stroke-width="0.5"></path>
            <polyline id="Path" stroke="#A9975B" stroke-width="0.5" points="209.64 188.02 266.04 205.74 307.31 184.48"></polyline>
            <path d="M209.64,191.21 C209.64,191.21 248.06,200.71 265.64,208.21 C265.64,208.21 298.08,191.93 307.3,187.98" id="Path" stroke="#A9975B" stroke-width="0.5"></path>
            <path d="M210.39,193.7 L265.77,212.08 C278.799545,203.874029 292.581928,196.929262 306.93,191.34" id="Path" stroke="#A9975B" stroke-width="0.5"></path>
            <path d="M210.39,196.14 C210.39,196.14 239.2,204.93 266.16,215.14 C266.16,215.14 301.16,198.06 305.61,194.24" id="Path" stroke="#A9975B" stroke-width="0.5"></path>
            <polyline id="Path" stroke="#A9975B" stroke-width="0.5" points="209.64 198.14 266.83 217.9 306.35 196.15"></polyline>
            <path d="M209.64,200.14 C209.64,200.14 253.87,217.59 263.92,220.36 L306.39,199.14" id="Path" stroke="#A9975B" stroke-width="0.5"></path>
            <polyline id="Path" stroke="#A9975B" stroke-width="0.5" points="208.86 203.62 267.09 223.44 306.93 201.71"></polyline>
            <path d="M209.71,207.02 C209.71,207.02 250.04,218.82 266.56,226.75 C266.56,226.75 290.99,211.27 306.93,204.67" id="Path" stroke="#A9975B" stroke-width="0.5"></path>
            <path d="M209.64,208.77 C209.64,208.77 250.83,223.58 266.69,229.39 L305.61,207.02" id="Path" stroke="#A9975B" stroke-width="0.5"></path>
            <path d="M209.64,211.02 C209.64,211.02 249.25,223.02 264.18,232.17 L305.61,209.77" id="Path" stroke="#A9975B" stroke-width="0.5"></path>
            <polyline id="Path" stroke="#A9975B" stroke-width="0.5" points="209.83 213.27 267.09 235.48 304.74 212.58"></polyline>
            <path d="M134.76,178.94 C134.76,178.94 137.02,222.85 135.45,231.69 C135.45,231.69 180.45,248.19 188.12,250.37 C188.12,250.37 215.95,233.98 222.53,229.96 L225.53,178.16 L169.83,165.47 L134.76,178.94 Z" id="Path" fill="#FFF2D6"></path>
            <path d="M134.82,181.22 C134.82,181.22 166.68,195.22 186.42,201 L225.54,180.14" id="Path" stroke="#A9975B" stroke-width="0.5"></path>
            <path d="M134.76,183.07 C134.76,183.07 177.48,199.6 185.87,202.62 L225.54,182.14" id="Path" stroke="#A9975B" stroke-width="0.5"></path>
            <path d="M225.61,184.75 C221.12,185.05 185.56,205.03 185.56,205.03 L134.76,184.75" id="Path" stroke="#A9975B" stroke-width="0.5"></path>
            <path d="M225.99,187.48 C220.25,186.59 185.41,207.02 185.41,207.02 C148.19,191.46 132.48,186.42 132.48,186.42" id="Path" stroke="#A9975B" stroke-width="0.5"></path>
            <path d="M134.04,189.24 C134.04,189.24 174.68,204.08 186.47,209.74 C186.47,209.74 217.69,191.47 225.54,189.24" id="Path" stroke="#A9975B" stroke-width="0.5"></path>
            <polyline id="Path" stroke="#A9975B" stroke-width="0.5" points="134.76 191.75 186.47 212.03 226.63 189.94"></polyline>
            <polyline id="Path" stroke="#A9975B" stroke-width="0.5" points="134.83 193.76 186.47 214.12 225.99 191.75"></polyline>
            <path d="M134.76,196.45 C134.76,196.45 167.56,210.91 186.47,216 C186.47,216 216.18,201.43 225.06,194.89" id="Path" stroke="#A9975B" stroke-width="0.5"></path>
            <path d="M132.48,198.82 C132.48,198.82 168.33,211.7 186.42,218.26 C186.42,218.26 220.27,199.26 224.71,198.19" id="Path" stroke="#A9975B" stroke-width="0.5"></path>
            <path d="M134.82,202.02 C134.82,202.02 178.4,217.43 187.11,220.56 L224.71,199.74" id="Path" stroke="#A9975B" stroke-width="0.5"></path>
            <polyline id="Path" stroke="#A9975B" stroke-width="0.5" points="134.04 204.46 186.43 222.83 224.71 202.94"></polyline>
            <path d="M134.04,207.02 C134.04,207.02 181.39,222.52 186.39,225.58 L224.69,205.03" id="Path" stroke="#A9975B" stroke-width="0.5"></path>
            <path d="M134.04,209.74 C134.04,209.74 156.84,214.09 188.86,229.74 C188.86,229.74 198.69,218.89 225.06,207.03" id="Path" stroke="#A9975B" stroke-width="0.5"></path>
            <path d="M134.04,212.03 L186.79,228.73 L188.86,229.73 L193.48,225.58 C193.48,225.58 219.48,211.99 225.54,209.74" id="Path" stroke="#A9975B" stroke-width="0.5"></path>
            <polyline id="Path" stroke="#A9975B" stroke-width="0.5" points="134.76 215.31 186.9 231.69 225.06 212.03"></polyline>
            <path d="M134.76,218.26 C134.76,218.26 170.28,227.04 186.53,234.01 C186.53,234.01 216.53,218.96 225.06,215.3" id="Path" stroke="#A9975B" stroke-width="0.5"></path>
            <path d="M135.46,220.56 L186.66,237.56 C198.691263,229.978716 211.414995,223.55658 224.66,218.38" id="Path" stroke="#A9975B" stroke-width="0.5"></path>
            <path d="M135.45,222.82 C135.45,222.82 162.09,230.95 187.02,240.36 C187.02,240.36 219.39,224.57 223.49,221.04" id="Path" stroke="#A9975B" stroke-width="0.5"></path>
            <polyline id="Path" stroke="#A9975B" stroke-width="0.5" points="135.45 224.9 187.64 242.93 223.22 224.03"></polyline>
            <path d="M135.87,226.97 C135.87,226.97 175.66,242.68 184.95,245.25 L222.74,226.25" id="Path" stroke="#A9975B" stroke-width="0.5"></path>
            <path d="M135.64,230.28 C168.56,241.55 188.45,248.28 187.88,248.06 L222.58,229.14" id="Path" stroke="#A9975B" stroke-width="0.5"></path>
            <path d="M134.76,178.94 C134.76,178.94 161.6,166.5 170.99,162.28 C170.99,162.28 198.34,171.67 205.2,173.36 C212.06,175.05 229.5,180.04 229.5,180.04 C229.5,180.04 200.96,193.64 191.19,198.24 C191.19,198.24 142.89,182.85 134.76,178.94 Z" id="Path" fill="#FFFFFF"></path>
            <path d="M84.85,195.21 C84.85,195.21 86.98,236.62 85.5,244.96 C85.5,244.96 127.91,260.53 135.19,262.58 C135.19,262.58 161.43,247.12 167.64,243.33 L170.47,194.47 L117.94,182.47 L84.85,195.21 Z" id="Path" fill="#FFF6EA"></path>
            <path d="M84.85,195.21 C84.85,195.21 110.17,183.48 119.03,179.5 C119.03,179.5 144.82,188.35 151.29,189.95 C157.76,191.55 170.79,193.72 170.79,193.72 C170.79,193.72 139.39,208.8 133.63,213.96 C133.63,213.96 92.52,198.9 84.85,195.21 Z" id="Path" fill="#F1F2F8"></path>
            <path d="M84.91,197.37 C84.91,197.37 114.96,210.56 133.58,216.02 L170.47,196.35" id="Path" stroke="#A9975B" stroke-width="0.5"></path>
            <path d="M84.85,199.14 C84.85,199.14 125.15,214.73 133.06,217.58 L170.47,198.27" id="Path" stroke="#A9975B" stroke-width="0.5"></path>
            <path d="M170.54,200.69 C166.31,200.98 132.77,219.82 132.77,219.82 L84.85,200.69" id="Path" stroke="#A9975B" stroke-width="0.5"></path>
            <path d="M170.9,203.27 C165.49,202.43 132.63,221.69 132.63,221.69 C97.52,207.02 82.71,202.27 82.71,202.27" id="Path" stroke="#A9975B" stroke-width="0.5"></path>
            <path d="M84.17,204.92 C84.17,204.92 122.51,218.92 133.63,224.26 C133.63,224.26 163.07,207.03 170.47,204.92" id="Path" stroke="#A9975B" stroke-width="0.5"></path>
            <polyline id="Path" stroke="#A9975B" stroke-width="0.5" points="84.86 207.3 133.63 226.43 171.5 205.59"></polyline>
            <polyline id="Path" stroke="#A9975B" stroke-width="0.5" points="84.92 209.19 133.63 228.4 170.9 207.3"></polyline>
            <path d="M84.85,211.73 C84.85,211.73 115.79,225.37 133.63,230.14 C133.63,230.14 161.63,216.4 170.02,210.24" id="Path" stroke="#A9975B" stroke-width="0.5"></path>
            <path d="M82.71,213.96 C82.71,213.96 116.51,226.11 133.58,232.3 C133.58,232.3 165.51,214.35 169.69,213.37" id="Path" stroke="#A9975B" stroke-width="0.5"></path>
            <path d="M84.91,216.98 C84.91,216.98 126.02,231.52 134.23,234.47 L169.69,214.83" id="Path" stroke="#A9975B" stroke-width="0.5"></path>
            <polyline id="Path" stroke="#A9975B" stroke-width="0.5" points="84.18 219.28 133.58 236.61 169.7 217.85"></polyline>
            <path d="M84.17,221.69 C84.17,221.69 128.84,236.32 133.57,239.2 L169.69,219.82" id="Path" stroke="#A9975B" stroke-width="0.5"></path>
            <path d="M84.17,224.26 C84.17,224.26 105.68,228.37 135.88,243.12 C135.88,243.12 145.15,232.89 170.02,221.69" id="Path" stroke="#A9975B" stroke-width="0.5"></path>
            <path d="M84.17,226.42 L133.93,242.14 L135.88,243.08 L140.24,239.16 C140.24,239.16 164.73,226.34 170.47,224.22" id="Path" stroke="#A9975B" stroke-width="0.5"></path>
            <polyline id="Path" stroke="#A9975B" stroke-width="0.5" points="84.86 229.52 134.03 244.97 170.02 226.43"></polyline>
            <path d="M84.85,232.3 C84.85,232.3 118.39,240.58 133.69,247.14 C133.69,247.14 161.98,232.95 170.02,229.5" id="Path" stroke="#A9975B" stroke-width="0.5"></path>
            <path d="M85.51,234.47 L133.8,250.47 C145.161015,243.312707 157.17876,237.255281 169.69,232.38" id="Path" stroke="#A9975B" stroke-width="0.5"></path>
            <path d="M85.5,236.6 C85.5,236.6 110.63,244.27 134.15,253.15 C134.15,253.15 164.67,238.25 168.54,234.92" id="Path" stroke="#A9975B" stroke-width="0.5"></path>
            <polyline id="Path" stroke="#A9975B" stroke-width="0.5" points="85.51 238.56 134.73 255.57 168.29 237.74"></polyline>
            <path d="M85.9,240.51 C85.9,240.51 123.39,255.34 132.19,257.76 L167.84,239.88" id="Path" stroke="#A9975B" stroke-width="0.5"></path>
            <path d="M85.68,243.64 C116.73,254.26 135.49,260.59 134.95,260.41 L167.68,242.55" id="Path" stroke="#A9975B" stroke-width="0.5"></path>
            <path d="M86.82,162.54 C86.82,162.54 88.58,192.73 87.1,201.07 C87.1,201.07 129.16,214.93 136.44,216.99 C136.44,216.99 163.59,202.51 169.79,198.72 L172.39,161.8 L119.86,149.8 L86.82,162.54 Z" id="Path" fill="#FFF2D6"></path>
            <path d="M84.67,161.78 C84.67,161.78 108.73,153.55 120.99,146.78 C132.057657,149.222118 142.864257,152.72497 153.26,157.24 C159.37,159.9 170.5,162.71 170.5,162.71 C170.5,162.71 147.5,176.95 135.59,181.25 C135.59,181.29 92.39,165.46 84.67,161.78 Z" id="Path" fill="#FFFFFF"></path>
            <path d="M86.88,164.7 C86.88,164.7 116.88,177.89 135.54,183.34 L172.39,163.67" id="Path" stroke="#A9975B" stroke-width="0.5"></path>
            <path d="M86.82,166.44 C86.82,166.44 127.11,182.03 135.02,184.88 L172.39,165.57" id="Path" stroke="#A9975B" stroke-width="0.5"></path>
            <path d="M172.51,168.02 C168.27,168.31 134.73,187.15 134.73,187.15 L86.82,168.02" id="Path" stroke="#A9975B" stroke-width="0.5"></path>
            <path d="M171.98,170.6 C166.57,169.76 134.59,189.02 134.59,189.02 C99.49,174.35 84.67,169.6 84.67,169.6" id="Path" stroke="#A9975B" stroke-width="0.5"></path>
            <path d="M86.14,172.25 C86.14,172.25 124.47,186.25 135.59,191.59 C135.59,191.59 164.59,174.5 171.98,172.39" id="Path" stroke="#A9975B" stroke-width="0.5"></path>
            <polyline id="Path" stroke="#A9975B" stroke-width="0.5" points="86.82 174.63 135.59 193.75 172.44 173.49"></polyline>
            <polyline id="Path" stroke="#A9975B" stroke-width="0.5" points="86.88 176.51 135.59 195.72 171.75 175.73"></polyline>
            <path d="M86.82,179.06 C86.82,179.06 117.75,192.7 135.59,197.49 C135.59,197.49 163.59,183.75 171.98,177.58" id="Path" stroke="#A9975B" stroke-width="0.5"></path>
            <path d="M84.67,181.29 C84.67,181.29 118.48,193.44 135.54,199.63 C135.54,199.63 167.47,181.63 171.66,180.7" id="Path" stroke="#A9975B" stroke-width="0.5"></path>
            <path d="M86.88,184.31 C86.88,184.31 127.98,198.85 136.19,201.8 L171.66,182.14" id="Path" stroke="#A9975B" stroke-width="0.5"></path>
            <polyline id="Path" stroke="#A9975B" stroke-width="0.5" points="86.14 186.61 135.55 203.94 170.94 185.55"></polyline>
            <path d="M86.14,189.02 C86.14,189.02 130.81,203.65 135.53,206.53 L170.93,187.53" id="Path" stroke="#A9975B" stroke-width="0.5"></path>
            <path d="M86.14,191.59 C86.14,191.59 107.64,195.69 137.84,210.45 C137.84,210.45 145.63,201.36 170.5,190.16" id="Path" stroke="#A9975B" stroke-width="0.5"></path>
            <path d="M86.14,193.75 L135.89,209.5 L137.89,210.45 L142.25,206.53 C142.25,206.53 164.8,194.82 170.55,192.7" id="Path" stroke="#A9975B" stroke-width="0.5"></path>
            <polyline id="Path" stroke="#A9975B" stroke-width="0.5" points="86.82 196.84 136 212.29 170.5 194.94"></polyline>
            <path d="M86.82,199.63 C86.82,199.63 120.32,207.91 135.65,214.48 C135.65,214.48 161.76,201.48 169.79,198.02" id="Path" stroke="#A9975B" stroke-width="0.5"></path>
            <polygon id="Path" fill="#240115" points="246.86 137.77 252.71 134.69 256.28 135.84 250.19 139.05"></polygon>
            <polygon id="Path" fill="#240115" points="226.99 148.65 233.77 144.72 236.69 145.98 230.12 150.15"></polygon>
            <path d="M255.45,138 C255.628872,137.6731 255.931511,137.431709 256.29,137.33 C256.469672,137.282436 256.661071,137.312835 256.817166,137.413725 C256.97326,137.514615 257.07958,137.676645 257.11,137.86 C257.089882,138.167011 256.895483,138.435282 256.61,138.55 C256.354408,138.705679 256.042526,138.738702 255.76,138.64 C255.622356,138.581834 255.517942,138.465154 255.475359,138.32192 C255.432777,138.178687 255.456488,138.023915 255.54,137.9" id="Path" fill="#240115"></path>
            <path d="M241.64,146.76 C241.861441,146.62356 242.130288,146.587229 242.38,146.66 C242.629779,146.741649 242.804264,146.967686 242.82,147.23 C242.81107,147.384515 242.759114,147.533456 242.67,147.66 C242.404861,148.041131 241.982834,148.283338 241.52,148.32 C241.17,148.32 240.94,147.93 240.95,147.61 C241.043664,147.23891 241.296091,146.92795 241.64,146.76 Z" id="Path" fill="#240115"></path>
            <path d="M245.01,147.24 C245.11,147.29 247.14,150.14 243.78,152.49" id="Path" fill="#240115"></path>
            <path d="M256.13,139.99 C256.13,139.99 258.77,141.62 262.67,139.22" id="Path" fill="#240115"></path>
            <path d="M256.82,148.14 C257.632908,147.879071 258.507092,147.879071 259.32,148.14 C260.103549,148.383889 260.658604,149.081671 260.72,149.9" id="Path" fill="#F14C0E"></path>
            <path d="M241.23,140.83 C241.23,140.83 241.23,140.35 242.32,140.68 C244.92588,141.24311 247.575935,141.577713 250.24,141.68 C252.06,141.68 256.24,140.81 258.55,141.3 C261.11,141.84 262.03,142.3 263.79,144.7 C265.79,147.45 265.89,148.03 267.07,148.87 C268.25,149.71 265,150.42 263.91,147.64 C263.4,146.33 263.23,144.06 260.23,142.55 C258.32,141.55 253.75,142.9 252.23,142.98 C248.940824,143.249053 245.63272,142.791585 242.54,141.64 C241.14,141.14 241.23,140.83 241.23,140.83 Z" id="Path" fill="#AE703C"></path>
            <path d="M265.84,156.08 C266.146015,154.831584 267.047519,153.81412 268.25,153.36 C269.51,152.72 270.55,153.06 271.83,152.19 C273.11,151.32 273.21,150.65 274.24,150.19 C275.49,149.62 275.91,150 275.91,150 C275.91,150 276.15,150.34 275.01,150.54 C274.01,150.7 274.01,151.6 273.81,152.17 C273.54,153 272.37,153.62 270.63,153.96 C268.89,154.3 267.82,153.88 266.81,155.36 C266.24,156.14 265.93,156.4 265.84,156.08 Z" id="Path" fill="#F14C0E"></path>
            <path d="M217.29,147.43 C217.29,147.43 241.88,135.14 248.85,132.19 L252.38,133.19 C252.38,133.19 231,143.74 222.25,149.14 L217.29,147.43 Z" id="Path" fill="#5291EE"></path>
            <polygon id="Path" fill="#FFFFFF" points="323.19 80.09 299.31 116.5 301.05 115.74 323.8 81.1"></polygon>
            <path d="M291.86,96.93 L303.2,96.73 C309.312839,96.6156458 315.409116,96.0541466 321.44,95.05 L332.33,93.25 L331.17,94.41 L320.98,96.14 C314.698555,97.1832977 308.346973,97.7482542 301.98,97.83 L292.22,97.95 L291.86,96.93 Z" id="Path" fill="#FFFFFF"></path>
            <path d="M305.32,76.32 C306.72138,77.4540947 308.542561,77.9312442 310.32,77.63 C309.136007,79.1523685 308.623273,81.0913702 308.9,83 C308.97,83.82 309.44,83.66 309.51,83 C309.51534,81.8817867 309.666618,80.7690537 309.96,79.69 C310.35,78.6 311.27,77.8 311.06,77.39 C310.85,76.98 309.66,77.2 309.06,77.13 C307.949806,77.1148407 306.869779,76.766445 305.96,76.13 C305.23,75.5 305.03,76.14 305.32,76.32 Z" id="Path" fill="#F14C0E"></path>
            <path d="M323.18,80.14 C325.937891,84.7227151 328.994501,89.1188888 332.33,93.3 C332.33,93.3 317.4,108.96 299.33,116.54 C299.33,116.54 295.01,104.99 291.88,96.98 C291.86,96.93 310.93,87.89 323.18,80.14 Z" id="Path" fill="#FFF2D6"></path>
            <path d="M285.51,75.14 C289.151789,74.0061323 292.707576,72.612558 296.15,70.97 L298.39,75.84 C294.928082,77.5259128 291.372232,79.0116905 287.74,80.29 L285.51,75.14 Z" id="Path" fill="#00437A"></path>
            <path d="M305.71,66.81 C308.686466,65.4130556 311.584144,63.8540516 314.39,62.14 L316.51,66.75 C313.794799,68.4687496 310.96101,69.9925797 308.03,71.31 L305.71,66.81 Z" id="Path" fill="#00437A"></path>
            <path d="M279.94,72.97 C279.94,72.97 284.12,71.97 288.17,70.65 C295.897624,67.8191738 303.416233,64.4474953 310.67,60.56 L315.06,58.14 L311.39,50.48 C311.39,50.48 289.9,61.3 275.79,64.57 L279.94,72.97 Z" id="Path" fill="#F6FCFF"></path>
            <polygon id="Path" fill="#F14C0E" points="290.27 83.18 290.93 84.72 299.13 81.16 298.46 79.71"></polygon>
            <polygon id="Path" fill="#F14C0E" points="292.08 87.45 300.32 83.74 299.64 82.26 291.42 85.88"></polygon>
            <polygon id="Path" fill="#F14C0E" points="293.27 90.24 301.53 86.38 300.84 84.86 292.59 88.64"></polygon>
            <polygon id="Path" fill="#F14C0E" points="294.47 93.09 302.77 89.06 302.06 87.52 293.78 91.45"></polygon>
            <polygon id="Path" fill="#F14C0E" points="311.01 73.59 311.73 74.98 317.92 71.72 317.24 70.37"></polygon>
            <polygon id="Path" fill="#F14C0E" points="312.99 77.41 319.12 74.07 318.44 72.72 312.27 76.02"></polygon>
            <polygon id="Path" fill="#F14C0E" points="314.24 79.82 320.32 76.41 319.63 75.07 313.52 78.44"></polygon>
            <polygon id="Path" fill="#F14C0E" points="315.48 82.22 321.5 78.73 320.83 77.4 314.77 80.84"></polygon>
            <path d="M280.2,174.14 L294.66,166.35 C296.141276,166.695586 297.352712,167.757 297.89,169.18 C298.648559,171.409782 299.155048,173.717493 299.4,176.06 L295.67,185.14 L283.56,182.14 C283.56,182.14 283.96,175.14 280.2,174.14 Z" id="Path" fill="#FFA37B"></path>
            <path d="M292.95,167.29 C292.95,167.29 295.87,168.67 296.61,170.96 C297.225931,173.449948 297.670307,175.97922 297.94,178.53 L299.23,174.79 C298.998013,172.881655 298.548422,171.006123 297.89,169.2 C297.405992,167.740865 296.170094,166.65802 294.66,166.37 L292.95,167.29 Z" id="Path" fill="#6EFFFF"></path>
            <polyline id="Path" stroke="#86EBE8" stroke-width="2" points="89.53 19.14 89.53 59.83 46.92 59.83"></polyline>
            <circle id="Oval" fill="#2EBFB1" cx="46.92" cy="59.83" r="2"></circle>
            <circle id="Oval" fill="#2EBFB1" cx="89.53" cy="19.14" r="2"></circle>
            <circle id="Oval" fill="#2EBFB1" cx="89.53" cy="59.83" r="1.3"></circle>
            <path d="M59.65,28.03 L59.65,17.92 C59.6446142,17.5080379 59.3119621,17.1753858 58.9,17.17 L45.67,17.17 C45.2557864,17.17 44.92,17.5057864 44.92,17.92 L44.92,31.14 C44.9172822,31.3397332 44.9954267,31.5320818 45.1366725,31.6733275 C45.2779182,31.8145733 45.4702668,31.8927178 45.67,31.89 L55.78,31.89 C56.2052593,31.89 56.55,32.2347407 56.55,32.66 L56.55,42.78 C56.549964,43.195862 56.884174,43.5345281 57.3,43.54 L70.53,43.54 C70.7306572,43.5400178 70.9229539,43.459629 71.0638972,43.3168064 C71.2048405,43.1739839 71.2826754,42.9806393 71.28,42.78 L71.28,29.56 C71.2826754,29.3593607 71.2048405,29.1660161 71.0638972,29.0231936 C70.9229539,28.880371 70.7306572,28.7999822 70.53,28.8 L60.39,28.8 C59.9765003,28.7838775 59.6496858,28.4438138 59.65,28.03 Z" id="Path" fill="#FFC239"></path>
            <path d="M357.98,125.67 L357.98,115.56 C357.980018,115.359343 357.899629,115.167046 357.756806,115.026103 C357.613984,114.88516 357.420639,114.807325 357.22,114.81 L344,114.81 C343.799361,114.807325 343.606016,114.88516 343.463194,115.026103 C343.320371,115.167046 343.239982,115.359343 343.24,115.56 L343.24,128.79 C343.245472,129.205826 343.584138,129.540036 344,129.54 L354.11,129.54 C354.314217,129.54 354.510069,129.621125 354.654472,129.765528 C354.798875,129.909931 354.88,130.105783 354.88,130.31 L354.88,140.42 C354.877282,140.619733 354.955427,140.812082 355.096672,140.953328 C355.237918,141.094573 355.430267,141.172718 355.63,141.17 L368.86,141.17 C369.274214,141.17 369.61,140.834214 369.61,140.42 L369.61,127.19 C369.604614,126.778038 369.271962,126.445386 368.86,126.44 L358.75,126.44 C358.545783,126.44 358.349931,126.358875 358.205528,126.214472 C358.061125,126.070069 357.98,125.874217 357.98,125.67 Z" id="Path" fill="#6ECAFF"></path>
            <rect id="Rectangle" fill="#A9975B" x="373.26" y="65.31" width="14.73" height="14.73" rx="0.73"></rect>
            <rect id="Rectangle" fill="#6ECAFF" x="135.45" y="25.44" width="14.73" height="14.73" rx="0.73"></rect>
            <rect id="Rectangle" fill="#6ECAFF" x="60.84" y="195.72" width="14.73" height="14.73" rx="0.73"></rect>
            <rect id="Rectangle" fill="#F14C0E" x="60.84" y="210.45" width="14.73" height="14.73" rx="0.73"></rect>
            <rect id="Rectangle" fill="#5291EE" x="222.13" y="252.72" width="14.73" height="14.73" rx="0.73"></rect>
            <polyline id="Path" stroke="#86EBE8" stroke-width="2" points="366.92 271.24 394.35 271.24 394.35 238.37"></polyline>
            <circle id="Oval" fill="#2EBFB1" cx="394.35" cy="238.36" r="2"></circle>
            <circle id="Oval" fill="#2EBFB1" cx="366.92" cy="271.24" r="2"></circle>
            <circle id="Oval" fill="#2EBFB1" cx="394.35" cy="271.24" r="1.3"></circle>
            <path d="M265.51,255.14 C265.51,255.14 296.06,245.87 299.58,240.97 L350.12,257.57 C350.12,257.57 334.66,268.35 326.39,270.74 C318.12,273.13 314.57,277.27 314.57,277.27 C314.57,277.27 278.09,260.35 265.51,255.14 Z" id="Path" fill="#FBEBCC"></path>
            <polygon id="Path" fill="#F14C0E" points="273.32 255.91 282.83 252.12 294.12 256.33 285.83 261.12"></polygon>
            <polygon id="Path" fill="#FFC239" points="291.26 262.41 299.83 257.62 297.95 256.74 289.38 261.54"></polygon>
            <polygon id="Path" fill="#FFC239" points="294.2 263.77 302.77 258.98 300.89 258.11 292.32 262.9"></polygon>
            <polygon id="Path" fill="#FFC239" points="297.14 265.13 305.71 260.34 303.83 259.47 295.26 264.26"></polygon>
            <polygon id="Path" fill="#FFC239" points="300.09 266.5 308.65 261.7 306.77 260.83 298.2 265.62"></polygon>
            <polygon id="Path" fill="#FFC239" points="303.03 267.86 311.59 263.06 309.71 262.19 301.14 266.98"></polygon>
            <polygon id="Path" fill="#FFC239" points="305.97 269.22 314.53 264.43 312.65 263.55 304.08 268.35"></polygon>
            <polygon id="Path" fill="#FFC239" points="306.71 257.85 308.6 258.73 317.17 253.93 315.28 253.06"></polygon>
            <polygon id="Path" fill="#FFC239" points="311.54 260.09 320.11 255.3 318.22 254.42 309.65 259.21"></polygon>
            <polygon id="Path" fill="#FFC239" points="314.48 261.45 323.05 256.66 321.16 255.78 312.59 260.58"></polygon>
            <polygon id="Path" fill="#FFC239" points="317.42 262.81 325.99 258.02 324.1 257.15 315.53 261.94"></polygon>
            <polygon id="Path" fill="#FFC239" points="320.36 264.17 328.93 259.38 327.04 258.51 318.47 263.3"></polygon>
            <polygon id="Path" fill="#FFC239" points="323.3 265.54 331.87 260.74 329.98 259.87 321.42 264.66"></polygon>
            <polygon id="Path" fill="#FFC239" points="326.24 266.9 334.81 262.1 332.92 261.23 324.36 266.02"></polygon>
            <polygon id="Path" fill="#FFC239" points="329.18 268.26 337.75 263.47 335.86 262.59 327.3 267.39"></polygon>
            <polygon id="Path" fill="#FFC239" points="310.26 271.21 318.82 266.41 316.94 265.54 308.37 270.33"></polygon>
            <polygon id="Path" fill="#FFC239" points="313.2 272.57 321.76 267.77 319.88 266.9 311.31 271.69"></polygon>
            <path d="M276.49,251.54 C276.49,251.54 295.49,256.97 307.49,255.19 C313.76,254.25 314.68,252.3 318.49,252.11 C323.72,251.86 333.63,252.11 333.63,252.11 L299.63,240.94 C299.63,240.94 296.11,244.97 276.49,251.54 Z" id="Path" fill="#E9D0C0"></path>
            <path d="M329.22,222.37 C329.22,222.37 357.93,225.53 366.9,220.99 C375.87,216.45 374.5,215.76 374.5,215.76 C374.5,215.76 377.25,240.12 380,242.76 C380,242.76 367.76,251.15 331,248.12 L329.22,222.37 Z" id="Path" fill="#E7B079"></path>
            <path d="M355.56,235.79 L356.25,244.79 C356.25,244.79 364.92,244.79 369.01,242.94 L367.53,234.37 C363.610046,235.3142 359.592066,235.790853 355.56,235.79 Z" id="Path" fill="#F7FDFF"></path>
            <polygon id="Path" fill="#FFF2D6" points="371.08 222.07 372.89 221.05 374.46 229.36 372.11 229.99"></polygon>
            <polygon id="Path" fill="#FFF2D6" points="369.81 222.46 370.74 230.43 369.01 230.77 367.96 222.95"></polygon>
            <polygon id="Path" fill="#FFF2D6" points="367.47 231.02 365.37 231.26 364.68 223.88 366.39 223.64"></polygon>
            <polygon id="Path" fill="#FFF2D6" points="362.29 224.27 363.7 223.98 364 231.56 362.29 231.56"></polygon>
            <rect id="Rectangle" fill="#FFF2D6" x="359.6" y="224.27" width="1.52" height="7.28"></rect>
            <polygon id="Path" fill="#FFF2D6" points="369.76 234.38 371.33 234.05 372.77 241.77 370.74 242.31"></polygon>
            <polygon id="Path" fill="#FFF2D6" points="372.77 233.85 374.75 233.41 376.36 240.95 374.16 241.28"></polygon>
            <path d="M352.22,223.36 C352.22,223.36 349.31,232.71 339.75,248.66 L335.23,248.4 L331.02,248.1 L330.13,235.28 L329.23,222.36 L352.22,223.36 Z" id="Path" fill="#E9D0C0"></path>
            <path d="M270.75,191.28 C270.75,191.28 279.47,188.81 282.86,185.7 L295.06,187.59 L299.06,185.14 L302.51,175.89 C302.51,175.89 309.05,172.37 310.12,170.19 L314.47,171.65 C314.47,171.65 323.25,185.26 322.39,200.45 C321.53,215.64 332.59,211.14 335.21,210.87 C337.83,210.6 343.21,210.87 350.12,211.69 C357.03,212.51 358.22,211.8 358.56,212.47 C358.9,213.14 347.05,228.63 347.05,228.63 C347.05,228.63 349.89,228.03 350.12,228.63 C350.35,229.23 337.64,241.63 334.34,247.55 L321.2,247.55 C321.2,247.55 283.2,256.84 284.26,235.86 C285.32,214.88 280.81,197.08 270.75,191.28 Z" id="Path" fill="#89BEFF"></path>
            <path d="M281.71,162.83 C282.95,162.4 293.26,157.33 293.26,157.33 C292.831389,159.185571 292.831389,161.114429 293.26,162.97 C293.95,166.31 295.71,170.44 299.4,169.6 C299.4,169.6 300.48,171.76 301.8,171.03 C302.33,170.72 301.8,169.96 301.8,169.96 C301.8,169.96 302.61,170.23 302.99,169.77 C303.37,169.31 302.82,168.33 301.7,166.77 C301.04,165.84 301.4,165.26 301.4,165.26 C302.653278,166.412177 304.29765,167.044903 306,167.03 C309.19,167.19 308.9,167.29 310.4,169.13 L316.4,165.92 C316.4,165.92 310.51,158.04 309.4,156.92 C308.59,156.12 308.05,156.66 307.64,156.18 C307.23,155.7 308.41,154.88 307.82,154.1 C307.38,153.46 306.2,154.1 305.91,153.69 C305.62,153.28 306.39,152.12 305.43,151.3 C304.79,150.75 303.91,151.61 303.23,151.14 C302.91,150.92 303.52,149.41 301.41,150.08 C299.3,150.75 284.33,158.63 282.7,159.65 C280.9,160.77 279.98,161.51 280.23,162.26 C280.488679,162.818259 281.143682,163.070524 281.71,162.83 Z" id="Path" fill="#FFA37B"></path>
            <polygon id="Path" fill="#5291EE" points="283.27 186.71 295.07 195.61 301.54 189.43 299.75 185.71"></polygon>
            <path d="M281.28,198.89 C281.28,198.89 292.28,210.66 290.69,232.26 C290.25,238.1 303.59,240.26 307.82,239.59 C322.59,237.34 328.92,242.79 328.92,242.79 L319.71,244.79 C319.71,244.79 288.35,251.05 284.71,237.29 C281.07,223.53 281.28,198.89 281.28,198.89 Z" id="Path" fill="#5291EE"></path>
            <polygon id="Path" fill="#5291EE" points="347.06 228.63 341.13 228.63 341.71 227.62 347.83 227.62"></polygon>
            <path d="M295.06,191.19 C295.06,191.19 297.31,192.92 298.69,192.19 C300.07,191.46 299.69,187.75 299.69,187.75 L295.69,185.1 L295.06,191.19 Z" id="Path" fill="#240115"></path>
            <path d="M299.39,191.52 C299.39,191.52 299.97,195.2 301,199.24 C302.12,203.7 307.37,207.99 307.12,217.81 C306.95,224.38 307.2,228.07 312.73,227.91 C318.26,227.75 326.05,220.75 332.1,224.81 C338.15,228.87 334.6,227.05 340.65,227.45 C346.7,227.85 335.81,232.87 330.54,232.26 C325.27,231.65 330.05,230.32 326.02,231.26 C321.99,232.2 307.37,239.8 300.83,233.26 C294.99,227.47 301.14,218.57 299.75,210.51 C298.36,202.45 296.2,200.45 297.42,191.99 L299.39,191.52 Z" id="Path" fill="#240115"></path>
            <path d="M328.18,242.3 C328.18,242.3 330.6,239.59 335.58,240.36 C340.56,241.13 343.98,241.54 345.19,241.63 C346.6,241.73 346.19,242.87 345.19,243.2 C344.62,243.38 340.38,243.31 339.73,243.47 C339.08,243.63 340.06,244.66 342.73,244.8 C345.4,244.94 358.09,245.14 358.73,245.38 C359.37,245.62 359.61,246.38 359.01,246.61 C359.01,246.61 360.01,246.61 360.01,247.35 C360.01,248.26 358.9,248.58 357.5,248.66 C357.5,248.66 358.56,248.66 358.56,249.41 C358.56,250.33 357.64,250.6 355.97,250.69 C355.97,250.69 356.59,250.98 356.18,251.8 C355.77,252.62 353.94,253.18 346.64,252.71 C339.56,252.25 330.85,251.92 327.29,251.22 C323.73,250.52 322.59,249.15 322.59,249.15 L325.4,243.27 C326.436426,243.514325 327.520541,243.136055 328.18,242.3 Z" id="Path" fill="#FFA37B"></path>
            <path d="M344.85,241.55 C344.85,241.55 345.95,241.55 346.07,242.06 C346.191102,242.396646 346.034808,242.770014 345.71,242.92 C345.020372,242.855253 344.360761,242.606603 343.8,242.2 C343.34,241.74 343.53,241.46 343.53,241.46 L344.85,241.55 Z" id="Path" fill="#AE703C"></path>
            <path d="M358.12,245.28 C358.12,245.28 359.2,245.33 359.36,245.8 C359.41421,245.965678 359.41421,246.144322 359.36,246.31 C358.864457,246.44909 358.334368,246.391783 357.88,246.15 C357.528862,245.998676 357.326534,245.627053 357.39,245.25 L358.12,245.28 Z" id="Path" fill="#AE703C"></path>
            <path d="M359.05,246.61 C359.05,246.61 360.17,246.61 359.99,247.54 C359.952543,247.702018 359.877141,247.852824 359.77,247.98 C359.296394,247.985124 358.826753,247.893238 358.39,247.71 C358.026588,247.54217 357.815523,247.15657 357.87,246.76 L359.05,246.61 Z" id="Path" fill="#AE703C"></path>
            <path d="M356.57,248.64 C357.16279,248.571072 357.763253,248.660796 358.31,248.9 C358.47383,249.056594 358.566502,249.273369 358.566502,249.5 C358.566502,249.726631 358.47383,249.943406 358.31,250.1 C357.767081,250.169905 357.220391,250.002254 356.81,249.64 C356.528776,249.388439 356.390242,249.014025 356.44,248.64 L356.57,248.64 Z" id="Path" fill="#AE703C"></path>
            <path d="M354.87,250.73 C355.252718,250.699295 355.637282,250.699295 356.02,250.73 C356.58,251.05 356.18,251.81 356.18,251.81 C356.18,251.81 354.88,252.04 354.34,251.4 C354.186919,251.239998 354.113537,251.01985 354.14,250.8 L354.87,250.73 Z" id="Path" fill="#AE703C"></path>
            <path d="M343.82,246.08 C343.62,245.98 343.42,246.33 344.03,246.54 C344.64,246.75 347.23,247.23 352.38,247.17 C357.53,247.11 359.05,246.61 359.05,246.61 L359.23,246.51 L358.84,246.51 C358.84,246.51 357.34,246.71 353.99,246.8 C350.64,246.89 345.52,246.94 343.82,246.08 Z" id="Path" fill="#AE703C"></path>
            <path d="M357.58,248.66 C353.25008,248.973066 348.901544,248.922891 344.58,248.51 C343.36,248.37 342.91,247.88 344,248.16 C346.11,248.69 356.91,248.7 358.53,248.53 L357.58,248.66 Z" id="Path" fill="#AE703C"></path>
            <path d="M343.39,250.23 C342.94,249.77 343.39,250.74 355.89,250.43 C356.231721,250.426174 356.571062,250.487255 356.89,250.61 C353.109185,250.983158 349.300815,250.983158 345.52,250.61 C343.91,250.43 343.62,250.47 343.39,250.23 Z" id="Path" fill="#AE703C"></path>
            <path d="M281.93,160.19 C281.93,160.19 283.47,161.12 280.75,162.84 C280.389811,162.788253 280.134194,162.462121 280.17,162.1 C280.18,161.01 281.93,160.19 281.93,160.19 Z" id="Path" fill="#AE703C"></path>
            <path d="M296.61,169.19 C296.599574,168.818544 296.795984,168.471939 297.12,168.29 C297.7,167.96 298.23,168.5 298.4,168.65 C298.57,168.8 299.4,169.65 299.4,169.65 C298.863803,169.740634 298.316197,169.740634 297.78,169.65 C297.360174,169.587334 296.96009,169.430037 296.61,169.19 Z" id="Path" fill="#AE703C"></path>
            <path d="M299.39,169.6 C299.984377,169.435173 300.621209,169.541312 301.13,169.89 C301.91,170.48 302.01,170.78 301.99,170.81 C301.884774,171.009591 301.684879,171.141597 301.46,171.16 C301.04,171.23 300.23,171.14 299.39,169.6 Z" id="Path" fill="#AE703C"></path>
            <path d="M300.59,168.53 C300.953301,169.050909 301.368784,169.533406 301.83,169.97 C302.113119,170.079476 302.426881,170.079476 302.71,169.97 C303.15,169.79 302.87,169.3 302.77,169.21 C302.242338,168.571291 301.387215,168.304555 300.59,168.53 Z" id="Path" fill="#AE703C"></path>
            <path d="M303.71,160.14 C304.81,161.25 305.86,161.21 306.09,162.14 C306.32,163.07 305.9,163.55 306.55,164.64 C307.09,165.54 307.35,165.55 307.21,165.64 C307.07,165.73 306.4,165.64 304.63,164.42 C304.63,164.42 302.99,162.96 302,162.06 C302.313415,161.230837 302.92251,160.546941 303.71,160.14 Z" id="Path" fill="#AE703C"></path>
            <path d="M306.12,158.23 C306.2,158.61 305.97,158.99 304.79,159.8 C303.61,160.61 302.25,161.36 301.61,162.63 C301.217636,163.38501 301.128219,164.261302 301.36,165.08 C301.491127,165.918573 301.768687,166.727557 302.18,167.47 C301.141448,166.211674 300.613254,164.609248 300.7,162.98 C300.86,160.27 306.12,158.23 306.12,158.23 Z" id="Path" fill="#240115"></path>
            <path d="M307.14,153.82 C306.72,153.75 306.03,153.77 304.46,154.66 L304.4,154.66 C303.298924,155.242595 302.245641,155.911346 301.25,156.66 C299.598503,157.607056 298.419643,159.203052 298,161.06 C297.426649,162.570921 297.585438,164.262201 298.43,165.64 C299.047324,166.73818 299.810973,167.747408 300.7,168.64 C300.7,168.64 298.26,165.42 298.31,163.12 C298.222884,161.508256 298.788825,159.929389 299.88,158.74 C301.595702,157.127609 303.483748,155.709059 305.51,154.51 C306.058908,154.130195 306.712564,153.930952 307.38,153.94 C307.530875,153.966566 307.672201,154.032059 307.79,154.13 C307.61935,153.94953 307.387646,153.839025 307.14,153.82 Z" id="Path" fill="#AE703C"></path>
            <path d="M304.48,151.14 C303.74629,151.477422 303.071133,151.929777 302.48,152.48 C301.54,153.14 300.34,154.08 299.37,154.61 C298.4,155.14 296,156.4 295.44,158.19 C294.97843,160.666634 295.171462,163.220864 296,165.6 C296.73,167.41 299.44,169.6 299.44,169.6 C298.640249,168.79009 297.92336,167.902354 297.3,166.95 C296.16,165.24 296.22,164.95 295.82,161.78 C295.42,158.61 296.13,157.53 297.5,156.48 C299.05,155.3 301.63,153.77 303.18,152.39 C304.33,151.34 304.97,151.24 305.54,151.46 C305.283349,151.149603 304.865535,151.023471 304.48,151.14 Z" id="Path" fill="#AE703C"></path>
            <path d="M302.72,150.14 C300.61,150.4 299.18,152.76 296.84,153.93 C293.63,155.52 293.26,157.38 293.26,157.38 L292.6,157.7 C292.810368,156.725347 293.355191,155.855044 294.14,155.24 C295.40377,154.310732 296.72287,153.459161 298.09,152.69 C299.39,151.76 301.46,149.44 302.72,150.14 Z" id="Path" fill="#AE703C"></path>
            <path d="M307.84,156.42 C308.36,156.67 308.51,156.6 308.89,156.99 C311.49,159.56 315.71,166.31 315.71,166.31 L316.31,165.82 C316.31,165.82 312.36,160.48 309.77,157.42 C308.78,156.29 308.62,156.55 307.84,156.42 Z" id="Path" fill="#6EFFFF"></path>
            <path d="M298.39,186.93 C298.39,186.93 299.47,189.93 298.68,192.23 C298.68,192.23 299.74,191.77 299.74,189.14 C299.74,186.9 299.74,187.79 299.74,187.79 L298.39,186.93 Z" id="Path" fill="#6EFFFF"></path>
            <path d="M283.16,181.74 L295.67,185.14 L299.39,174.3 C299.39,174.3 301.68,176.03 302.77,174.99 L301.52,189.43 L295.8,185.55 L295.05,193.7 L281.7,185.55 C281.7,185.55 282.87,185.84 283.16,181.74 Z" id="Path" fill="#89BEFF"></path>
            <path d="M299.21,175.51 C299.21,175.51 301.52,176.99 302.69,176.13 L302.78,174.99 C302.27075,175.419628 301.54672,175.483631 300.97,175.15 C300.475532,174.973845 300.010339,174.724394 299.59,174.41 L299.21,175.51 Z" id="Path" fill="#6EFFFF"></path>
            <path d="M309.45,169 C309.45,169 314.45,167.22 315.94,165.28 L319.71,170.72 C321.340917,169.812563 323.386814,170.194856 324.58,171.63 C326.65,174.14 339.96,187.15 341.58,198.73 C343.2,210.31 324.64,203.65 322.39,200.45 L319.71,185.14 C319.71,185.14 311.62,172.8 309.45,169 Z" id="Path" fill="#89BEFF"></path>
            <path d="M328.92,199.31 C328.92,199.31 323.61,198.68 321.61,195.86 C319.61,193.04 312.61,174.11 312.61,174.11 C312.61,174.11 320.48,190.79 328.92,199.31 Z" id="Path" fill="#5291EE"></path>
            <path d="M314.5,166.8 L318.42,172.05 C318.42,172.05 321.47,170.59 323.29,172.05 C328.908322,177.14397 333.909214,182.879893 338.19,189.14 C338.19,189.14 330.48,175.72 323.61,170.57 C320.76,168.38 319.71,170.69 319.71,170.69 L316.02,165.38 C315.565253,165.906022 315.055705,166.382047 314.5,166.8 Z" id="Path" fill="#6EFFFF"></path>
            <path d="M278.39,195.25 C278.39,195.25 288.6,205.4 288.6,223.63 C288.6,241.86 287.23,236.24 295.24,239.63 C303.25,243.02 311.5,238.63 317.14,239.63 C322.78,240.63 321.05,243.5 327.27,242.34 C330.56,241.76 323.68,250.6 323.68,250.6 C323.68,250.6 320.47,250.9 317.14,250.98 C313.81,251.06 311.81,255.6 301.14,253.62 C290.47,251.64 277.92,252.96 272.89,249.42 C267.86,245.88 265.97,239.53 268.69,225.77 C271.41,212.01 259.38,196.64 270.09,191.56 C273.14,189.9 278.39,195.25 278.39,195.25 Z" id="Path" fill="#89BEFF"></path>
            <path d="M299.91,150.78 C299.91,150.78 291.64,154.64 281.91,160.19 C281.91,160.19 290.51,153.27 299.91,150.78" id="Path" fill="#6EFFFF"></path>
            <polygon id="Path" fill="#6EFFFF" points="302.69 176.13 301.54 189.43 301.86 176.23"></polygon>
            <g id="Group" opacity="0.29" style="mix-blend-mode: multiply;" transform="translate(236.000000, 119.000000)" fill="url(#radialGradient-5)">
                <circle id="Oval" cx="87" cy="87.135155" r="87"></circle>
            </g>
            <polyline id="Path" stroke="#86EBE8" stroke-width="2" points="389.36 12.89 231.73 12.89 231.73 32.36 206.38 32.36"></polyline>
            <polygon id="Path" fill="#96F9F4" opacity="0.5" points="317.06 12.89 306.43 36.55 309.03 54.17 314.72 53.31 317.57 34.11 325.51 34.04 327.63 49.07 314.72 53.32 321.49 75.42 350.35 63.65 350.42 12.9"></polygon>
            <polygon id="Path" stroke="#88EDEA" stroke-width="2" points="317.06 12.89 306.43 36.55 309.03 54.17 314.72 53.31 317.57 34.11 325.51 34.04 327.63 49.07 314.72 53.32 321.49 75.42 350.35 63.65 350.42 12.9"></polygon>
            <polyline id="Path" stroke="#88EDEA" points="316.44 59.15 333.41 52.78 333.95 41.82"></polyline>
            <polyline id="Path" stroke="#88EDEA" points="318.13 64.47 339.31 56.63 339.68 47.5"></polyline>
            <polyline id="Path" stroke="#88EDEA" points="319.79 69.87 344.67 60.06 344.88 52.75"></polyline>
            <circle id="Oval" fill="#2EBFB1" cx="350.41" cy="12.9" r="1.3"></circle>
            <circle id="Oval" fill="#2EBFB1" cx="316.89" cy="12.9" r="1.3"></circle>
            <circle id="Oval" fill="#2EBFB1" cx="306.43" cy="36.53" r="1.3"></circle>
            <circle id="Oval" fill="#2EBFB1" cx="317.57" cy="34.11" r="1.3"></circle>
            <circle id="Oval" fill="#2EBFB1" cx="325.42" cy="34.11" r="1.3"></circle>
            <circle id="Oval" fill="#2EBFB1" cx="327.41" cy="48.8" r="1.3"></circle>
            <circle id="Oval" fill="#2EBFB1" cx="333.29" cy="52.75" r="1.3"></circle>
            <circle id="Oval" fill="#2EBFB1" cx="339.07" cy="56.54" r="1.3"></circle>
            <circle id="Oval" fill="#2EBFB1" cx="344.42" cy="60.01" r="1.3"></circle>
            <circle id="Oval" fill="#2EBFB1" cx="350.41" cy="63.45" r="1.3"></circle>
            <circle id="Oval" fill="#2EBFB1" cx="344.88" cy="52.75" r="1.3"></circle>
            <circle id="Oval" fill="#2EBFB1" cx="339.68" cy="47.5" r="1.3"></circle>
            <circle id="Oval" fill="#2EBFB1" cx="333.95" cy="41.69" r="1.3"></circle>
            <circle id="Oval" fill="#2EBFB1" cx="314.86" cy="53.34" r="1.3"></circle>
            <circle id="Oval" fill="#2EBFB1" cx="316.27" cy="59.03" r="1.3"></circle>
            <circle id="Oval" fill="#2EBFB1" cx="317.93" cy="64.47" r="1.3"></circle>
            <circle id="Oval" fill="#2EBFB1" cx="319.62" cy="70.01" r="1.3"></circle>
            <circle id="Oval" fill="#2EBFB1" cx="321.46" cy="75.56" r="1.3"></circle>
            <circle id="Oval" fill="#2EBFB1" cx="309.03" cy="54.05" r="1.3"></circle>
            <circle id="Oval" fill="url(#radialGradient-1)" cx="329" cy="87.135155" r="87"></circle>
            <circle id="Oval" fill="#2EBFB1" cx="206.38" cy="32.36" r="2"></circle>
            <circle id="Oval" fill="#2EBFB1" cx="389.36" cy="12.89" r="2"></circle>
            <circle id="Oval" fill="#2EBFB1" cx="231.75" cy="12.89" r="1.3"></circle>
            <circle id="Oval" fill="url(#radialGradient-6)" cx="329" cy="87.135155" r="87"></circle>
            <circle id="Oval" fill="#2EBFB1" cx="231.75" cy="32.36" r="1.3"></circle>
        </g>
    </g>
</svg>