<svg xmlns="http://www.w3.org/2000/svg" xmlns:xlink="http://www.w3.org/1999/xlink" viewBox="0 0 410.83 344.52"><defs><style>.cls-1,.cls-11,.cls-19,.cls-20,.cls-25,.cls-28,.cls-35,.cls-42{fill:none;}.cls-2{fill:#a54820;}.cls-3{fill:#3d0700;}.cls-4{isolation:isolate;}.cls-5{clip-path:url(#clip-path);}.cls-44,.cls-6{opacity:0.12;}.cls-7{fill:#1571cb;}.cls-8{fill:#6ecaff;}.cls-38,.cls-9{fill:#ff96cc;}.cls-10,.cls-37{fill:#fff;}.cls-11{stroke:#5291ee;}.cls-11,.cls-19,.cls-20,.cls-25,.cls-28,.cls-35,.cls-42{stroke-miterlimit:10;}.cls-12{opacity:0.35;}.cls-13{fill:#ffc239;}.cls-14,.cls-18{opacity:0.5;}.cls-15{fill:#fff2d6;}.cls-16{fill:#6effff;}.cls-17{fill:#f14c0e;}.cls-18{fill:#96f9f4;}.cls-19,.cls-25{stroke:#88edea;}.cls-19{stroke-width:2px;}.cls-20{stroke:#6effff;}.cls-21{fill:#2ec1b3;}.cls-22{clip-path:url(#clip-path-2);}.cls-23{opacity:0.43;}.cls-23,.cls-45{mix-blend-mode:color-burn;}.cls-24{fill:#a9fffd;opacity:0.7;}.cls-25{stroke-width:1.86px;}.cls-26{fill:#933718;}.cls-27{clip-path:url(#clip-path-3);}.cls-28{stroke:#933718;stroke-width:0.5px;}.cls-29{fill:#00437a;}.cls-30{fill:#5b0d00;}.cls-31{fill:#7a1a00;}.cls-32{fill:#d73021;}.cls-33{clip-path:url(#clip-path-4);}.cls-34{fill:#a9975b;}.cls-35{stroke:#3d0700;}.cls-36{fill:#3a7beb;}.cls-37{opacity:0.4;}.cls-38{opacity:0.2;}.cls-39{fill:#7a250e;}.cls-40{fill:#240115;}.cls-41{fill:#f4f4f4;}.cls-42{stroke:#e2dce2;stroke-width:0.47px;}.cls-43{clip-path:url(#clip-path-5);}.cls-44{mix-blend-mode:multiply;}.cls-45{opacity:0.09;}</style><clipPath id="clip-path" transform="translate(22.68 23.46)"><rect class="cls-1" width="400" height="300"/></clipPath><clipPath id="clip-path-2" transform="translate(22.68 23.46)"><polygon class="cls-1" points="85.29 119.35 113.89 108.39 108.97 80.48 109.55 80.32 118.19 89.53 126.04 86.66 109.81 62.34 47.95 13.14 19.53 13.14 19.53 36.87 64.88 62.34 79.81 91.45 85.29 119.35"/></clipPath><clipPath id="clip-path-3" transform="translate(22.68 23.46)"><path class="cls-2" d="M143,128.37s-2.59-11.26-4.17-13.81c-1.29-2.08-10,3.5-13.1,5.6-3.21,1.25-12.09,5-12.85,8.15-.92,3.88-1.06,16.58-1.06,16.58s-3.77-.22-3,3.57,1.38,8.12,3.38,7.2c0,0,1.85,9.44,3.11,11s5.37,3,11.91,4.5a5.92,5.92,0,0,0,2.55-.06h0l.08,0a5.57,5.57,0,0,0,1.07-.46,5.93,5.93,0,0,0,1-.67l.07-.05h0a13.76,13.76,0,0,0,2.3-2.51c5.58-7.91,9-13.36,9.82-16s.66-13,.66-13c2-1.17,1.73-5.73,1.64-9.85S143,128.37,143,128.37Z"/></clipPath><clipPath id="clip-path-4" transform="translate(22.68 23.46)"><path class="cls-3" d="M144.57,120.32c-.63-1.49-.46-2.88-.77-4.1s-2.14-1.22-2.14-1.22-1.45-5.39-6.7-2.43c0,0-1.64-4.12-10,.77l-.12.07-.11,0c-8.43,4-9.11,9.34-9.11,9.34-5.29,2.63-5.54,8.92-5.54,8.92s-1.64,1.83-1.68,3.25.38,2.48.1,4.45c-.94,5.19,2,5.7,2,5.7l1.19.38c.92-.77,2.13-2.84,1.58-6.07s1.06-8.24,4-9.54c2.65-1.19,8-4.11,8.87-4.59s6.24-3.2,8.85-4.8c2.85-1.74,5.26,1.14,5.4,4.59s1.62,4.08,2.6,3.85l1-1.53A7.2,7.2,0,0,0,144.57,120.32Z"/></clipPath><clipPath id="clip-path-5" transform="translate(22.68 23.46)"><path class="cls-1" d="M63.82,237.89A24.09,24.09,0,0,0,70,242l116.86,47.26a7.69,7.69,0,0,0,5.92.21l133-49.72a4.22,4.22,0,0,0-.06-7.93L208.06,186.13a22.08,22.08,0,0,1-3.72-2.12"/></clipPath></defs><g class="cls-4"><g id="Layer_2" data-name="Layer 2"><g id="illu_2" data-name="illu 2"><g class="cls-5"><g class="cls-6"><use transform="translate(202.02 140.52)" xlink:href="#image"/></g><path class="cls-7" d="M204.34,184c-3.05-2.2-4.27-4.76-5.32-8.55L168,73.53a5.28,5.28,0,0,0-6.72-3.6L67.66,100.6a4.89,4.89,0,0,1-5.91-2.49l-2.11-4.29a4.9,4.9,0,0,0-5.82-2.52L20.46,101.45A2.79,2.79,0,0,0,18.62,105L57.21,227.66a24.08,24.08,0,0,0,6.61,10.23" transform="translate(22.68 23.46)"/><path class="cls-8" d="M63.82,237.89A24.09,24.09,0,0,0,70,242l116.86,47.26a7.69,7.69,0,0,0,5.92.21l133-49.72a4.22,4.22,0,0,0-.06-7.93L208.06,186.13a22.08,22.08,0,0,1-3.72-2.12" transform="translate(22.68 23.46)"/><ellipse class="cls-9" cx="34.71" cy="105.21" rx="4.69" ry="4.74" transform="translate(-8.2 39.39) rotate(-18.04)"/><ellipse class="cls-10" cx="34.71" cy="105.21" rx="1.69" ry="1.71" transform="translate(-8.2 39.39) rotate(-18.04)"/><polyline class="cls-10" points="285.87 270.69 228.53 247.76 141.3 279.91 198.64 302.85"/><polygon class="cls-10" points="281.05 253.3 264.68 259.34 289.62 269.31 305.99 263.28 281.05 253.3"/><polygon class="cls-10" points="301.41 243.02 281.69 250.29 310.24 261.71 329.96 254.44 301.41 243.02"/><line class="cls-11" x1="301.04" y1="258.03" x2="320.76" y2="250.76"/><line class="cls-11" x1="290.89" y1="253.97" x2="310.61" y2="246.7"/><line class="cls-11" x1="287.79" y1="247.95" x2="316.55" y2="259.46"/><line class="cls-11" x1="295.06" y1="245.34" x2="323.82" y2="256.85"/><polygon class="cls-10" points="266.68 229.13 246.96 236.4 275.52 247.82 295.24 240.55 266.68 229.13"/><line class="cls-11" x1="266.32" y1="244.14" x2="286.04" y2="236.87"/><line class="cls-11" x1="256.16" y1="240.08" x2="275.88" y2="232.81"/><line class="cls-11" x1="253.06" y1="234.06" x2="281.83" y2="245.57"/><line class="cls-11" x1="260.33" y1="231.45" x2="289.09" y2="242.96"/><g class="cls-12"><path class="cls-13" d="M209.32,73.23,91.21,117.64c-3.23,1.22-5.89,5.19-5.95,8.88L83.51,240.85c-.06,3.69,2.52,5.7,5.75,4.48l118.11-44.42c3.23-1.21,5.89-5.19,5.95-8.88L215.07,77.7C215.13,74,212.55,72,209.32,73.23Z" transform="translate(22.68 23.46)"/></g><g class="cls-14"><path class="cls-15" d="M198.5,68.73,80.39,113.15c-3.23,1.21-5.9,5.19-6,8.88L72.68,236.36c-.05,3.69,2.52,5.69,5.75,4.48l118.11-44.42c3.24-1.22,5.9-5.19,6-8.88l1.75-114.33C204.3,69.52,201.73,67.51,198.5,68.73Z" transform="translate(22.68 23.46)"/></g><path class="cls-16" d="M326,234.57c1,.45,1.46,2.74.58,4.74,0,0,2.59-1.31,1.72-4.81-.56-2.24-2.61-2.71-16.26-8l-87.34-33.91v1S325,234.11,326,234.57Z" transform="translate(22.68 23.46)"/><rect class="cls-17" x="140.17" y="48.1" width="16.35" height="16.35" rx="0.81"/><polygon class="cls-18" points="107.97 142.82 136.57 131.86 131.65 103.94 132.23 103.79 140.87 113 148.72 110.13 132.49 85.81 70.63 36.61 42.21 36.61 42.21 60.34 87.56 85.81 102.49 114.92 107.97 142.82"/><line class="cls-19" x1="43.3" y1="36.61" x2="127.14" y2="36.61"/><line class="cls-20" x1="110.4" y1="113.55" x2="115.11" y2="140.23"/><line class="cls-20" x1="117.6" y1="110.76" x2="122.31" y2="137.44"/><line class="cls-20" x1="124.42" y1="108.09" x2="129.13" y2="134.77"/><polygon class="cls-19" points="107.97 142.82 136.57 131.86 131.65 103.94 132.23 103.79 140.87 113 148.72 110.13 132.49 85.81 70.63 36.61 42.21 36.61 42.21 60.34 87.56 85.81 102.42 114.57 107.97 142.82"/><circle class="cls-21" cx="107.9" cy="142.82" r="1.67"/><circle class="cls-21" cx="115.11" cy="140.23" r="1.67"/><circle class="cls-21" cx="122.31" cy="137.44" r="1.67"/><circle class="cls-21" cx="129.13" cy="134.77" r="1.67"/><circle class="cls-21" cx="136.37" cy="131.86" r="1.67"/><circle class="cls-21" cx="132.06" cy="104.17" r="1.67"/><circle class="cls-21" cx="132.6" cy="85.81" r="1.67"/><circle class="cls-21" cx="124.42" cy="108.09" r="1.67"/><circle class="cls-21" cx="117.6" cy="110.76" r="1.67"/><circle class="cls-21" cx="110.4" cy="113.55" r="1.67"/><circle class="cls-21" cx="102.71" cy="116.23" r="1.67"/><circle class="cls-21" cx="42.21" cy="60.34" r="1.67"/><circle class="cls-21" cx="42.21" cy="36.61" r="1.67"/><circle class="cls-21" cx="71.77" cy="36.61" r="1.67"/><circle class="cls-21" cx="140.8" cy="112.9" r="1.67"/><circle class="cls-21" cx="148.51" cy="110.07" r="1.67"/><circle class="cls-21" cx="127.14" cy="36.61" r="2"/><g class="cls-22"><g class="cls-23"/></g><polyline class="cls-19" points="325.54 40.66 387.11 40.66 387.11 59.66 409.17 59.66 409.17 290.65 345.04 290.65 345.04 306.37"/><path class="cls-24" d="M234,34.37c-.2.58.11,32,.11,32h21.35L262.54,78H242v9.27l41.51,8.46,103,2.42V57.51L283.31,64.1l-25.23-30Z" transform="translate(22.68 23.46)"/><path class="cls-19" d="M234,34.37c-.2.58.11,32,.11,32h21.35L262.54,78H242v9.27l41.51,8.46,103,2.42V57.51L283.31,64.1l-25.23-30Z" transform="translate(22.68 23.46)"/><line class="cls-20" x1="256.67" y1="81.48" x2="278.93" y2="81.48"/><line class="cls-20" x1="256.67" y1="73.8" x2="278.93" y2="73.8"/><line class="cls-20" x1="256.67" y1="66.12" x2="278.93" y2="66.12"/><circle class="cls-21" cx="264.68" cy="101.41" r="1.67"/><circle class="cls-21" cx="264.68" cy="110.59" r="1.67"/><circle class="cls-21" cx="284.91" cy="101.41" r="1.67"/><circle class="cls-21" cx="305.99" cy="87.56" r="1.67"/><circle class="cls-21" cx="306.38" cy="119.3" r="1.67"/><circle class="cls-21" cx="409.17" cy="121.56" r="1.67"/><circle class="cls-21" cx="409.17" cy="80.99" r="1.67"/><circle class="cls-21" cx="256.75" cy="89.8" r="1.67"/><circle class="cls-21" cx="256.75" cy="81.48" r="1.67"/><circle class="cls-21" cx="256.75" cy="73.8" r="1.67"/><circle class="cls-21" cx="256.75" cy="66.12" r="1.67"/><circle class="cls-21" cx="256.75" cy="57.94" r="1.67"/><circle class="cls-21" cx="280.84" cy="57.53" r="1.67"/><circle class="cls-21" cx="279.56" cy="66.12" r="1.67"/><circle class="cls-21" cx="278.93" cy="73.8" r="1.67"/><circle class="cls-21" cx="278.5" cy="81.48" r="1.67"/><circle class="cls-21" cx="278.14" cy="89.8" r="1.67"/><circle class="cls-21" cx="409.17" cy="59.6" r="1.67"/><circle class="cls-21" cx="387.33" cy="59.6" r="1.67"/><circle class="cls-21" cx="387.33" cy="40.66" r="1.67"/><circle class="cls-21" cx="409.17" cy="290.65" r="1.67"/><circle class="cls-21" cx="345.23" cy="290.65" r="1.67"/><circle class="cls-21" cx="325.54" cy="40.66" r="2"/><circle class="cls-21" cx="345.05" cy="306.37" r="2"/><path class="cls-13" d="M64,262.91V251.69a.84.84,0,0,0-.83-.84H48.51a.84.84,0,0,0-.83.84v14.67a.83.83,0,0,0,.83.84H59.73a.85.85,0,0,1,.85.85v11.22a.85.85,0,0,0,.84.84H76.09a.85.85,0,0,0,.84-.84V264.6a.84.84,0,0,0-.84-.84H64.88A.86.86,0,0,1,64,262.91Z" transform="translate(22.68 23.46)"/><polyline class="cls-25" points="39.03 210.99 39.03 278.37 54.13 278.37 54.13 302.71"/><circle class="cls-21" cx="54.13" cy="302.71" r="1.86"/><circle class="cls-21" cx="39.03" cy="210.99" r="1.86"/><circle class="cls-21" cx="54.13" cy="278.48" r="1.55"/><circle class="cls-21" cx="39.03" cy="278.48" r="1.55"/><g class="cls-12"><path class="cls-15" d="M188.86,64.46,70.75,108.87c-3.23,1.22-5.89,5.19-6,8.88L63.05,232.08c-.06,3.69,2.52,5.7,5.75,4.48l118.11-44.42c3.23-1.21,5.9-5.19,6-8.88l1.75-114.33C194.67,65.24,192.1,63.24,188.86,64.46Z" transform="translate(22.68 23.46)"/></g><path d="M111.85,180.37s11.67-13.59,33.72-13.24l-.22,2.92-32.83,12.53Z" transform="translate(22.68 23.46)"/><path class="cls-26" d="M142.39,154.33l-27.28,10.41-2.81,19.35,6.66,2.7c6.05,2.46,13.8-.47,19.86-7.52l6.78-7.89Z" transform="translate(22.68 23.46)"/><path class="cls-2" d="M143,128.37s-2.59-11.26-4.17-13.81c-1.29-2.08-10,3.5-13.1,5.6-3.21,1.25-12.09,5-12.85,8.15-.92,3.88-1.06,16.58-1.06,16.58s-3.77-.22-3,3.57,1.38,8.12,3.38,7.2c0,0,1.85,9.44,3.11,11s5.37,3,11.91,4.5a5.92,5.92,0,0,0,2.55-.06h0l.08,0a5.57,5.57,0,0,0,1.07-.46,5.93,5.93,0,0,0,1-.67l.07-.05h0a13.76,13.76,0,0,0,2.3-2.51c5.58-7.91,9-13.36,9.82-16s.66-13,.66-13c2-1.17,1.73-5.73,1.64-9.85S143,128.37,143,128.37Z" transform="translate(22.68 23.46)"/><g class="cls-27"><path d="M145.06,140.29a10.76,10.76,0,0,0-.32-1.93c-1.07-.36-1.94,1.2-2,2.19a7.79,7.79,0,0,0,.24,2.76.58.58,0,0,1,0,.19.64.64,0,0,1-.16.29,3.39,3.39,0,0,0-.36,3.53,3,3,0,0,0-.18,3.17,2.11,2.11,0,0,0-1,1.14,2.68,2.68,0,0,0-.14,1.68,2.25,2.25,0,0,0-1.12,1.17,2.92,2.92,0,0,0-.23,1.77,2.59,2.59,0,0,0-1.51,1.27,4.15,4.15,0,0,0-.56,2.24c-.5-.08-1,.45-1.41,1.1a7.49,7.49,0,0,0-.76,2.16,1.61,1.61,0,0,0-1.45.72,3.39,3.39,0,0,0-.7,2,1,1,0,0,0-1,.24,2.35,2.35,0,0,0-.72,1.21.66.66,0,0,0-.89-.33l-.07,0-.08,0a1.89,1.89,0,0,0-.73,1.18.81.81,0,0,0-.88-.36,1.63,1.63,0,0,0-1,.82,1.27,1.27,0,0,0-1-1.09,1.71,1.71,0,0,0-1.45.82,2.59,2.59,0,0,0-1.1-1.18,1.2,1.2,0,0,0-1.48.43,1.79,1.79,0,0,0-.93-1.45,1.58,1.58,0,0,0-1.6.38,1.65,1.65,0,0,0-.55-1.35,1.08,1.08,0,0,0-1.24.08,1.68,1.68,0,0,0-.45-1.37,1,1,0,0,0-1.16,0c.38-1.17,0-2.45-.78-2.66.38-1.31-.11-2.68-1-2.8-.07,0-.16,0-.19-.1a.55.55,0,0,1,0-.19,4.26,4.26,0,0,0-.59-2.51c-.51-.83-1.34-.84-2.32.06a16.47,16.47,0,0,1,0,2.33c-.12,1,.65,1.21.78,2.16a24.47,24.47,0,0,0,1.08,4.29c.92,2.79,1.59,3.62,3.3,4.58a18.63,18.63,0,0,0,11.26,2.31,7.85,7.85,0,0,0,2.42-.78l.06,0,.06,0a11.1,11.1,0,0,0,2.32-1.73c3.44-3.2,6.13-7.93,8.58-12.63a28.08,28.08,0,0,0,3.15-8.19,21.54,21.54,0,0,0,.13-4.93C145.18,142,145.15,141.25,145.06,140.29Z" transform="translate(22.68 23.46)"/></g><path d="M135.32,151.5a9.21,9.21,0,0,0-3.43,2,8.14,8.14,0,0,1-2.21,2.13l-.05-.17a1.11,1.11,0,0,1-.31.32.59.59,0,0,1-.34,0V156a4.18,4.18,0,0,1-2.4.31,8,8,0,0,0-3.46,1.69c-2,1.52-2.25,4.7-2,5.77a.84.84,0,0,0,1.38.58,2.21,2.21,0,0,0,1-2.12c0-.9-.08-2.89,2.11-3.14s2.51.58,3.65-.39a1.66,1.66,0,0,0,.36-.44.65.65,0,0,0,.4,0c1.21-.28,1.34-1.34,3.36-3.32s2.32-.12,2.5.69.5,1.27,1.31.9a2.13,2.13,0,0,0,1.12-1.9C138.25,153.45,137.42,150.84,135.32,151.5Z" transform="translate(22.68 23.46)"/><path class="cls-15" d="M77.25,206.3l4.29,24.92-14,5.33s.49-14.17,4.19-22.2S77.25,206.3,77.25,206.3Z" transform="translate(22.68 23.46)"/><path class="cls-15" d="M180.42,166.94l-4.3,28.19,14-5.33s-.5-13.78-4.2-19S180.42,166.94,180.42,166.94Z" transform="translate(22.68 23.46)"/><path class="cls-10" d="M180.41,166.94l-32.47,2.46s-9.73,13.13-19.11,18.74c-9.38,1.55-19.11-4.16-19.11-4.16L77.25,206.3l3.49,25.19,96.18-36.66Z" transform="translate(22.68 23.46)"/><path class="cls-15" d="M109.72,184l1.61-2.73s4,9.29,17.38,4.19,17.43-17.8,17.43-17.8l1.82,1.64s-4.43,14.5-18.85,20C114.12,195,109.72,184,109.72,184Z" transform="translate(22.68 23.46)"/><path class="cls-28" d="M113,150.71a16.63,16.63,0,0,0,2.33,4.19,17.86,17.86,0,0,1,3.85,8" transform="translate(22.68 23.46)"/><path class="cls-28" d="M143.1,134.23a36.64,36.64,0,0,1-1.33,6.32,37.33,37.33,0,0,0-2,11.44" transform="translate(22.68 23.46)"/><path class="cls-29" d="M134.14,149.32a1.55,1.55,0,0,1-.82,2,3.24,3.24,0,0,0-1.59,1.74,6.29,6.29,0,0,1-2.51,2.61,2.94,2.94,0,0,1-2.71.15c-.33-.17-.57-.53-1.76,0-1.41.66-1.13-1-1.13-1-.42.19-.34.81-.22,1.26.17.65,1.09.26,1.83-.09s1.49.34,2.18.59a2.77,2.77,0,0,0,1.83-.31h0l0,0h0l0,0h0a4.41,4.41,0,0,0,1.75-1.59,8.63,8.63,0,0,1,1.84-2.71c.74-.44,1.63-1,1.66-1.76C134.6,149.71,134.56,149.07,134.14,149.32Z" transform="translate(22.68 23.46)"/><path d="M130,139.93c.12-.12.23.39.11,1.11a7.5,7.5,0,0,0,.06,3.08,26.09,26.09,0,0,0,1.9,4.57c.87,1.49.29,1.52.13,1.32a18.07,18.07,0,0,1-1.47-2.56,12.43,12.43,0,0,1-1.17-4.35A8.76,8.76,0,0,1,130,139.93Z" transform="translate(22.68 23.46)"/><ellipse cx="120.44" cy="146.21" rx="1.37" ry="0.89" transform="translate(-46.29 172.03) rotate(-51.23)"/><ellipse class="cls-10" cx="121.04" cy="145.5" rx="0.32" ry="0.21" transform="translate(-45.11 181.78) rotate(-54.12)"/><path d="M116.61,148c0,.09.21.13,1.41-.57s1.67-1.06,2.11-1.27a15.74,15.74,0,0,1,2.41-.87c.87-.24.93-.78.74-.77a4.84,4.84,0,0,0-2.35.35,30.09,30.09,0,0,0-3.87,2.62C116.69,147.74,116.59,147.81,116.61,148Z" transform="translate(22.68 23.46)"/><path d="M122.66,139a1.12,1.12,0,0,1,.92,1.14c0,.72,0,.93-.66,1.41s-1.46.35-3.31,1.56-3.33,2.49-4,2.78-1.51-.15-.4-1.6,1.13-1.1,1.84-2.07,1.93-1.95,2.82-1.94S121.52,138.83,122.66,139Z" transform="translate(22.68 23.46)"/><ellipse cx="135.38" cy="138.29" rx="1.37" ry="0.89" transform="translate(-34.53 180.72) rotate(-51.23)"/><ellipse class="cls-10" cx="134.7" cy="138.26" rx="0.32" ry="0.21" transform="translate(-33.59 189.85) rotate(-54.12)"/><path d="M139.16,136c0,.09-.12.55-1.34,1a19.88,19.88,0,0,0-2.15.9A12.57,12.57,0,0,0,133,139.7c-.82.69-.65.08-.48-.09a9.32,9.32,0,0,1,2.18-2.05,23.47,23.47,0,0,1,4-1.55C139,135.89,139.15,135.86,139.16,136Z" transform="translate(22.68 23.46)"/><path d="M132,134.06a2.83,2.83,0,0,0-.6,1.95c.1.69.13.88.86.59s1.38-1.14,3.27-1.92,3.47-1.11,4.17-1.57,1.32-1.65.05-1.84-1.23.15-2.05,0a3.39,3.39,0,0,0-2.92,1.09C134,133.27,133,132.76,132,134.06Z" transform="translate(22.68 23.46)"/><path class="cls-10" d="M110.29,183l1.56-2.66s3.51,8.74,16.86,3.65a28.52,28.52,0,0,0,16.86-16.89l1.82,1.65s-4.44,13.8-18.28,19.08C114.58,193.4,110.29,183,110.29,183Z" transform="translate(22.68 23.46)"/><path d="M124,125.91s-1.62,2.6.36,3.49a3.29,3.29,0,0,0-.7,3.3c.65,2,1.49,2,1.49,2s-1.82,3.13-3,.9a4.68,4.68,0,0,1,0-4.33s-1.91-.83-1-3.8Z" transform="translate(22.68 23.46)"/><path class="cls-30" d="M135.47,153.8a11.18,11.18,0,0,1-5.15,5.3l-.62.34h0q-.34.17-.63.33c-4.1,2-5.61.53-5.61.53a2.34,2.34,0,0,0,1.22,3,5.54,5.54,0,0,0,5.46-.42c2-1.07,3-2.06,4.78-5C136.85,154.61,135.47,153.8,135.47,153.8Z" transform="translate(22.68 23.46)"/><path class="cls-31" d="M134.1,153.8c-1.19.51-2.3,1.82-3.45,2.86-.14.13-.28.25-.41.35a4.81,4.81,0,0,1-1.94.9c-1.24.22-2.48.16-3.65.9a2.81,2.81,0,0,0-1.19,3.38s-.42-1.21,2.41-1.31a15.9,15.9,0,0,0,2.24-.34,2,2,0,0,0,.42-.08h0a4,4,0,0,0,.91-.33c1-.47,1.92-1.15,3.93-3.31,2.56-2.75,2.51-1.42,2.51-1.42C136.2,153.93,135.29,153.3,134.1,153.8Z" transform="translate(22.68 23.46)"/><path class="cls-17" d="M129.65,159.43c.15.11,1.37-.32,1.34-.63s-.9.14-1.13.23S129.48,159.3,129.65,159.43Z" transform="translate(22.68 23.46)"/><path class="cls-32" d="M123.94,159.94a3.8,3.8,0,0,1,1.46-.85c.56-.17,1.21.07,2.06-.19a8.26,8.26,0,0,0,1.43-.58,10.21,10.21,0,0,1-2.4.34,2.7,2.7,0,0,0-2,.51C123.93,159.63,123.94,159.94,123.94,159.94Z" transform="translate(22.68 23.46)"/><path class="cls-3" d="M144.57,120.32c-.63-1.49-.46-2.88-.77-4.1s-2.14-1.22-2.14-1.22-1.45-5.39-6.7-2.43c0,0-1.64-4.12-10,.77l-.12.07-.11,0c-8.43,4-9.11,9.34-9.11,9.34-5.29,2.63-5.54,8.92-5.54,8.92s-1.64,1.83-1.68,3.25.38,2.48.1,4.45c-.94,5.19,2,5.7,2,5.7l1.19.38c.92-.77,2.13-2.84,1.58-6.07s1.06-8.24,4-9.54c2.65-1.19,8-4.11,8.87-4.59s6.24-3.2,8.85-4.8c2.85-1.74,5.26,1.14,5.4,4.59s1.62,4.08,2.6,3.85l1-1.53A7.2,7.2,0,0,0,144.57,120.32Z" transform="translate(22.68 23.46)"/><g class="cls-33"><path d="M135,113.64a4.25,4.25,0,0,1-1.37,2.22c.53.29.62,1.19.55,2a11.1,11.1,0,0,1-.47,2.29,6.27,6.27,0,0,1-.61,1.41,5.6,5.6,0,0,1-3.33,2.23,10.67,10.67,0,0,0,1.55-3.83c.2-1.32-.07-2.63-.85-3.16a4.38,4.38,0,0,0,1.73-3.13,3.7,3.7,0,0,0-.87-2.87,11.75,11.75,0,0,0,1.41-.32,2.71,2.71,0,0,1,1.35.34A2.32,2.32,0,0,1,135,113.64Z" transform="translate(22.68 23.46)"/><path d="M135.83,120.17A2.63,2.63,0,0,0,138,119a4.27,4.27,0,0,0,.88-2.83,1.88,1.88,0,0,0,.33.83c.36.38,1.06.13,1.53-.42a4.28,4.28,0,0,0,.86-2c0-.09.11-.13.18-.14a3.18,3.18,0,0,1,2,.19,2,2,0,0,1,1,1.8,3.11,3.11,0,0,1-1.09,2.45,2.46,2.46,0,0,1-1.84.55,1.78,1.78,0,0,1-1.32-1.09,4.21,4.21,0,0,1-2,2.52,1.62,1.62,0,0,1-2.19-.6s0,0-.06,0,0,.07,0,0" transform="translate(22.68 23.46)"/><path d="M128.37,113a3.37,3.37,0,0,1-1,1.9,2,2,0,0,1,1.27,1.74,3.82,3.82,0,0,1-.89,2.76,1.85,1.85,0,0,1,.85,1.48,7.33,7.33,0,0,1-.54,3.9,1.4,1.4,0,0,1-.27.46,1.11,1.11,0,0,1-.24.16,21.28,21.28,0,0,1-2.2,1.08,1.24,1.24,0,0,1-.51.13c-.16,0-.83.5-.94.39-.61-.57-.73-2.23-.59-3.3a8.87,8.87,0,0,1,1.1-3.26,4.08,4.08,0,0,1-.93-1.31,2.12,2.12,0,0,1-.19-1.17,3.9,3.9,0,0,1,.69-1.42c-.26-.33-.68-.41-1-.64a2,2,0,0,1-.72-1.67.73.73,0,0,1,.06-.32.65.65,0,0,1,.18-.22,11.7,11.7,0,0,1,2.75-1.88C126.51,111.24,128.75,110.68,128.37,113Z" transform="translate(22.68 23.46)"/><path d="M115.76,123a1.67,1.67,0,0,0,1.91,1.2,5.38,5.38,0,0,0-.2,3.55,3.78,3.78,0,0,0,1.13,1.41.84.84,0,0,0,.62.28,1.55,1.55,0,0,0,.66-.38l.71-.6c.14-.13.27.39.35.19.17-.43-.15-.92-.4-1.48a5.22,5.22,0,0,1,0-4.27,4.08,4.08,0,0,1-2-1.92,4.81,4.81,0,0,1-.13-3.53c-.23-.16-.6.15-.86.46C116.23,119.37,115.17,121.33,115.76,123Z" transform="translate(22.68 23.46)"/><path d="M110.55,131.92a2,2,0,0,0,2-.74,1.27,1.27,0,0,0,1.24,1,2.61,2.61,0,0,0,1.73-.89c-.22,1-.45,1.93-.71,2.89a1.52,1.52,0,0,1-.16.42,1.09,1.09,0,0,1-.31.33,1.64,1.64,0,0,1-1.54.25,2.77,2.77,0,0,1-1.16-.92,5.31,5.31,0,0,1-2,2.57,2.07,2.07,0,0,1-1.22.38c-.93-.07-1.42-1.24-1.29-2.5a8.52,8.52,0,0,1,1.48-3.64c.46-.69.85-1.07,1.07-.37S110.05,131.74,110.55,131.92Z" transform="translate(22.68 23.46)"/></g><path class="cls-34" d="M104.9,197.09c2.09,1.4,2.68-3.93,3.73-3.35s-.33,4.91,2.26,4,1.51,4.86-.6,5-3.53-2.29-4.51.93-3.89,2.05-2.74-.13,1.33-2.21.09-2.84S103.83,196.38,104.9,197.09Z" transform="translate(22.68 23.46)"/><ellipse class="cls-34" cx="106.32" cy="206.97" rx="1.18" ry="0.6" transform="translate(-91.23 305.53) rotate(-81.64)"/><path class="cls-26" d="M123.44,146.68s-.64,4.68-4.85,6.51" transform="translate(22.68 23.46)"/><path class="cls-26" d="M132.49,142s2,2.88,5.78.3" transform="translate(22.68 23.46)"/><path class="cls-35" d="M112.66,131.37s-2.82,1.64-4.08-2.26-4.16-.19-4,1.2" transform="translate(22.68 23.46)"/><path class="cls-35" d="M109.28,139.53s-1.76-1.83-3.12,1.19" transform="translate(22.68 23.46)"/><path class="cls-3" d="M116,123c-1.06-1.92,0-2-.83-3.16s-2.38-.16-2.85,1.09l.22,1.17s.85-1.2,1.28-1.12.57,0,1,2.47Z" transform="translate(22.68 23.46)"/><path class="cls-35" d="M122.32,115.14a4.8,4.8,0,0,1,1.56-5.34" transform="translate(22.68 23.46)"/><path class="cls-3" d="M131.91,112.07c0-1.65-.08-2.14.58-3.22s2.7-2.25,3.42-.51l1.21-2.2s-3.17-1.17-5.37,1c-1.3,1.3-1.4,2.62-1.32,4.65S131.91,112.07,131.91,112.07Z" transform="translate(22.68 23.46)"/><path class="cls-36" d="M122.8,139.18l-8.94,3.41a5.34,5.34,0,0,0-2.94,5.12l.19,2.35c.22,2.59,2,3.92,4.23,3.09l4.73-1.81c2.48-.94,4.65-3.78,5.34-7l.33-1.53C126.3,140.24,124.83,138.41,122.8,139.18Zm2,4.16-.29,1.25a8.35,8.35,0,0,1-4.68,5.78L115.71,152a2.58,2.58,0,0,1-3.71-2.39l-.17-1.9a4.42,4.42,0,0,1,2.58-4.22l7.85-3C124,139.76,125.33,141.21,124.84,143.34Z" transform="translate(22.68 23.46)"/><path class="cls-37" d="M119.87,150.37,115.71,152a2.58,2.58,0,0,1-3.71-2.39l-.17-1.9a4.42,4.42,0,0,1,2.58-4.22l7.85-3c1.78-.69,3.07.76,2.58,2.89l-.29,1.25A8.35,8.35,0,0,1,119.87,150.37Z" transform="translate(22.68 23.46)"/><path class="cls-36" d="M129.45,141.44l.33,1.27c.69,2.66,2.86,3.84,5.33,2.9l4.74-1.81c2.18-.83,4-3.56,4.23-6.31l.19-2.51c.18-2.2-1.19-3.53-2.94-2.87l-8.94,3.41A5.49,5.49,0,0,0,129.45,141.44Zm3.48-5.07,7.85-3c1.53-.59,2.73.46,2.58,2.25l-.17,2a6.44,6.44,0,0,1-3.71,5.23l-4.16,1.58a3.29,3.29,0,0,1-4.68-2.21l-.29-1A4.51,4.51,0,0,1,132.93,136.37Z" transform="translate(22.68 23.46)"/><path class="cls-37" d="M135.32,144.47l4.16-1.58a6.44,6.44,0,0,0,3.71-5.23l.17-2c.15-1.79-1.05-2.84-2.58-2.25l-7.85,3a4.51,4.51,0,0,0-2.58,4.87l.29,1A3.29,3.29,0,0,0,135.32,144.47Z" transform="translate(22.68 23.46)"/><path class="cls-7" d="M127.63,138.27l-.21.07h0A13.23,13.23,0,0,1,124,139l1.71,3.82a4.1,4.1,0,0,1,1.85-2.45,1.51,1.51,0,0,1,1.86,1l1.71-5.13A20.08,20.08,0,0,1,127.63,138.27Z" transform="translate(22.68 23.46)"/><path class="cls-38" d="M236.25,17.55,118.14,62c-3.23,1.22-5.9,5.2-6,8.88l-1.75,114.33c-.05,3.69,2.52,5.7,5.75,4.48l118.11-44.42c3.24-1.21,5.9-5.19,6-8.87L242,22C242.05,18.34,239.48,16.33,236.25,17.55Z" transform="translate(22.68 23.46)"/><ellipse class="cls-10" cx="208.13" cy="53.87" rx="17.87" ry="13.16" transform="translate(61.73 210.13) rotate(-52.66)"/><path class="cls-2" d="M204.5,49.9c2.63-2.72,3.66-4,5.52-8.76,1.45-3.69,2.94-.69,2.72,1.66a15.25,15.25,0,0,1-2.06,6.32,26.91,26.91,0,0,1,6.79-2.73c1.29-.32,2.14,1.41,1.21,2.68a5.41,5.41,0,0,1-1.3,1.28c.8-.49,2.16-1,2.2.5,0,1.16-.69,1.78-1.72,2.23a1.7,1.7,0,0,1,1.26.11c.64.35.46,1.79-.21,2.5a5.08,5.08,0,0,1-1.26,1.12c1.38-.47,1.2,1.5.33,2.24a19.21,19.21,0,0,1-3,2.08,50.06,50.06,0,0,1-4.58,2.36,30.45,30.45,0,0,1-12.26,2.84c-.13-3.27-.16-9.23-.09-11.82A16.8,16.8,0,0,0,204.5,49.9Z" transform="translate(22.68 23.46)"/><path class="cls-39" d="M215.92,48c-2.46,1.55-4.07,2.41-6.51,4.07a7,7,0,0,0-2,1.74,1.52,1.52,0,0,0,.24,2,2.13,2.13,0,0,0,.91.23,2.81,2.81,0,0,0-1.43,1.77c-.15.73.3,1.39,1,1.28a1.55,1.55,0,0,0-.77,1.9,1.39,1.39,0,0,0,1.76.39,1.89,1.89,0,0,0-.66,1.62c.13,1,1.34.7,1.89.56-1.68-.71-.82-2.09-.06-3-.54.18-1.23.39-1.67,0s-.19-1.06,0-1.38a3.36,3.36,0,0,1,1.2-.89c-.43.06-.91.1-1.2-.32a1.47,1.47,0,0,1,0-1.38,2.87,2.87,0,0,1,1.56-1.37c-.41,0-.88,0-1.18-.1-.57-.15-.79-1.17,0-1.9C211.32,51,213.77,50,215.92,48Z" transform="translate(22.68 23.46)"/><path class="cls-39" d="M211,39.6a4.17,4.17,0,0,1-.28,2.27,1,1,0,0,1-1.13.44S210.34,40,211,39.6Z" transform="translate(22.68 23.46)"/><path class="cls-17" d="M309.91,137.41V126.19a.85.85,0,0,0-.84-.84H294.4a.85.85,0,0,0-.84.84v14.67a.85.85,0,0,0,.84.84h11.21a.85.85,0,0,1,.86.85v11.22a.83.83,0,0,0,.83.83H322a.83.83,0,0,0,.83-.83V139.09a.83.83,0,0,0-.83-.83H310.76A.85.85,0,0,1,309.91,137.41Z" transform="translate(22.68 23.46)"/><rect class="cls-9" x="293.82" y="209.08" width="16.35" height="16.35" rx="0.81"/><rect class="cls-13" x="372.73" y="188.48" width="16.35" height="16.35" rx="0.81"/><rect class="cls-9" x="320.82" y="58.07" width="16.35" height="16.35" rx="1.31"/><path class="cls-7" d="M59.85,233.19s5.3,10.41,19,15.42,103.08,41.73,106.34,42.91,6.54,1.05,12.88-1.59c5.16-2.14,123.89-46.12,126.17-47.13s4.29-3.1,4.28-5,.29.73-6.67,3.35-124.22,46.48-127,47.49-4.52,1.83-12.18-1.15S78.17,245.28,74.07,243.62A42.23,42.23,0,0,1,59.85,233.19Z" transform="translate(22.68 23.46)"/><path class="cls-40" d="M145.48,177.56s8.63,5.52,12.25,4.88c5-.9,6.6-5.91,6.6-5.91a16.31,16.31,0,0,1-4,3.88c-2.67,1.63-6.06-.68-6.06-.68s-5.84-2.88-8.39-5.35Z" transform="translate(22.68 23.46)"/><line class="cls-11" x1="190.05" y1="299.41" x2="277.28" y2="267.26"/><line class="cls-11" x1="180.41" y1="295.55" x2="267.64" y2="263.4"/><line class="cls-11" x1="170.78" y1="291.7" x2="258.01" y2="259.55"/><line class="cls-11" x1="161.15" y1="287.85" x2="248.37" y2="255.7"/><line class="cls-11" x1="151.51" y1="283.99" x2="238.74" y2="251.84"/><line class="cls-11" x1="149.21" y1="276.99" x2="197.96" y2="296.49"/><line class="cls-11" x1="157.14" y1="274.07" x2="214.72" y2="297.1"/><line class="cls-11" x1="165.07" y1="271.14" x2="213.82" y2="290.65"/><line class="cls-11" x1="173" y1="268.22" x2="221.75" y2="287.72"/><line class="cls-11" x1="180.94" y1="265.3" x2="229.68" y2="284.8"/><line class="cls-11" x1="189" y1="262.32" x2="237.75" y2="281.83"/><line class="cls-11" x1="196.94" y1="259.4" x2="245.68" y2="278.9"/><line class="cls-11" x1="204.87" y1="256.48" x2="262.44" y2="279.51"/><line class="cls-11" x1="212.8" y1="253.55" x2="261.55" y2="273.06"/><line class="cls-11" x1="220.73" y1="250.63" x2="269.48" y2="270.13"/><g class="cls-14"><path class="cls-13" d="M220.68,75.84,102.57,120.26c-3.23,1.22-5.89,5.19-5.95,8.88L94.87,243.47c-.06,3.69,2.52,5.7,5.75,4.48l118.11-44.42c3.23-1.21,5.89-5.19,6-8.88l1.75-114.33C226.49,76.63,223.91,74.63,220.68,75.84Z" transform="translate(22.68 23.46)"/></g><path class="cls-29" d="M142.74,192.26a55.57,55.57,0,0,1-.58-6.23c.17-.59,1.27-1.82,3.41-3.37s27.25-10.37,28.88-10.75,2.73.56,2.67,1.34-.6,6.44-.6,6.44Z" transform="translate(22.68 23.46)"/><polygon class="cls-41" points="199.2 203.15 197.68 243.6 166.85 255.07 165.42 215.72 182.24 221.03 199.2 203.15"/><polygon class="cls-26" points="195.75 187.63 168.62 197.73 166.85 210.49 182.31 224.17 197.68 198.48 195.75 187.63"/><path class="cls-2" d="M175.24,137.63s-1.36-12.65-2.61-15.71c-1-2.5-9.83,1.79-13,3.44-3.17.71-12,3-13,6.24-1.26,4-2.62,17.65-2.62,17.65s-3.56-1-3.25,3.24.53,9,2.52,8.43c0,0,.84,10.54,1.88,12.45s4.82,4.31,10.89,7.21a5.07,5.07,0,0,0,2.43.44h0l.07,0a4,4,0,0,0,1.07-.28,5.36,5.36,0,0,0,1.06-.51l.07,0h0a12.22,12.22,0,0,0,2.42-2.25c6.08-7.42,9.85-12.62,10.89-15.31S176,148.75,176,148.75c2-.88,2.2-5.84,2.51-10.29S175.24,137.63,175.24,137.63Z" transform="translate(22.68 23.46)"/><path class="cls-10" d="M166.47,165.67v-.54s-.45-2.64-4.05.77-6.73.93-8.3,2.49-1.32,2.25-1.32,2.25a3,3,0,0,0,.88,1.58c.66.47,4.26,2.57,8.39-.62S166.47,165.67,166.47,165.67Z" transform="translate(22.68 23.46)"/><path d="M177.32,128c.23-6.86-1.77-11.06-6.45-10.92-3.77.1-9.31,2.43-11.31,3.32-2,.59-7.55,2.4-11.32,5.1-4.68,3.35-6.67,9-6.44,15.72s-.25,8.51-.25,8.51,1.46-1.2,2.39.15c0,0,2.25-1.09,2.28-7.69s3.52-8.23,12.65-11.44l.69-.26.68-.25c9.13-3.59,12.63-4.55,12.66,2s2.27,6,2.27,6c.93-2.06,2.4-1.94,2.4-1.94S177.08,134.83,177.32,128Z" transform="translate(22.68 23.46)"/><path class="cls-26" d="M142.78,153.51a28.46,28.46,0,0,0,2.43,6.7,31,31,0,0,1,3.89,12.59C148,171.48,143.71,164,142.78,153.51Z" transform="translate(22.68 23.46)"/><path class="cls-26" d="M176.23,141.06a53.22,53.22,0,0,1-2.43,8.51,55.2,55.2,0,0,0-3.89,15.49A77.59,77.59,0,0,0,176.23,141.06Z" transform="translate(22.68 23.46)"/><line class="cls-42" x1="182.31" y1="192.2" x2="182.31" y2="195.31"/><line class="cls-42" x1="178.64" y1="192.34" x2="178.64" y2="195.66"/><line class="cls-42" x1="180.41" y1="192.52" x2="180.41" y2="195.83"/><line class="cls-42" x1="176.98" y1="192.14" x2="176.98" y2="195.45"/><line class="cls-42" x1="186.04" y1="189.59" x2="186.04" y2="192.9"/><line class="cls-42" x1="184.27" y1="191.08" x2="184.27" y2="194.39"/><line class="cls-42" x1="187.71" y1="188.14" x2="187.71" y2="191.46"/><path class="cls-31" d="M164.36,163.28c-1.17.31-2.35,1.5-3.55,2.4l-.42.29a4,4,0,0,1-1.94.59c-1.19,0-2.37-.32-3.55.24s-2.53,2.62-2.1,3.84c0,0,.36-2,3.07-1.57a20.2,20.2,0,0,0,2.15.28,1.39,1.39,0,0,0,.41,0h0a2.94,2.94,0,0,0,.9-.18c1-.3,1.94-1,4.06-2.9,2.7-2.46,3.07-.72,3.07-.72A1.77,1.77,0,0,0,164.36,163.28Z" transform="translate(22.68 23.46)"/><path class="cls-31" d="M166.46,165.55a13.61,13.61,0,0,1-6.2,5.47c-.19.07-.4.14-.63.24h0c-.23.08-.44.15-.63.23-4.1,1.4-6.2-.85-6.2-.85a4,4,0,0,0,1.84,3.6c2,1.42,3.74.39,5-.17a7.5,7.5,0,0,0,5-3.54C166.76,167.37,166.46,165.55,166.46,165.55Z" transform="translate(22.68 23.46)"/><path class="cls-17" d="M160.4,171.92c.15.13,1.37-.29,1.33-.62s-.9.12-1.12.2S160.23,171.78,160.4,171.92Z" transform="translate(22.68 23.46)"/><path class="cls-32" d="M154.12,167.88a3.08,3.08,0,0,1,1.46-.63c.55-.07,1.15.32,2,.21a6.18,6.18,0,0,0,1.41-.35,8.42,8.42,0,0,1-2.3-.1,2.21,2.21,0,0,0-1.92.16C154.13,167.54,154.12,167.88,154.12,167.88Z" transform="translate(22.68 23.46)"/><path class="cls-29" d="M164.84,158.45a1.66,1.66,0,0,1-1,2,2.94,2.94,0,0,0-1.67,1.55,5.5,5.5,0,0,1-2.65,2.32A2.61,2.61,0,0,1,157,164c-.29-.26-.48-.69-1.67-.31-1.4.44-1-1.27-1-1.27-.42.13-.4.81-.33,1.32.1.73,1,.5,1.75.27s1.38.65,2,1.06a2.3,2.3,0,0,0,1.77,0h0l0,0h.06a3.85,3.85,0,0,0,1.81-1.37c.58-.93,1.39-2.29,2-2.56s1.65-.76,1.75-1.57C165.24,159,165.26,158.27,164.84,158.45Z" transform="translate(22.68 23.46)"/><path class="cls-16" d="M161.77,147.51c.12-.11.18.46,0,1.22a8.93,8.93,0,0,0-.24,3.33,34.35,34.35,0,0,0,1.35,5.3c.68,1.78.13,1.69,0,1.44a22.6,22.6,0,0,1-1.14-3.05,15.39,15.39,0,0,1-.7-4.91C161.22,149.43,161.46,147.79,161.77,147.51Z" transform="translate(22.68 23.46)"/><ellipse cx="152.12" cy="152.39" rx="1.35" ry="0.94" transform="translate(-37.84 209.75) rotate(-54.11)"/><ellipse class="cls-10" cx="152.76" cy="151.74" rx="0.32" ry="0.22" transform="translate(-34.47 223.14) rotate(-57.67)"/><path d="M148.31,153.53c0,.1.11.19,1.31-.49s1.79-.89,2.23-1.12a4.38,4.38,0,0,1,2.69-.29c.74.32.62-.5.44-.53a4.06,4.06,0,0,0-2.26-.09,25.14,25.14,0,0,0-3.94,2.06C148.41,153.29,148.31,153.36,148.31,153.53Z" transform="translate(22.68 23.46)"/><path d="M154.93,145.07a1.33,1.33,0,0,1,.76,1.4c0,.79,0,1-.76,1.39s-1.42.09-3.29,1-3.41,2-4.12,2.2-1.42-.46-.22-1.81,1.18-1,1.94-1.85,2-1.73,2.88-1.54S153.86,144.65,154.93,145.07Z" transform="translate(22.68 23.46)"/><ellipse cx="167.09" cy="146.82" rx="1.35" ry="0.94" transform="translate(-27.13 219.57) rotate(-54.11)"/><ellipse class="cls-10" cx="167.62" cy="146.19" rx="0.32" ry="0.22" transform="translate(-22.86 233.11) rotate(-57.67)"/><path d="M164.28,141.59a3,3,0,0,0-.76,2c0,.77,0,1,.76.82s1.42-1,3.3-1.43,3.4-.51,4.11-.86,1.42-1.52.22-2-1.18-.09-1.94-.41a2.79,2.79,0,0,0-2.88.6C166.24,141.13,165.35,140.38,164.28,141.59Z" transform="translate(22.68 23.46)"/><path d="M170.9,145.12c0,.1-.11.28-1.31.49a20.17,20.17,0,0,0-2.23.54,7,7,0,0,0-2.69,1.71c-.74.87-.62,0-.44-.2a8.53,8.53,0,0,1,2.26-1.78,19.83,19.83,0,0,1,3.94-.87C170.81,145,170.9,145,170.9,145.12Z" transform="translate(22.68 23.46)"/><path class="cls-7" d="M179.3,176.53l32.17,2.11s-4.32,11-4.09,29.45l-25.47,9.47Z" transform="translate(22.68 23.46)"/><path class="cls-29" d="M211.47,178.64s1.39-1.49,3,1,5.4,9,5.48,23.75l-12.58,4.69S205.68,187.17,211.47,178.64Z" transform="translate(22.68 23.46)"/><path class="cls-29" d="M177.12,173.25,172.72,221l12.12-4.51s4.63-16.22,4.09-17.22-6.71-5.64-6.71-5.64,4.55-3.25,4.7-4.41S177.12,173.25,177.12,173.25Z" transform="translate(22.68 23.46)"/><path class="cls-7" d="M139.94,191l-32.17,26.06s4.33,7.95,4.1,26.53l25.47-9.47Z" transform="translate(22.68 23.46)"/><path class="cls-29" d="M107.77,217.09s-1.39-.46-3,3.24-5.39,13.15-5.47,28l12.58-4.69S113.56,221.31,107.77,217.09Z" transform="translate(22.68 23.46)"/><path class="cls-29" d="M142.12,186.12l4.4,44.61-12.12,4.51s-4.63-12.92-4.09-14.32S137,210.28,137,210.28s-4.55.14-4.71-.9S142.12,186.12,142.12,186.12Z" transform="translate(22.68 23.46)"/><path class="cls-17" d="M156.81,200.82s1.39,2.28,2.82,1.75,2.83-3.85,2.83-3.85l-2.58-5.51-.68.25Z" transform="translate(22.68 23.46)"/><path class="cls-17" d="M160.33,201.75a183.4,183.4,0,0,1,3,22.71l-7.4,2.76s.91-18.47,3.24-25.05Z" transform="translate(22.68 23.46)"/><path class="cls-10" d="M175,175l-15.37,18.49,4.18,9.42,12.71-23.24s-.87.23-1-1.14S175,175,175,175Z" transform="translate(22.68 23.46)"/><path class="cls-10" d="M144.26,186.45l15.37,7.06L155.45,206l-12.71-13.78a2.27,2.27,0,0,0,1-1.9C143.93,188.92,144.26,186.45,144.26,186.45Z" transform="translate(22.68 23.46)"/><polygon class="cls-16" points="199.8 196.71 201.98 199.99 232.94 202.03 203.8 202.77 199.63 198.82 199.8 196.71"/><polygon class="cls-16" points="194.18 190.57 195.82 187.99 197.68 198.48 195.57 201.02 194.18 190.57"/><path class="cls-16" d="M175.17,138.24s2.5-1.27,2.4,0,.07,8-1.35,9.08-2.05,8.23-2.39,12.4-.69,4.81-.69,4.81,1.62-1.12,2.21-8.27l.63-7.51s1.65-.58,2-4.8,1.3-6.68,0-7.59S175.41,137.52,175.17,138.24Z" transform="translate(22.68 23.46)"/><g class="cls-43"><g class="cls-44"><use transform="translate(202.02 140.52)" xlink:href="#image"/></g></g><g class="cls-45"/></g></g></g></g></svg>