<?xml version="1.0" encoding="UTF-8"?>
<svg width="425px" height="350px" viewBox="0 0 425 350" version="1.1" xmlns="http://www.w3.org/2000/svg" xmlns:xlink="http://www.w3.org/1999/xlink">
    <!-- Generator: Sketch 52.1 (67048) - http://www.bohemiancoding.com/sketch -->
    <title>Slice 1</title>
    <desc>Created with Sketch.</desc>
    <defs>
        <radialGradient cx="50%" cy="50%" fx="50%" fy="50%" r="50%" gradientTransform="translate(0.500000,0.500000),scale(1.000000,0.976245),translate(-0.500000,-0.500000)" id="radialGradient-1">
            <stop stop-color="#6FE4DA" stop-opacity="0.1" offset="0%"></stop>
            <stop stop-color="#74E3DA" stop-opacity="0.1" offset="56.5537646%"></stop>
            <stop stop-color="#A8E5E0" stop-opacity="0" offset="100%"></stop>
        </radialGradient>
        <radialGradient cx="50%" cy="50%" fx="50%" fy="50%" r="50%" gradientTransform="translate(0.500000,0.500000),scale(1.000000,0.976245),translate(-0.500000,-0.500000)" id="radialGradient-2">
            <stop stop-color="#FF96CC" stop-opacity="0.25" offset="0%"></stop>
            <stop stop-color="#FF96CC" stop-opacity="0.25" offset="33.5599513%"></stop>
            <stop stop-color="#A8E5E0" stop-opacity="0" offset="100%"></stop>
        </radialGradient>
    </defs>
    <g id="Page-1" stroke="none" stroke-width="1" fill="none" fill-rule="evenodd">
        <g id="Illustration-3" transform="translate(-3.000000, -23.000000)">
            <polyline id="Path" stroke="#88EDEA" stroke-width="2" points="30.59 206.8 30.59 272.68 45.71 272.68 45.71 308.98"></polyline>
            <polygon id="Path" fill="#96F9F4" opacity="0.5" points="30.59 222.07 30.59 189.44 78.12 207.77 116.31 215.85 115.21 222.57 102.48 221.62 122.64 243.77 118.22 249.99 105.82 236.74 89.31 251.53 69.31 230.55"></polygon>
            <polygon id="Path" stroke="#88EDEA" stroke-width="1.91" points="30.59 222.07 30.59 189.44 78.27 207.69 116.46 215.77 115.37 222.49 102.63 221.54 122.8 243.68 118.22 249.99 105.82 236.74 89.31 251.53 69.46 230.47"></polygon>
            <path d="M105.82,236.74 L96.41,227.33" id="Path" stroke="#88EDEA" stroke-width="1.06"></path>
            <path d="M99.84,242.17 L90.51,232.84" id="Path" stroke="#88EDEA" stroke-width="1.06"></path>
            <path d="M94.35,247.04 L85.02,237.71" id="Path" stroke="#88EDEA" stroke-width="1.06"></path>
            <circle id="Oval" fill="#2EC1B3" cx="30.59" cy="222.07" r="1.46"></circle>
            <circle id="Oval" fill="#2EC1B3" cx="30.59" cy="189.44" r="1.46"></circle>
            <circle id="Oval" fill="#2EC1B3" cx="69.42" cy="230.47" r="1.46"></circle>
            <circle id="Oval" fill="#2EC1B3" cx="78" cy="207.41" r="1.46"></circle>
            <circle id="Oval" fill="#2EC1B3" cx="89.31" cy="251.53" r="1.46"></circle>
            <circle id="Oval" fill="#2EC1B3" cx="94.13" cy="247.04" r="1.46"></circle>
            <circle id="Oval" fill="#2EC1B3" cx="99.84" cy="242.38" r="1.46"></circle>
            <circle id="Oval" fill="#2EC1B3" cx="118.22" cy="249.99" r="1.46"></circle>
            <circle id="Oval" fill="#2EC1B3" cx="122.64" cy="243.77" r="1.46"></circle>
            <circle id="Oval" fill="#2EC1B3" cx="103.05" cy="221.62" r="1.46"></circle>
            <circle id="Oval" fill="#2EC1B3" cx="115.14" cy="222.5" r="1.46"></circle>
            <circle id="Oval" fill="#2EC1B3" cx="116.33" cy="215.7" r="1.46"></circle>
            <circle id="Oval" fill="#2EC1B3" cx="105.82" cy="236.96" r="1.46"></circle>
            <circle id="Oval" fill="#2EC1B3" cx="96.41" cy="227.33" r="1.46"></circle>
            <circle id="Oval" fill="#2EC1B3" cx="90.51" cy="232.84" r="1.46"></circle>
            <circle id="Oval" fill="#2EC1B3" cx="85.02" cy="237.71" r="1.46"></circle>
            <circle id="Oval" fill="#2EC1B3" cx="45.71" cy="308.98" r="2.25"></circle>
            <circle id="Oval" fill="#2EC1B3" cx="30.59" cy="272.66" r="1.46"></circle>
            <circle id="Oval" fill="#2EC1B3" cx="45.71" cy="272.66" r="1.46"></circle>
            <circle id="Oval" fill="url(#radialGradient-1)" cx="117.882715" cy="245.7" r="117"></circle>
            <circle id="Oval" fill="url(#radialGradient-2)" cx="334" cy="117.00461" r="117"></circle>
            <polygon id="Path" fill="#AA985B" points="378.82 102.04 378.82 171.96 301.69 173.04 301.69 118.14"></polygon>
            <polygon id="Path" fill="#FFFFFF" points="304.39 121.21 374.45 109.16 374.45 166.33 304.39 169.83"></polygon>
            <path d="M367.32,118.97 C368.428325,118.804423 369.265539,117.879301 369.32,116.76 C369.329658,116.259751 369.104745,115.783787 368.712136,115.473625 C368.319527,115.163464 367.80443,115.054821 367.32,115.18 C366.237308,115.37451 365.432583,116.291232 365.38,117.39 C365.37496,117.876932 365.591945,118.339657 365.969522,118.647169 C366.3471,118.954681 366.844169,119.073505 367.32,118.97 Z" id="Path" fill="#FF96CC"></path>
            <path d="M367.32,122.54 C366.236528,122.718867 365.426869,123.632864 365.38,124.73 C365.373366,125.219577 365.588509,125.685889 365.965283,125.998572 C366.342057,126.311255 366.840035,126.43676 367.32,126.34 C368.427573,126.195377 369.271125,125.275905 369.32,124.16 C369.330071,123.656955 369.107261,123.177452 368.716284,122.860761 C368.325307,122.544069 367.809989,122.425688 367.32,122.54 Z" id="Path" fill="#F14C0E"></path>
            <path d="M367.32,129.89 C366.240812,130.04757 365.426212,130.950349 365.38,132.04 C365.375914,132.531624 365.589962,132.999769 365.964468,133.318292 C366.338974,133.636815 366.835406,133.772944 367.32,133.69 C368.426435,133.558429 369.273802,132.643272 369.32,131.53 C369.324604,131.027437 369.101274,130.549847 368.712642,130.231169 C368.32401,129.91249 367.811925,129.78704 367.32,129.89 Z" id="Path" fill="#D73021"></path>
            <path d="M309.18,151.4 C310.285467,151.193434 311.097374,150.244127 311.13,149.12 C311.146621,148.623081 310.934136,148.14605 310.553622,147.826029 C310.173108,147.506007 309.666714,147.378441 309.18,147.48 C308.060305,147.668313 307.225777,148.615503 307.18,149.75 C307.160394,150.258237 307.379152,150.746496 307.771484,151.070171 C308.163817,151.393845 308.68475,151.515831 309.18,151.4 Z" id="Path" fill="#A9975B"></path>
            <path d="M309.18,155.07 C308.058315,155.254727 307.221968,156.20398 307.18,157.34 C307.160394,157.848237 307.379152,158.336496 307.771484,158.660171 C308.163817,158.983845 308.68475,159.105831 309.18,158.99 C310.282348,158.792049 311.09565,157.849454 311.13,156.73 C311.148985,156.230893 310.938092,155.750631 310.557768,155.426869 C310.177444,155.103106 309.669676,154.971584 309.18,155.07 Z" id="Path" fill="#FFC239"></path>
            <path d="M309.18,162.67 C308.059432,162.842247 307.219682,163.786966 307.18,164.92 C307.165328,165.427333 307.38496,165.913189 307.775506,166.237342 C308.166052,166.561496 308.684051,166.687873 309.18,166.58 C310.282812,166.38996 311.098634,165.448627 311.13,164.33 C311.148985,163.830893 310.938092,163.350631 310.557768,163.026869 C310.177444,162.703106 309.669676,162.571584 309.18,162.67 Z" id="Path" fill="#FFF2D6"></path>
            <path d="M316.07,145.4 L318.14,144.9 C318.14,144.9 318.95,151.21 322.14,155.07 L319.91,155.27 C316.67,151.42 316.07,145.4 316.07,145.4 Z" id="Path" fill="#5B5B5B"></path>
            <ellipse id="Oval" fill="#F14C0E" transform="translate(337.908980, 141.064352) rotate(-46.510000) translate(-337.908980, -141.064352) " cx="337.90898" cy="141.064352" rx="22.97" ry="21.04"></ellipse>
            <path d="M336.08,162.68 L336.08,140.54 L325.03,154.83 C325.03,154.83 326.56,160.11 336.08,162.68 Z" id="Path" fill="#A9975B"></path>
            <path d="M329.47,118.44 L336.08,140.54 L314.42,145.83 C314.42,145.83 312.37,136.29 317.06,128.94 C320.136488,124.351138 324.435056,120.714154 329.47,118.44 Z" id="Path" fill="#FF96CC"></path>
            <path d="M318.14,144.9 C318.14,144.9 318.92,151.61 322.14,155.05 L336.08,140.54 L318.14,144.9 Z" id="Path" fill="#FFC239"></path>
            <polygon id="Path" fill="#D73021" points="322.14 155.05 325.02 154.82 336.08 140.53"></polygon>
            <path d="M336.08,163.16 C336.08,163.16 325.97,163.62 319.92,155.27 L325.03,154.81 C325.03,154.81 327.29,160.81 336.08,162.41 L336.08,163.16 Z" id="Path" fill="#F14C0E"></path>
            <polygon id="Path" fill="#D73021" points="314.41 145.81 316.14 146.22 336.08 140.53"></polygon>
            <polygon id="Path" fill="#D73021" points="329.47 118.44 330.65 120.95 336.08 140.53"></polygon>
            <polyline id="Path" stroke="#88EDEA" stroke-width="2" points="400.56 305.9 400.56 217.88 383.12 217.88 383.12 189.17"></polyline>
            <polygon id="Path" fill="#96F9F4" opacity="0.5" points="50.27 329.51 400.56 304.58 400.56 329.51"></polygon>
            <polygon id="Path" stroke="#88EDEA" stroke-width="2" points="50.27 329.51 400.56 304.58 400.56 329.51"></polygon>
            <circle id="Oval" fill="#2EC1B3" cx="50.27" cy="329.51" r="1.46"></circle>
            <circle id="Oval" fill="#2EC1B3" cx="383.12" cy="189.17" r="2.25"></circle>
            <circle id="Oval" fill="#2EC1B3" cx="400.57" cy="329.51" r="1.46"></circle>
            <circle id="Oval" fill="#2EC1B3" cx="400.57" cy="304.58" r="1.46"></circle>
            <circle id="Oval" fill="#2EC1B3" cx="383.12" cy="217.79" r="1.46"></circle>
            <circle id="Oval" fill="#2EC1B3" cx="400.57" cy="217.79" r="1.46"></circle>
            <rect id="Rectangle" fill="#FFC239" x="366.95" y="256.51" width="15" height="15" rx="0.75"></rect>
            <rect id="Rectangle" fill="#88EDEA" x="268.7" y="80.1" width="15" height="15" rx="0.75"></rect>
            <rect id="Rectangle" fill="#88EDEA" x="55.46" y="159.11" width="15" height="15" rx="0.75"></rect>
            <path d="M335.22,208.61 L335.22,198.36 C335.22,198.155783 335.138875,197.959931 334.994472,197.815528 C334.850069,197.671125 334.654217,197.59 334.45,197.59 L321.04,197.59 C320.616993,197.595389 320.275389,197.936993 320.27,198.36 L320.27,211.77 C320.27,212.195259 320.614741,212.54 321.04,212.54 L331.29,212.54 C331.720782,212.54 332.07,212.889218 332.07,213.32 L332.07,223.54 C332.067284,223.745037 332.147536,223.942472 332.292532,224.087468 C332.437528,224.232464 332.634963,224.312716 332.84,224.31 L346.25,224.31 C346.454217,224.31 346.650069,224.228875 346.794472,224.084472 C346.938875,223.940069 347.02,223.744217 347.02,223.54 L347.02,210.16 C347.014611,209.736993 346.673007,209.395389 346.25,209.39 L336,209.39 C335.569218,209.39 335.22,209.040782 335.22,208.61 Z" id="Path" fill="#5291EE"></path>
            <path d="M87.4,105.86 L87.4,95.6 C87.4,95.1802636 87.0597364,94.84 86.64,94.84 L73.22,94.84 C72.8002636,94.84 72.46,95.1802636 72.46,95.6 L72.46,109.02 C72.46,109.439736 72.8002636,109.78 73.22,109.78 L83.48,109.78 C83.9107821,109.78 84.26,110.129218 84.26,110.56 L84.26,120.82 C84.26,121.239736 84.6002636,121.58 85.02,121.58 L98.44,121.58 C98.8597364,121.58 99.2,121.239736 99.2,120.82 L99.2,107.4 C99.2,106.980264 98.8597364,106.64 98.44,106.64 L88.18,106.64 C87.7492179,106.64 87.4,106.290782 87.4,105.86 Z" id="Path" fill="#FF96CC"></path>
            <polyline id="Path" stroke="#88EDEA" stroke-width="2" points="115.28 66.42 44.63 66.42 44.63 85.38"></polyline>
            <circle id="Oval" fill="#2EC1B3" cx="115.28" cy="66.42" r="2.25"></circle>
            <circle id="Oval" fill="#2EC1B3" cx="44.63" cy="85.38" r="2.25"></circle>
            <circle id="Oval" fill="#2EC1B3" cx="44.63" cy="66.42" r="1.46"></circle>
            <polyline id="Path" stroke="#88EDEA" stroke-width="2" points="234.68 72.8 234.68 99.27 219.33 99.27"></polyline>
            <circle id="Oval" fill="#2EC1B3" cx="234.68" cy="72.8" r="2.25"></circle>
            <circle id="Oval" fill="#2EC1B3" cx="219.33" cy="99.27" r="2.25"></circle>
            <circle id="Oval" fill="#2EC1B3" cx="234.68" cy="99.27" r="1.46"></circle>
            <path d="M263.65,64.52 L333.53,64.52" id="Path" stroke="#88EDEA" stroke-width="2"></path>
            <polygon id="Path" fill="#96F9F4" opacity="0.5" points="361.07 64.52 364.42 79.87 361.38 104.48 353.2 106.3 352.94 85.63 347.4 86.48 348.44 113.63 321.63 118.06 316.45 97.82 332.5 64.52"></polygon>
            <polygon id="Path" stroke="#88EDEA" stroke-width="2" points="361.07 64.52 364.42 79.87 361.38 104.48 353.2 106.3 352.94 85.63 347.4 86.48 348.44 113.63 321.63 118.06 316.45 97.82 332.5 64.52"></polygon>
            <path d="M328.42,116.93 L323.58,97.15" id="Path" stroke="#88EDEA" stroke-width="1.06"></path>
            <path d="M335.11,115.83 L330.27,96.33" id="Path" stroke="#88EDEA" stroke-width="1.06"></path>
            <path d="M341.95,114.7 L336.88,95.59" id="Path" stroke="#88EDEA" stroke-width="1.06"></path>
            <circle id="Oval" fill="#2EC1B3" cx="321.63" cy="118.06" r="1.46"></circle>
            <circle id="Oval" fill="#2EC1B3" cx="328.42" cy="116.93" r="1.46"></circle>
            <circle id="Oval" fill="#2EC1B3" cx="335.11" cy="115.83" r="1.46"></circle>
            <circle id="Oval" fill="#2EC1B3" cx="341.95" cy="114.7" r="1.46"></circle>
            <circle id="Oval" fill="#2EC1B3" cx="348.43" cy="113.62" r="1.46"></circle>
            <circle id="Oval" fill="#2EC1B3" cx="347.53" cy="87.02" r="1.46"></circle>
            <circle id="Oval" fill="#2EC1B3" cx="352.97" cy="85.56" r="1.46"></circle>
            <circle id="Oval" fill="#2EC1B3" cx="353.3" cy="106.2" r="1.46"></circle>
            <circle id="Oval" fill="#2EC1B3" cx="361.33" cy="104.38" r="1.46"></circle>
            <circle id="Oval" fill="#2EC1B3" cx="336.88" cy="95.96" r="1.46"></circle>
            <circle id="Oval" fill="#2EC1B3" cx="330.27" cy="96.65" r="1.46"></circle>
            <circle id="Oval" fill="#2EC1B3" cx="323.58" cy="97.43" r="1.46"></circle>
            <circle id="Oval" fill="#2EC1B3" cx="316.45" cy="98.11" r="1.46"></circle>
            <circle id="Oval" fill="#2EC1B3" cx="364.42" cy="80.44" r="1.46"></circle>
            <circle id="Oval" fill="#2EC1B3" cx="361.1" cy="64.52" r="1.46"></circle>
            <circle id="Oval" fill="#2EC1B3" cx="332.69" cy="64.52" r="1.46"></circle>
            <circle id="Oval" fill="#2EC1B3" cx="263.65" cy="64.52" r="2.25"></circle>
            <rect id="Rectangle" fill="#B7C7D0" x="244.79" y="210.01" width="6.19" height="11.2"></rect>
            <path d="M273.14,224.9 C248.14,224.9 226.5,244.69 224.8,269.1 C223.1,293.51 241.99,313.31 266.98,313.31 C291.97,313.31 313.62,293.52 315.32,269.1 C317.02,244.68 298.13,224.9 273.14,224.9 Z M296.95,269.1 C295.95,283.61 283.08,295.37 268.23,295.37 C253.38,295.37 242.16,283.61 243.17,269.1 C244.18,254.59 257.04,242.84 271.89,242.84 C286.74,242.84 297.96,254.6 296.95,269.1 Z" id="Shape" fill="#00437A" fill-rule="nonzero"></path>
            <ellipse id="Oval" fill="#FFFFFF" transform="translate(270.060579, 269.079034) rotate(-34.570000) translate(-270.060579, -269.079034) " cx="270.060579" cy="269.079034" rx="25.33" ry="23.55"></ellipse>
            <path d="M272.89,228.48 C249.89,228.48 230.03,246.67 228.47,269.1 C226.91,291.53 244.26,309.73 267.23,309.73 C290.2,309.73 310.09,291.54 311.65,269.1 C313.21,246.66 295.86,228.48 272.89,228.48 Z M294.76,269.1 C293.83,282.44 282.01,293.24 268.36,293.24 C254.71,293.24 244.36,282.44 245.36,269.1 C246.36,255.76 258.11,244.96 271.76,244.96 C285.41,244.96 295.7,255.77 294.76,269.1 Z" id="Shape" fill="#F3F3F3" fill-rule="nonzero"></path>
            <path d="M143.51,171.32 L174.61,199.54 C167.857935,204.894144 162.146542,211.442757 157.76,218.86 L128.06,190.22 L143.51,171.32 Z" id="Path" fill="#240115"></path>
            <path d="M170.05,193.99 C169.7,194.08 158.91,200.04 150.67,215.65 L156.89,220.15 L176.08,198.99 L170.05,193.99 Z" id="Path" fill="#EEEEEE"></path>
            <path d="M155.64,216.78 C155.64,216.78 169.13,195.63 174.64,199.51 C174.64,199.51 181.73,206.87 185.46,212.67 C188.94,218.09 189.63,226.42 190.46,236.67 C191.29,246.92 192.54,288.31 192.54,288.31 C192.54,288.31 192.54,290.04 189.25,291.2 C187.25,291.92 184.46,290.73 183.31,289.49 L177.91,258.96 C177.91,258.96 173.79,258.25 172.17,251.06 C170.55,243.87 169.91,230.06 169.91,230.06 L155.64,216.78 Z" id="Path" fill="#CC9780"></path>
            <path d="M178.51,262.65 C183.014138,262.347246 187.48204,261.641084 191.86,260.54 L195.16,262.31 C195.16,262.31 194.46,285.82 192.99,287.72 C191.52,289.62 184.27,295.52 181.18,292.26 C178.09,289 176.82,263.38 176.82,263.38 L178.51,262.65 Z" id="Path" fill="#EEEEEE"></path>
            <path d="M183.11,289.05 C183.11,289.05 187.65,293.86 192.48,288.26 C192.48,288.26 194.77,290.84 200.4,292.15 C206.03,293.46 206.53,296.15 206.53,296.15 C206.53,296.15 204.27,297.36 198.94,297.38 C193.61,297.4 185.49,298.25 182.94,296.58 C180.39,294.91 183.11,289.05 183.11,289.05 Z" id="Path" fill="#D73021"></path>
            <polygon id="Path" fill="#191919" points="186.11 297.43 186.17 298.88 188.59 298.83 188.61 297.58"></polygon>
            <polygon id="Path" fill="#191919" points="197.42 297.38 203.31 297.03 203.4 298.18 197.57 298.47"></polygon>
            <polygon id="Path" fill="#383838" points="185.3 298.92 205.02 297.96 205.08 299.47 185.45 300.74"></polygon>
            <rect id="Rectangle" fill="#B7C7D0" x="128.06" y="195.09" width="4.63" height="12.78"></rect>
            <path d="M103.87,191.54 C102.49,194.65 131.34,199.71 135.15,200.21 C138.96,200.71 144.75,193.66 140.15,187.42 C135.55,181.18 104.7,189.69 103.87,191.54 Z" id="Path" fill="#93A0A9"></path>
            <path d="M227.86,224.12 L181.86,282.55 C181.86,282.55 183.73,290.84 180.54,293.62 C176.63,297.03 172.8,292.93 172.8,292.93 L172.8,285.2 L132.69,207.54 C132.69,207.54 126.44,206.06 124.35,208.03 C122.72,209.57 125.08,212.82 128.06,218.84 C131.04,224.86 163.76,289.54 163.76,289.54 L170.51,294.48 C172.4,297.97 175.75,299.95 180.87,298.9 C184.39,298.17 190.04,292.62 190.04,292.62 L248.86,222.54 L227.86,224.12 Z" id="Path" fill="#93A0A9"></path>
            <path d="M133.64,230.23 L247.21,218.86 C247.21,218.86 251.21,217.76 254.35,225.96 C257.16,233.41 272.24,269.22 272.24,269.22 L268.47,270.73 C268.47,270.73 253.82,245.02 252.6,241.73 C251.892667,239.756013 252.151789,237.564582 253.3,235.81 L247.76,223.95 L135.64,233.71 L99.35,284.36 C97.9380574,286.211533 97.9380574,288.778467 99.35,290.63 C101.35,293.5 106.54,292.96 113.15,292.93 C119.76,292.9 171.15,292.93 171.15,292.93 L171.15,295.39 L104.05,296.12 C101.32,296.12 95.85,293.78 95.4,288.22 C95.22,285.97 95.69,284.75 98.29,280.96 C108.7,265.74 133.64,230.23 133.64,230.23 Z" id="Path" fill="#B7C7D0"></path>
            <path d="M111.92,324.18 C111.92,324.18 115.72,293.86 109.55,285.68 C103.38,277.5 87.55,282.21 79.93,292.68 C73.54,301.33 66.76,313.37 60.76,328.05 L111.92,324.18 Z" id="Path" fill="#A9975B"></path>
            <circle id="Oval" fill="#F3F3F3" cx="98.21" cy="290.78" r="3.4"></circle>
            <circle id="Oval" fill="#F3F3F3" cx="105.34" cy="301.47" r="2.43"></circle>
            <polygon id="Path" fill="#0062A4" points="171.81 296.54 168.24 307.71 175.63 308.11 173.78 296.91"></polygon>
            <polygon id="Path" fill="#0062A4" points="170.81 295.26 159.72 295.5 161.65 302.69 171.13 296.88"></polygon>
            <polygon id="Path" fill="#0062A4" points="184.57 288.94 179.35 283.71 173.23 293.26 174.45 294.86"></polygon>
            <polygon id="Path" fill="#0062A4" points="175.03 295.39 174.5 296.91 182.85 303.82 185.86 297.36"></polygon>
            <polygon id="Path" fill="#0062A4" points="172.37 293.67 167.99 282.79 162.05 287.19 170.61 294.64"></polygon>
            <path d="M173.17,279.85 C164.481303,279.87963 157.391767,286.814083 157.17,295.5 C157.059062,299.621151 158.62249,303.611432 161.503525,306.560301 C164.38456,309.509169 168.337384,311.165019 172.46,311.15 C181.148697,311.12037 188.238233,304.185917 188.46,295.5 C188.570938,291.378849 187.00751,287.388568 184.126475,284.439699 C181.24544,281.490831 177.292616,279.834981 173.17,279.85 Z M172.57,307.71 C169.360526,307.721688 166.28264,306.435382 164.035896,304.14344 C161.789152,301.851497 160.564398,298.748605 160.64,295.54 C160.807611,288.77 166.327993,283.36038 173.1,283.33 C176.315729,283.320801 179.398291,284.613447 181.645639,286.913541 C183.892986,289.213634 185.113785,292.325349 185.03,295.54 C184.830876,302.289803 179.322621,307.669857 172.57,307.71 Z" id="Shape" fill="#5291EE" fill-rule="nonzero"></path>
            <path d="M172.89,292.6 C171.290851,292.625774 169.993104,293.901525 169.94,295.5 C169.921081,296.261702 170.211194,296.998645 170.744284,297.543037 C171.277374,298.087429 172.008069,298.392937 172.77,298.39 C174.38483,298.391086 175.71079,297.113745 175.77,295.5 C175.792097,294.7278 175.496441,293.980345 174.952083,293.432207 C174.407725,292.884069 173.662334,292.583247 172.89,292.6 Z" id="Path" fill="#5291EE"></path>
            <path d="M96.07,295.14 C95.14,293.84 93.4,291.02 95.14,288.44 C96.28,286.75 98.58,286.57 100.75,286.44 C103.42,286.3 170.58,279.83 174.87,279.83 C181.02,279.83 186.93,284.34 188.47,292.83 C190.01,301.32 182.75,311.51 172.47,311.12 C162.92,310.75 107.77,306.18 104.28,303.94 C100.4,301.47 96.07,295.14 96.07,295.14 Z" id="Path" stroke="#353535" stroke-width="1.91"></path>
            <ellipse id="Oval" fill="#6D6D6D" transform="translate(270.060579, 269.079034) rotate(-34.570000) translate(-270.060579, -269.079034) " cx="270.060579" cy="269.079034" rx="3.04" ry="2.83"></ellipse>
            <rect id="Rectangle" fill="#93A0A9" x="214.05" y="208.3" width="53.57" height="2.67"></rect>
            <rect id="Rectangle" fill="#240115" x="206.96" y="204.93" width="63.1" height="3.37"></rect>
            <rect id="Rectangle" fill="#B7C7D0" x="214.05" y="208.3" width="11.56" height="2.67"></rect>
            <polygon id="Path" fill="#240115" points="254.72 164.71 286.27 164.71 270.06 204.93 238.51 204.93"></polygon>
            <polygon id="Path" fill="#FFF2D6" points="255.96 166.79 283.35 166.79 268.81 202.85 241.43 202.85"></polygon>
            <polyline id="Path" stroke="#F14C0E" stroke-width="1.06" points="244.34 194.04 256.5 194.04 266.81 187.23 276.2 185.87"></polyline>
            <polyline id="Path" stroke="#FFC239" stroke-width="1.06" points="248.47 183.16 256.27 186.47 267.97 178.3 277.55 182.21"></polyline>
            <ellipse id="Oval" fill="#240115" transform="translate(178.573822, 89.722853) rotate(-51.600000) translate(-178.573822, -89.722853) " cx="178.573822" cy="89.7228534" rx="5.38" ry="5.68"></ellipse>
            <polygon id="Path" fill="#F7C2AA" points="154.78 104.12 163.62 91.66 171.02 101.44 164.83 111.37"></polygon>
            <path d="M164.97,98.12 C164.97,98.12 165.97,102.75 168.73,105.33 L167.53,107.05 C165.784955,104.247888 164.783392,101.047016 164.62,97.75 L164.97,98.12 Z" id="Path" fill="#CC9780"></path>
            <path d="M164.13,95.42 C163.63,93.05 162.22,86 164.73,83.03 C166.91,80.44 175.33,77.63 178.73,81.66 C182.13,85.69 182.29,99.88 180.92,102.38 C179.55,104.88 178.67,104.87 178.67,106.31 C178.67,107.75 178.42,109.68 176.23,109.12 C174.99,108.78 175.5,109.72 174.11,109.48 C172.72,109.24 168.2,105.31 166.81,102.79 C165.685424,100.423691 164.788064,97.9559504 164.13,95.42 Z" id="Path" fill="#F7C2AA"></path>
            <path d="M177.76,81.32 C178.854489,82.9251582 179.581739,84.7518201 179.89,86.67 C180.62,90.53 181.5,100.08 180.14,102.4 C179.412974,103.472179 178.918999,104.684973 178.69,105.96 C178.69,105.96 180.18,103.63 180.55,102.96 C180.92,102.29 182.32,99.23 181.82,93.96 C181.22,87.6 180.82,85.84 179.82,83.38 C179.449007,82.4371832 178.702817,81.6909931 177.76,81.32 Z" id="Path" fill="#6EFFFF"></path>
            <path d="M179.86,83.69 C179.604244,82.7434904 178.956757,81.9510887 178.080194,81.5118522 C177.203631,81.0726158 176.181293,81.0282864 175.27,81.39 C173.04,82.13 173.27,85.2 173.27,85.2 C173.27,85.2 172.2,82.13 167.81,83.2 C163.42,84.27 163.33,89.2 163.71,93.25 L162.38,93.42 L153.24,106.36 C153.24,106.36 149.87,105.76 138.87,105.88 C136.652519,105.910295 134.438721,106.07057 132.24,106.36 C132.24,106.36 131.49,100.52 138.55,100.36 C138.55,100.36 139.82,96.87 145.86,98.36 C151.9,99.85 155.54,96.71 156.93,93.78 C158.32,90.85 159.19,88.78 159.19,88.78 C159.19,88.78 156.61,80.88 164.27,78.98 C171.93,77.08 174.6,76.98 175.59,77.63 C176.58,78.28 178.24,78.92 179.86,83.69 Z" id="Path" fill="#A8842C"></path>
            <polygon id="Path" fill="#240115" points="156.5 94.04 159.82 97 157.36 100.51 153.87 97"></polygon>
            <path d="M220.83,187.1 C198.23,150.7 195.83,154.35 195.83,154.35 L184.76,136.39 L170.52,143.31 L179.87,158.37 L215.01,190.91" id="Path" fill="#CC9780"></path>
            <path d="M156.63,101.54 C156.63,101.54 162.63,107.33 166.43,108.84 L163.95,112.96 C163.95,112.96 170.69,114.96 173.5,117.89 C176.31,120.82 185.66,137.91 185.66,137.91 C185.66,137.91 177.22,140.91 173.66,144.7 C173.66,144.7 156.02,118.99 145.91,107.7 L148.46,105.07 L152.95,106.28 L156.63,101.54 Z" id="Path" fill="#00437A"></path>
            <path d="M170.48,140.46 C170.48,140.46 175,135.86 183.71,133.04 L186.84,137.63 L172.6,145.71 L170.48,140.46 Z" id="Path" fill="#EEEEEE"></path>
            <path d="M164.62,107.88 C164.62,107.88 160.09,115.26 159.76,116.19 C159.43,117.12 159.92,127.19 159.32,128.59" id="Path" stroke="#FFFFFF" stroke-width="1.06"></path>
            <path d="M132.9,113.07 C134.7,110.59 137.75,105.46 143.84,105.38 C149.93,105.3 153.36,109.03 156.04,115.27 C158.72,121.51 166.76,134.63 166.76,134.63 C166.76,134.63 157.56,138.8 154.06,143.41 L157.17,150.21 L143.46,171.74 L117.239904,176.54 C117.239904,176.54 117.14,154.67 123.39,135.45 C127.13,123.92 130.02,117 132.9,113.07 Z" id="Path" fill="#00437A"></path>
            <g id="Group" transform="translate(116.000000, 129.000000)">
                <path d="M35.1,8.89 C38.6463113,5.22542395 43.0031035,2.44420124 47.82,0.77 L51.76,7.39 L38.36,15.24 L35.1,8.89 Z" id="Path" fill="#FFFFFF"></path>
                <polygon id="Path" fill="#FF96CC" points="1.86 30.02 6.56 30.2 6.2 43.82 0.29 45.15"></polygon>
            </g>
            <path d="M180.11,195.41 L160.11,211.62 L178.18,219.08 C178.18,219.08 168.76,227.46 164.61,233.54 C160.46,239.62 162.82,243.14 162.82,243.14 L144.35,268.05 C144.24,269.74 146.78,272.59 148.92,272.91 C151.06,273.23 153.92,270.91 153.92,270.91 C153.92,270.91 181.78,244.74 188.64,237.14 C195.5,229.54 199.3,224.69 199.51,218.25 C199.72,211.81 193.18,208.12 193.18,208.12 C193.18,208.12 191.18,200.79 180.08,195.38" id="Path" fill="#DAA694"></path>
            <path d="M160.56,246.23 C163.88709,249.285531 167.481485,252.036549 171.3,254.45 L172.3,258.06 C172.3,258.06 154.76,273.7 152.33,273.95 C149.9,274.2 140.67,272.95 140.92,268.49 C141.17,264.03 158.92,245.49 158.92,245.49 L160.56,246.23 Z" id="Path" fill="#FFFFFF"></path>
            <path d="M143.51,171.32 C143.581343,175.186124 145.814085,178.685888 149.29,180.38 L180.84,195.76 C180.84,195.76 169.23,207.66 166.71,214.37 C166.71,214.37 133.23,200.85 124.1,193.68 C118.795737,189.693137 116.151176,183.085589 117.24,176.54 L143.51,171.32 Z" id="Path" fill="#3A7BEB"></path>
            <path d="M176.26,191.32 C175.91,191.44 165.86,198.26 158.81,214.43 L164.59,217.32 L182.15,194.79 L176.26,191.32 Z" id="Path" fill="#FFFFFF"></path>
            <path d="M144.35,268.09 C144.35,268.09 147.35,274.36 154.47,270.45 C154.47,270.45 155.32,272.45 160.47,274.95 C165.62,277.45 165.57,280.19 165.57,280.19 C165.57,280.19 163.1,280.87 157.9,279.71 C152.7,278.55 144.59,277.57 142.5,275.38 C140.41,273.19 144.35,268.09 144.35,268.09 Z" id="Path" fill="#F14C0E"></path>
            <polygon id="Path" fill="#191919" points="145.41 276.93 145.15 278.36 147.52 278.84 147.81 277.63"></polygon>
            <polygon id="Path" fill="#191919" points="156.45 279.39 162.27 280.35 162.11 281.5 156.35 280.48"></polygon>
            <polygon id="Path" fill="#383838" points="144.29 278.2 163.73 281.63 163.46 283.12 144.04 280.01"></polygon>
            <polygon id="Path" fill="#383838" points="155.3 281.73 170.72 293.57 170.1 294.64 152.47 281.27"></polygon>
            <path d="M174.5,103.24 C174.883559,103.583976 175.385064,103.766668 175.9,103.75 C175.999007,103.730067 176.100993,103.730067 176.2,103.75 C176.296043,103.778211 176.358824,103.870289 176.35,103.97 C176.322564,104.053431 176.254861,104.117372 176.17,104.14 C175.523104,104.392496 174.788778,104.252624 174.28,103.78 C173.995346,103.507083 173.791236,103.161134 173.69,102.78 C173.63,102.58 173.43,101.9 173.63,101.78 C173.83,101.66 173.9,102.12 173.94,102.27 C174.030472,102.64007 174.224758,102.976601 174.5,103.24 Z" id="Path" fill="#F14C0E"></path>
            <path d="M173.66,99.68 C173.844378,99.3174085 174.143122,99.0256938 174.51,98.85 C174.891274,98.6866422 175.33343,98.8546615 175.51,99.23 C175.631351,98.9832142 175.837123,98.7880861 176.09,98.68 C176.348134,98.573556 176.642891,98.6075665 176.87,98.77 C177.050956,98.9316594 177.170971,99.1505095 177.21,99.39 C177.317519,99.8795635 177.242856,100.391533 177,100.83 C176.92,100.96 176.81,101.1 176.65,101.1 C176.550016,101.081524 176.456794,101.036639 176.38,100.97 C176.019921,100.675121 175.510526,100.646821 175.12,100.9 C174.97,101.03 174.88,101.22 174.73,101.34 C174.502015,101.522798 174.196115,101.57567 173.92,101.48 C173.06,101.17 173.28,100.29 173.66,99.68 Z" id="Path" fill="#D73021"></path>
            <path d="M174.92,97.07 C175.249677,97.1327755 175.570692,96.9260947 175.65,96.6 C175.65,96.45 175.65,96.25 175.82,96.19 C175.909819,96.1691093 176.004089,96.1955048 176.07,96.26 C176.259679,96.4436049 176.325954,96.7203985 176.24,96.97 C176.103079,97.4186913 175.707343,97.739237 175.24,97.78 C174.755744,97.780494 174.304139,97.5358747 174.04,97.13 C173.931784,96.9875291 173.891569,96.8047333 173.93,96.63 C174.02,96.34 174.26,96.42 174.38,96.63 C174.5,96.84 174.62,97.02 174.92,97.07 Z" id="Path" fill="#F14C0E"></path>
            <ellipse id="Oval" fill="#240115" transform="translate(172.268598, 92.633370) rotate(-49.760000) translate(-172.268598, -92.633370) " cx="172.268598" cy="92.6333698" rx="1" ry="1"></ellipse>
            <ellipse id="Oval" fill="#240115" transform="translate(177.370600, 92.420100) rotate(-49.460848) translate(-177.370600, -92.420100) " cx="177.3706" cy="92.4201" rx="1" ry="1"></ellipse>
            <path d="M172.56,89.79 L172.66,89.79 C172.689388,89.7592931 172.710093,89.7213327 172.72,89.68 C172.729834,89.506611 172.623834,89.3476106 172.46,89.29 C172.29981,89.2446813 172.13019,89.2446813 171.97,89.29 C171.419415,89.3644228 170.891012,89.5553296 170.42,89.85 C170.278478,89.925332 170.155503,90.0312271 170.06,90.16 C169.93,90.36 169.95,90.7 170.23,90.76 C170.51,90.82 170.67,90.54 170.86,90.44 C171.39772,90.1541144 171.968715,89.9357924 172.56,89.79 Z" id="Path" fill="#A8842C"></path>
            <path d="M177.98,89.84 C177.98,89.84 178.05,89.84 178.09,89.84 C178.125514,89.8530003 178.164486,89.8530003 178.2,89.84 C178.300053,89.7029883 178.300053,89.5170117 178.2,89.38 C178.106071,89.2371651 177.974589,89.1229837 177.82,89.05 C177.336177,88.781533 176.801232,88.617983 176.25,88.57 C176.095346,88.5344861 175.934654,88.5344861 175.78,88.57 C175.55,88.66 175.36,88.94 175.55,89.15 C175.74,89.36 176.04,89.25 176.25,89.28 C176.847989,89.3929089 177.429277,89.5810716 177.98,89.84 Z" id="Path" fill="#A8842C"></path>
            <path d="M221.48,144.02 C221.48,144.02 190.39,167.7 177.85,168.14 C165.31,168.58 158.24,153.9 153.15,141.88 L166.01,133.68 L180.48,153.32 C194.175665,146.033918 208.434932,139.860699 223.12,134.86" id="Path" fill="#DAA694"></path>
            <path d="M160.68,99.11 C160.68,99.11 155.11,107.55 154.36,107.88 C153.61,108.21 147.48,104.88 147.48,104.88 L152.85,105.7 L158.97,98.06 L160.68,99.11 Z" id="Path" fill="#6EFFFF"></path>
            <path d="M123.95,121.54 C123.95,121.54 117.01,130.1 115.63,137.34 C114.7,142.25 113.49,149.07 116.11,152.84 C116.11,152.84 113.45,152.1 112.69,146.7 C112.04,142.13 113.45,135.37 116.44,130.52 C118.548995,127.217813 121.072931,124.199845 123.95,121.54 Z" id="Path" fill="#6EFFFF"></path>
            <path d="M118.36,176.26 C118.36,176.26 116.11,184.66 125.63,194.85 C121.899164,192.483458 119.114731,188.885277 117.76,184.68 C116.12,179.06 117.22,176.53 117.22,176.53 L118.36,176.26 Z" id="Path" fill="#6EFFFF"></path>
            <path d="M130.21,108.21 C130.21,108.21 120.29,115.69 117.21,125.58 C117.21,125.58 117,127.58 120.14,127.08 C123.28,126.58 130.81,109.7 130.21,108.21 Z" id="Path" fill="#F14C0E"></path>
            <path d="M169.42,115.11 C169.42,115.11 170.12,126.54 166.76,134.63 L168.69,137.25 C168.69,137.25 173.09,130.11 172.25,116.76 C172.2,116.76 171.44,114.61 169.42,115.11 Z" id="Path" fill="#FFC239"></path>
            <path d="M119.83,149.79 C119.83,149.79 136.67,146.72 149.38,134.89 L151.1,137.89 C142.248136,146.129919 131.142768,151.546832 119.2,153.45 L119.83,149.79 Z" id="Path" fill="#FFC239"></path>
            <path d="M157.04,117.43 C157.04,117.43 153.37,106.08 145.68,105.43 C141.119177,105.063629 136.734338,107.269546 134.31,111.15 C134.31,111.15 138.53,107.02 143.78,107.29 C149.22,107.54 151.09,109.18 157.04,117.43 Z" id="Path" fill="#FFC239"></path>
            <path d="M176.57,100.84 C176.362542,100.534024 176.019597,100.347641 175.65,100.34 C175.336137,100.339703 175.03579,100.467703 174.818626,100.694308 C174.601462,100.920914 174.486354,101.226434 174.5,101.54 C174.497185,101.777082 174.578701,102.007451 174.73,102.19 L175.87,103.78 L177.76,102.38 L176.57,100.84 Z" id="Path" fill="#3A7BEB"></path>
            <circle id="Oval" fill="#1571CB" cx="176.79" cy="103.06" r="1.15"></circle>
            <path d="M176.86,103.18 C176.86,103.18 180.18,106.67 179.06,110.18 C177.94,113.69 175.12,115.76 166.38,113.32 C157.64,110.88 151.21,106.73 149.38,105.95 C145.05668,104.22708 140.144175,104.92343 136.47,107.78" id="Path" stroke="#3A7BEB" stroke-width="1.06" stroke-linecap="round"></path>
            <path d="M138.88,105.85 C138.88,105.85 134.1,111.24 132.88,113.07 C131.66,114.9 124.97,126.8 120.88,144.7 C120.169185,147.585125 119.611736,150.505885 119.21,153.45 C119.21,153.45 111.21,154.95 113.08,140.76 C114.95,126.57 122.37,126.91 125.84,117.96 C128.61,110.79 128.97,104.87 138.88,105.85 Z" id="Path" fill="#FFC239"></path>
            <path d="M161.36,89.16 C161.36,89.16 158.81,82.45 161.65,81.16 C164.49,79.87 175.33,77.51 176.65,78.33 C177.97,79.15 179.13,81.72 180.08,84.39 C180.08,84.39 178.75,76.47 175.33,76.02 C170.58,75.39 160.88,78.24 160.02,79.02 C159.16,79.8 156.27,81.16 159.32,89.4 L161.36,89.16 Z" id="Path" fill="#240115"></path>
            <path d="M182.18,94.08 C182.18,94.08 185.49,98.43 185.29,99.75 C185.09,101.07 182,101.03 179.61,101.26" id="Path" stroke="#3A7BEB" stroke-width="1.06"></path>
            <path d="M179.06,100.63 C179.06,101.01 179.16,101.63 179.2,102.06 C179.207365,102.133781 179.244748,102.201287 179.303378,102.246678 C179.362009,102.29207 179.436726,102.311352 179.51,102.3 L183.07,101.92 C183.221064,101.899254 183.327755,101.761445 183.31,101.61 L183.12,100.19 C183.09931,100.043192 182.967769,99.9379593 182.82,99.95 L179.3,100.34 C179.229049,100.344976 179.163233,100.378801 179.117886,100.433595 C179.072539,100.48839 179.051619,100.55937 179.06,100.63 Z" id="Path" fill="#240115"></path>
            <ellipse id="Oval" fill="#240115" transform="translate(161.646075, 93.754009) rotate(-51.600000) translate(-161.646075, -93.754009) " cx="161.646075" cy="93.7540092" rx="5.38" ry="5.68"></ellipse>
            <ellipse id="Oval" fill="#1571CB" transform="translate(160.684027, 94.579745) rotate(-51.600000) translate(-160.684027, -94.579745) " cx="160.684027" cy="94.5797445" rx="3.2" ry="3.38"></ellipse>
            <path d="M139.97,121.17 C139.97,121.17 144.54,127.01 153.15,141.88 L154.85,140.76 C151.368154,133.228897 146.290953,126.544599 139.97,121.17 Z" id="Path" fill="#240115"></path>
            <path d="M224.76,198.59 C224.6,198.97 224.76,199.9 223.52,199.49 C222.28,199.08 219.7,198.02 219.7,198.02 L219.31,196.02 L224.25,194.82 L224.76,198.59 Z" id="Path" fill="#A36457"></path>
            <path d="M216.5,180.35 C218.444068,183.88751 220.953896,187.083064 223.93,189.81 C225.2,190.93 226.5,191.53 226.76,192.44 C226.94,193.06 227.08,194.53 227.33,195.75 C227.75,197.89 228.33,201.21 230.9,203.81 C232.16,204.56 230.35,205.62 228.3,204.12 C226.25,202.62 223.96,198.29 223.46,195.99 L220.22,196.55 C220.22,196.55 220.98,201.02 220.37,203.2 C219.76,205.38 217.97,205.48 217.46,204.2 C217.05,203.2 217.78,200.2 216.57,196.82 C215.36,193.44 214.19,193.88 213.76,191.55 C213.50424,189.287948 212.254337,187.257314 210.35,186.01 C212.280099,183.997069 214.334102,182.106719 216.5,180.35 Z" id="Path" fill="#CC9780"></path>
            <path d="M217.46,204.2 C217.46,204.2 217.3,202.73 217.8,202.55 C218.083151,202.407021 218.421,202.425552 218.686815,202.598641 C218.95263,202.77173 219.106231,203.073213 219.09,203.39 C219.160287,203.900927 219.160287,204.419073 219.09,204.93 C218.779775,205.078808 218.419776,205.083523 218.105761,204.94289 C217.791745,204.802258 217.555549,204.530535 217.46,204.2 Z" id="Path" fill="#CC9780" style="mix-blend-mode: multiply;"></path>
            <path d="M213.93,138.37 C213.93,138.37 218.05,136.98 220.93,130.96 C223.81,124.94 222.57,124.63 223.43,124.55 C224.29,124.47 225.16,125.84 224.81,128.72 C224.46,131.6 224.04,133.97 224.04,133.97 C224.04,133.97 228.73,132.64 229.23,134.43 C229.396803,134.851027 229.384352,135.321924 229.195534,135.733548 C229.006715,136.145171 228.657923,136.461784 228.23,136.61 C228.646437,136.469812 229.104742,136.536318 229.464155,136.789092 C229.823568,137.041866 230.041123,137.45069 230.05,137.89 C230.27,139.33 229.12,139.52 228.37,139.63 C228.37,139.63 229.44,139.55 229.5,140.96 C229.56,142.37 227.74,142.47 227.74,142.47 C227.74,142.47 229.2,144 226.82,144.78 C225.02,145.36 219.46,146.99 216.95,145.54 C214.44,144.09 213.93,138.37 213.93,138.37 Z" id="Path" fill="#DBA795"></path>
            <path d="M223.01,124.89 C223.351363,125.139743 223.51552,125.56577 223.43,125.98 C223.319521,126.418328 222.98438,126.764894 222.55,126.89 L223.01,124.89 Z" id="Path" fill="#CC9780" style="mix-blend-mode: multiply;"></path>
            <path d="M218.16,135.24 C216.23,136.73 215.16,137.68 210.42,139.41 C201.6,142.78 189.49,147.85 180.48,153.32 L170.48,159.32 L210.93,140.45 C210.93,140.45 216.63,137.98 218.16,135.24 Z" id="Path" fill="#6EFFFF"></path>
        </g>
    </g>
</svg>