<svg xmlns="http://www.w3.org/2000/svg" xmlns:xlink="http://www.w3.org/1999/xlink" viewBox="0 0 422.88 310.8"><defs><style>.cls-1,.cls-10,.cls-11,.cls-14,.cls-19,.cls-39{fill:none;}.cls-2{isolation:isolate;}.cls-3{clip-path:url(#clip-path);}.cls-4{opacity:0.09;}.cls-16,.cls-4{mix-blend-mode:color-burn;}.cls-5{fill:#fff2d6;}.cls-6{fill:#ff96cc;}.cls-7{fill:#240115;}.cls-8{fill:#d73021;}.cls-9{fill:#00437a;}.cls-10,.cls-19{stroke:#a9975b;}.cls-10,.cls-11,.cls-14,.cls-19,.cls-39{stroke-miterlimit:10;}.cls-10{stroke-width:0.48px;}.cls-11{stroke:#86ebe8;}.cls-11,.cls-14{stroke-width:2px;}.cls-12{fill:#2ec1b3;}.cls-13{fill:#96f9f4;opacity:0.5;}.cls-14,.cls-39{stroke:#88edea;}.cls-15{clip-path:url(#clip-path-2);}.cls-16{opacity:0.43;}.cls-17{fill:#ffc239;}.cls-18{fill:#fff;}.cls-19{stroke-width:0.5px;}.cls-20{fill:#fff6ea;}.cls-21{fill:#ffda99;}.cls-22{fill:#f1f2f8;}.cls-23{fill:#f14c0e;}.cls-24{fill:#ae703c;}.cls-25{fill:#5291ee;}.cls-26{fill:#f6fcff;}.cls-27{fill:#ffa37b;}.cls-28{fill:#6effff;}.cls-29{fill:#2ebfb1;}.cls-30{fill:#6ecaff;}.cls-31{fill:#a9975b;}.cls-32{fill:#fbebcc;}.cls-33,.cls-38{mix-blend-mode:multiply;}.cls-34{fill:#e9d0c0;}.cls-35{fill:#e7b079;}.cls-36{fill:#f7fdff;}.cls-37{fill:#89beff;}.cls-38{opacity:0.29;}.cls-40{clip-path:url(#clip-path-3);}</style><clipPath id="clip-path" transform="translate(18.39 1.14)"><rect class="cls-1" width="400" height="300"/></clipPath><clipPath id="clip-path-2" transform="translate(18.39 1.14)"><polygon class="cls-1" points="19.82 123.42 58.26 123.42 98.63 114.54 101.21 122.29 79.67 129.96 79.86 130.66 120.1 130.68 120.1 138.92 57.13 148.28 19.82 150.55 19.82 123.42"/></clipPath><clipPath id="clip-path-3" transform="translate(18.39 1.14)"><polygon class="cls-1" points="304.67 13.74 294.04 37.4 296.64 55.03 302.32 54.16 305.18 34.97 313.11 34.9 315.23 49.92 302.32 54.18 309.09 76.27 337.95 64.5 338.02 13.76 304.67 13.74"/></clipPath></defs><g class="cls-2"><g id="Layer_2" data-name="Layer 2"><g id="hands"><g class="cls-3"><g class="cls-4"><use transform="translate(0 43.92) scale(0.24)" xlink:href="#image"/></g><path class="cls-5" d="M64.47,86.21,129.26,84l12.8,7.23s-.86,30.84.69,40.44H74.81l-9.28-1.86S66.55,101.34,64.47,86.21Z" transform="translate(18.39 1.14)"/><path class="cls-6" d="M64.47,84.81l9.07,5.72,68.52-.82-2.42-1a28.46,28.46,0,0,1-8.33-5.5L130.06,82s-10.42-3.86-24.61-1c0,0-5.59-2.92-8.89.21a4.7,4.7,0,0,0-.8,1.77A100.15,100.15,0,0,0,64.47,84.81Z" transform="translate(18.39 1.14)"/><path class="cls-7" d="M95.76,82.93s.23,1.8,3.75,2.19a5.37,5.37,0,0,1-5.42-2.36S95.1,82.83,95.76,82.93Z" transform="translate(18.39 1.14)"/><ellipse class="cls-7" cx="129.21" cy="84.68" rx="1.06" ry="0.78"/><path class="cls-8" d="M84.77,82.48s1.13,3.57-2.4,4.47-.1-.52,0-2.2a4.67,4.67,0,0,0-.32-2.19l1.39,0Z" transform="translate(18.39 1.14)"/><path class="cls-9" d="M115.87,79.92s4.17,2,6,5.2,3.2,3.42,3.2,3.42h8.34a22.13,22.13,0,0,1-5-4.32,12.07,12.07,0,0,0-4.07-3.61A48,48,0,0,0,115.87,79.92Z" transform="translate(18.39 1.14)"/><path class="cls-10" d="M64.75,88.54l8.34,3.81s57.23-1.72,68.94,0" transform="translate(18.39 1.14)"/><path class="cls-10" d="M64.47,90.44a72.63,72.63,0,0,1,8.62,3.62h69.66" transform="translate(18.39 1.14)"/><path class="cls-10" d="M64.75,92.35s4.35.14,9.49,4.56a90.5,90.5,0,0,1,14.84-.71c8.14.28,54.81-.43,54.81-.43" transform="translate(18.39 1.14)"/><path class="cls-10" d="M64.75,95.34l9.06,3.43s61.23-2,68.94-.72" transform="translate(18.39 1.14)"/><path class="cls-10" d="M65,97.91l8.08,3s50.53-1.71,69.66-1.5" transform="translate(18.39 1.14)"/><path class="cls-10" d="M65,100.2s5.8,2.85,8.08,3.71c0,0,39.11-3.29,69.66-1.86" transform="translate(18.39 1.14)"/><path class="cls-10" d="M65,102.62s6.23,2.43,9.23,3.28c0,0,47.81-2,68.51-2" transform="translate(18.39 1.14)"/><polyline class="cls-10" points="84.1 107.05 91.49 110.05 161.14 107.62"/><path class="cls-10" d="M65.7,107.4l7.39,4.21s19.85-2.64,69.66-2.1" transform="translate(18.39 1.14)"/><path class="cls-10" d="M65.7,110.19s1,.57,7.39,3.28c0,0,24.84-2.29,69.66-1.64" transform="translate(18.39 1.14)"/><path class="cls-10" d="M64.47,111.83a66.07,66.07,0,0,1,11.91,4.24s31-2.35,66.37-2.12" transform="translate(18.39 1.14)"/><polyline class="cls-10" points="83.41 115.09 93.2 119.61 161.71 117.35"/><path class="cls-10" d="M65,116.75s4.66.57,7.23,3l71.08-1.29" transform="translate(18.39 1.14)"/><path class="cls-10" d="M65.7,118.46c2.4,1.43,6.54,3.73,6.54,3.73s39.68-3.4,71.08,0" transform="translate(18.39 1.14)"/><path class="cls-10" d="M65,121.6l8.08,2.81s51-1.85,70.23-1" transform="translate(18.39 1.14)"/><polyline class="cls-10" points="82.63 124.63 91.49 127.74 162.28 125.83"/><polyline class="cls-10" points="84.04 126.8 92.49 129.74 161.14 128.27"/><polyline class="cls-10" points="83.98 129.03 92.06 131.54 160.45 130.92"/><polyline class="cls-11" points="38.22 151.69 38.22 216.75 57.97 216.75 57.97 277.82 144 277.82"/><circle class="cls-12" cx="38.22" cy="216.75" r="1.3"/><circle class="cls-12" cx="58.02" cy="216.75" r="1.3"/><circle class="cls-12" cx="58.02" cy="277.82" r="1.3"/><circle class="cls-12" cx="144" cy="277.83" r="2"/><polygon class="cls-13" points="38.22 124.56 76.65 124.56 117.02 115.68 119.6 123.43 98.06 131.1 98.26 131.81 138.5 131.83 138.5 140.06 75.52 149.43 38.22 151.69 38.22 124.56"/><path class="cls-14" d="M19.82,123.42H58.26l40.37-8.88,2.58,7.75-21.35,7.6a.41.41,0,0,0,.13.79H120.1v8.24l-63,9.37-37.31,2.26Z" transform="translate(18.39 1.14)"/><circle class="cls-12" cx="119.52" cy="123.37" r="1.3"/><circle class="cls-12" cx="98.26" cy="131.29" r="1.3"/><circle class="cls-12" cx="76.49" cy="124.39" r="1.3"/><circle class="cls-12" cx="38.22" cy="124.39" r="1.3"/><circle class="cls-12" cx="38.22" cy="151.69" r="1.3"/><circle class="cls-12" cx="75.51" cy="149.35" r="1.3"/><circle class="cls-12" cx="138.5" cy="131.94" r="1.3"/><circle class="cls-12" cx="138.5" cy="140.11" r="1.3"/><circle class="cls-12" cx="116.92" cy="115.68" r="1.3"/><g class="cls-15"><g class="cls-16"><use transform="translate(0 43.92) scale(0.24)" xlink:href="#image"/></g></g><path class="cls-17" d="M257.71,62.16s36.83-12,42.25-16.44c0,0,11,29.25,25.41,47.79a123.11,123.11,0,0,1-42.14,30.69S268.18,78.85,257.71,62.16Z" transform="translate(18.39 1.14)"/><path class="cls-5" d="M154.69,146.22s1.86,36.17.57,43.45c0,0,37,13.6,43.39,15.39,0,0,22.93-13.5,28.35-16.81l2.47-42.68-45.88-10.45Z" transform="translate(18.39 1.14)"/><path class="cls-18" d="M154.69,146.22S176.8,136,184.54,132.49c0,0,22.53,7.74,28.18,9.13s16.2,4.95,16.2,4.95-25.48,12.11-31.63,16C197.29,162.59,161.38,149.44,154.69,146.22Z" transform="translate(18.39 1.14)"/><path class="cls-19" d="M154.74,148.1s26.24,11.52,42.51,16.29l32.22-17.18" transform="translate(18.39 1.14)"/><path class="cls-19" d="M154.69,149.62s35.19,13.62,42.1,16.11l32.68-16.87" transform="translate(18.39 1.14)"/><path class="cls-19" d="M229.54,151c-3.7.25-33,16.71-33,16.71L154.69,151" transform="translate(18.39 1.14)"/><path class="cls-19" d="M229.85,153.25c-4.73-.73-33.43,16.1-33.43,16.1-30.67-12.82-43.61-17-43.61-17" transform="translate(18.39 1.14)"/><path class="cls-19" d="M154.09,154.7s33.49,12.23,43.2,16.89c0,0,25.72-15.05,32.18-16.89" transform="translate(18.39 1.14)"/><polyline class="cls-19" points="173.08 157.91 215.69 174.62 248.76 156.42"/><polyline class="cls-19" points="173.13 159.56 215.69 176.34 248.24 157.91"/><path class="cls-19" d="M154.69,160.64s27,11.92,42.6,16.11c0,0,24.48-12,31.79-17.39" transform="translate(18.39 1.14)"/><path class="cls-19" d="M152.81,162.59s29.53,10.61,44.44,16c0,0,27.89-15.67,31.54-16.53" transform="translate(18.39 1.14)"/><path class="cls-19" d="M154.74,165.23s35.9,12.7,43.08,15.28l31-17.16" transform="translate(18.39 1.14)"/><polyline class="cls-19" points="172.49 168.38 215.64 183.51 247.19 167.13"/><path class="cls-19" d="M154.09,169.35s39,12.77,43.15,15.29l31.55-16.93" transform="translate(18.39 1.14)"/><path class="cls-19" d="M154.09,171.59s18.79,3.58,45.16,16.47c0,0,8.11-8.93,29.83-18.71" transform="translate(18.39 1.14)"/><path class="cls-19" d="M154.09,173.48l43.46,13.76,1.7.82,3.81-3.42s21.4-11.2,26.41-13" transform="translate(18.39 1.14)"/><polyline class="cls-19" points="173.08 177.32 216.04 190.82 247.47 174.62"/><path class="cls-19" d="M154.69,178.61s29.26,7.24,42.65,13c0,0,24.72-12.39,31.74-15.4" transform="translate(18.39 1.14)"/><path class="cls-19" d="M155.26,180.51l42.18,14a185.8,185.8,0,0,1,31.35-15.8" transform="translate(18.39 1.14)"/><path class="cls-19" d="M155.26,182.37s22,6.7,42.48,14.45c0,0,26.67-13,30-15.92" transform="translate(18.39 1.14)"/><polyline class="cls-19" points="173.65 185.22 216.64 200.08 245.96 184.5"/><path class="cls-19" d="M155.6,185.78s32.78,12.95,40.43,15.07l31.14-15.62" transform="translate(18.39 1.14)"/><path class="cls-19" d="M155.41,188.51c27.12,9.29,43.51,14.81,43,14.65L227,187.56" transform="translate(18.39 1.14)"/><path class="cls-5" d="M167.51,102.52s1.86,36.17.57,43.45c0,0,37,13.6,43.39,15.4,0,0,22.93-13.51,28.35-16.82l2.47-42.68L196.41,91.42Z" transform="translate(18.39 1.14)"/><path class="cls-18" d="M167.51,102.52s22.11-10.25,29.85-13.73c0,0,22.53,7.74,28.18,9.13s16.2,5,16.2,5-25.48,12.11-31.63,16C210.11,118.9,174.2,105.74,167.51,102.52Z" transform="translate(18.39 1.14)"/><path class="cls-19" d="M167.56,104.4s26.24,11.52,42.51,16.29l32.22-17.18" transform="translate(18.39 1.14)"/><path class="cls-19" d="M167.51,105.92s35.19,13.62,42.1,16.11l32.68-16.86" transform="translate(18.39 1.14)"/><path class="cls-19" d="M242.36,107.3c-3.7.25-33,16.72-33,16.72L167.51,107.3" transform="translate(18.39 1.14)"/><path class="cls-19" d="M242.67,109.55c-4.73-.73-33.43,16.1-33.43,16.1-30.66-12.82-43.61-17-43.61-17" transform="translate(18.39 1.14)"/><path class="cls-19" d="M166.91,111s33.49,12.23,43.2,16.89c0,0,25.72-15,32.18-16.89" transform="translate(18.39 1.14)"/><polyline class="cls-19" points="185.9 114.22 228.5 130.93 261.58 112.73"/><polyline class="cls-19" points="185.96 115.87 228.5 132.65 261.06 114.22"/><path class="cls-19" d="M167.51,116.94s27,11.92,42.6,16.11c0,0,24.48-12,31.79-17.39" transform="translate(18.39 1.14)"/><path class="cls-19" d="M165.63,118.9s29.53,10.61,44.44,16c0,0,27.89-15.67,31.54-16.53" transform="translate(18.39 1.14)"/><path class="cls-19" d="M167.56,121.53s35.91,12.7,43.08,15.28l31-17.16" transform="translate(18.39 1.14)"/><polyline class="cls-19" points="185.31 124.69 228.46 139.82 260.01 123.43"/><path class="cls-19" d="M166.91,125.65s39,12.77,43.15,15.29L241.61,124" transform="translate(18.39 1.14)"/><path class="cls-19" d="M166.91,127.89s18.79,3.59,45.17,16.47c0,0,8.1-8.93,29.82-18.71" transform="translate(18.39 1.14)"/><path class="cls-19" d="M166.91,129.78l43.46,13.76,1.71.82,3.8-3.42s21.4-11.19,26.41-13" transform="translate(18.39 1.14)"/><polyline class="cls-19" points="185.9 133.62 228.86 147.12 260.29 130.93"/><path class="cls-19" d="M167.51,134.91s29.26,7.24,42.65,13c0,0,24.72-12.4,31.74-15.41" transform="translate(18.39 1.14)"/><path class="cls-19" d="M168.08,136.81l42.18,14A184.94,184.94,0,0,1,241.61,135" transform="translate(18.39 1.14)"/><path class="cls-19" d="M168.08,138.67s21.95,6.7,42.49,14.45c0,0,26.66-13,30-15.92" transform="translate(18.39 1.14)"/><polyline class="cls-19" points="186.47 141.53 229.46 156.38 258.78 140.81"/><path class="cls-19" d="M168.42,142.09S201.2,155,208.85,157.15L240,141.53" transform="translate(18.39 1.14)"/><path class="cls-19" d="M168.23,144.82c27.12,9.28,43.51,14.8,43,14.65l28.59-15.61" transform="translate(18.39 1.14)"/><path class="cls-5" d="M158.58,61.85s1.86,36.17.57,43.46c0,0,37,13.59,43.4,15.39,0,0,22.92-13.51,28.34-16.82l2.48-42.68L187.48,50.76Z" transform="translate(18.39 1.14)"/><path class="cls-20" d="M158.58,61.85s22.11-10.25,29.85-13.73c0,0,22.53,7.74,28.19,9.13s16.2,5,16.2,5-25.48,12.11-31.64,16C201.18,78.23,165.28,65.07,158.58,61.85Z" transform="translate(18.39 1.14)"/><path class="cls-19" d="M158.63,63.73S184.88,75.25,201.14,80l32.23-17.18" transform="translate(18.39 1.14)"/><path class="cls-19" d="M158.58,65.25s35.2,13.62,42.11,16.11L233.37,64.5" transform="translate(18.39 1.14)"/><path class="cls-19" d="M233.43,66.63c-3.7.26-33,16.72-33,16.72L158.58,66.63" transform="translate(18.39 1.14)"/><path class="cls-19" d="M233.74,68.88C229,68.15,200.31,85,200.31,85c-30.66-12.82-43.6-17-43.6-17" transform="translate(18.39 1.14)"/><path class="cls-19" d="M158,70.33s33.48,12.24,43.19,16.9c0,0,25.72-15.06,32.19-16.9" transform="translate(18.39 1.14)"/><polyline class="cls-19" points="176.97 73.55 219.58 90.26 252.66 72.06"/><polyline class="cls-19" points="177.03 75.2 219.58 91.98 252.13 73.55"/><path class="cls-19" d="M158.58,76.28s27,11.91,42.6,16.1c0,0,24.48-12,31.79-17.39" transform="translate(18.39 1.14)"/><path class="cls-19" d="M156.71,78.23s29.53,10.61,44.43,16c0,0,27.89-15.68,31.55-16.54" transform="translate(18.39 1.14)"/><path class="cls-19" d="M158.63,80.87s35.91,12.69,43.08,15.27l31-17.16" transform="translate(18.39 1.14)"/><polyline class="cls-19" points="176.38 84.02 219.54 99.15 251.08 82.76"/><path class="cls-19" d="M158,85s39,12.78,43.14,15.29l31.56-16.92" transform="translate(18.39 1.14)"/><path class="cls-19" d="M158,87.23s18.78,3.58,45.16,16.47c0,0,8.1-8.94,29.82-18.72" transform="translate(18.39 1.14)"/><path class="cls-19" d="M158,89.11l43.46,13.76,1.7.83,3.81-3.43s21.39-11.19,26.41-13" transform="translate(18.39 1.14)"/><polyline class="cls-19" points="176.97 92.95 219.93 106.45 251.37 90.26"/><path class="cls-19" d="M158.58,94.25s29.27,7.23,42.66,13c0,0,24.71-12.4,31.73-15.41" transform="translate(18.39 1.14)"/><path class="cls-19" d="M159.15,96.14l42.19,14a184.47,184.47,0,0,1,31.35-15.8" transform="translate(18.39 1.14)"/><path class="cls-19" d="M159.15,98s21.95,6.7,42.49,14.45c0,0,26.66-13,30-15.92" transform="translate(18.39 1.14)"/><polyline class="cls-19" points="177.54 100.86 220.53 115.71 249.85 100.14"/><path class="cls-19" d="M159.49,101.42s32.79,13,40.44,15.06l31.14-15.62" transform="translate(18.39 1.14)"/><path class="cls-19" d="M159.31,104.15c27.12,9.28,43.5,14.81,43,14.65l28.59-15.6" transform="translate(18.39 1.14)"/><path class="cls-20" d="M197.25,149.55s1.69,56.36,0,65.92c0,0,49.37,21.12,57.72,23.48,0,0,30.09-17.73,37.21-22.08l3.25-68.17L235.19,135Z" transform="translate(18.39 1.14)"/><path class="cls-21" d="M197.25,149.55s29-13.46,39.19-18c0,0,29.58,10.16,37,12s23.62,4.22,23.62,4.22-37.31,17.4-43.88,23.32C253.18,171.05,206,153.77,197.25,149.55Z" transform="translate(18.39 1.14)"/><path class="cls-19" d="M197.32,152s34.45,15.12,55.8,21.38l42.31-22.56" transform="translate(18.39 1.14)"/><path class="cls-19" d="M197.25,154s46.2,17.88,55.28,21.15L295.43,153" transform="translate(18.39 1.14)"/><path class="cls-19" d="M295.51,155.83c-4.86.33-43.31,21.94-43.31,21.94l-54.95-21.94" transform="translate(18.39 1.14)"/><path class="cls-19" d="M295.92,158.78c-6.2-1-43.89,21.13-43.89,21.13-40.25-16.83-57.24-22.27-57.24-22.27" transform="translate(18.39 1.14)"/><path class="cls-19" d="M196.47,160.68s44,16.06,56.71,22.18c0,0,33.76-19.76,42.25-22.18" transform="translate(18.39 1.14)"/><polyline class="cls-19" points="215.64 164.54 271.57 186.48 315 162.59"/><polyline class="cls-19" points="215.71 166.71 271.57 188.74 314.31 164.54"/><path class="cls-19" d="M197.25,168.48s35.47,15.65,55.93,21.14c0,0,32.13-15.76,41.73-22.82" transform="translate(18.39 1.14)"/><path class="cls-19" d="M194.79,171.05s38.76,13.93,58.33,21c0,0,36.61-20.57,41.42-21.7" transform="translate(18.39 1.14)"/><path class="cls-19" d="M197.32,174.51s47.13,16.67,56.55,20.05L294.54,172" transform="translate(18.39 1.14)"/><polyline class="cls-19" points="214.86 178.29 271.52 198.15 312.93 176.64"/><path class="cls-19" d="M196.47,179.91s51.22,16.77,56.64,20.08l41.43-22.22" transform="translate(18.39 1.14)"/><path class="cls-19" d="M196.47,182.86s24.66,4.7,59.29,21.62c0,0,10.64-11.73,39.15-24.57" transform="translate(18.39 1.14)"/><path class="cls-19" d="M196.47,185.33l57.05,18.07,2.24,1.08,5-4.49s28.08-14.7,34.67-17.13" transform="translate(18.39 1.14)"/><polyline class="cls-19" points="215.64 190.02 272.04 207.74 313.31 186.48"/><path class="cls-19" d="M197.25,192.07s38.42,9.5,56,17c0,0,32.44-16.28,41.66-20.23" transform="translate(18.39 1.14)"/><path class="cls-19" d="M198,194.56l55.38,18.38a242.21,242.21,0,0,1,41.16-20.74" transform="translate(18.39 1.14)"/><path class="cls-19" d="M198,197s28.81,8.79,55.77,19c0,0,35-17.08,39.45-20.9" transform="translate(18.39 1.14)"/><polyline class="cls-19" points="215.64 200.14 272.83 219.9 312.35 198.15"/><path class="cls-19" d="M197.25,201s44.23,17.45,54.28,20.22L294,200" transform="translate(18.39 1.14)"/><path class="cls-19" d="M196.47,204.48,254.7,224.3l39.84-21.73" transform="translate(18.39 1.14)"/><path class="cls-19" d="M197.32,207.88s40.33,11.8,56.85,19.73c0,0,24.43-15.48,40.37-22.08" transform="translate(18.39 1.14)"/><path class="cls-19" d="M197.25,209.63s41.19,14.81,57.05,20.62l38.92-22.37" transform="translate(18.39 1.14)"/><path class="cls-19" d="M197.25,211.88s39.61,12,54.54,21.15l41.43-22.4" transform="translate(18.39 1.14)"/><polyline class="cls-19" points="215.83 215.27 273.09 237.48 310.74 214.58"/><path class="cls-5" d="M122.37,179.8s2.26,43.91.69,52.75c0,0,45,16.5,52.67,18.68,0,0,27.83-16.39,34.41-20.41l3-51.8-55.7-12.69Z" transform="translate(18.39 1.14)"/><path class="cls-19" d="M122.43,182.08s31.86,14,51.6,19.78L213.15,181" transform="translate(18.39 1.14)"/><path class="cls-19" d="M122.37,183.93s42.72,16.53,51.11,19.55L213.15,183" transform="translate(18.39 1.14)"/><path class="cls-19" d="M213.22,185.61c-4.49.3-40.05,20.28-40.05,20.28l-50.8-20.28" transform="translate(18.39 1.14)"/><path class="cls-19" d="M213.6,188.34c-5.74-.89-40.58,19.54-40.58,19.54-37.22-15.56-52.93-20.6-52.93-20.6" transform="translate(18.39 1.14)"/><path class="cls-19" d="M121.65,190.1s40.64,14.84,52.43,20.5c0,0,31.22-18.27,39.07-20.5" transform="translate(18.39 1.14)"/><polyline class="cls-19" points="140.76 193.75 192.47 214.03 232.63 191.94"/><polyline class="cls-19" points="140.83 195.76 192.47 216.12 231.99 193.75"/><path class="cls-19" d="M122.37,197.31s32.8,14.46,51.71,19.55c0,0,29.71-14.57,38.59-21.11" transform="translate(18.39 1.14)"/><path class="cls-19" d="M120.09,199.68s35.85,12.88,53.94,19.44c0,0,33.85-19,38.29-20.07" transform="translate(18.39 1.14)"/><path class="cls-19" d="M122.43,202.88s43.58,15.41,52.29,18.54l37.6-20.82" transform="translate(18.39 1.14)"/><polyline class="cls-19" points="140.04 206.46 192.43 224.83 230.71 204.94"/><path class="cls-19" d="M121.65,207.88S169,223.38,174,226.44l38.3-20.55" transform="translate(18.39 1.14)"/><path class="cls-19" d="M121.65,210.6s22.8,4.35,54.82,20c0,0,9.83-10.85,36.2-22.71" transform="translate(18.39 1.14)"/><path class="cls-19" d="M121.65,212.89l52.75,16.7,2.07,1,4.62-4.15s26-13.59,32.06-15.84" transform="translate(18.39 1.14)"/><polyline class="cls-19" points="140.76 217.31 192.9 233.69 231.06 214.03"/><path class="cls-19" d="M122.37,219.12s35.52,8.78,51.77,15.75c0,0,30-15.05,38.53-18.71" transform="translate(18.39 1.14)"/><path class="cls-19" d="M123.07,221.42l51.2,17a224.72,224.72,0,0,1,38-19.18" transform="translate(18.39 1.14)"/><path class="cls-19" d="M123.06,223.68s26.64,8.13,51.57,17.54c0,0,32.37-15.79,36.47-19.32" transform="translate(18.39 1.14)"/><polyline class="cls-19" points="141.45 226.9 193.64 244.93 229.22 226.03"/><path class="cls-19" d="M123.48,227.83s39.79,15.71,49.08,18.28l37.79-19" transform="translate(18.39 1.14)"/><path class="cls-19" d="M123.25,231.14c32.92,11.27,52.81,18,52.24,17.78L210.19,230" transform="translate(18.39 1.14)"/><path class="cls-18" d="M122.37,179.8s26.84-12.44,36.23-16.66c0,0,27.35,9.39,34.21,11.08s24.3,6.68,24.3,6.68-28.54,13.6-38.31,18.2C178.8,199.1,130.5,183.71,122.37,179.8Z" transform="translate(18.39 1.14)"/><path class="cls-20" d="M72.46,196.07s2.13,41.41.65,49.75c0,0,42.41,15.57,49.69,17.62,0,0,26.24-15.46,32.45-19.25l2.83-48.86-52.53-12Z" transform="translate(18.39 1.14)"/><path class="cls-22" d="M72.46,196.07s25.32-11.73,34.18-15.71c0,0,25.79,8.85,32.26,10.45s19.5,3.77,19.5,3.77S127,209.66,121.24,214.82C121.24,214.82,80.13,199.76,72.46,196.07Z" transform="translate(18.39 1.14)"/><path class="cls-19" d="M72.52,198.23s30.05,13.19,48.67,18.65l36.89-19.67" transform="translate(18.39 1.14)"/><path class="cls-19" d="M72.46,200s40.3,15.59,48.21,18.44l37.41-19.31" transform="translate(18.39 1.14)"/><path class="cls-19" d="M158.15,201.55c-4.23.29-37.77,19.13-37.77,19.13L72.46,201.55" transform="translate(18.39 1.14)"/><path class="cls-19" d="M158.51,204.13c-5.41-.84-38.27,18.42-38.27,18.42-35.11-14.67-49.92-19.42-49.92-19.42" transform="translate(18.39 1.14)"/><path class="cls-19" d="M71.78,205.78s38.34,14,49.46,19.34c0,0,29.44-17.23,36.84-19.34" transform="translate(18.39 1.14)"/><polyline class="cls-19" points="90.86 209.3 139.63 228.43 177.5 207.59"/><polyline class="cls-19" points="90.92 211.19 139.63 230.4 176.9 209.3"/><path class="cls-19" d="M72.46,212.59S103.4,226.23,121.24,231c0,0,28-13.74,36.39-19.9" transform="translate(18.39 1.14)"/><path class="cls-19" d="M70.32,214.82s33.8,12.15,50.87,18.34c0,0,31.93-17.95,36.11-18.93" transform="translate(18.39 1.14)"/><path class="cls-19" d="M72.52,217.84s41.11,14.54,49.32,17.49l35.46-19.64" transform="translate(18.39 1.14)"/><polyline class="cls-19" points="90.18 221.28 139.58 238.61 175.7 219.85"/><path class="cls-19" d="M71.78,222.55s44.67,14.63,49.4,17.51l36.12-19.38" transform="translate(18.39 1.14)"/><path class="cls-19" d="M71.78,225.12s21.51,4.11,51.71,18.86c0,0,9.27-10.23,34.14-21.43" transform="translate(18.39 1.14)"/><path class="cls-19" d="M71.78,227.28,121.54,243l1.95.94,4.36-3.92s24.49-12.82,30.23-14.94" transform="translate(18.39 1.14)"/><polyline class="cls-19" points="90.86 231.52 140.03 246.97 176.02 228.43"/><path class="cls-19" d="M72.46,233.16S106,241.44,121.3,248c0,0,28.29-14.19,36.33-17.64" transform="translate(18.39 1.14)"/><path class="cls-19" d="M73.12,235.33l48.29,16a211.18,211.18,0,0,1,35.89-18.09" transform="translate(18.39 1.14)"/><path class="cls-19" d="M73.11,237.46s25.13,7.67,48.65,16.55c0,0,30.52-14.9,34.39-18.23" transform="translate(18.39 1.14)"/><polyline class="cls-19" points="91.51 240.56 140.73 257.57 174.29 239.74"/><path class="cls-19" d="M73.51,241.37S111,256.2,119.8,258.62l35.65-17.88" transform="translate(18.39 1.14)"/><path class="cls-19" d="M73.29,244.5c31.05,10.62,49.81,16.95,49.27,16.77l32.73-17.86" transform="translate(18.39 1.14)"/><path class="cls-5" d="M74.43,163.4s1.76,30.19.28,38.53c0,0,42.06,13.86,49.34,15.92,0,0,27.15-14.48,33.35-18.27L160,162.66l-52.53-12Z" transform="translate(18.39 1.14)"/><path class="cls-18" d="M72.28,162.64s24.06-8.23,36.32-15a176.44,176.44,0,0,1,32.27,10.46c6.11,2.66,17.24,5.47,17.24,5.47s-23,14.24-34.91,18.54C123.2,182.15,80,166.32,72.28,162.64Z" transform="translate(18.39 1.14)"/><path class="cls-19" d="M74.49,165.56s30,13.19,48.66,18.64L160,164.53" transform="translate(18.39 1.14)"/><path class="cls-19" d="M74.43,167.3s40.29,15.59,48.2,18.44L160,166.43" transform="translate(18.39 1.14)"/><path class="cls-19" d="M160.12,168.88c-4.24.29-37.78,19.13-37.78,19.13L74.43,168.88" transform="translate(18.39 1.14)"/><path class="cls-19" d="M159.59,171.46c-5.41-.84-37.39,18.42-37.39,18.42-35.1-14.67-49.92-19.42-49.92-19.42" transform="translate(18.39 1.14)"/><path class="cls-19" d="M73.75,173.11s38.33,14,49.45,19.34c0,0,29-17.09,36.39-19.2" transform="translate(18.39 1.14)"/><polyline class="cls-19" points="92.82 176.63 141.59 195.75 178.44 175.49"/><polyline class="cls-19" points="92.88 178.51 141.59 197.72 177.75 177.73"/><path class="cls-19" d="M74.43,179.92s30.93,13.64,48.77,18.43c0,0,28-13.74,36.39-19.91" transform="translate(18.39 1.14)"/><path class="cls-19" d="M72.28,182.15s33.81,12.15,50.87,18.34c0,0,31.93-18,36.12-18.93" transform="translate(18.39 1.14)"/><path class="cls-19" d="M74.49,185.17s41.1,14.54,49.31,17.49L159.27,183" transform="translate(18.39 1.14)"/><polyline class="cls-19" points="92.14 188.61 141.55 205.94 176.94 187.55"/><path class="cls-19" d="M73.75,189.88s44.67,14.63,49.39,17.51l35.4-19" transform="translate(18.39 1.14)"/><path class="cls-19" d="M73.75,192.45s21.5,4.1,51.7,18.86c0,0,7.79-9.09,32.66-20.29" transform="translate(18.39 1.14)"/><path class="cls-19" d="M73.75,194.61l49.75,15.75,2,.95,4.36-3.92s22.55-11.71,28.3-13.83" transform="translate(18.39 1.14)"/><polyline class="cls-19" points="92.82 198.84 142 214.29 176.5 196.94"/><path class="cls-19" d="M74.43,200.49s33.5,8.28,48.83,14.85c0,0,26.11-13,34.14-16.46" transform="translate(18.39 1.14)"/><polygon class="cls-7" points="252.86 139.77 258.71 136.69 262.28 137.84 256.19 141.05 252.86 139.77"/><polygon class="cls-7" points="232.99 150.65 239.77 146.72 242.69 147.98 236.12 152.15 232.99 150.65"/><path class="cls-7" d="M243.06,138.86a1.39,1.39,0,0,1,.84-.67.66.66,0,0,1,.82.53.8.8,0,0,1-.5.69,1,1,0,0,1-.85.09.5.5,0,0,1-.22-.74" transform="translate(18.39 1.14)"/><path class="cls-7" d="M229.25,147.62a.92.92,0,0,1,.74-.1.64.64,0,0,1,.44.57.83.83,0,0,1-.15.43,1.55,1.55,0,0,1-1.15.66c-.35,0-.58-.39-.57-.71A1.3,1.3,0,0,1,229.25,147.62Z" transform="translate(18.39 1.14)"/><path class="cls-7" d="M232.62,148.1c.1.05,2.13,2.9-1.23,5.25" transform="translate(18.39 1.14)"/><path class="cls-7" d="M243.74,140.85s2.64,1.63,6.54-.77" transform="translate(18.39 1.14)"/><path class="cls-23" d="M244.43,149a4.09,4.09,0,0,1,2.5,0,2,2,0,0,1,1.4,1.76" transform="translate(18.39 1.14)"/><path class="cls-24" d="M228.84,141.69s0-.48,1.09-.15a45.82,45.82,0,0,0,7.92,1c1.82,0,6-.87,8.31-.38,2.56.54,3.48,1,5.24,3.4,2,2.75,2.1,3.33,3.28,4.17s-2.07,1.55-3.16-1.23c-.51-1.31-.68-3.58-3.68-5.09-1.91-1-6.48.35-8,.43a22.51,22.51,0,0,1-9.69-1.34C228.75,142,228.84,141.69,228.84,141.69Z" transform="translate(18.39 1.14)"/><path class="cls-23" d="M253.45,156.94a3.9,3.9,0,0,1,2.41-2.72c1.26-.64,2.3-.3,3.58-1.17s1.38-1.54,2.41-2c1.25-.57,1.67-.19,1.67-.19s.24.34-.9.54c-1,.16-1,1.06-1.2,1.63-.27.83-1.44,1.45-3.18,1.79s-2.81-.08-3.82,1.4C253.85,157,253.54,157.26,253.45,156.94Z" transform="translate(18.39 1.14)"/><path class="cls-25" d="M204.9,148.29s24.59-12.29,31.56-15.24l3.53,1S218.61,144.6,209.86,150Z" transform="translate(18.39 1.14)"/><polygon class="cls-18" points="329.19 82.09 305.31 118.5 307.05 117.74 329.8 83.1 329.19 82.09"/><path class="cls-18" d="M279.47,97.79l11.34-.2a125.33,125.33,0,0,0,18.24-1.68l10.89-1.8-1.16,1.16L308.59,97a125.82,125.82,0,0,1-19,1.69l-9.76.12Z" transform="translate(18.39 1.14)"/><path class="cls-23" d="M292.93,77.18a6.28,6.28,0,0,0,5,1.31,7.09,7.09,0,0,0-1.42,5.37c.07.82.54.66.61,0a12.85,12.85,0,0,1,.45-3.31c.39-1.09,1.31-1.89,1.1-2.3s-1.4-.19-2-.26a5.54,5.54,0,0,1-3.1-1C292.84,76.36,292.64,77,292.93,77.18Z" transform="translate(18.39 1.14)"/><path class="cls-5" d="M310.79,81a121.86,121.86,0,0,0,9.15,13.16s-14.93,15.66-33,23.24c0,0-4.32-11.55-7.45-19.56C279.47,97.79,298.54,88.75,310.79,81Z" transform="translate(18.39 1.14)"/><path class="cls-9" d="M273.12,76a79.78,79.78,0,0,0,10.64-4.17L286,76.7a100.61,100.61,0,0,1-10.65,4.45Z" transform="translate(18.39 1.14)"/><path class="cls-9" d="M293.32,67.67A90,90,0,0,0,302,63l2.12,4.61a67.9,67.9,0,0,1-8.48,4.56Z" transform="translate(18.39 1.14)"/><path class="cls-26" d="M267.55,73.83s4.18-1,8.23-2.32a175.24,175.24,0,0,0,22.5-10.09L302.67,59,299,51.34s-21.49,10.82-35.6,14.09Z" transform="translate(18.39 1.14)"/><polygon class="cls-23" points="296.27 85.18 296.93 86.72 305.13 83.16 304.46 81.71 296.27 85.18"/><polygon class="cls-23" points="298.08 89.45 306.32 85.74 305.64 84.26 297.42 87.88 298.08 89.45"/><polygon class="cls-23" points="299.27 92.24 307.53 88.38 306.84 86.86 298.59 90.64 299.27 92.24"/><polygon class="cls-23" points="300.47 95.09 308.77 91.06 308.06 89.52 299.78 93.45 300.47 95.09"/><polygon class="cls-23" points="317.01 75.59 317.73 76.98 323.92 73.72 323.24 72.37 317.01 75.59"/><polygon class="cls-23" points="318.99 79.41 325.12 76.07 324.44 74.72 318.27 78.02 318.99 79.41"/><polygon class="cls-23" points="320.24 81.82 326.32 78.41 325.63 77.07 319.52 80.44 320.24 81.82"/><polygon class="cls-23" points="321.48 84.22 327.5 80.73 326.83 79.4 320.77 82.84 321.48 84.22"/><path class="cls-27" d="M267.81,175l14.46-7.79a4.56,4.56,0,0,1,3.23,2.83,31.55,31.55,0,0,1,1.51,6.88L283.28,186l-12.11-3S271.57,176,267.81,175Z" transform="translate(18.39 1.14)"/><path class="cls-28" d="M280.56,168.15s2.92,1.38,3.66,3.67a56.08,56.08,0,0,1,1.33,7.57l1.29-3.74a25.2,25.2,0,0,0-1.34-5.59,4.24,4.24,0,0,0-3.23-2.83Z" transform="translate(18.39 1.14)"/><polyline class="cls-11" points="95.53 21.14 95.53 61.83 52.92 61.83"/><circle class="cls-29" cx="52.92" cy="61.83" r="2"/><circle class="cls-29" cx="95.53" cy="21.14" r="2"/><circle class="cls-29" cx="95.53" cy="61.83" r="1.3"/><path class="cls-17" d="M47.26,28.89V18.78a.76.76,0,0,0-.75-.75H33.28a.75.75,0,0,0-.75.75V32a.74.74,0,0,0,.75.75H43.39a.77.77,0,0,1,.77.77V43.64a.76.76,0,0,0,.75.76H58.14a.75.75,0,0,0,.75-.76V30.42a.75.75,0,0,0-.75-.76H48A.77.77,0,0,1,47.26,28.89Z" transform="translate(18.39 1.14)"/><path class="cls-30" d="M345.59,126.53V116.42a.75.75,0,0,0-.76-.75H331.61a.75.75,0,0,0-.76.75v13.23a.76.76,0,0,0,.76.75h10.11a.77.77,0,0,1,.77.77v10.11a.74.74,0,0,0,.75.75h13.23a.75.75,0,0,0,.75-.75V128.05a.76.76,0,0,0-.75-.75H346.36A.77.77,0,0,1,345.59,126.53Z" transform="translate(18.39 1.14)"/><rect class="cls-31" x="379.26" y="67.31" width="14.73" height="14.73" rx="0.73"/><rect class="cls-30" x="141.45" y="27.44" width="14.73" height="14.73" rx="0.73"/><rect class="cls-30" x="66.84" y="197.72" width="14.73" height="14.73" rx="0.73"/><rect class="cls-23" x="66.84" y="212.45" width="14.73" height="14.73" rx="0.73"/><rect class="cls-25" x="228.13" y="254.72" width="14.73" height="14.73" rx="0.73"/><polyline class="cls-11" points="372.92 273.24 400.35 273.24 400.35 240.37"/><circle class="cls-29" cx="400.35" cy="240.36" r="2"/><circle class="cls-29" cx="372.92" cy="273.24" r="2"/><circle class="cls-29" cx="400.35" cy="273.24" r="1.3"/><path class="cls-32" d="M253.12,256s30.55-9.27,34.07-14.17l50.54,16.6S322.27,269.21,314,271.6s-11.82,6.53-11.82,6.53S265.7,261.21,253.12,256Z" transform="translate(18.39 1.14)"/><polygon class="cls-23" points="279.32 257.91 288.83 254.12 300.12 258.33 291.83 263.12 279.32 257.91"/><polygon class="cls-17" points="297.26 264.41 305.83 259.62 303.95 258.74 295.38 263.54 297.26 264.41"/><polygon class="cls-17" points="300.2 265.77 308.77 260.98 306.89 260.11 298.32 264.9 300.2 265.77"/><polygon class="cls-17" points="303.14 267.13 311.71 262.34 309.83 261.47 301.26 266.26 303.14 267.13"/><polygon class="cls-17" points="306.09 268.5 314.65 263.7 312.77 262.83 304.2 267.62 306.09 268.5"/><polygon class="cls-17" points="309.03 269.86 317.59 265.06 315.71 264.19 307.14 268.98 309.03 269.86"/><polygon class="cls-17" points="311.97 271.22 320.53 266.43 318.65 265.55 310.08 270.35 311.97 271.22"/><polygon class="cls-17" points="312.71 259.85 314.6 260.73 323.17 255.93 321.28 255.06 312.71 259.85"/><polygon class="cls-17" points="317.54 262.09 326.11 257.3 324.22 256.42 315.65 261.21 317.54 262.09"/><polygon class="cls-17" points="320.48 263.45 329.05 258.66 327.16 257.78 318.59 262.58 320.48 263.45"/><polygon class="cls-17" points="323.42 264.81 331.99 260.02 330.1 259.15 321.53 263.94 323.42 264.81"/><polygon class="cls-17" points="326.36 266.17 334.93 261.38 333.04 260.51 324.47 265.3 326.36 266.17"/><polygon class="cls-17" points="329.3 267.54 337.87 262.74 335.98 261.87 327.42 266.66 329.3 267.54"/><polygon class="cls-17" points="332.24 268.9 340.81 264.1 338.92 263.23 330.36 268.02 332.24 268.9"/><polygon class="cls-17" points="335.18 270.26 343.75 265.47 341.86 264.59 333.3 269.39 335.18 270.26"/><polygon class="cls-17" points="316.26 273.21 324.82 268.41 322.94 267.54 314.37 272.33 316.26 273.21"/><polygon class="cls-17" points="319.2 274.57 327.76 269.77 325.88 268.9 317.31 273.69 319.2 274.57"/><g class="cls-33"><path class="cls-34" d="M264.1,252.4s19,5.43,31,3.65c6.27-.94,7.19-2.89,11-3.08,5.23-.25,15.14,0,15.14,0l-34-11.17S283.72,245.83,264.1,252.4Z" transform="translate(18.39 1.14)"/></g><path class="cls-35" d="M316.83,223.23s28.71,3.16,37.68-1.38,7.6-5.23,7.6-5.23,2.75,24.36,5.5,27c0,0-12.24,8.39-49,5.36Z" transform="translate(18.39 1.14)"/><path class="cls-36" d="M343.17,236.65l.69,9s8.67,0,12.76-1.85l-1.48-8.57A51.07,51.07,0,0,1,343.17,236.65Z" transform="translate(18.39 1.14)"/><polygon class="cls-5" points="377.08 224.07 378.89 223.05 380.46 231.36 378.11 231.99 377.08 224.07"/><polygon class="cls-5" points="375.81 224.46 376.74 232.43 375.01 232.77 373.96 224.95 375.81 224.46"/><polygon class="cls-5" points="373.47 233.02 371.37 233.26 370.68 225.88 372.39 225.64 373.47 233.02"/><polygon class="cls-5" points="368.29 226.27 369.7 225.98 370 233.56 368.29 233.56 368.29 226.27"/><rect class="cls-5" x="365.6" y="226.27" width="1.52" height="7.28"/><polygon class="cls-5" points="375.76 236.38 377.33 236.05 378.77 243.77 376.74 244.31 375.76 236.38"/><polygon class="cls-5" points="378.77 235.85 380.75 235.41 382.36 242.95 380.16 243.28 378.77 235.85"/><g class="cls-33"><path class="cls-34" d="M339.83,224.22s-2.91,9.35-12.47,25.3l-4.52-.26-4.21-.3-.89-12.82-.9-12.92Z" transform="translate(18.39 1.14)"/></g><path class="cls-37" d="M258.36,192.14s8.72-2.47,12.11-5.58l12.2,1.89,4-2.45,3.45-9.25s6.54-3.52,7.61-5.7l4.35,1.46s8.78,13.61,7.92,28.8S320.2,212,322.82,211.73s8,0,14.91.82,8.1.11,8.44.78-11.51,16.16-11.51,16.16,2.84-.6,3.07,0-12.48,13-15.78,18.92H308.81s-38,9.29-36.94-11.69S268.42,197.94,258.36,192.14Z" transform="translate(18.39 1.14)"/><path class="cls-27" d="M269.32,163.69c1.24-.43,11.55-5.5,11.55-5.5a12.53,12.53,0,0,0,0,5.64c.69,3.34,2.45,7.47,6.14,6.63,0,0,1.08,2.16,2.4,1.43.53-.31,0-1.07,0-1.07s.81.27,1.19-.19-.17-1.44-1.29-3c-.66-.93-.3-1.51-.3-1.51a6.71,6.71,0,0,0,4.6,1.77c3.19.16,2.9.26,4.4,2.1l6-3.21s-5.89-7.88-7-9c-.81-.8-1.35-.26-1.76-.74s.77-1.3.18-2.08c-.44-.64-1.62,0-1.91-.41s.48-1.57-.48-2.39c-.64-.55-1.52.31-2.2-.16-.32-.22.29-1.73-1.82-1.06s-17.08,8.55-18.71,9.57c-1.8,1.12-2.72,1.86-2.47,2.61A1.14,1.14,0,0,0,269.32,163.69Z" transform="translate(18.39 1.14)"/><polygon class="cls-25" points="289.27 188.71 301.07 197.61 307.54 191.43 305.75 187.71 289.27 188.71"/><path class="cls-25" d="M268.89,199.75s11,11.77,9.41,33.37c-.44,5.84,12.9,8,17.13,7.33,14.77-2.25,21.1,3.2,21.1,3.2l-9.21,2s-31.36,6.26-35-7.5S268.89,199.75,268.89,199.75Z" transform="translate(18.39 1.14)"/><polygon class="cls-25" points="353.06 230.63 347.13 230.63 347.71 229.62 353.83 229.62 353.06 230.63"/><path class="cls-7" d="M282.67,192.05s2.25,1.73,3.63,1,1-4.44,1-4.44l-4-2.65Z" transform="translate(18.39 1.14)"/><path class="cls-7" d="M287,192.38s.58,3.68,1.61,7.72c1.12,4.46,6.37,8.75,6.12,18.57-.17,6.57.08,10.26,5.61,10.1s13.32-7.16,19.37-3.1,2.5,2.24,8.55,2.64-4.84,5.42-10.11,4.81-.49-1.94-4.52-1-18.65,8.54-25.19,2c-5.84-5.79.31-14.69-1.08-22.75s-3.55-10.06-2.33-18.52Z" transform="translate(18.39 1.14)"/><path class="cls-27" d="M315.79,243.16s2.42-2.71,7.4-1.94,8.4,1.18,9.61,1.27c1.41.1,1,1.24,0,1.57-.57.18-4.81.11-5.46.27s.33,1.19,3,1.33,15.36.34,16,.58.88,1,.28,1.23c0,0,1,0,1,.74,0,.91-1.11,1.23-2.51,1.31,0,0,1.06,0,1.06.75,0,.92-.92,1.19-2.59,1.28,0,0,.62.29.21,1.11s-2.24,1.38-9.54.91c-7.08-.46-15.79-.79-19.35-1.49s-4.7-2.07-4.7-2.07l2.81-5.88A2.74,2.74,0,0,0,315.79,243.16Z" transform="translate(18.39 1.14)"/><g class="cls-33"><path class="cls-24" d="M332.46,242.41s1.1,0,1.22.51a.69.69,0,0,1-.36.86,3.87,3.87,0,0,1-1.91-.72c-.46-.46-.27-.74-.27-.74Z" transform="translate(18.39 1.14)"/></g><g class="cls-33"><path class="cls-24" d="M345.73,246.14s1.08.05,1.24.52a.82.82,0,0,1,0,.51,2,2,0,0,1-1.48-.16.83.83,0,0,1-.49-.9Z" transform="translate(18.39 1.14)"/></g><g class="cls-33"><path class="cls-24" d="M346.66,247.47s1.12,0,.94.93a1.05,1.05,0,0,1-.22.44,3.47,3.47,0,0,1-1.38-.27.91.91,0,0,1-.52-.95Z" transform="translate(18.39 1.14)"/></g><g class="cls-33"><path class="cls-24" d="M344.18,249.5a3.37,3.37,0,0,1,1.74.26.83.83,0,0,1,0,1.2,1.9,1.9,0,0,1-1.5-.46,1.14,1.14,0,0,1-.37-1Z" transform="translate(18.39 1.14)"/></g><g class="cls-33"><path class="cls-24" d="M342.48,251.59a7.19,7.19,0,0,1,1.15,0c.56.32.16,1.08.16,1.08s-1.3.23-1.84-.41a.74.74,0,0,1-.2-.6Z" transform="translate(18.39 1.14)"/></g><g class="cls-33"><path class="cls-24" d="M331.43,246.94c-.2-.1-.4.25.21.46s3.2.69,8.35.63,6.67-.56,6.67-.56l.18-.1-.39,0s-1.5.2-4.85.29S333.13,247.8,331.43,246.94Z" transform="translate(18.39 1.14)"/></g><g class="cls-33"><path class="cls-24" d="M345.19,249.52a77.74,77.74,0,0,1-13-.15c-1.22-.14-1.67-.63-.58-.35,2.11.53,12.91.54,14.53.37Z" transform="translate(18.39 1.14)"/></g><g class="cls-33"><path class="cls-24" d="M331,251.09c-.45-.46,0,.51,12.5.2a2.7,2.7,0,0,1,1,.18,57.88,57.88,0,0,1-11.37,0C331.52,251.29,331.23,251.33,331,251.09Z" transform="translate(18.39 1.14)"/></g><g class="cls-33"><path class="cls-24" d="M269.54,161.05s1.54.93-1.18,2.65a.68.68,0,0,1-.58-.74C267.79,161.87,269.54,161.05,269.54,161.05Z" transform="translate(18.39 1.14)"/></g><g class="cls-33"><path class="cls-24" d="M284.22,170.05a1,1,0,0,1,.51-.9c.58-.33,1.11.21,1.28.36s1,1,1,1a4.86,4.86,0,0,1-1.62,0A2.8,2.8,0,0,1,284.22,170.05Z" transform="translate(18.39 1.14)"/></g><g class="cls-33"><path class="cls-24" d="M287,170.46a2.09,2.09,0,0,1,1.74.29c.78.59.88.89.86.92a.66.66,0,0,1-.53.35C288.65,172.09,287.84,172,287,170.46Z" transform="translate(18.39 1.14)"/></g><g class="cls-33"><path class="cls-24" d="M288.2,169.39a9.34,9.34,0,0,0,1.24,1.44,1.22,1.22,0,0,0,.88,0c.44-.18.16-.67.06-.76A2.09,2.09,0,0,0,288.2,169.39Z" transform="translate(18.39 1.14)"/></g><g class="cls-33"><path class="cls-24" d="M291.32,161c1.1,1.11,2.15,1.07,2.38,2s-.19,1.41.46,2.5c.54.9.8.91.66,1s-.81,0-2.58-1.22c0,0-1.64-1.46-2.63-2.36A3.59,3.59,0,0,1,291.32,161Z" transform="translate(18.39 1.14)"/></g><path class="cls-7" d="M293.73,159.09c.08.38-.15.76-1.33,1.57s-2.54,1.56-3.18,2.83a3.34,3.34,0,0,0-.25,2.45,7.24,7.24,0,0,0,.82,2.39,6.51,6.51,0,0,1-1.48-4.49C288.47,161.13,293.73,159.09,293.73,159.09Z" transform="translate(18.39 1.14)"/><g class="cls-33"><path class="cls-24" d="M294.75,154.68c-.42-.07-1.11-.05-2.68.84l-.06,0a23.63,23.63,0,0,0-3.15,2,6.8,6.8,0,0,0-3.25,4.4,5.22,5.22,0,0,0,.43,4.58,13.91,13.91,0,0,0,2.27,3s-2.44-3.22-2.39-5.52a6,6,0,0,1,1.57-4.38,32.07,32.07,0,0,1,5.63-4.23,3.21,3.21,0,0,1,1.87-.57.88.88,0,0,1,.41.19A1,1,0,0,0,294.75,154.68Z" transform="translate(18.39 1.14)"/></g><g class="cls-33"><path class="cls-24" d="M292.09,152a7.59,7.59,0,0,0-2,1.34h0c-.94.66-2.14,1.6-3.11,2.13s-3.37,1.79-3.93,3.58a14.47,14.47,0,0,0,.56,7.41c.73,1.81,3.44,4,3.44,4a17.1,17.1,0,0,1-2.14-2.65c-1.14-1.71-1.08-2-1.48-5.17s.31-4.25,1.68-5.3c1.55-1.18,4.13-2.71,5.68-4.09h0c1.15-1.05,1.79-1.15,2.36-.93A1,1,0,0,0,292.09,152Z" transform="translate(18.39 1.14)"/></g><g class="cls-33"><path class="cls-24" d="M290.33,151c-2.11.26-3.54,2.62-5.88,3.79-3.21,1.59-3.58,3.45-3.58,3.45l-.66.32a4.27,4.27,0,0,1,1.54-2.46,38.7,38.7,0,0,1,3.95-2.55C287,152.62,289.07,150.3,290.33,151Z" transform="translate(18.39 1.14)"/></g><path class="cls-28" d="M295.45,157.28c.52.25.67.18,1.05.57,2.6,2.57,6.82,9.32,6.82,9.32l.6-.49s-3.95-5.34-6.54-8.4C296.39,157.15,296.23,157.41,295.45,157.28Z" transform="translate(18.39 1.14)"/><path class="cls-28" d="M286,187.79s1.08,3,.29,5.3c0,0,1.06-.46,1.06-3.09,0-2.24,0-1.35,0-1.35Z" transform="translate(18.39 1.14)"/><path class="cls-37" d="M270.77,182.6l12.51,3.4L287,175.16s2.29,1.73,3.38.69l-1.25,14.44-5.72-3.88-.75,8.15-13.35-8.15S270.48,186.7,270.77,182.6Z" transform="translate(18.39 1.14)"/><path class="cls-28" d="M286.82,176.37s2.31,1.48,3.48.62l.09-1.14a1.58,1.58,0,0,1-1.81.16,5.24,5.24,0,0,1-1.38-.74Z" transform="translate(18.39 1.14)"/><path class="cls-37" d="M297.06,169.86s5-1.78,6.49-3.72l3.77,5.44a3.88,3.88,0,0,1,4.87.91c2.07,2.51,15.38,15.52,17,27.1s-16.94,4.92-19.19,1.72L307.32,186S299.23,173.66,297.06,169.86Z" transform="translate(18.39 1.14)"/><path class="cls-25" d="M316.53,200.17s-5.31-.63-7.31-3.45-9-21.75-9-21.75S308.09,191.65,316.53,200.17Z" transform="translate(18.39 1.14)"/><path class="cls-28" d="M302.11,167.66l3.92,5.25s3.05-1.46,4.87,0A96.9,96.9,0,0,1,325.8,190s-7.71-13.42-14.58-18.57c-2.85-2.19-3.9.12-3.9.12l-3.69-5.31A9.78,9.78,0,0,1,302.11,167.66Z" transform="translate(18.39 1.14)"/><path class="cls-37" d="M266,196.11s10.21,10.15,10.21,28.38-1.37,12.61,6.64,16,16.26-1,21.9,0,3.91,3.87,10.13,2.71c3.29-.58-3.59,8.26-3.59,8.26s-3.21.3-6.54.38-5.33,4.62-16,2.64-23.22-.66-28.25-4.2-6.92-9.89-4.2-23.65-9.31-29.13,1.4-34.21C260.75,190.76,266,196.11,266,196.11Z" transform="translate(18.39 1.14)"/><path class="cls-28" d="M287.52,151.64s-8.27,3.86-18,9.41h0s8.6-6.92,18-9.41" transform="translate(18.39 1.14)"/><polygon class="cls-28" points="308.69 178.13 307.54 191.43 307.86 178.23 308.69 178.13"/><g class="cls-38"/><polyline class="cls-11" points="395.36 14.89 237.73 14.89 237.73 34.36 212.38 34.36"/><polygon class="cls-13" points="323.06 14.89 312.43 38.55 315.03 56.17 320.72 55.31 323.57 36.11 331.51 36.04 333.63 51.07 320.72 55.32 327.49 77.42 356.35 65.65 356.42 14.9 323.06 14.89"/><polygon class="cls-14" points="323.06 14.89 312.43 38.55 315.03 56.17 320.72 55.31 323.57 36.11 331.51 36.04 333.63 51.07 320.72 55.32 327.49 77.42 356.35 65.65 356.42 14.9 323.06 14.89"/><polyline class="cls-39" points="322.44 61.15 339.41 54.78 339.95 43.82"/><polyline class="cls-39" points="324.13 66.47 345.31 58.63 345.68 49.5"/><polyline class="cls-39" points="325.79 71.87 350.67 62.06 350.88 54.75"/><circle class="cls-29" cx="356.41" cy="14.9" r="1.3"/><circle class="cls-29" cx="322.89" cy="14.9" r="1.3"/><circle class="cls-29" cx="312.43" cy="38.53" r="1.3"/><circle class="cls-29" cx="323.57" cy="36.11" r="1.3"/><circle class="cls-29" cx="331.42" cy="36.11" r="1.3"/><circle class="cls-29" cx="333.41" cy="50.8" r="1.3"/><circle class="cls-29" cx="339.29" cy="54.75" r="1.3"/><circle class="cls-29" cx="345.07" cy="58.54" r="1.3"/><circle class="cls-29" cx="350.42" cy="62.01" r="1.3"/><circle class="cls-29" cx="356.41" cy="65.45" r="1.3"/><circle class="cls-29" cx="350.88" cy="54.75" r="1.3"/><circle class="cls-29" cx="345.68" cy="49.5" r="1.3"/><circle class="cls-29" cx="339.95" cy="43.69" r="1.3"/><circle class="cls-29" cx="320.86" cy="55.34" r="1.3"/><circle class="cls-29" cx="322.27" cy="61.03" r="1.3"/><circle class="cls-29" cx="323.93" cy="66.47" r="1.3"/><circle class="cls-29" cx="325.62" cy="72.01" r="1.3"/><circle class="cls-29" cx="327.46" cy="77.56" r="1.3"/><circle class="cls-29" cx="315.03" cy="56.05" r="1.3"/><g class="cls-40"><g class="cls-16"><use transform="translate(235.68) scale(0.24)" xlink:href="#image-2"/></g></g><circle class="cls-29" cx="212.38" cy="34.36" r="2"/><circle class="cls-29" cx="395.36" cy="14.89" r="2"/><circle class="cls-29" cx="237.75" cy="14.89" r="1.3"/><circle class="cls-29" cx="237.75" cy="34.36" r="1.3"/><g class="cls-4"><use transform="translate(235.68) scale(0.24)" xlink:href="#image-2"/></g></g></g></g></g></svg>