<?xml version="1.0" encoding="UTF-8"?>
<svg width="435px" height="343px" viewBox="0 0 435 343" version="1.1" xmlns="http://www.w3.org/2000/svg" xmlns:xlink="http://www.w3.org/1999/xlink">
    <!-- Generator: Sketch 52.1 (67048) - http://www.bohemiancoding.com/sketch -->
    <title>Cover</title>
    <desc>Created with Sketch.</desc>
    <defs>
        <radialGradient cx="50%" cy="50%" fx="50%" fy="50%" r="50%" gradientTransform="translate(0.500000,0.500000),scale(1.000000,0.976245),translate(-0.500000,-0.500000)" id="radialGradient-1">
            <stop stop-color="#A8E5E0" stop-opacity="0.5" offset="0%"></stop>
            <stop stop-color="#A8E5E0" stop-opacity="0.5" offset="32.8016089%"></stop>
            <stop stop-color="#A8E5E0" stop-opacity="0" offset="100%"></stop>
        </radialGradient>
        <radialGradient cx="50%" cy="50%" fx="50%" fy="50%" r="50%" gradientTransform="translate(0.500000,0.500000),scale(1.000000,0.976245),translate(-0.500000,-0.500000)" id="radialGradient-2">
            <stop stop-color="#A8E5E0" stop-opacity="0.5" offset="0%"></stop>
            <stop stop-color="#A8E5E0" stop-opacity="0.5" offset="69.6327983%"></stop>
            <stop stop-color="#A8E5E0" stop-opacity="0" offset="100%"></stop>
        </radialGradient>
    </defs>
    <g id="Page-1" stroke="none" stroke-width="1" fill="none" fill-rule="evenodd">
        <g id="Cover" transform="translate(0.000000, -3.000000)">
            <circle id="Oval" fill="url(#radialGradient-1)" cx="354.5" cy="267.5" r="80.5"></circle>
            <polygon id="Path" fill="#FFF2D6" points="144.48 224.49 98.3 235.2 98.33 229.97 144.48 220.09"></polygon>
            <polygon id="Path" fill="#FFC339" points="146.81 232.08 101.55 244.08 101.57 238.91 146.82 227.71"></polygon>
            <polygon id="Path" fill="#AA985B" points="141.51 270.72 93.91 290.39 93.94 285.04 141.51 266.24"></polygon>
            <polygon id="Path" fill="#AA985B" points="149.49 248.62 118.57 259.01 118.59 254.12 149.5 244.29"></polygon>
            <polygon id="Path" fill="#FFF2D6" points="148.44 258.41 97.65 277.43 97.67 272.16 148.44 254.05"></polygon>
            <polygon id="Path" fill="#AA985B" points="161.95 253.35 151.48 257.27 151.49 252.97 161.95 249.24"></polygon>
            <polygon id="Path" fill="#AA985B" points="146.8 241.16 129.78 246.3 129.79 241.62 146.81 236.79"></polygon>
            <polygon id="Path" fill="#FFF2D6" points="160.48 237.03 154.94 238.7 154.94 234.48 160.49 232.9"></polygon>
            <polygon id="Path" fill="#FFF2D6" points="124.84 247.79 83.16 260.38 83.19 254.87 124.85 243.03"></polygon>
            <polygon id="Path" fill="#AA985B" points="111.05 261.53 89.58 268.75 89.61 263.34 111.07 256.51"></polygon>
            <polygon id="Path" fill="#FFDA99" points="341.86 92.59 320.83 92.59 343.62 65.07 373.29 65.07"></polygon>
            <polygon id="Path" fill="#A9975B" points="358.13 76.05 337.15 76.05 340.42 72.25 362.35 72.25"></polygon>
            <polygon id="Path" fill="#A9975B" points="349.48 82.75 332.6 82.75 335.4 79.54 353 79.54"></polygon>
            <path d="M242.56,232.38 C242.56,232.38 248.27,238.68 267.25,242.79 C286.23,246.9 289.4,259.47 289.4,259.47 L287.67,266.07 L283.22,267.62 L278.74,265.72 L275.06,267.82 C273.484054,268.717993 271.556636,268.740668 269.96,267.88 L265.96,265.71 L257.75,269.25 L251.08,265.7 L243.46,269.24 L237.22,265.68 L230.14,269.23 L223.58,265.67 L218.23,268.35 C217.150561,268.905292 215.869439,268.905292 214.79,268.35 L209.79,265.7 L202.6,269.18 L195.67,265.63 L189.13,269.18 L181.33,265.62 L175.47,268.41 L170.27,267.61 L167.43,263.29 C167.43,263.29 163.53,250.9 192.55,242.77 C201.91,240.53 208.87,238.28 211.65,233.16 L242.56,232.38 Z" id="Path" fill="#00437A"></path>
            <ellipse id="Oval" fill="#1571CB" cx="241.63" cy="228.57" rx="2.88" ry="2.51"></ellipse>
            <path d="M243.5,227.18 C243.5,227.18 246.34,222.1 254.4,223.66 C259.4,224.61 263.27,229.35 263.27,229.35 C263.27,229.35 259.75,232.94 251.35,231.11 C242.95,229.28 243.5,227.18 243.5,227.18 Z" id="Path" fill="#1571CB"></path>
            <path d="M237.61,223.04 C237.61,223.04 238.55,222.54 239.37,226.74 C239.917001,229.315046 241.385685,231.601642 243.5,233.17 C238.8951,239.320899 231.343738,242.527746 223.72,241.57 C210.72,239.94 210.85,237.37 210.65,234.8 C210.430613,233.423031 211.188856,232.076424 212.48,231.55 C212.48,231.55 208.28,229.45 209.77,226.74 C211.26,224.03 237.61,223.04 237.61,223.04 Z" id="Path" fill="#3A7BEB"></path>
            <path d="M243.5,227.18 C243.5,227.18 245.8,223.05 253.5,227.18 C261.2,231.31 263.25,234.57 263.25,234.57 C259.930456,236.89291 255.685995,237.449132 251.88,236.06 C245.24,233.75 243.88,228.61 243.88,228.61 L243.5,227.18 Z" id="Path" fill="#3A7BEB"></path>
            <path d="M259.92,160.84 L259.14,155.15 L257.54,161 C256.99401,162.929525 255.571305,164.489313 253.7,165.21 L250.96,166.27 L253.58,166.95 C255.336132,167.388088 256.640462,168.863413 256.86,170.66 L257.63,176.32 L259.24,170.48 C259.781819,168.554797 261.196365,166.995835 263.06,166.27 L265.76,165.22 L263.18,164.55 C261.431701,164.104812 260.13668,162.631031 259.92,160.84 Z" id="Path" fill="#FF96CC"></path>
            <path d="M189.33,201.43 L188.93,192.43 C188.93,192.2 188.59,192.22 188.54,192.43 L186.8,201.52 C186.113941,204.799959 183.605114,207.394359 180.35,208.19 L175.18,209.37 C174.97,209.37 174.94,209.73 175.18,209.75 L180.18,210.2 C183.264283,210.415388 185.679911,212.939243 185.76,216.03 L186.21,225.17 C186.21,225.4 186.56,225.37 186.6,225.17 L188.21,215.98 C188.852843,212.690704 191.325974,210.062029 194.57,209.22 L199.25,208.07 C199.47,208.07 199.49,207.72 199.25,207.69 L194.84,207.26 C191.783258,207.010496 189.40673,204.495948 189.33,201.43 Z" id="Path" fill="#88EDEA"></path>
            <path d="M198.21,221.18 L198,216.69 C198,216.58 197.84,216.59 197.81,216.69 L196.94,221.23 C196.600139,222.874446 195.342147,224.17528 193.71,224.57 L191.13,225.16 C191.02,225.16 191.01,225.34 191.13,225.35 L193.64,225.57 C195.184004,225.677889 196.392491,226.942686 196.43,228.49 L196.65,233.06 C196.65,233.18 196.82,233.16 196.84,233.06 L197.65,228.46 C197.965766,226.812458 199.204754,225.495546 200.83,225.08 L203.17,224.5 C203.28,224.5 203.29,224.33 203.17,224.31 L200.96,224.1 C199.43174,223.972616 198.245595,222.713147 198.21,221.18 Z" id="Path" fill="#A9975B"></path>
            <path d="M261.97,198.5 C261.986697,198.439212 262.041961,198.397081 262.105,198.397081 C262.168039,198.397081 262.223303,198.439212 262.24,198.5 C262.38,199.9 262.81,202.61 264.11,203.03 C265.22,203.4 267.54,202.91 269.01,202.54 C269.0722,202.533595 269.131105,202.569213 269.154328,202.627269 C269.17755,202.685325 269.159459,202.751742 269.11,202.79 C267.81,203.56 265.92,204.95 266.11,206.58 C266.29,207.97 268.11,208.58 269.25,208.76 C269.32732,208.76 269.39,208.82268 269.39,208.9 C269.39,208.97732 269.32732,209.04 269.25,209.04 C268,209.28 266,209.94 265.61,211.69 C265.372953,213.136478 265.622672,214.620727 266.32,215.91 C266.344516,215.969707 266.325036,216.038437 266.272837,216.0764 C266.220637,216.114364 266.149249,216.11172 266.1,216.07 C264.98,214.91 263.1,213.18 261.68,213.24 C260.01,213.31 258.68,215.14 258.08,216.24 C258.046944,216.295437 257.980272,216.321091 257.918582,216.302109 C257.856891,216.283128 257.816173,216.224431 257.82,216.16 C258.02,214.86 258.14,212.64 256.82,211.9 C255.564416,211.340605 254.162959,211.196955 252.82,211.49 C252.750683,211.508885 252.678322,211.472235 252.652531,211.40518 C252.626741,211.338125 252.655893,211.262432 252.72,211.23 C253.99,210.48 256.34,208.89 256.4,207.37 C256.46,205.85 255.4,203.74 254.73,202.63 C254.693848,202.57134 254.705756,202.495095 254.758073,202.450252 C254.81039,202.405408 254.887559,202.405302 254.94,202.45 C255.81,203.12 257.4,204.06 258.94,203.45 C260.48,202.84 261.57,199.93 261.97,198.5 Z" id="Path" fill="#F14C0E"></path>
            <path d="M236.71,225.95 C227.71,240.1 212.48,231.55 212.48,231.55 C212.48,231.55 208.64,229.69 209.61,227.09 L236.71,225.95 Z" id="Path" fill="#1571CB"></path>
            <ellipse id="Oval" fill="#622D15" cx="238.75" cy="209.52" rx="12.21" ry="13.52"></ellipse>
            <path d="M240.48,177.89 C238.31,171.41 230.76,165.46 220.74,167.89 C209.89,170.49 205.2,182.44 206.23,193.32 C207.33,204.81 206.73,200.73 205.74,209.25 C202.74,235.66 226.58,235.25 231.85,231.15 C236.59,227.51 239.12,224.38 240.85,209.15 C241.659041,209.246911 242.469241,208.978715 243.060663,208.418217 C243.652086,207.857719 243.963365,207.063075 243.91,206.25 C243.91,203.19 241.41,203.25 241.41,203.25 C241.41,203.25 243.53,187.01 240.48,177.89 Z" id="Path" fill="#F7C69B"></path>
            <path d="M204.63,193.09 C204.63,193.09 216.97,192.35 220.99,187.67 L224.7,171.89 L224.03,187.89 L224.18,187.89 L225.91,173.68 L227.64,187.68 C227.64,187.68 237.3,191.84 244.64,189.25 C244.64,189.25 244.4,164.68 224.64,166.17 C204.88,167.66 204.63,184.84 204.63,193.09 Z" id="Path" fill="#622D15"></path>
            <path d="M230.45,193.51 L230.39,193.51 C229.516785,193.399985 228.633215,193.399985 227.76,193.51 L227.7,193.51 C227.390608,193.510011 227.094032,193.386426 226.8762,193.166716 C226.658368,192.947006 226.537333,192.64938 226.54,192.34 C226.54,191.69935 227.05935,191.18 227.7,191.18 L227.76,191.18 C228.633215,191.069985 229.516785,191.069985 230.39,191.18 L230.45,191.18 C231.09065,191.18 231.61,191.69935 231.61,192.34 C231.612667,192.64938 231.491632,192.947006 231.2738,193.166716 C231.055968,193.386426 230.759392,193.510011 230.45,193.51 Z" id="Path" fill="#240115"></path>
            <path d="M216,193.51 C215.123438,193.399987 214.236562,193.399987 213.36,193.51 L213.3,193.51 C212.990608,193.510011 212.694032,193.386426 212.4762,193.166716 C212.258368,192.947006 212.137333,192.64938 212.14,192.34 C212.14,191.69935 212.65935,191.18 213.3,191.18 L213.36,191.18 C214.236562,191.069987 215.123438,191.069987 216,191.18 C216.30938,191.177333 216.607006,191.298368 216.826716,191.5162 C217.046426,191.734032 217.170011,192.030608 217.17,192.34 C217.17,192.986173 216.646173,193.51 216,193.51 Z" id="Path" fill="#240115"></path>
            <path d="M214.2,213.89 C214.2,213.89 212.74,211.36 215.49,210.89 C216.716354,210.674324 217.964254,211.132269 218.76,212.09 C219.776453,210.902748 221.557744,210.751339 222.76,211.75 C224.13,212.69 223.85,214.62 226.28,213.67 C228.71,212.72 224.98,217.67 220.22,217.86 C214.97,218.02 212.97,215.41 214.2,213.89 Z" id="Path" fill="#D73021"></path>
            <path d="M208.48,198.02 C210.112504,198.790764 211.923213,199.105219 213.72,198.93 C215.88,198.77 216.21,200.31 216.87,200.24 C217.293668,200.195662 217.642741,199.887801 217.739679,199.472996 C217.836617,199.05819 217.660139,198.62751 217.3,198.4 C216.37,197.69 214.88,197.02 212.22,197.4 L208.48,198.02 Z" id="Path" fill="#622D15"></path>
            <path d="M234.24,198.02 C232.607496,198.790764 230.796787,199.105219 229,198.93 C226.84,198.77 226.51,200.31 225.84,200.24 C225.417975,200.192171 225.072203,199.882974 224.977686,199.468898 C224.883168,199.054821 225.060528,198.626214 225.42,198.4 C226.34,197.69 227.84,197.02 230.5,197.4 L234.24,198.02 Z" id="Path" fill="#622D15"></path>
            <path d="M220.19,206.74 C220.448826,206.647299 220.717132,206.583577 220.99,206.55 C221.26753,206.513135 221.538722,206.652719 221.67,206.9 C221.732977,207.179218 221.645801,207.471067 221.44,207.67 C220.993363,208.170486 220.344375,208.442184 219.674389,208.40917 C219.004403,208.376156 218.38527,208.041971 217.99,207.5 C217.853017,207.32397 217.76969,207.112179 217.75,206.89 C217.75,206.23 218.23,206.32 218.61,206.47 C219.088161,206.744027 219.647976,206.839691 220.19,206.74 Z" id="Path" fill="#F24C0E"></path>
            <path d="M218.31,220.82 C219.096279,220.72927 219.891071,220.890329 220.58,221.28 C220.761185,221.395964 220.960658,221.480486 221.17,221.53 C221.385088,221.572273 221.600837,221.460249 221.69,221.26 C221.717857,221.134645 221.70013,221.003465 221.64,220.89 C221.273794,220.250946 220.614478,219.835127 219.88,219.78 C218.787554,219.62163 217.674027,219.847871 216.73,220.42 C216.224816,220.65896 215.85651,221.115658 215.73,221.66 C215.63,222.48 216.39,221.81 216.6,221.66 C217.071128,221.212351 217.667742,220.919278 218.31,220.82 Z" id="Path" fill="#240115"></path>
            <path d="M216.45,187.66 C216.079717,185.743011 216.189652,183.764176 216.77,181.9 C215.855345,183.763238 215.234661,185.756848 214.93,187.81 C214.848706,186.250479 214.973109,184.687042 215.3,183.16 C214.60883,184.833527 214.05044,186.558853 213.63,188.32 C213.391287,186.613808 213.548688,184.87556 214.09,183.24 C213.014872,185.07985 212.333808,187.123043 212.09,189.24 L212.2,183.97 C211.314508,185.976866 210.644101,188.071889 210.2,190.22 C209.875145,188.635303 209.957722,186.994087 210.44,185.45 C211.742677,180.26052 214.360094,175.494065 218.04,171.61 C217.092443,173.034988 216.335985,174.578163 215.79,176.2 C216.810964,174.682601 218.002028,173.286875 219.34,172.04 C218.426717,173.308289 217.718099,174.712027 217.24,176.2 C218.16,174.726667 219.136667,173.293333 220.17,171.9 L218.67,176.12 C219.406055,174.357138 220.617871,172.833712 222.17,171.72 C222.4,172.61 221.17,174.16 220.75,174.96 C220.09,176.3 219.49,177.66 218.96,179.05 C217.86944,181.839812 217.029456,184.72119 216.45,187.66 Z" id="Path" fill="#FF97CD" opacity="0.25"></path>
            <path d="M231.61,168.58 C231.61,168.58 240.35,179.8 240.5,203.01 C240.5,203.01 240.34,204.94 240.9,205.01 C241.46,205.08 241.9,204.39 242.77,204.74 C243.47,205.01 243.77,206.07 243.62,207.74 C244.115313,206.680731 244.066864,205.44716 243.49,204.43 C243.169638,203.592527 242.304923,203.095421 241.42,203.24 C241.42,203.24 243.37,187.96 240.74,178.73 C239.434865,174.114166 236.062358,170.364884 231.61,168.58 Z" id="Path" fill="#6EFFFF"></path>
            <path d="M222.15,214.58 C222.293415,214.54153 222.446422,214.583607 222.55,214.69 C222.590215,214.779001 222.590215,214.880999 222.55,214.97 C222.421348,215.220867 222.209133,215.418934 221.95,215.53 C221.058892,215.90912 220.067433,215.982952 219.13,215.74 C218.869963,215.698002 218.621423,215.602672 218.4,215.46 C218.19,215.31 217.9,214.9 218.14,214.67 C218.38,214.44 219.09,214.67 219.29,214.67 C220.24427,214.694627 221.199167,214.664578 222.15,214.58 Z" id="Path" fill="#FF96CC"></path>
            <path d="M238.08,223.04 C237.357152,224.903798 236.344699,226.641843 235.08,228.19 C235.08,228.19 236.65,228.12 236.68,230.19 C236.71,232.26 238.25,232.08 238.25,232.08 C238.25,232.08 239.33,232.37 239.56,234.08 C239.659871,234.91339 240.008324,235.697412 240.56,236.33 L243.46,233.14 C241.04952,231.33491 239.484489,228.620503 239.13,225.63 C239.097534,224.669612 238.725477,223.75187 238.08,223.04 Z" id="Path" fill="#6EFFFF"></path>
            <path d="M250.13,225.72 C254.635546,228.202117 258.692015,231.423629 262.13,235.25 L263.37,234.48 C259.756942,230.500756 255.205273,227.489229 250.13,225.72 Z" id="Path" fill="#6EFFFF"></path>
            <path d="M245.2,234.48 C252.105102,240.382195 260.452309,244.347033 269.39,245.97 C284.25,248.65 285.39,252.63 285.39,252.63 C285.39,252.63 281.08,245.48 264.92,242.18 C252.54,239.7 245.2,234.48 245.2,234.48 Z" id="Path" fill="#6EFFFF"></path>
            <path d="M231.61,241.18 C231.61,241.18 222.19,247.6 200.24,240.74 C200.24,240.74 207.87,238.63 210.64,234.74 C210.64,234.69 210.59,242.85 231.61,241.18 Z" id="Path" fill="#240115"></path>
            <path d="M160.97,291.92 L137.83,291.77 C137.12,291.77 137.44,291.22 138.5,290.58 L163.73,275.32 C164.106775,275.110897 164.529157,274.997575 164.96,274.99 L177.03,275.06 C177.4,275.06 177.56,275.22 177.39,275.41 L163.34,290.74 C162.714858,291.401842 161.874902,291.820048 160.97,291.92 Z" id="Path" fill="#FFDA99"></path>
            <polygon id="Path" fill="#FFC339" points="165.47 284.36 152.66 284.28 155.4 282.48 167.36 282.56"></polygon>
            <polygon id="Path" fill="#FFC339" points="161.59 288.05 147.07 287.96 150.56 285.67 164.01 285.75"></polygon>
            <polygon id="Path" fill="#AA985B" points="87.72 234.31 67.43 239.55 67.43 215.46 87.72 214.02"></polygon>
            <path d="M156.45,175.57 L155.11,201.57 C155.036875,202.960578 153.972854,204.096379 152.59,204.26 L85.67,210.59 C84.9999459,210.629728 84.3455265,210.377303 83.8757128,209.897901 C83.4058992,209.4185 83.166745,208.759115 83.22,208.09 L84.22,171.64" id="Path" fill="#FFFFFF"></path>
            <path d="M84.51,160.05 L86.51,85.74 C86.57,83.45 88.94,81.9 90.51,83.14 L157.51,136.31 C158.14541,136.83132 158.485334,137.6307 158.42,138.45 L156.5,175.57" id="Path" fill="#FFFFFF"></path>
            <polygon id="Path" fill="#FFC339" points="131.07 189.62 103.73 190.63 103.98 183.32 131.32 183.85"></polygon>
            <polygon id="Path" fill="#AA985B" points="152.26 198.78 134.06 200.02 134.59 188.13 152.81 187.92"></polygon>
            <polygon id="Path" fill="#FFFFFF" points="151.35 190.46 137.51 190.81 137.56 189.7 151.4 189.44"></polygon>
            <polygon id="Path" fill="#FFFFFF" points="150.4 192.8 136.45 193.32 136.5 192.21 150.45 191.77"></polygon>
            <polygon id="Path" fill="#FFFFFF" points="151.12 195.08 137.28 195.75 137.33 194.66 151.17 194.05"></polygon>
            <polygon id="Path" fill="#FFFFFF" points="150.16 197.43 136.23 198.28 136.28 197.18 150.22 196.4"></polygon>
            <polygon id="Path" fill="#FFDA99" points="152.37 172.1 98.29 159.35 100.12 101.48 154.13 138.88"></polygon>
            <g id="Group" transform="translate(93.000000, 97.000000)" fill="#AA985B">
                <polygon id="Path" points="63.07 42.81 2.48 63.24 0.06 61.29 62.37 41.5"></polygon>
                <polygon id="Path" points="1.86 0.07 60.5 76.25 61.3 75.65 4.39 0.36"></polygon>
            </g>
            <path d="M156.45,175.57 L155.11,201.57 C155.036875,202.960578 153.972854,204.096379 152.59,204.26 L85.67,210.59 C84.9999459,210.629728 84.3455265,210.377303 83.8757128,209.897901 C83.4058992,209.4185 83.166745,208.759115 83.22,208.09 L84.22,171.64" id="Path" fill="#FFFFFF"></path>
            <polygon id="Path" fill="#FFF2D6" points="236.82 125.89 175.7 125.89 179.98 130.96 235.31 130.96"></polygon>
            <polygon id="Path" fill="#FFC239" points="235.51 130.29 179.42 130.29 179.98 130.96 235.31 130.96"></polygon>
            <path d="M190.83,121.51 C195.83,120.94 204.19,119.67 205.1,117.35 C205.61,115.88 203.99,116.21 203.45,116.48 C201.816043,117.15744 200.789148,118.794053 200.89,120.56 C200.980388,121.403763 201.47685,122.150324 202.22,122.56 C203.88,123.41 205.57,122.14 207.04,121.19 C208.489555,120.269279 210.080848,119.593571 211.75,119.19 C212.81,118.93 214.12,118.86 214.75,119.72 C215.11,120.17 215.2,120.79 215.56,121.25 C216.34,122.25 217.96,121.96 219.01,121.25 C219.85,120.69 220.56,119.91 221.42,119.42 C221.544863,119.34292 221.701908,119.340395 221.829184,119.413423 C221.95646,119.48645 222.033533,119.623304 222.03,119.77 C222.03,120.46 222.22,121.16 222.85,121.14 C223.066904,121.111359 223.273179,121.028849 223.45,120.9 L225.77,119.56 C225.890318,119.485535 226.041024,119.480177 226.166326,119.545909 C226.291629,119.611641 226.37288,119.738682 226.38,119.88 C226.44,120.46 226.65,121 227.18,121.08 C227.542224,121.1071 227.900801,120.992355 228.18,120.76 C229.48,119.89 230.73,118.63 232.25,118.58 C232.476437,118.58 232.66,118.763563 232.66,118.99 C232.66,119.71 232.04,120.53 232.55,120.99 C232.863098,121.220738 233.263587,121.297897 233.64,121.2 L236.2,120.9 C237.71,120.71 239.86,121.67 239.35,122.81 C239.049005,123.279442 238.424442,123.415995 237.955,123.115 C237.485558,122.814005 237.349005,122.189442 237.65,121.72 C238.35,120.85 244.65,118.38 248.84,119.26 C250.48,119.61 252.12,120.04 253.77,120.34 C255.456968,120.701775 257.217351,120.291019 258.57,119.22" id="Path" stroke="#A9975B"></path>
            <path d="M396.25,69.33 L344.08,104.59 C343.133498,105.448437 342.601689,106.672328 342.62,107.95 L342.62,143.36 C342.62,144.67 343.27,145.54 344.08,145.31 L378.9,135.39 L383.42,145.1 C383.66,145.63 384.36,145.49 384.61,144.85 L389.52,132.36 L396.24,130.45 C398.23482,129.756507 399.5925,127.901145 399.65,125.79 L399.65,70.72 C399.66,68.68 398.08,68.07 396.25,69.33 Z" id="Path" fill="#FFC239"></path>
            <path d="M349.38,118.03 C349.378208,118.589234 349.311086,119.146344 349.18,119.69 C349.057572,120.218528 348.876447,120.731714 348.64,121.22 C348.424266,121.660197 348.151963,122.070332 347.83,122.44 C347.555039,122.764673 347.214163,123.027147 346.83,123.21 C346.539966,123.367671 346.206714,123.427306 345.88,123.38 C345.581648,123.322762 345.310783,123.167982 345.11,122.94 C344.868182,122.649858 344.697022,122.307539 344.61,121.94 C344.48219,121.484579 344.421551,121.01294 344.43,120.54 C344.430569,120.004949 344.490944,119.471638 344.61,118.95 C344.72522,118.443982 344.89279,117.951328 345.11,117.48 C345.31444,117.039532 345.57311,116.626332 345.88,116.25 C346.140711,115.915161 346.463198,115.633409 346.83,115.42 C347.130051,115.237435 347.479774,115.153501 347.83,115.18 C348.138029,115.20867 348.425498,115.347081 348.64,115.57 C348.903718,115.850833 349.089816,116.195459 349.18,116.57 C349.319734,117.043834 349.38716,117.536043 349.38,118.03 Z M348.51,118.48 C348.520169,118.141151 348.472832,117.803029 348.37,117.48 C348.298125,117.248902 348.175074,117.036982 348.01,116.86 C347.874813,116.711971 347.689535,116.619332 347.49,116.6 C347.268426,116.586042 347.048062,116.642007 346.86,116.76 C346.621863,116.891918 346.411363,117.068467 346.24,117.28 C346.036991,117.524127 345.865634,117.792921 345.73,118.08 C345.58569,118.401985 345.471859,118.736781 345.39,119.08 C345.306798,119.430684 345.263192,119.789595 345.26,120.15 C345.256819,120.468025 345.300625,120.784776 345.39,121.09 C345.459438,121.317871 345.575189,121.528946 345.73,121.71 C345.861217,121.861106 346.042073,121.9604 346.24,121.99 C346.455294,122.015001 346.672882,121.969378 346.86,121.86 C347.101692,121.737714 347.316025,121.567609 347.49,121.36 C347.701743,121.124059 347.877014,120.857781 348.01,120.57 C348.164233,120.250002 348.284878,119.914878 348.37,119.57 C348.460438,119.213639 348.507445,118.847649 348.51,118.48 Z M346.9,132.06 L346.18,131.76 L352.79,111.76 L353.59,111.95 L346.9,132.06 Z M355.65,123.91 C355.651393,124.500316 355.577463,125.088397 355.43,125.66 C355.2906,126.205978 355.085784,126.733126 354.82,127.23 C354.578576,127.685864 354.275752,128.106452 353.92,128.48 C353.616953,128.805893 353.249071,129.064773 352.84,129.24 C352.503119,129.385202 352.130676,129.426971 351.77,129.36 C351.442527,129.277652 351.146765,129.100195 350.92,128.85 C350.664677,128.560047 350.473805,128.219203 350.36,127.85 C350.221092,127.365731 350.153713,126.863758 350.16,126.36 C350.161792,125.800766 350.228914,125.243656 350.36,124.7 C350.489071,124.170726 350.676904,123.657539 350.92,123.17 C351.148776,122.715666 351.434401,122.29227 351.77,121.91 C352.073289,121.573282 352.436007,121.295311 352.84,121.09 C353.172264,120.917891 353.548139,120.848284 353.92,120.89 C354.261163,120.944097 354.576319,121.105177 354.82,121.35 C355.097886,121.631709 355.306685,121.974002 355.43,122.35 C355.588217,122.854455 355.662539,123.381464 355.65,123.91 Z M354.65,124.34 C354.653721,124.000008 354.599617,123.661858 354.49,123.34 C354.410897,123.082564 354.274091,122.846574 354.09,122.65 C353.934246,122.491592 353.730179,122.389559 353.51,122.36 C353.270035,122.333716 353.027509,122.375292 352.81,122.48 C352.544533,122.609646 352.306792,122.78965 352.11,123.01 C351.888449,123.254138 351.70015,123.526498 351.55,123.82 C351.389742,124.139581 351.262419,124.47464 351.17,124.82 C351.078001,125.189655 351.030994,125.56907 351.03,125.95 C351.024119,126.288601 351.071359,126.626032 351.17,126.95 C351.248872,127.200251 351.3782,127.43168 351.55,127.63 C351.6962,127.795589 351.893114,127.908111 352.11,127.95 C352.347134,127.987861 352.590156,127.956616 352.81,127.86 C353.074497,127.741952 353.31255,127.571914 353.51,127.36 C353.745603,127.122921 353.941449,126.849413 354.09,126.55 C354.261292,126.233133 354.39551,125.897588 354.49,125.55 C354.607341,125.157019 354.671248,124.750032 354.68,124.34 L354.65,124.34 Z" id="Shape" fill="#A9975B" fill-rule="nonzero"></path>
            <path d="M360,124.85 C359.98827,125.199687 359.895864,125.541929 359.73,125.85 C359.596901,126.154108 359.354108,126.396901 359.05,126.53 C358.824119,126.651181 358.544171,126.596863 358.38,126.4 C358.198148,126.170371 358.105768,125.88257 358.12,125.59 C358.13005,125.241311 358.21894,124.899426 358.38,124.59 C358.512609,124.286589 358.75062,124.041474 359.05,123.9 C359.27597,123.770921 359.561861,123.821372 359.73,124.02 C359.922774,124.251989 360.01939,124.548993 360,124.85 Z M359.68,121.41 L358.43,121.97 L358.43,109.32 L359.68,108.63 L359.68,121.41 Z" id="Shape" fill="#A9975B" fill-rule="nonzero"></path>
            <path d="M364.51,118.68 L362.61,119.54 L362.61,118.02 L364.66,117.02 L365.08,112.68 L363.08,113.68 L363.08,112.18 L365.29,111.06 L365.85,105.25 L367.04,104.59 L366.47,110.45 L369.08,109.08 L369.67,103.08 L370.94,102.38 L370.33,108.38 L372.23,107.38 L372.23,109.02 L370.15,110.02 L369.69,114.59 L371.69,113.67 L371.69,115.3 L369.54,116.3 L368.92,122.3 L367.69,122.81 L368.3,116.88 L365.68,118.18 L365.08,123.96 L363.93,124.43 L364.51,118.68 Z M365.84,116.52 L368.47,115.3 L368.91,110.77 L366.26,112.09 L365.84,116.52 Z" id="Shape" fill="#A9975B" fill-rule="nonzero"></path>
            <path d="M379.21,112.67 L377.57,113.41 L377.57,111.7 C377.567336,111.192819 377.617608,110.686745 377.72,110.19 C377.816095,109.724255 377.956742,109.268827 378.14,108.83 C378.315101,108.409819 378.518916,108.002189 378.75,107.61 C378.98,107.22 379.21,106.83 379.45,106.45 L380.12,105.39 C380.515219,104.81238 380.850297,104.195836 381.12,103.55 C381.394312,102.880853 381.530376,102.163116 381.52,101.44 C381.536849,100.984547 381.454976,100.530838 381.28,100.11 C381.149711,99.7985049 380.91683,99.5409236 380.62,99.38 C380.312567,99.2203575 379.960742,99.1675838 379.62,99.23 C379.217536,99.281569 378.829716,99.4142444 378.48,99.62 C377.639741,100.086944 376.946944,100.779741 376.48,101.62 C375.980569,102.501769 375.661066,103.473873 375.54,104.48 L374.03,104.94 C374.232453,103.435403 374.750424,101.990534 375.55,100.7 C376.288937,99.4875814 377.320476,98.4801116 378.55,97.77 C379.104012,97.4481458 379.709657,97.2248353 380.34,97.11 C380.844418,97.0049305 381.369094,97.060896 381.84,97.27 C382.284508,97.5083284 382.636518,97.8884997 382.84,98.35 C383.121899,98.9778595 383.255351,99.6622267 383.23,100.35 C383.23237,100.937568 383.175414,101.523874 383.06,102.1 C382.946566,102.61818 382.782443,103.123948 382.57,103.61 C382.362636,104.088146 382.118574,104.549524 381.84,104.99 L381.08,106.4 C380.74,106.89 380.45,107.33 380.22,107.71 C380.001642,108.066629 379.814288,108.441337 379.66,108.83 C379.511216,109.199613 379.407144,109.585684 379.35,109.98 C379.277003,110.432903 379.243543,110.891298 379.25,111.35 L379.21,112.67 Z M379.83,116.56 C379.822719,116.994902 379.698358,117.419803 379.47,117.79 C379.274983,118.174337 378.948537,118.475944 378.55,118.64 C378.256945,118.8069 377.889818,118.766557 377.64,118.54 C377.396025,118.298218 377.268423,117.962807 377.29,117.62 C377.29968,117.193127 377.4203,116.776124 377.64,116.41 C377.83681,116.028266 378.157764,115.724946 378.55,115.55 C378.841948,115.37599 379.21247,115.40821 379.47,115.63 C379.721534,115.87157 379.853327,116.212033 379.83,116.56 Z" id="Shape" fill="#A9975B" fill-rule="nonzero"></path>
            <polygon id="Path" fill="#A9975B" points="391.08 95.72 395.08 92.18 395.7 93.65 391.6 97.18 394.18 99.72 392.8 101.53 390.21 98.92 387.72 103.97 386.44 103.49 388.85 98.6 385.08 99.18 385.62 97.18 389.35 96.59 389.35 92.18 391.01 91.27"></polygon>
            <path d="M243.02,112.56 L155.08,112.56 C154.278983,112.558068 153.510659,112.242122 152.94,111.68 L101.99,60.68 C101.10252,59.8249216 100.828253,58.514077 101.298484,57.3749266 C101.768715,56.2357761 102.887773,55.5000828 104.12,55.52 L270.29,55.52 C271.357549,55.507973 272.351055,56.0641984 272.898824,56.9805793 C273.446593,57.8969602 273.466082,59.035407 272.95,59.97 L245.69,110.97 C245.165241,111.955576 244.136542,112.568173 243.02,112.56 Z" id="Path" fill="#97FAF5" opacity="0.5"></path>
            <path d="M242.4,99.27 L153.28,99.51 C152.737613,99.5201608 152.206965,99.3514782 151.77,99.03 L127.16,71.39 C125.82,70.39 126.77,68.61 128.67,68.61 L252.08,69.04 C253.68,69.04 254.71,70.35 253.95,71.43 L244.27,98.43 C243.812816,98.9876676 243.120549,99.2986324 242.4,99.27 Z" id="Path" fill="#2EC2B4"></path>
            <path d="M187.46,82.12 L189.06,91.12 C189.101749,91.3531795 189.255526,91.5509032 189.471249,91.6487775 C189.686972,91.7466517 189.937035,91.7321518 190.14,91.61 L197.41,87.09 C197.630022,86.9557604 197.760016,86.7128276 197.749631,86.4552971 C197.739247,86.1977667 197.590115,85.966089 197.36,85.85 L188.49,81.34 C188.245246,81.2079307 187.945918,81.2309226 187.724205,81.3988219 C187.502492,81.5667212 187.399221,81.8486093 187.46,82.12 Z" id="Path" fill="#FFFFFF"></path>
            <polygon id="Path" fill="#88EDEA" points="200.15 107.66 159.47 107.66 156.75 104.17 199.42 104.17"></polygon>
            <polygon id="Path" fill="#240115" points="241.1 106.91 199.99 106.91 199.59 104.97 241.8 104.97"></polygon>
            <path d="M200.86,105.95 C200.993733,106.465821 200.874821,107.014499 200.539538,107.428673 C200.204254,107.842847 199.692361,108.073398 199.16,108.05 C197.920659,107.994495 196.858423,107.146321 196.53,105.95 C196.351641,105.422601 196.444476,104.841192 196.778201,104.395559 C197.111927,103.949925 197.643723,103.697246 198.2,103.72 C199.487954,103.778793 200.577336,104.692072 200.86,105.95 Z" id="Path" fill="#FFC339"></path>
            <path d="M295.89,207.07 C296.4774,204.862837 297.915798,202.978535 299.89,201.83 L302.89,199.77 C304.399918,198.733089 305.488907,197.190059 305.96,195.42 L306.06,195.05 C306.775129,192.372038 306.157281,189.513561 304.4,187.37 C302.650315,185.222779 302.0333,182.368158 302.74,179.69 L302.85,179.3 C303.4374,177.092837 304.875798,175.208535 306.85,174.06 L309.85,172.32 C311.824202,171.171465 313.2626,169.287163 313.85,167.08 L313.9,166.9" id="Path" stroke="#89EEEB" stroke-width="2"></path>
            <path d="M301.93,208.68 C302.511528,206.485799 302.206193,204.150884 301.08,202.18 L299.5,198.9 C298.711845,197.247748 298.538126,195.368746 299.01,193.6 L299.11,193.23 C299.822216,190.550755 301.779573,188.377568 304.37,187.39 C306.961883,186.407068 308.922919,184.237649 309.64,181.56 L309.74,181.17 C310.330996,178.961031 310.017931,176.607644 308.87,174.63 L307.13,171.63 C305.982069,169.652356 305.669004,167.298969 306.26,165.09 L306.31,164.91" id="Path" stroke="#89EEEB" stroke-width="2"></path>
            <path d="M316.67,311.23 L225.67,311.23 C224.39,311.23 223.33,309.9 223.3,308.32 L222.66,274.82 C222.66,274.38 223.17,274.03 223.81,274.03 L269.62,274.03 C270.407082,274.080308 271.163417,274.354393 271.8,274.82 L315.19,308.32 C317.25,309.9 317.94,311.23 316.67,311.23 Z" id="Path" fill="#FFF3D7"></path>
            <path d="M276.56,278.48 L222.74,278.48 L222.67,274.82 C222.67,274.38 223.18,274.03 223.82,274.03 L269.63,274.03 C270.417082,274.080308 271.173417,274.354393 271.81,274.82 L276.56,278.48 Z" id="Path" fill="#A9975B"></path>
            <polyline id="Path" stroke="#FFFFFF" points="265.57 275.66 269.61 277.21 270.04 275.66"></polyline>
            <polygon id="Path" fill="#FFC339" points="241.37 281.97 226.43 281.97 226.25 280.19 240.61 280.19"></polygon>
            <polygon id="Path" fill="#FFFFFF" points="252.98 276.86 225.92 276.86 225.78 275.44 251.9 275.44"></polygon>
            <polygon id="Path" fill="#FFC339" points="266.06 287.4 226.96 287.4 226.74 285.18 264.14 285.18"></polygon>
            <polygon id="Path" fill="#FFC339" points="262.33 294.3 227.64 294.3 227.36 291.45 260.34 291.45"></polygon>
            <polygon id="Path" fill="#FFC339" points="298.69 303.36 228.53 303.36 228.16 299.58 294.37 299.58"></polygon>
            <polygon id="Path" fill="#FFFFFF" points="390.42 301.16 316.01 272.77 316.01 218.09 390.42 224.39"></polygon>
            <polygon id="Path" fill="#A9975B" points="375.05 284 324.69 267.12 324.69 227.78 375.05 234.38"></polygon>
            <polyline id="Path" stroke="#AA985B" stroke-width="2" points="394.65 254.11 405.26 266.24 394.65 273.01"></polyline>
            <polygon id="Path" fill="#FFC239" points="298.19 97.33 303.46 91.9 303.49 91.9 310.05 85.16 310.02 85.16 302.22 85.16 284.45 85.16 286.93 91.9 295.97 91.9 290.91 97.35 286.96 97.36 289.26 102.9 301.99 97.32"></polygon>
            <polygon id="Path" fill="#FFC239" points="268.6 97.49 264.59 102.56 264.56 102.56 260.23 108.04 260.26 108.04 267.03 108.04 282.46 108.04 279.98 102.56 271.61 102.56 275.86 97.47 279.81 97.45 277.07 91.51 264.8 97.5"></polygon>
            <path d="M332.86,201.82 C332.86,208.54 327.78,213.16 322.39,212.29 C317.76,211.55 314.46,206.9 314.46,201.82 C314.46,196.74 317.76,192.08 322.39,191.34 C327.78,190.47 332.86,195.1 332.86,201.82 Z" id="Path" fill="#FFC239"></path>
            <path d="M325.82,197.09 C324.790452,197.180843 323.869274,197.766369 323.35,198.66 L322.35,200.03 L321.41,198.75 C320.96962,197.972842 320.132616,197.506125 319.24,197.54 C317.717843,197.808288 316.648648,199.189152 316.77,200.73 C316.755556,201.615752 317.085371,202.472552 317.69,203.12 L322.35,208.57 L327.78,203.34 C328.615377,202.639027 329.092466,201.600441 329.08,200.51 C329.129744,199.616472 328.807701,198.742162 328.190237,198.094394 C327.572774,197.446625 326.714885,197.083092 325.82,197.09 Z" id="Path" fill="#FFDA99"></path>
            <path d="M210.76,294.57 C209.36,301.41 198.71,308.01 187.2,308.05 C175.69,308.09 170.85,301.5 175.61,294.62 C179.61,288.84 189.23,284.8 197.61,284.8 C205.99,284.8 211.94,288.82 210.76,294.57 Z" id="Path" fill="#FFC339"></path>
            <path d="M190.46,303.08 L188.4,303.08 C182.97,303.08 180.4,300.08 182.4,296.59 L202.34,296.59 C201.21,300.01 195.88,303.06 190.46,303.08 Z" id="Path" fill="#A9975B"></path>
            <path d="M190.46,303.08 L188.4,303.08 C184.51,303.08 182.02,301.5 181.72,299.29 C181.72,299.04 182.61,298.7 183.91,298.35 C189.46,296.84 194.97,296.82 199.18,298.29 C200.18,298.64 200.8,298.98 200.55,299.22 C197.775274,301.702853 194.183393,303.076952 190.46,303.08 Z" id="Path" fill="#F14C0E"></path>
            <path d="M205.26,291.9 C205.06,291.99 201.57,293.9 201.57,293.9 L204.07,295.9" id="Path" stroke="#AA985B"></path>
            <path d="M183.92,291.93 C184.04,292.01 185.81,293.93 185.81,293.93 L181.48,295.93" id="Path" stroke="#AA985B"></path>
            <path d="M210.13,303.07 C210.61,304.55 209.22,306.27 206.99,306.87 C204.76,307.47 202.58,306.65 202.25,305.09 C201.92,303.53 204.07,295.96 204.07,295.96 C204.07,295.96 209.68,301.64 210.13,303.07 Z" id="Path" fill="#FFF3D7"></path>
            <path d="M168.96,303.18 C167.15,304.68 167.01,306.41 168.74,306.99 C170.47,307.57 173.4,306.75 175.14,305.17 C176.88,303.59 181.48,295.99 181.48,295.99 C181.48,295.99 170.72,301.73 168.96,303.18 Z" id="Path" fill="#FFF3D7"></path>
            <polygon id="Path" fill="#96F9F4" opacity="0.5" points="410.71 197.63 352.45 194.18 319.22 181.55 310.57 169.91 314.34 167.14 328.67 177.76 331.63 172.02 324.2 162.16 314.33 167.13 305.52 150.54 328.89 140.71 358.11 169.85 410.71 168.43"></polygon>
            <polyline id="Path" stroke="#89EEEB" points="311.97 162.8 325.39 156.7 332.01 162.69"></polyline>
            <polyline id="Path" stroke="#89EEEB" points="309.89 158.76 326.57 151.1 332.04 156.13"></polyline>
            <polyline id="Path" stroke="#89EEEB" points="307.73 154.71 327.68 146.04 332.01 150.12"></polyline>
            <path d="M410.63,81.19 L410.63,238.83" id="Path" stroke="#88EDEA" stroke-width="2"></path>
            <polygon id="Path" stroke="#88EDEA" stroke-width="2" points="410.71 197.63 352.45 194.18 319.22 181.55 310.57 169.91 314.34 167.14 328.67 177.76 331.63 172.02 324.2 162.16 314.33 167.13 305.52 150.54 328.89 140.71 358.11 169.85 410.71 168.95"></polygon>
            <circle id="Oval" fill="#2EC2B4" cx="352.45" cy="194.47" r="1.3"></circle>
            <circle id="Oval" fill="#2EC2B4" cx="410.71" cy="197.63" r="1.3"></circle>
            <circle id="Oval" fill="#2EC2B4" cx="410.71" cy="168.95" r="1.3"></circle>
            <circle id="Oval" fill="#2EC2B4" cx="358.45" cy="169.11" r="1.3"></circle>
            <circle id="Oval" fill="#2EC2B4" cx="319.09" cy="181.79" r="1.3"></circle>
            <circle id="Oval" fill="#2EC2B4" cx="324.2" cy="162.8" r="1.3"></circle>
            <circle id="Oval" fill="#2EC2B4" cx="331.23" cy="172.01" r="1.3"></circle>
            <circle id="Oval" fill="#2EC2B4" cx="328.42" cy="176.65" r="1.3"></circle>
            <circle id="Oval" fill="#2EC2B4" cx="331.6" cy="162.16" r="1.3"></circle>
            <circle id="Oval" fill="#2EC2B4" cx="331.6" cy="155.68" r="1.3"></circle>
            <circle id="Oval" fill="#2EC2B4" cx="331.6" cy="149.8" r="1.3"></circle>
            <circle id="Oval" fill="#2EC2B4" cx="328.89" cy="140.32" r="1.3"></circle>
            <circle id="Oval" fill="#2EC2B4" cx="327.59" cy="146.04" r="1.3"></circle>
            <circle id="Oval" fill="#2EC2B4" cx="326.38" cy="151.3" r="1.3"></circle>
            <circle id="Oval" fill="#2EC2B4" cx="325.27" cy="156.7" r="1.3"></circle>
            <circle id="Oval" fill="#2EC2B4" cx="314.37" cy="167.04" r="1.3"></circle>
            <circle id="Oval" fill="#2EC2B4" cx="305.31" cy="150.56" r="1.3"></circle>
            <circle id="Oval" fill="#2EC2B4" cx="307.29" cy="154.93" r="1.3"></circle>
            <circle id="Oval" fill="#2EC2B4" cx="309.37" cy="159" r="1.3"></circle>
            <circle id="Oval" fill="#2EC2B4" cx="311.4" cy="162.99" r="1.3"></circle>
            <circle id="Oval" fill="#2EC2B4" cx="310.33" cy="169.95" r="1.3"></circle>
            <circle id="Oval" fill="#2EC2B4" cx="410.63" cy="81.19" r="2"></circle>
            <polygon id="Path" fill="#96F9F4" opacity="0.5" points="314.27 272.22 340.22 265.48 352.96 305.29 352.31 320.46 323.36 320.46 321.21 303.98"></polygon>
            <path d="M320.38,270.64 L327.1,296.16" id="Path" stroke="#89EEEB"></path>
            <path d="M327.1,268.89 L332.73,289.43" id="Path" stroke="#89EEEB"></path>
            <path d="M333.62,267.19 L336.58,277.47" id="Path" stroke="#89EEEB"></path>
            <polyline id="Path" stroke="#88EDEA" stroke-width="2" points="330.79 304.71 334.27 277.37 343.84 277.25 345.35 304.71"></polyline>
            <polyline id="Path" stroke="#89EEEB" points="336.58 277.47 336.58 284.03 341.17 284.03 341.44 277.25"></polyline>
            <polyline id="Path" stroke="#88EDEA" stroke-width="2" points="352.28 320.63 401.53 320.63 401.53 302.41"></polyline>
            <polygon id="Path" stroke="#88EDEA" stroke-width="2" points="314.27 272.22 340.22 265.48 352.96 305.29 352.31 320.46 323.36 320.46 321.21 303.98"></polygon>
            <circle id="Oval" fill="#2EC2B4" cx="401.53" cy="320.63" r="1.3"></circle>
            <circle id="Oval" fill="#2EC2B4" cx="401.53" cy="302.64" r="2"></circle>
            <circle id="Oval" fill="#2EC2B4" cx="314.28" cy="272.06" r="1.3"></circle>
            <circle id="Oval" fill="#2EC2B4" cx="320.38" cy="270.31" r="1.3"></circle>
            <circle id="Oval" fill="#2EC2B4" cx="327.1" cy="268.67" r="1.3"></circle>
            <circle id="Oval" fill="#2EC2B4" cx="333.62" cy="266.97" r="1.3"></circle>
            <circle id="Oval" fill="#2EC2B4" cx="340.18" cy="265.48" r="1.3"></circle>
            <circle id="Oval" fill="#2EC2B4" cx="352.96" cy="304.71" r="1.3"></circle>
            <circle id="Oval" fill="#2EC2B4" cx="352.28" cy="320.63" r="1.3"></circle>
            <circle id="Oval" fill="#2EC2B4" cx="323.34" cy="320.58" r="1.3"></circle>
            <circle id="Oval" fill="#2EC2B4" cx="321.18" cy="304.36" r="1.3"></circle>
            <circle id="Oval" fill="#2EC2B4" cx="327.1" cy="295.85" r="1.3"></circle>
            <circle id="Oval" fill="#2EC2B4" cx="330.79" cy="304.36" r="1.3"></circle>
            <circle id="Oval" fill="#2EC2B4" cx="345.35" cy="304.71" r="1.3"></circle>
            <circle id="Oval" fill="#2EC2B4" cx="334.19" cy="277.26" r="1.3"></circle>
            <circle id="Oval" fill="#2EC2B4" cx="344.05" cy="277.26" r="1.3"></circle>
            <polyline id="Path" stroke="#88EDEA" stroke-width="2" points="41.37 128.23 41.37 166.46 56.07 166.46"></polyline>
            <path d="M71.65,177.91 L80.65,172.41 L118.88,162.48 C118.88,162.48 105.88,155.9 95.26,159.06 C88.9864615,160.86997 83.4082459,164.537646 79.26,169.58 L69.66,175.18 L56.46,175.18 C56.46,175.18 54.67,185.07 63.99,185.07 C72.42,185.05 71.65,177.91 71.65,177.91 Z M61.23,179.39 C61.23,177.69 62.45,177.21 63.96,177.21 C65.47,177.21 66.68,177.63 66.68,179.39 C66.68,181.15 65.46,181.57 63.96,181.57 C62.46,181.57 61.23,181.11 61.23,179.39 Z" id="Shape" fill="#97FAF5" fill-rule="nonzero" opacity="0.5"></path>
            <circle id="Oval" fill="#2EC2B4" cx="41.37" cy="128.04" r="2"></circle>
            <circle id="Oval" fill="#2EC2B4" cx="41.37" cy="166.39" r="1.3"></circle>
            <path d="M71.65,177.91 L80.65,172.41 L118.88,162.48 C118.88,162.48 105.88,155.9 95.26,159.06 C88.9864615,160.86997 83.4082459,164.537646 79.26,169.58 L69.66,175.18 L56.46,175.18 C56.46,175.18 54.67,185.07 63.99,185.07 C72.42,185.05 71.65,177.91 71.65,177.91 Z M61.23,179.39 C61.23,177.69 62.45,177.21 63.96,177.21 C65.47,177.21 66.68,177.63 66.68,179.39 C66.68,181.15 65.46,181.57 63.96,181.57 C62.46,181.57 61.23,181.11 61.23,179.39 Z" id="Shape" stroke="#88EDEA" stroke-width="2"></path>
            <circle id="Oval" fill="#2EC2B4" cx="69.66" cy="175.17" r="1.3"></circle>
            <circle id="Oval" fill="#2EC2B4" cx="71.51" cy="178.1" r="1.3"></circle>
            <circle id="Oval" fill="#2EC2B4" cx="56.32" cy="175.21" r="1.3"></circle>
            <circle id="Oval" fill="#2EC2B4" cx="120.54" cy="162.62" r="1.3"></circle>
            <path d="M63.99,156.58 C54.67,156.58 56.46,166.47 56.46,166.47 L69.66,166.47 L80.37,172.64 C80.37,172.64 84.64,179.41 95.26,182.57 C105.88,185.73 118.88,179.18 118.88,179.18 L80.08,168.56 L71.64,163.72 C71.64,163.72 72.42,156.58 63.99,156.58 Z M63.99,160.06 C65.49,160.06 66.71,160.49 66.71,162.24 C66.71,163.99 65.49,164.42 63.99,164.42 C62.49,164.42 61.26,163.94 61.26,162.24 C61.26,160.54 62.45,160.06 63.96,160.06 L63.99,160.06 Z" id="Shape" fill="#97FAF5" fill-rule="nonzero" opacity="0.5"></path>
            <path d="M63.99,156.58 C54.67,156.58 56.46,166.47 56.46,166.47 L69.66,166.47 L80.37,172.64 C80.37,172.64 84.64,179.41 95.26,182.57 C105.88,185.73 118.88,179.18 118.88,179.18 L80.08,168.56 L71.64,163.72 C71.64,163.72 72.42,156.58 63.99,156.58 Z M63.99,160.06 C65.49,160.06 66.71,160.49 66.71,162.24 C66.71,163.99 65.49,164.42 63.99,164.42 C62.49,164.42 61.26,163.94 61.26,162.24 C61.26,160.54 62.45,160.06 63.96,160.06 L63.99,160.06 Z" id="Shape" stroke="#88EDEA" stroke-width="2"></path>
            <circle id="Oval" fill="#2EC2B4" cx="80.22" cy="168.39" r="1.3"></circle>
            <circle id="Oval" fill="#2EC2B4" cx="69.66" cy="166.73" r="1.3"></circle>
            <circle id="Oval" fill="#2EC2B4" cx="71.69" cy="163.54" r="1.3"></circle>
            <circle id="Oval" fill="#2EC2B4" cx="56.32" cy="166.39" r="1.3"></circle>
            <circle id="Oval" fill="#2EC2B4" cx="80.4" cy="172.93" r="1.3"></circle>
            <circle id="Oval" fill="#2EC2B4" cx="120.54" cy="179.02" r="1.3"></circle>
            <g id="Group">
                <g opacity="0.43" style="mix-blend-mode: color-burn;" fill="url(#radialGradient-2)" id="Oval">
                    <circle cx="130.5" cy="130.5" r="130.5"></circle>
                </g>
                <path d="M71.65,177.91 L80.65,172.41 L118.88,162.48 C118.88,162.48 105.88,155.9 95.26,159.06 C88.9864615,160.86997 83.4082459,164.537646 79.26,169.58 L69.66,175.18 L56.46,175.18 C56.46,175.18 54.67,185.07 63.99,185.07 C72.42,185.05 71.65,177.91 71.65,177.91 Z M61.23,179.39 C61.23,177.69 62.45,177.21 63.96,177.21 C65.47,177.21 66.68,177.63 66.68,179.39 C66.68,181.15 65.46,181.57 63.96,181.57 C62.46,181.57 61.23,181.11 61.23,179.39 Z" id="Shape" fill="#97FAF5" fill-rule="nonzero" opacity="0.5"></path>
            </g>
            <rect id="Rectangle" fill="#96F9F4" opacity="0.5" transform="translate(127.327760, 241.111209) rotate(67.580000) translate(-127.327760, -241.111209) " x="99.6227603" y="238.561209" width="55.41" height="5.1"></rect>
            <polygon id="Path" fill="#96F9F4" opacity="0.5" points="128.99 251.81 120.9 232.22 115.92 242.83 117.99 247.83"></polygon>
            <polygon id="Path" fill="#96F9F4" opacity="0.5" points="86.14 262.26 85.73 254.21 115.92 242.83 117.99 247.83"></polygon>
            <rect id="Rectangle" stroke="#89EEEB" transform="translate(127.327760, 241.111209) rotate(67.580000) translate(-127.327760, -241.111209) " x="99.6227603" y="238.561209" width="55.41" height="5.1"></rect>
            <polygon id="Path" stroke="#89EEEB" points="128.99 251.81 120.9 232.22 115.92 242.83 117.99 247.83"></polygon>
            <polygon id="Path" stroke="#89EEEB" points="86.14 262.26 85.73 254.21 115.92 242.83 117.99 247.83"></polygon>
            <circle id="Oval" fill="#2EC2B4" cx="120.61" cy="232.34" r="1.3"></circle>
            <circle id="Oval" fill="#2EC2B4" cx="128.61" cy="251.73" r="1.3"></circle>
            <circle id="Oval" fill="#2EC2B4" cx="140.53" cy="265.64" r="1.3"></circle>
            <circle id="Oval" fill="#2EC2B4" cx="135.54" cy="267.7" r="1.3"></circle>
            <circle id="Oval" fill="#2EC2B4" cx="118.03" cy="247.94" r="1.3"></circle>
            <circle id="Oval" fill="#2EC2B4" cx="115.85" cy="242.66" r="1.3"></circle>
            <circle id="Oval" fill="#2EC2B4" cx="119.4" cy="214.42" r="1.3"></circle>
            <circle id="Oval" fill="#2EC2B4" cx="114.41" cy="216.48" r="1.3"></circle>
            <polyline id="Path" stroke="#88EDEA" stroke-width="2" points="177.43 317.74 26.11 317.74 26.11 267.08 48.73 267.08"></polyline>
            <circle id="Oval" fill="#2EC2B4" cx="48.6" cy="267.08" r="2"></circle>
            <circle id="Oval" fill="#2EC2B4" cx="177.43" cy="317.74" r="2"></circle>
            <circle id="Oval" fill="#2EC2B4" cx="26.11" cy="317.74" r="1.3"></circle>
            <circle id="Oval" fill="#2EC2B4" cx="26.11" cy="267.08" r="1.3"></circle>
            <polygon id="Path" fill="#96F9F4" opacity="0.5" points="97.23 267.4 98.8 255.92 106.62 255.92 104.83 274.29 86.99 284.78 86.99 317.74 58.96 317.74 62.25 240.32 80.76 236.89 103.05 241.02 103.05 247.73 85.59 251.45 86.46 268.7"></polygon>
            <polygon id="Path" stroke="#88EDEA" stroke-width="2" points="97.23 267.4 98.8 255.92 106.62 255.92 104.83 274.29 86.99 284.78 86.99 317.74 58.96 317.74 62.25 240.32 80.76 236.89 103.05 241.02 103.05 247.73 85.59 251.45 86.46 268.7"></polygon>
            <polyline id="Path" stroke="#89EEEB" points="103.04 241.06 75.79 246.52 76.44 268.38"></polyline>
            <polyline id="Path" stroke="#89EEEB" points="94.39 239.41 70.97 244.31 70.88 268.2"></polyline>
            <polyline id="Path" stroke="#89EEEB" points="87.73 238.18 66.18 242.12 65.59 268.38"></polyline>
            <circle id="Oval" fill="#2EC2B4" cx="98.82" cy="256.1" r="1.3"></circle>
            <circle id="Oval" fill="#2EC2B4" cx="106.62" cy="256.1" r="1.3"></circle>
            <circle id="Oval" fill="#2EC2B4" cx="87.06" cy="284.86" r="1.3"></circle>
            <circle id="Oval" fill="#2EC2B4" cx="87.06" cy="317.81" r="1.3"></circle>
            <circle id="Oval" fill="#2EC2B4" cx="58.96" cy="317.81" r="1.3"></circle>
            <circle id="Oval" fill="#2EC2B4" cx="97.03" cy="267.4" r="1.3"></circle>
            <circle id="Oval" fill="#2EC2B4" cx="104.71" cy="274.38" r="1.3"></circle>
            <circle id="Oval" fill="#2EC2B4" cx="86.43" cy="268.38" r="1.3"></circle>
            <circle id="Oval" fill="#2EC2B4" cx="85.83" cy="251.56" r="1.3"></circle>
            <circle id="Oval" fill="#2EC2B4" cx="76.41" cy="267.98" r="1.3"></circle>
            <circle id="Oval" fill="#2EC2B4" cx="70.88" cy="267.98" r="1.3"></circle>
            <circle id="Oval" fill="#2EC2B4" cx="65.59" cy="267.98" r="1.3"></circle>
            <circle id="Oval" fill="#2EC2B4" cx="103.04" cy="247.82" r="1.3"></circle>
            <circle id="Oval" fill="#2EC2B4" cx="103.04" cy="241.06" r="1.3"></circle>
            <circle id="Oval" fill="#2EC2B4" cx="94.38" cy="239.41" r="1.3"></circle>
            <circle id="Oval" fill="#2EC2B4" cx="87.11" cy="238.14" r="1.3"></circle>
            <circle id="Oval" fill="#2EC2B4" cx="80.8" cy="236.89" r="1.3"></circle>
            <circle id="Oval" fill="#2EC2B4" cx="62.26" cy="240.36" r="1.3"></circle>
            <circle id="Oval" fill="#2EC2B4" cx="66.4" cy="242.36" r="1.3"></circle>
            <circle id="Oval" fill="#2EC2B4" cx="70.88" cy="244.46" r="1.3"></circle>
            <circle id="Oval" fill="#2EC2B4" cx="75.63" cy="246.59" r="1.3"></circle>
            <polyline id="Path" stroke="#88EDEA" stroke-width="2" points="338.13 46.4 316.94 46.4 316.94 63.9"></polyline>
            <circle id="Oval" fill="#2EC2B4" cx="316.94" cy="63.9" r="2"></circle>
            <circle id="Oval" fill="#2EC2B4" cx="338.13" cy="46.4" r="2"></circle>
            <circle id="Oval" fill="#2EC2B4" cx="316.94" cy="46.4" r="1.3"></circle>
            <polyline id="Path" stroke="#88EDEA" stroke-width="2" points="168.16 47.74 50.03 47.74 50.03 87.41"></polyline>
            <circle id="Oval" fill="#2EC2B4" cx="50.03" cy="87.41" r="2"></circle>
            <circle id="Oval" fill="#2EC2B4" cx="168.16" cy="47.74" r="2"></circle>
            <circle id="Oval" fill="#2EC2B4" cx="50.03" cy="47.74" r="1.3"></circle>
            <path d="M284.17,141.44 L279.9,141.44 C277.269432,141.442666 274.799844,142.707214 273.26,144.84 C271.728859,146.977644 269.259429,148.244019 266.63,148.24 L266.25,148.24 C264.080488,148.242223 261.999852,147.378291 260.47,145.84 L258.13,143.51 C256.600148,141.971709 254.519512,141.107777 252.35,141.11 L252.17,141.11 C250.000488,141.107777 247.919852,141.971709 246.39,143.51 L244.46,145.44 C242.925387,146.969956 240.84698,147.829366 238.68,147.83 L237.98,147.83 C235.809989,147.829827 233.728302,146.970547 232.19,145.44 L229.57,143.18 C228.250561,142.046645 226.56937,141.422405 224.83,141.42 L224.47,141.42 C221.839432,141.422666 219.369844,142.687214 217.83,144.82 C216.296632,146.95506 213.82863,148.220702 211.2,148.22 L210.82,148.22 C208.647903,148.220461 206.564807,147.357002 205.03,145.82 L202.7,143.49 C201.170148,141.951709 199.089512,141.087777 196.92,141.09 L196.74,141.09 C194.570488,141.087777 192.489852,141.951709 190.96,143.49 L189.08,145.44 C187.541698,146.970547 185.460011,147.829827 183.29,147.83 L182.6,147.83 C180.429989,147.829827 178.348302,146.970547 176.81,145.44 L175.37,144 C173.800724,142.424122 171.458201,141.904862 169.37,142.67 C167.117453,143.496345 165.620023,145.640664 165.62,148.04 L165.62,154.37 C165.617729,157.001759 166.883362,159.473466 169.02,161.01 C171.149991,162.546635 172.411368,165.013575 172.41,167.64 L172.41,168.02 C172.409827,170.190011 171.550547,172.271698 170.02,173.81 L167.63,176.18 C166.098185,177.713373 165.238442,179.792585 165.24,181.96 L165.24,182.14 C165.238442,184.307415 166.098185,186.386627 167.63,187.92 L169.56,189.85 C171.097002,191.384807 171.960461,193.467903 171.96,195.64 L171.96,196.33 C171.960461,198.502097 171.097002,200.585193 169.56,202.12 L167.32,204.74 C166.190258,206.060859 165.56962,207.741902 165.57,209.48 L165.57,209.84 C165.567729,212.471759 166.833362,214.943466 168.97,216.48 C171.099991,218.016635 172.361368,220.483575 172.36,223.11 L172.36,223.49 C172.359827,225.660011 171.500547,227.741698 169.97,229.28 L167.63,231.61 C166.100044,233.144613 165.240634,235.22302 165.24,237.39 L165.24,237.57 C165.238442,239.737415 166.098185,241.816627 167.63,243.35 L169.56,245.28 C171.097002,246.814807 171.960461,248.897903 171.96,251.07 L171.96,251.76 C171.960461,253.932097 171.097002,256.015193 169.56,257.55 L168.66,258.7 C167.200447,260.561543 166.950904,263.099865 168.02,265.21 C169.055045,267.264524 171.159481,268.560455 173.46,268.56 L174.15,268.56 C176.78,268.56 180.22,267.29 181.76,265.16 C183.294475,263.026227 185.761768,261.760948 188.39,261.76 L188.77,261.76 C190.939512,261.757777 193.020148,262.621709 194.55,264.16 L196.89,266.49 C198.419852,268.028291 200.500488,268.892223 202.67,268.89 L202.85,268.89 C205.019512,268.892223 207.100148,268.028291 208.63,266.49 L210.56,264.56 C212.093373,263.028185 214.172585,262.168442 216.34,262.17 L217.04,262.17 C219.207415,262.168442 221.286627,263.028185 222.82,264.56 L225.45,266.81 C226.770859,267.939742 228.451902,268.56038 230.19,268.56 L230.55,268.56 C233.180568,268.557334 235.650156,267.292786 237.19,265.16 C238.724475,263.026227 241.191768,261.760948 243.82,261.76 L244.2,261.76 C246.369512,261.757777 248.450148,262.621709 249.98,264.16 L252.32,266.49 C253.849852,268.028291 255.930488,268.892223 258.1,268.89 L258.28,268.89 C260.449512,268.892223 262.530148,268.028291 264.06,266.49 L265.99,264.56 C267.523373,263.028185 269.602585,262.168442 271.77,262.17 L272.47,262.17 C274.640011,262.170173 276.721698,263.029453 278.26,264.56 L279.7,266.01 C281.271477,267.582374 283.613714,268.097666 285.7,267.33 C287.952859,266.509796 289.451652,264.367521 289.45,261.97 L289.45,255.63 C289.452271,252.998241 288.186638,250.526534 286.05,248.99 C283.918722,247.454469 282.656984,244.986821 282.66,242.36 L282.66,241.98 C282.661067,239.801333 283.532267,237.713333 285.08,236.18 L287.42,233.84 C288.951815,232.306627 289.811558,230.227415 289.81,228.06 L289.81,227.88 C289.811558,225.712585 288.951815,223.633373 287.42,222.1 L285.46,220.18 C283.921709,218.650148 283.057777,216.569512 283.06,214.4 L283.06,213.7" id="Path" stroke="#3A7BEC" stroke-width="2"></path>
            <path d="M284.17,148.29 L279.9,148.29 C277.268241,148.292271 274.796534,147.026638 273.26,144.89 C271.725525,142.756227 269.258232,141.490948 266.63,141.49 L266.25,141.49 C264.081368,141.492192 262.002358,142.355449 260.47,143.89 L258.13,146.18 C256.600148,147.718291 254.519512,148.582223 252.35,148.58 L252.17,148.58 C250.000488,148.582223 247.919852,147.718291 246.39,146.18 L244.46,144.25 C242.925387,142.720044 240.84698,141.860634 238.68,141.86 L237.98,141.86 C235.809989,141.860173 233.728302,142.719453 232.19,144.25 L229.57,146.5 C228.249141,147.629742 226.568098,148.25038 224.83,148.25 L224.47,148.25 C221.838241,148.252271 219.366534,146.986638 217.83,144.85 C216.29442,142.71751 213.827834,141.452594 211.2,141.45 L210.82,141.45 C208.648776,141.45392 206.567289,142.316712 205.03,143.85 L202.7,146.18 C201.170148,147.718291 199.089512,148.582223 196.92,148.58 L196.74,148.58 C194.570488,148.582223 192.489852,147.718291 190.96,146.18 L189.08,144.29 C187.541698,142.759453 185.460011,141.900173 183.29,141.9 L181.69,141.9 C179.666059,141.94898 177.741873,142.789017 176.33,144.24 L175.62,145.01 C173.598494,147.184639 172.470263,150.04092 172.46,153.01 L172.46,154.33 C172.461293,156.959161 171.200285,159.4291 169.07,160.97 C166.93494,162.503368 165.669298,164.97137 165.67,167.6 L165.67,167.98 C165.670173,170.150011 166.529453,172.231698 168.06,173.77 L170.4,176.1 C171.931815,177.633373 172.791558,179.712585 172.79,181.88 L172.79,182.06 C172.791558,184.227415 171.931815,186.306627 170.4,187.84 L168.47,189.77 C166.932998,191.304807 166.069539,193.387903 166.07,195.56 L166.07,196.25 C166.069539,198.422097 166.932998,200.505193 168.47,202.04 L170.71,204.66 C171.839742,205.980859 172.46038,207.661902 172.46,209.4 L172.46,209.76 C172.461293,212.389161 171.200285,214.8591 169.07,216.4 C166.93494,217.933368 165.669298,220.40137 165.67,223.03 L165.67,223.41 C165.670173,225.580011 166.529453,227.661698 168.06,229.2 L170.4,231.53 C171.929956,233.064613 172.789366,235.14302 172.79,237.31 L172.79,237.49 C172.791558,239.657415 171.931815,241.736627 170.4,243.27 L168.47,245.2 C166.932998,246.734807 166.069539,248.817903 166.07,250.99 L166.07,251.68 C166.196623,253.824861 167.042083,255.864535 168.47,257.47 C169.925692,259.477128 172.127698,260.814189 174.58,261.18 C178.64,261.69 180.47,263.3 181.76,265.08 C183.294475,267.213773 185.761768,268.479052 188.39,268.48 L188.77,268.48 C190.939512,268.482223 193.020148,267.618291 194.55,266.08 L196.89,263.75 C198.419852,262.211709 200.500488,261.347777 202.67,261.35 L202.85,261.35 C205.019512,261.347777 207.100148,262.211709 208.63,263.75 L210.56,265.68 C212.093373,267.211815 214.172585,268.071558 216.34,268.07 L217.04,268.07 C219.207415,268.071558 221.286627,267.211815 222.82,265.68 L225.45,263.43 C226.770859,262.300258 228.451902,261.67962 230.19,261.68 L230.55,261.68 C233.180568,261.682666 235.650156,262.947214 237.19,265.08 C238.724475,267.213773 241.191768,268.479052 243.82,268.48 L244.2,268.48 C246.369512,268.482223 248.450148,267.618291 249.98,266.08 L252.32,263.75 C253.849852,262.211709 255.930488,261.347777 258.1,261.35 L258.28,261.35 C260.449512,261.347777 262.530148,262.211709 264.06,263.75 L265.99,265.68 C267.523373,267.211815 269.602585,268.071558 271.77,268.07 L273.38,268.07 C275.404885,268.025293 277.33062,267.184581 278.74,265.73 L279.45,264.97 C281.481524,262.781631 282.610353,259.905975 282.61,256.92 L282.61,255.6 C282.608707,252.970839 283.869715,250.5009 286,248.96 C288.137644,247.428859 289.404019,244.959429 289.4,242.33 L289.4,241.95 C289.401558,239.782585 288.541815,237.703373 287.01,236.17 L284.67,233.83 C283.135449,232.297642 282.272192,230.218632 282.27,228.05 L282.27,227.87 C282.272192,225.701368 283.135449,223.622358 284.67,222.09 L286.6,220.16 C288.134551,218.627642 288.997808,216.548632 289,214.38 L289,213.68" id="Path" stroke="#D83021" stroke-width="2"></path>
            <circle id="Oval" fill="#2EC2B4" cx="410.63" cy="238.83" r="2"></circle>
        </g>
    </g>
</svg>