<svg xmlns="http://www.w3.org/2000/svg" xmlns:xlink="http://www.w3.org/1999/xlink" viewBox="0 0 401.36 399.22"><defs><style>.cls-1,.cls-16,.cls-24,.cls-25,.cls-26,.cls-27,.cls-28,.cls-29,.cls-30,.cls-31,.cls-32,.cls-33,.cls-40,.cls-41{fill:none;}.cls-2{fill:#fff2d6;}.cls-23,.cls-3{fill:#f14c0e;}.cls-4{isolation:isolate;}.cls-5{clip-path:url(#clip-path);}.cls-6{fill:#a9975b;}.cls-7{clip-path:url(#clip-path-2);}.cls-8{opacity:0.43;mix-blend-mode:color-burn;}.cls-9{clip-path:url(#clip-path-3);}.cls-10{fill:#e7b079;}.cls-11{fill:#240115;}.cls-12{fill:#8ff5f0;}.cls-13{fill:#3a7beb;}.cls-14{fill:#ffc239;}.cls-15{fill:#fff;}.cls-16{stroke:#e1e1e1;}.cls-16,.cls-24,.cls-25,.cls-26,.cls-27,.cls-28,.cls-29,.cls-30,.cls-31,.cls-32,.cls-33,.cls-40,.cls-41{stroke-miterlimit:10;}.cls-16,.cls-29,.cls-30,.cls-31,.cls-32,.cls-33{stroke-width:1.02px;}.cls-17{fill:#d73021;}.cls-18,.cls-22{fill:#6effff;}.cls-19{fill:#ff96cc;}.cls-20{clip-path:url(#clip-path-4);}.cls-21{opacity:0.2;}.cls-22{opacity:0.7;}.cls-23{opacity:0.35;}.cls-24,.cls-25,.cls-26,.cls-27,.cls-28{stroke:#2f75c8;}.cls-24,.cls-25,.cls-26,.cls-27,.cls-28,.cls-41{stroke-width:1.29px;}.cls-25{stroke-dasharray:3.03 3.03;}.cls-26{stroke-dasharray:2.88 2.88;}.cls-27{stroke-dasharray:3.06 3.06;}.cls-28{stroke-dasharray:2.79 2.79;}.cls-29,.cls-30,.cls-31,.cls-32,.cls-33{stroke:#3a7beb;}.cls-30{stroke-dasharray:2.87 2.87;}.cls-31{stroke-dasharray:2.84 2.84;}.cls-32{stroke-dasharray:2.9 2.9;}.cls-33{stroke-dasharray:3.36 3.36;}.cls-34{opacity:0.25;mix-blend-mode:multiply;}.cls-35{fill:#1d1814;}.cls-36{fill:#d73805;}.cls-37{fill:#5291ee;}.cls-38{fill:#88edea;}.cls-39{fill:#6ecaff;}.cls-40,.cls-41{stroke:#88edea;}.cls-40{stroke-width:2px;}.cls-42{fill:#2ec1b3;}.cls-43{fill:#96f9f4;opacity:0.5;}.cls-44{clip-path:url(#clip-path-5);}</style><clipPath id="clip-path" transform="translate(1.35 66.18)"><rect class="cls-1" width="400" height="300"/></clipPath><clipPath id="clip-path-2" transform="translate(1.35 66.18)"><ellipse class="cls-1" cx="208.59" cy="142.84" rx="111.55" ry="116.17"/></clipPath><clipPath id="clip-path-3" transform="translate(1.35 66.18)"><circle class="cls-2" cx="197.83" cy="141.41" r="116.45"/></clipPath><clipPath id="clip-path-4" transform="translate(1.35 66.18)"><path class="cls-3" d="M194.7,124.87h.64s2.43,16-10.8,20.75l6.37,7.45a1,1,0,0,1-.19,1.44h0a1,1,0,0,1-1.29-.14A60.9,60.9,0,0,1,183,146.1a1.26,1.26,0,0,1,.6-1.81c1.88-.78,5.33-2.44,7-4.83C192.5,136.83,194.42,133.47,194.7,124.87Z"/></clipPath><clipPath id="clip-path-5" transform="translate(1.35 66.18)"><polygon class="cls-1" points="266.38 225.2 263.91 207.15 253.66 207.15 255.36 232.24 281.1 245.63 280.92 289.45 315.98 289.45 310.84 182.82 274.68 178.62 273.19 200.53 281.24 201.95 281.84 224.97 266.38 225.2"/></clipPath></defs><g class="cls-4"><g id="Layer_2" data-name="Layer 2"><g id="Layer_2-2" data-name="Layer 2"><g class="cls-5"><ellipse class="cls-6" cx="209.94" cy="209.03" rx="111.55" ry="116.17"/><g class="cls-7"><g class="cls-8"><use transform="translate(141.68 139.54) scale(0.24)" xlink:href="#image"/></g></g><circle class="cls-2" cx="199.18" cy="207.6" r="116.45"/><g class="cls-9"><path class="cls-10" d="M220.66,207.36l13.7,22.4s-7.16,21.71-36.4,20.17-31.05-22.05-31.05-22.05l6.1-16.59Z" transform="translate(1.35 66.18)"/><path class="cls-11" d="M170.62,217.79A55.48,55.48,0,0,0,228,219.34l-7.3-12L173,211.29Z" transform="translate(1.35 66.18)"/><polygon class="cls-12" points="218.52 273.83 232.03 300.22 235.01 294.52 222.01 273.55 218.52 273.83"/><polygon class="cls-13" points="175.28 277.4 170.11 300.12 166.66 294.95 174.35 277.48 175.28 277.4"/><path class="cls-14" d="M99.67,211.78a39.56,39.56,0,0,1,32.89-8.4c16.8,3.13,27.52,11.89,34.35,24.5,4,7.46,13.9,20,33.73,20,18.38,0,28.1-12.38,31.85-19.2,6.4-11.63,15.73-21.26,23.14-25.27,23.31-12.62,46.27-1,46.27-1S270.05,246,238.22,254.93C216.57,261,175.24,266.82,127,236,105.12,222.11,99.67,211.78,99.67,211.78Z" transform="translate(1.35 66.18)"/><path class="cls-10" d="M137.26,135.9C138.12,117,138,91,159,76c21.38-15.27,57.32-16.28,77.14,2.4,17.66,16.65,15.93,50.44,14.24,65-1.88,16.3-4.52,25.42-4.52,25.42s-5.38,21.3-22.07,38.24c-11.67,11.84-19.14,13.61-30,14.07s-22.49-5.45-28.92-11c-5.91-5.09-22.72-19.91-26.36-45.52C136.6,151.75,137.26,135.9,137.26,135.9Z" transform="translate(1.35 66.18)"/><path class="cls-11" d="M224.88,56.57c-44.29-17-91.23,3.23-104.14,46.35-7.33,26.7-8.21,47.23-8.21,47.23s11.73,15.26,27.28,18.78c0,0-1.47-38.34,1.45-64.89,17.69-5.93,42-8.2,63.3-8.11l8.13-26.66A151.71,151.71,0,0,1,213,96.09l1.21,0c.42-2.75,2.35-16.63-.08-27.36h1.21a155.53,155.53,0,0,1,1.29,27.46l1.82.1c1.35-9.59-1.65-27.07-1.65-27.07,4.69,10.51,7.69,23.59,8.54,27.56,10.49.93,18.75,2.5,22.81,4.47,1.2,8.44,5.31,33.06-3.32,67.63,0,0,22,0,30.22-27C275.05,141.94,269.18,73.59,224.88,56.57Z" transform="translate(1.35 66.18)"/><path class="cls-15" d="M169.16,172.48l-.38,5.18a5,5,0,0,0,2.78,4.69c3.16,1.85,23.29,3.11,42.86,1a5.4,5.4,0,0,0,4.59-4.91,80.55,80.55,0,0,0-.71-8.45s-13.32-3.71-24.41-3.11S173.41,168.77,169.16,172.48Z" transform="translate(1.35 66.18)"/><path class="cls-16" d="M168.76,174s19,2.84,50-.26" transform="translate(1.35 66.18)"/><path class="cls-16" d="M193.66,168.66v12.73" transform="translate(1.35 66.18)"/><line class="cls-16" x1="204.4" y1="234.85" x2="204.4" y2="241.1"/><line class="cls-16" x1="211.6" y1="234.85" x2="211.6" y2="241.1"/><line class="cls-16" x1="185.38" y1="234.85" x2="185.38" y2="241.1"/><line class="cls-16" x1="177.24" y1="234.85" x2="177.24" y2="241.1"/><line class="cls-16" x1="187.97" y1="241.48" x2="187.97" y2="247.73"/><line class="cls-16" x1="180.65" y1="241.48" x2="180.65" y2="249.69"/><line class="cls-16" x1="173.33" y1="240.75" x2="173.33" y2="248.97"/><line class="cls-16" x1="201.98" y1="240.86" x2="201.98" y2="247.58"/><line class="cls-16" x1="209.29" y1="240.86" x2="209.29" y2="249.08"/><line class="cls-16" x1="216.61" y1="240.13" x2="216.61" y2="248.35"/><path class="cls-17" d="M218.78,166c-4-4.64-12.91-2.91-16.38-2.25a67.68,67.68,0,0,1-8.73.79,66,66,0,0,1-8.5-.79c-3.47-.66-12.37-2.39-16.38,2.25s-.37,8.38-.37,8.38,7.75-5.45,25.37-5.54c17.62.09,25.36,5.54,25.36,5.54S222.79,170.68,218.78,166Z" transform="translate(1.35 66.18)"/><path class="cls-17" d="M219.58,177.44l-.47-3.61-.94-.43a36.82,36.82,0,0,1,0,5.12c-.24,1.22-2.07,5.87-10.56,3.89s-10.19-2.76-16-2.39h0c-3.06.19-5.6,1-11.67,2.38-8.49,2-10.32-2.67-10.56-3.89a36.82,36.82,0,0,1,0-5.12l-.94.43-.47,3.61s-.65,6.52,8.17,7.79a98.36,98.36,0,0,0,14.91.71h0s12.26.42,20.34-.71C220.24,184,219.58,177.44,219.58,177.44Z" transform="translate(1.35 66.18)"/><path class="cls-3" d="M184.36,163.63s-7.09-1.47-10.05-.75-5.61,2.17-6.67,4.87c-.34,1.08,1.21-.67,3.6-1.72a16.53,16.53,0,0,1,7.93-1.85A18,18,0,0,0,184.36,163.63Z" transform="translate(1.35 66.18)"/><path class="cls-3" d="M200.51,164.07c1.15.72,5.79.14,6.83.08a17.1,17.1,0,0,1,7.5.39c3.61,1,5,3.87,5.69,4.78a7.51,7.51,0,0,0-1.44-3.31,9.19,9.19,0,0,0-5-3.12,31.72,31.72,0,0,0-7,0C205.52,163.12,202.36,163.8,200.51,164.07Z" transform="translate(1.35 66.18)"/><path class="cls-18" d="M194.42,182.33c.53.49,4.83.59,4.7-.34s-3.17-.58-4-.59S193.83,181.78,194.42,182.33Z" transform="translate(1.35 66.18)"/><path class="cls-19" d="M170.2,173.4A51.71,51.71,0,0,1,189,169.1c15.28-.69,22.61,2.09,26.1,3.32-2.21-1.46-9.85-3.91-17.87-4.1a61.13,61.13,0,0,0-18.58,1.75A36.49,36.49,0,0,0,170.2,173.4Z" transform="translate(1.35 66.18)"/><path class="cls-3" d="M195,151.75s2.65-3.64,5.94-.3" transform="translate(1.35 66.18)"/><path class="cls-3" d="M170,158.33l.49.43s-8,5-9.55,10a16,16,0,0,0-.65,7.59.47.47,0,0,1-.41.52.53.53,0,0,1-.61-.34,13.62,13.62,0,0,1,2.31-11.66A20.59,20.59,0,0,1,170,158.33Z" transform="translate(1.35 66.18)"/><path class="cls-12" d="M217.51,158.33l-.49.43s8,5,9.56,10a16.05,16.05,0,0,1,.64,7.59.47.47,0,0,0,.41.52.54.54,0,0,0,.62-.34,13.64,13.64,0,0,0-2.32-11.66A20.59,20.59,0,0,0,217.51,158.33Z" transform="translate(1.35 66.18)"/><path class="cls-11" d="M165.46,199.69a.79.79,0,0,1-.1-.7c.37-.56,1.45,0,2.07.38a15.86,15.86,0,0,0,6.68,2.72c3.71.32,6.95.32,13.53-2.09s9.6.11,12.9.47c3.57.38,7.36.38,12.83-3.85.51-.49,1-.17.83.29a10.43,10.43,0,0,1-6.36,4.52,24.81,24.81,0,0,1-11.07-.45c-2.52-.75-6.7,0-10.16,2.15a16.4,16.4,0,0,1-12.86,1.53C170.33,203.67,166.45,201.31,165.46,199.69Z" transform="translate(1.35 66.18)"/><path class="cls-3" d="M194.7,124.87h.64s2.43,16-10.8,20.75l6.37,7.45a1,1,0,0,1-.19,1.44h0a1,1,0,0,1-1.29-.14A60.9,60.9,0,0,1,183,146.1a1.26,1.26,0,0,1,.6-1.81c1.88-.78,5.33-2.44,7-4.83C192.5,136.83,194.42,133.47,194.7,124.87Z" transform="translate(1.35 66.18)"/><g class="cls-20"><path class="cls-12" d="M193.66,122.44s-4.12,17.89-10.67,21.91,1.55,1.27,1.55,1.27l8.87-2.49s5.74-15.59,3.19-19.53S193.66,122.44,193.66,122.44Z" transform="translate(1.35 66.18)"/></g><path class="cls-12" d="M244.52,69.32s26.23,34.87,25.44,84a42.48,42.48,0,0,0,5.09-11.36S272.35,96.85,244.52,69.32Z" transform="translate(1.35 66.18)"/><g class="cls-21"><path class="cls-14" d="M193.68,88.42a80.37,80.37,0,0,1,1.88-10.9,97.4,97.4,0,0,0-5.11,9.63l.87-8.06L185.8,89.18c.18-4.38,1.44-8.64,2.69-12.85a46.47,46.47,0,0,0-5.78,14.43c-.37-4.88.91-9.72,2.19-14.44l-7.63,14.54L179.94,78l-6.79,13.59,2.42-13.25a97.2,97.2,0,0,0-7,14.48c0-4.81,1.59-9.46,3.17-14l-7.36,13.59,3.44-14.51A112.32,112.32,0,0,0,159,92.4l3.89-14.92c-1-.12-1.66.82-2.13,1.65a102.26,102.26,0,0,0-6.72,14,69.22,69.22,0,0,1,3.16-13.32q-4.71,7.48-8.76,15.35a70.21,70.21,0,0,1,2.87-11.86,40.47,40.47,0,0,0-4.69,13,34.57,34.57,0,0,1,3.1-13.65,108.93,108.93,0,0,0-7.64,18.54C142,93,144.18,84.11,148.74,77.3c4.75-7.09,12.14-12.6,19.14-17.47A43.45,43.45,0,0,0,159,73.05,106.26,106.26,0,0,1,169.24,62a54.47,54.47,0,0,0-5,8.36,85.37,85.37,0,0,1,8.54-8.89,35,35,0,0,0-5.56,9.21,59.51,59.51,0,0,1,8.7-9A62.25,62.25,0,0,0,171,70.18a55.19,55.19,0,0,1,10.61-10,35,35,0,0,0-6.69,11,40.41,40.41,0,0,1,9.44-9.69A66,66,0,0,0,180,70.35a70.12,70.12,0,0,1,6.12-8A48.82,48.82,0,0,0,182.6,71a46.14,46.14,0,0,1,7.13-8.52l-2.67,7.92a29.82,29.82,0,0,1,7.34-8.09,79.14,79.14,0,0,0-3.72,10.34,33.89,33.89,0,0,1,7.51-10.14A58.58,58.58,0,0,1,195,72.6a66.25,66.25,0,0,1,9.84-12.16A168.4,168.4,0,0,0,193.68,88.42Z" transform="translate(1.35 66.18)"/></g><g class="cls-21"><path class="cls-14" d="M225.9,87.72l0-5.48,2,4.92.23-3.58a10.46,10.46,0,0,1,2.59,5,26.71,26.71,0,0,0-.31-6l2.84,7.09a42.68,42.68,0,0,0-1.55-9.46A32.15,32.15,0,0,1,238,92a27,27,0,0,0-1-8.85,48.3,48.3,0,0,1,7,13,58.19,58.19,0,0,0-15-31.77,31.88,31.88,0,0,1,2,5.61,9.44,9.44,0,0,0-2.19-2.48l1,6.4L226,65.79a71.91,71.91,0,0,1,.92,8.4,47.71,47.71,0,0,0-5.25-8.73,37.06,37.06,0,0,1,2.58,9,34.43,34.43,0,0,0-8.92-12.88C220.16,69.61,223.49,78.7,225.9,87.72Z" transform="translate(1.35 66.18)"/></g><g class="cls-21"><path class="cls-14" d="M117.13,153.3c-2.72-.45-3.77-3-4.43-5.7s-1.54-7.18-1.14-9.91c2.43-16.87,4.59-32.38,14.51-50.44,3.55-6.47,14.15-18.56,21-22C138.13,73.5,131.72,80.06,125.47,98c-3.74,10.76-6.51,26.64-7.53,38C117.36,142.43,117.13,147,117.13,153.3Z" transform="translate(1.35 66.18)"/></g><path class="cls-15" d="M209.86,124.37s10.79,8.5,22.65,0c0,0-5-7.25-11.72-6.32S211.82,121.15,209.86,124.37Z" transform="translate(1.35 66.18)"/><ellipse class="cls-11" cx="223.2" cy="188.15" rx="3.74" ry="4.28"/><ellipse class="cls-22" cx="224.75" cy="186.77" rx="1.15" ry="0.9"/><path class="cls-11" d="M208.85,105.23c-1.47.33-2.79,1.77-2.13,5.63s6.3,2.58,8,1.88,12.65-1.62,16.48,0a14.09,14.09,0,0,1,6.82,5.12c2.11,2.52,2.24-2,.21-6S230,105.58,224.68,106,211.55,104.63,208.85,105.23Z" transform="translate(1.35 66.18)"/><path class="cls-12" d="M223.79,128a15.25,15.25,0,0,0,7.73-3.91l1,.33s-2,3.59-10.1,4.27a21.17,21.17,0,0,1-6.76-1.39A18.65,18.65,0,0,0,223.79,128Z" transform="translate(1.35 66.18)"/><path class="cls-23" d="M222.87,118.28a10.89,10.89,0,0,0-2.39-.29,4.31,4.31,0,0,0-2.36,4,4.36,4.36,0,0,0,2,3.77C218.86,120.06,222.87,118.28,222.87,118.28Z" transform="translate(1.35 66.18)"/><path class="cls-11" d="M209.86,124.37s2-7.59,11.91-7.17a13.16,13.16,0,0,1,10.74,7.17s-.7.95-1.44.5-2.62-4.71-6.4-5.78a11.82,11.82,0,0,0-10.94,2C210.66,123.65,211.68,125.35,209.86,124.37Z" transform="translate(1.35 66.18)"/><path class="cls-15" d="M158.86,124.87s4,6.65,11.74,4.53c3.67-1.08,3.77-3.1,7.89-4.15,0,0-1.48,0-3.8-4.9s-8.94-4.22-10.72-1.69S158.86,124.87,158.86,124.87Z" transform="translate(1.35 66.18)"/><path class="cls-11" d="M177,105.64c-2.73-.46-10.47,1.66-15.77,1.56s-10.22,2.23-12,6.32-.3,8.19,1.67,5.56,3.79-4.9,7.54-6.72,12,0,13.8.66,6.77,2,7.22-1.87S178.51,105.88,177,105.64Z" transform="translate(1.35 66.18)"/><path class="cls-11" d="M179.63,105.12a2.67,2.67,0,0,0-1.66-.74c-.47,0,0,.37.15.5a8.43,8.43,0,0,1,.55.78,8.34,8.34,0,0,1,.86,1.84,8.54,8.54,0,0,1,.38,1.94c0,.24.15,1.85-.08,2a2.63,2.63,0,0,0,1.44-2.14,5.79,5.79,0,0,0-1.64-4.13Z" transform="translate(1.35 66.18)"/><path class="cls-11" d="M182.83,107a3.45,3.45,0,0,0-.5-1.6c-.43-.69-1.71-2.08-2.45-1.63a9.31,9.31,0,0,1,1.59,2.59,6.75,6.75,0,0,1,.33,3.06A3.08,3.08,0,0,0,182.83,107Z" transform="translate(1.35 66.18)"/><path class="cls-11" d="M158.86,124.87s.75.82,2.43-2.23,4.26-5.46,7.36-5.41c2.66,0,4.3.84,7.18,6,1.94,2.35,1.95,2,2.66,2a13.12,13.12,0,0,1-2.88-4c-1.77-3.5-4-4.55-6.29-4.77a7.45,7.45,0,0,0-7.32,3.46A57.56,57.56,0,0,0,158.86,124.87Z" transform="translate(1.35 66.18)"/><ellipse class="cls-11" cx="169.4" cy="188.49" rx="3.57" ry="4.45"/><ellipse class="cls-22" cx="170.8" cy="186.29" rx="1.15" ry="0.9"/><path class="cls-11" d="M156.52,121.82s4.38-6.58,12.15-6.39,10.87,5.87,10.87,5.87-.06.55-1-.47-4.45-4.8-9.34-4.73c-4.67.06-7.37,1.22-11.28,4.9C157,121.82,157,122,156.52,121.82Z" transform="translate(1.35 66.18)"/><path class="cls-11" d="M179.1,127.36s-3.88,6.56-10.79,8.32" transform="translate(1.35 66.18)"/><path class="cls-23" d="M169.45,118.21a3,3,0,0,0-2.72,0,4.64,4.64,0,0,0-2.25,4.38,4.46,4.46,0,0,0,2,3.77C165.23,120.64,169.45,118.21,169.45,118.21Z" transform="translate(1.35 66.18)"/><polyline class="cls-24" points="158.9 224.95 158.95 223.42 160.47 223.42"/><line class="cls-25" x1="163.51" y1="223.42" x2="228.73" y2="223.42"/><polyline class="cls-24" points="230.25 223.42 231.78 223.42 231.75 224.95"/><line class="cls-26" x1="231.71" y1="227.83" x2="231.26" y2="255.17"/><polyline class="cls-24" points="231.24 256.61 231.21 258.13 229.69 258.11"/><line class="cls-27" x1="226.63" y1="258.07" x2="160.87" y2="257.15"/><polyline class="cls-24" points="159.34 257.13 157.82 257.11 157.87 255.58"/><line class="cls-28" x1="157.96" y1="252.8" x2="158.85" y2="226.34"/><polyline class="cls-29" points="145.45 170.35 145.48 168.82 147 168.82"/><line class="cls-30" x1="149.88" y1="168.82" x2="182.91" y2="168.82"/><polyline class="cls-29" points="184.35 168.82 185.87 168.82 185.86 170.35"/><line class="cls-31" x1="185.83" y1="173.19" x2="185.59" y2="200.15"/><polyline class="cls-29" points="185.57 201.56 185.56 203.09 184.03 203.05"/><line class="cls-32" x1="181.14" y1="202.98" x2="147.83" y2="202.15"/><polyline class="cls-29" points="146.38 202.12 144.85 202.08 144.88 200.55"/><line class="cls-33" x1="144.94" y1="197.2" x2="145.42" y2="172.03"/><g class="cls-34"/><g class="cls-8"><use transform="translate(141.68 139.54) scale(0.24)" xlink:href="#image"/></g></g><polygon class="cls-10" points="96.96 206.39 147.77 207.03 148.51 236.82 98.41 237.47 96.96 206.39"/><path d="M96.29,140.86l49.5.62.72,28.52-48.83.63-1.39-29.77m-1.35-1.31,1.51,32.39,51.38-.66-.78-31.07-52.11-.66Z" transform="translate(1.35 66.18)"/><circle cx="148.38" cy="206.47" r="1.71"/><circle cx="149.17" cy="237.46" r="1.71"/><circle cx="96.28" cy="205.58" r="1.71"/><path class="cls-15" d="M133.83,163.49s-10.79,8.5-22.66,0c0,0,5-7.25,11.73-6.32S131.86,160.26,133.83,163.49Z" transform="translate(1.35 66.18)"/><ellipse class="cls-35" cx="123.18" cy="227.27" rx="3.74" ry="4.28"/><path class="cls-35" d="M134.84,144.35c1.46.33,2.79,1.77,2.13,5.63s-6.3,2.58-8,1.88-12.65-1.62-16.48,0a14,14,0,0,0-6.82,5.12c-2.11,2.52-2.24-2-.21-6s8.28-6.29,13.58-5.9S132.14,143.75,134.84,144.35Z" transform="translate(1.35 66.18)"/><ellipse class="cls-22" cx="124.99" cy="226.09" rx="1.15" ry="0.9"/><path class="cls-12" d="M125.1,167.08a15.2,15.2,0,0,0,7.73-3.91l1,.33s-2,3.59-10.11,4.27a21.33,21.33,0,0,1-6.68-1.31A19.13,19.13,0,0,0,125.1,167.08Z" transform="translate(1.35 66.18)"/><path class="cls-23" d="M122.84,157.42a10.78,10.78,0,0,0-2.39-.28,4.3,4.3,0,0,0-2.36,4,4.37,4.37,0,0,0,2,3.77C118.84,159.21,122.84,157.42,122.84,157.42Z" transform="translate(1.35 66.18)"/><path class="cls-35" d="M133.83,163.49s-2-7.59-11.91-7.17a13.18,13.18,0,0,0-10.75,7.17s.7.95,1.45.5,2.62-4.71,6.4-5.78a11.77,11.77,0,0,1,10.93,2C133,162.77,132,164.47,133.83,163.49Z" transform="translate(1.35 66.18)"/><circle cx="276.35" cy="238.83" r="1.71"/><circle cx="273.7" cy="273.57" r="1.71"/><circle cx="212.41" cy="272.87" r="1.71"/><circle cx="214.41" cy="239.75" r="1.71"/><polygon class="cls-10" points="213.09 272.54 214.96 240.34 275.67 239.71 273.47 273.15 213.09 272.54"/><path d="M273.63,174.18l-2.11,32.13-59.09-.59,1.79-30.92,59.41-.62m1.38-1.3-62,.64L211.06,207l61.66.61L275,172.88Z" transform="translate(1.35 66.18)"/><circle cx="276.35" cy="239.06" r="1.71"/><circle cx="273.7" cy="273.8" r="1.71"/><circle cx="212.41" cy="273.1" r="1.71"/><circle cx="214.41" cy="239.98" r="1.71"/><path class="cls-36" d="M222.86,185.69s.19,10.23,9.66,14.34,26.21-.18,28.5-12.14c0,0-16.74,5.74-37.59-2.2" transform="translate(1.35 66.18)"/><path class="cls-17" d="M221.14,185.21s3-7.18,12.91-3.64c5.83,2.2,5.16,5.26,10.23,5.07s3.92-5.79,10.71-6,9.47,6.06,9.47,6.06-11.09,8.22-22.86,6.88A44.16,44.16,0,0,1,221.14,185.21Z" transform="translate(1.35 66.18)"/><path class="cls-18" d="M266.68,183.54a4.25,4.25,0,0,0,.71,1.74.79.79,0,0,0,.83.3.87.87,0,0,0,.42-.73,4.18,4.18,0,0,0-.43-2.19,7.11,7.11,0,0,0-1-1.58,1.87,1.87,0,0,0-.61-.51.76.76,0,0,0-.77,0C265.21,181,266.52,183,266.68,183.54Z" transform="translate(1.35 66.18)"/><path class="cls-3" d="M219.62,182a2.47,2.47,0,0,1-.64.61.72.72,0,0,1-.83-.06A.7.7,0,0,1,218,182a1.62,1.62,0,0,1,.29-.57c.5-.72,2.07-2.4,3.14-1.92S220,181.59,219.62,182Z" transform="translate(1.35 66.18)"/><path class="cls-3" d="M223.44,189.24s4.05,9.16,13.35,10.4,16.65-1.69,20.74-6.18,1.26-.17,1.26-.17-4.27,7.23-16,8.16S225.26,196.68,223.44,189.24Z" transform="translate(1.35 66.18)"/><path class="cls-18" d="M250.26,194.16a.79.79,0,0,1,.67.2.55.55,0,0,1,0,.6,1.32,1.32,0,0,1-.51.39,5.75,5.75,0,0,1-2.11.6c-.82.08-2-.49-.93-1.2A5.9,5.9,0,0,1,250.26,194.16Z" transform="translate(1.35 66.18)"/><path class="cls-15" d="M244.13,195.15a1.8,1.8,0,0,1,.79-.1.62.62,0,0,1,.55.51.55.55,0,0,1-.08.35,1,1,0,0,1-.77.54.81.81,0,0,1-.78-.48.65.65,0,0,1,.35-.81" transform="translate(1.35 66.18)"/><path class="cls-19" d="M222.23,186s14.58,6.31,21.48,6.31,16.28-3,19.3-4.7a34.13,34.13,0,0,1-19.3,6.06C232,193.81,222.52,186.22,222.23,186Z" transform="translate(1.35 66.18)"/><path class="cls-3" d="M230.57,181.68a15,15,0,0,1,5,2.11c1,.6,2,1.39,3,2.05a22.5,22.5,0,0,1,1.86,1.34,3.61,3.61,0,0,1-1-.08c-3.46-.82-6.54-3.25-10.32-3.64a1.79,1.79,0,0,1-1.15-.36.84.84,0,0,1,0-1.06C228.47,181.43,229.87,181.56,230.57,181.68Z" transform="translate(1.35 66.18)"/><path class="cls-3" d="M249.56,184.93A18.77,18.77,0,0,1,251.8,183a6.06,6.06,0,0,1,2.53-1.08,4.4,4.4,0,0,1,4,1.1.63.63,0,0,1,.22.5.57.57,0,0,1-.41.4,3.93,3.93,0,0,1-1.32.17,11.53,11.53,0,0,0-5,1.07c-.65.3-1.6.9-2.25,1.21a5.84,5.84,0,0,1-2.14.58C248.15,186.23,248.82,185.66,249.56,184.93Z" transform="translate(1.35 66.18)"/><path class="cls-37" d="M364,156.35V145a.84.84,0,0,1,.85-.84h14.84a.84.84,0,0,1,.85.84v14.85a.85.85,0,0,1-.85.84H368.29a.87.87,0,0,0-.86.87V172.9a.85.85,0,0,1-.84.85H351.74a.84.84,0,0,1-.84-.85V158.06a.84.84,0,0,1,.84-.85h11.35A.85.85,0,0,0,364,156.35Z" transform="translate(1.35 66.18)"/><path class="cls-37" d="M46.92,128.31V117a.85.85,0,0,1,.85-.84H62.61a.85.85,0,0,1,.85.84v14.85a.85.85,0,0,1-.85.85H51.26a.86.86,0,0,0-.86.86v11.34a.85.85,0,0,1-.84.85H34.71a.84.84,0,0,1-.84-.85V130a.84.84,0,0,1,.84-.85H46.06A.86.86,0,0,0,46.92,128.31Z" transform="translate(1.35 66.18)"/><rect class="cls-38" x="328.97" y="265.38" width="16.54" height="16.54" rx="0.82"/><rect class="cls-39" x="118.51" y="315.77" width="16.54" height="16.54" rx="0.82"/><rect class="cls-38" x="71.59" y="145.55" width="16.54" height="16.54" rx="0.82"/><rect class="cls-39" x="262.81" y="79.92" width="16.54" height="16.54" rx="0.82"/><polyline class="cls-40" points="26.08 254.56 26.08 316.19 48.39 316.19 48.34 342.9 245.44 342.9 245.44 355.63 343.46 355.63 343.46 319.32"/><polygon class="cls-40" points="267.73 291.38 265.26 273.33 255 273.33 256.71 298.42 282.45 311.81 282.27 355.63 317.33 355.63 312.19 249.01 276.02 244.8 274.54 266.72 282.58 268.14 283.19 291.15 267.73 291.38"/><polyline class="cls-41" points="275 259.84 292.55 262.4 293.22 289.68"/><polyline class="cls-41" points="275.37 254.31 300.18 257.94 301.07 289.45"/><polyline class="cls-41" points="275.58 249.26 307.11 253.9 308.59 289.09"/><circle class="cls-42" cx="265.22" cy="273.57" r="1.71"/><circle class="cls-42" cx="255" cy="273.57" r="1.71"/><circle class="cls-42" cx="282.36" cy="312.15" r="1.71"/><circle class="cls-42" cx="282.14" cy="355.63" r="1.71"/><circle class="cls-42" cx="317.33" cy="355.63" r="1.71"/><circle class="cls-42" cx="267.9" cy="291.15" r="1.71"/><circle class="cls-42" cx="256.96" cy="298.41" r="1.71"/><circle class="cls-42" cx="283.19" cy="290.8" r="1.71"/><circle class="cls-42" cx="282.27" cy="268.47" r="1.71"/><circle class="cls-42" cx="274.26" cy="266.77" r="1.71"/><circle class="cls-42" cx="275.96" cy="244.56" r="1.71"/><circle class="cls-42" cx="312.03" cy="249.01" r="1.71"/><circle class="cls-42" cx="293.22" cy="289.16" r="1.71"/><circle class="cls-42" cx="301.07" cy="289.16" r="1.71"/><circle class="cls-42" cx="308.59" cy="289.09" r="1.71"/><circle class="cls-42" cx="274.65" cy="259.84" r="1.71"/><circle class="cls-42" cx="275.1" cy="254.31" r="1.71"/><circle class="cls-42" cx="275.74" cy="249.01" r="1.71"/><circle class="cls-42" cx="306.89" cy="253.85" r="1.71"/><circle class="cls-42" cx="300.21" cy="258.13" r="1.71"/><circle class="cls-42" cx="292.96" cy="262.59" r="1.71"/><polygon class="cls-43" points="267.73 291.38 265.26 273.33 255 273.33 256.71 298.42 282.45 311.81 282.27 355.63 317.33 355.63 312.19 249.01 276.02 244.8 274.54 266.72 282.58 268.14 283.19 291.15 267.73 291.38"/><polygon class="cls-43" points="101.35 252.91 106.44 238.12 116.69 238.12 104.85 271.5 103.69 342.86 66.93 342.86 63.75 260.27 72.68 215.59 96.53 212.59 97.81 238.45 88.67 240.94 86.71 252.77 101.35 252.91"/><polygon class="cls-40" points="101.35 252.91 106.44 238.12 116.69 238.12 104.85 271.5 103.69 342.86 66.93 342.86 63.75 260.27 72.68 215.59 96.53 212.59 97.81 238.45 88.67 240.94 86.71 252.77 101.35 252.91"/><polyline class="cls-41" points="80.38 252.85 84.3 234.67 97.35 231.74"/><polyline class="cls-41" points="97.35 224.84 80.38 227.88 74.93 252.62"/><polyline class="cls-41" points="96.64 218.62 76.59 221.3 69.89 252.85"/><circle class="cls-42" cx="106.55" cy="238.12" r="1.71"/><circle class="cls-42" cx="101.23" cy="252.85" r="1.71"/><circle class="cls-42" cx="116.77" cy="238.12" r="1.71"/><circle class="cls-42" cx="104.85" cy="271.59" r="1.71"/><circle class="cls-42" cx="63.75" cy="259.83" r="1.71"/><circle class="cls-42" cx="86.76" cy="252.33" r="1.71"/><circle class="cls-42" cx="88.87" cy="240.94" r="1.71"/><circle class="cls-42" cx="97.35" cy="238.42" r="1.71"/><circle class="cls-42" cx="96.28" cy="212.59" r="1.71"/><circle class="cls-42" cx="72.55" cy="215.49" r="1.71"/><circle class="cls-42" cx="103.6" cy="342.57" r="1.71"/><circle class="cls-42" cx="66.9" cy="342.57" r="1.71"/><circle class="cls-42" cx="69.89" cy="252.27" r="1.71"/><circle class="cls-42" cx="74.93" cy="252.33" r="1.71"/><circle class="cls-42" cx="80.65" cy="252.33" r="1.71"/><circle class="cls-42" cx="84.43" cy="234.55" r="1.71"/><circle class="cls-42" cx="76.64" cy="221.11" r="1.71"/><circle class="cls-42" cx="80.65" cy="227.84" r="1.71"/><circle class="cls-42" cx="97.35" cy="231.74" r="1.71"/><circle class="cls-42" cx="97.13" cy="224.85" r="1.71"/><circle class="cls-42" cx="96.68" cy="218.38" r="1.71"/><circle class="cls-42" cx="343.46" cy="355.63" r="1.71"/><circle class="cls-42" cx="245.38" cy="355.63" r="1.71"/><circle class="cls-42" cx="245.53" cy="342.81" r="1.71"/><circle class="cls-42" cx="48.3" cy="342.86" r="1.71"/><circle class="cls-42" cx="48.2" cy="316.38" r="1.71"/><circle class="cls-42" cx="26.08" cy="316.31" r="1.71"/><circle class="cls-42" cx="26.08" cy="254.56" r="2.05"/><circle class="cls-42" cx="343.46" cy="319.21" r="2.05"/><line class="cls-42" x1="276.02" y1="244.8" x2="274.54" y2="266.72"/><line class="cls-42" x1="255" y1="273.36" x2="265.22" y2="273.36"/><line class="cls-42" x1="106.44" y1="238.01" x2="116.77" y2="237.88"/><line class="cls-42" x1="96.64" y1="212.59" x2="97.78" y2="238.73"/><g class="cls-44"><g class="cls-8"/></g><polyline class="cls-40" points="34.21 164.85 34.21 120.32 58.21 120.32 58.21 75.68 186.23 75.68 186.23 109.89 323.64 109.89 323.64 86.67 368.74 86.67 368.74 170.37 350.42 170.37"/><circle class="cls-42" cx="368.74" cy="170.37" r="1.71"/><circle class="cls-42" cx="368.74" cy="86.78" r="1.71"/><circle class="cls-42" cx="323.52" cy="86.49" r="1.71"/><circle class="cls-42" cx="323.52" cy="109.86" r="1.71"/><circle class="cls-42" cx="186.12" cy="109.92" r="1.71"/><circle class="cls-42" cx="186.3" cy="75.68" r="1.71"/><circle class="cls-42" cx="58.16" cy="75.68" r="1.71"/><circle class="cls-42" cx="58.16" cy="120.23" r="1.71"/><circle class="cls-42" cx="34.21" cy="120.23" r="1.71"/><circle class="cls-42" cx="34.21" cy="164.94" r="2.05"/><circle class="cls-42" cx="350.63" cy="170.37" r="2.05"/></g></g></g></g></svg>