<svg xmlns="http://www.w3.org/2000/svg" xmlns:xlink="http://www.w3.org/1999/xlink" viewBox="0 0 405.03 368.4"><defs><style>.cls-1,.cls-11,.cls-12,.cls-38,.cls-40,.cls-41,.cls-46,.cls-51,.cls-52,.cls-9{fill:none;}.cls-2{fill:#240115;}.cls-3,.cls-54{fill:#cc9780;}.cls-4{fill:#00437a;}.cls-5{fill:#daa694;}.cls-6{fill:#3a7beb;}.cls-7{isolation:isolate;}.cls-8{clip-path:url(#clip-path);}.cls-11,.cls-12,.cls-9{stroke:#88edea;}.cls-11,.cls-12,.cls-38,.cls-40,.cls-41,.cls-46,.cls-51,.cls-52,.cls-9{stroke-miterlimit:10;}.cls-9{stroke-width:2px;}.cls-10{fill:#96f9f4;opacity:0.5;}.cls-11,.cls-38{stroke-width:1.91px;}.cls-12,.cls-40,.cls-41,.cls-46,.cls-51,.cls-52{stroke-width:1.06px;}.cls-13{fill:#2ec1b3;}.cls-14{clip-path:url(#clip-path-2);}.cls-15,.cls-26{opacity:0.25;}.cls-15{mix-blend-mode:color-burn;}.cls-16{fill:#aa985b;}.cls-17{fill:#fff;}.cls-18{fill:#ff96cc;}.cls-19{fill:#f14c0e;}.cls-20{fill:#d73021;}.cls-21{fill:#a9975b;}.cls-22{fill:#ffc239;}.cls-23{fill:#fff2d6;}.cls-24{fill:#5b5b5b;}.cls-25{clip-path:url(#clip-path-3);}.cls-26,.cls-54,.cls-56{mix-blend-mode:multiply;}.cls-27{fill:#88edea;}.cls-28{fill:#5291ee;}.cls-29{fill:#b7c7d0;}.cls-30{fill:#f3f3f3;}.cls-31{clip-path:url(#clip-path-4);}.cls-32{fill:#eee;}.cls-33{clip-path:url(#clip-path-5);}.cls-34{fill:#191919;}.cls-35{fill:#383838;}.cls-36{fill:#93a0a9;}.cls-37{fill:#0062a4;}.cls-38{stroke:#353535;}.cls-39{fill:#6d6d6d;}.cls-40{stroke:#f14c0e;}.cls-41{stroke:#ffc239;}.cls-42{fill:#f7c2aa;}.cls-43{fill:#6effff;}.cls-44{fill:#a8842c;}.cls-45{clip-path:url(#clip-path-6);}.cls-46{stroke:#fff;}.cls-47{clip-path:url(#clip-path-7);}.cls-48{clip-path:url(#clip-path-8);}.cls-49{clip-path:url(#clip-path-9);}.cls-50{fill:#1571cb;}.cls-51,.cls-52{stroke:#3a7beb;}.cls-51{stroke-linecap:round;}.cls-53{fill:#a36457;}.cls-55{fill:#dba795;}.cls-56{opacity:0.15;}</style><clipPath id="clip-path" transform="translate(26.76 47.54)"><rect class="cls-1" width="382.51" height="286.88"/></clipPath><clipPath id="clip-path-2" transform="translate(26.76 47.54)"><polygon class="cls-1" points="6.83 169.53 6.83 136.9 54.36 155.23 92.55 163.31 91.46 170.03 78.72 169.08 98.89 191.22 94.46 197.44 82.06 184.2 65.55 198.98 45.55 178.01 6.83 169.53"/></clipPath><clipPath id="clip-path-3" transform="translate(26.76 47.54)"><polygon class="cls-1" points="355.07 49.49 355.07 119.42 277.93 120.5 277.93 65.6 355.07 49.49"/></clipPath><clipPath id="clip-path-4" transform="translate(26.76 47.54)"><path class="cls-2" d="M119.75,118.78,150.85,147A70.38,70.38,0,0,0,134,166.32L104.3,137.68Z"/></clipPath><clipPath id="clip-path-5" transform="translate(26.76 47.54)"><path class="cls-3" d="M131.88,164.24s13.49-21.15,19-17.27c0,0,7.09,7.36,10.82,13.16,3.48,5.42,4.17,13.75,5,24s2.08,51.64,2.08,51.64,0,1.73-3.29,2.89c-2,.72-4.79-.47-5.94-1.71l-5.4-30.53s-4.12-.71-5.74-7.9-2.26-21-2.26-21Z"/></clipPath><clipPath id="clip-path-6" transform="translate(26.76 47.54)"><path class="cls-4" d="M132.87,49s6,5.79,9.8,7.3l-2.48,4.12s6.74,2,9.55,4.93S161.9,85.37,161.9,85.37s-8.44,3-12,6.79c0,0-17.64-25.71-27.75-37l2.55-2.63,4.49,1.21Z"/></clipPath><clipPath id="clip-path-7" transform="translate(26.76 47.54)"><path class="cls-4" d="M109.14,60.53c1.8-2.48,4.85-7.61,10.94-7.69s9.52,3.65,12.2,9.89S143,82.09,143,82.09s-9.2,4.17-12.7,8.78l3.11,6.8L119.7,119.2,93.48,124s-.1-21.87,6.15-41.09C103.37,71.38,106.26,64.46,109.14,60.53Z"/></clipPath><clipPath id="clip-path-8" transform="translate(26.76 47.54)"><path class="cls-5" d="M156.35,142.87l-20,16.21,18.07,7.46S145,174.92,140.85,181s-1.79,9.6-1.79,9.6l-18.47,24.91c-.11,1.69,2.43,4.54,4.57,4.86s5-2,5-2,27.86-26.17,34.72-33.77,10.66-12.45,10.87-18.89-6.33-10.13-6.33-10.13-2-7.33-13.1-12.74"/></clipPath><clipPath id="clip-path-9" transform="translate(26.76 47.54)"><path class="cls-6" d="M119.75,118.78h0a10.29,10.29,0,0,0,5.78,9.06l31.55,15.38s-11.61,11.9-14.13,18.61c0,0-33.48-13.52-42.61-20.69A17.79,17.79,0,0,1,93.48,124Z"/></clipPath></defs><g class="cls-7"><g id="Layer_2" data-name="Layer 2"><g id="Layer_5" data-name="Layer 5"><g class="cls-8"><polyline class="cls-9" points="33.59 201.8 33.59 267.68 48.71 267.68 48.71 303.98"/><polygon class="cls-10" points="33.59 217.07 33.59 184.44 81.12 202.77 119.31 210.85 118.21 217.57 105.48 216.62 125.64 238.77 121.22 244.99 108.82 231.74 92.31 246.53 72.31 225.55 33.59 217.07"/><polygon class="cls-11" points="33.59 217.07 33.59 184.44 81.27 202.69 119.46 210.77 118.37 217.49 105.63 216.54 125.8 238.68 121.22 244.99 108.82 231.74 92.31 246.53 72.46 225.47 33.59 217.07"/><line class="cls-12" x1="108.82" y1="231.74" x2="99.41" y2="222.33"/><line class="cls-12" x1="102.84" y1="237.17" x2="93.51" y2="227.84"/><line class="cls-12" x1="97.35" y1="242.04" x2="88.02" y2="232.71"/><circle class="cls-13" cx="33.59" cy="217.07" r="1.46"/><circle class="cls-13" cx="33.59" cy="184.44" r="1.46"/><circle class="cls-13" cx="72.42" cy="225.47" r="1.46"/><circle class="cls-13" cx="81" cy="202.41" r="1.46"/><circle class="cls-13" cx="92.31" cy="246.53" r="1.46"/><circle class="cls-13" cx="97.13" cy="242.04" r="1.46"/><circle class="cls-13" cx="102.84" cy="237.38" r="1.46"/><circle class="cls-13" cx="121.22" cy="244.99" r="1.46"/><circle class="cls-13" cx="125.64" cy="238.77" r="1.46"/><circle class="cls-13" cx="106.05" cy="216.62" r="1.46"/><circle class="cls-13" cx="118.14" cy="217.5" r="1.46"/><circle class="cls-13" cx="119.33" cy="210.7" r="1.46"/><circle class="cls-13" cx="108.82" cy="231.96" r="1.46"/><circle class="cls-13" cx="99.41" cy="222.33" r="1.46"/><circle class="cls-13" cx="93.51" cy="227.84" r="1.46"/><circle class="cls-13" cx="88.02" cy="232.71" r="1.46"/><circle class="cls-13" cx="48.71" cy="303.98" r="2.25"/><circle class="cls-13" cx="33.59" cy="267.66" r="1.46"/><circle class="cls-13" cx="48.71" cy="267.66" r="1.46"/><g class="cls-14"><g class="cls-15"/></g><polygon class="cls-16" points="381.82 97.04 381.82 166.96 304.69 168.04 304.69 113.14 381.82 97.04"/><polygon class="cls-17" points="307.39 116.21 377.45 104.16 377.45 161.33 307.39 164.83 307.39 116.21"/><path class="cls-18" d="M343.56,66.43a2.35,2.35,0,0,0,2-2.21,1.6,1.6,0,0,0-2-1.58,2.36,2.36,0,0,0-1.94,2.21A1.6,1.6,0,0,0,343.56,66.43Z" transform="translate(26.76 47.54)"/><path class="cls-19" d="M343.56,70a2.32,2.32,0,0,0-1.94,2.19,1.62,1.62,0,0,0,1.94,1.61,2.3,2.3,0,0,0,2-2.18A1.63,1.63,0,0,0,343.56,70Z" transform="translate(26.76 47.54)"/><path class="cls-20" d="M343.56,77.35a2.27,2.27,0,0,0-1.94,2.15,1.66,1.66,0,0,0,1.94,1.65,2.27,2.27,0,0,0,2-2.16A1.66,1.66,0,0,0,343.56,77.35Z" transform="translate(26.76 47.54)"/><path class="cls-21" d="M285.42,98.86a2.39,2.39,0,0,0,1.95-2.28,1.62,1.62,0,0,0-1.95-1.64,2.4,2.4,0,0,0-2,2.27A1.63,1.63,0,0,0,285.42,98.86Z" transform="translate(26.76 47.54)"/><path class="cls-22" d="M285.42,102.53a2.39,2.39,0,0,0-2,2.27,1.63,1.63,0,0,0,2,1.65,2.37,2.37,0,0,0,1.95-2.26A1.63,1.63,0,0,0,285.42,102.53Z" transform="translate(26.76 47.54)"/><path class="cls-23" d="M285.42,110.13a2.36,2.36,0,0,0-2,2.25,1.65,1.65,0,0,0,2,1.66,2.35,2.35,0,0,0,1.95-2.25A1.63,1.63,0,0,0,285.42,110.13Z" transform="translate(26.76 47.54)"/><path class="cls-24" d="M292.31,92.86l2.07-.5s.81,6.31,4,10.17l-2.23.2C292.91,98.88,292.31,92.86,292.31,92.86Z" transform="translate(26.76 47.54)"/><ellipse class="cls-19" cx="314.16" cy="88.54" rx="22.97" ry="21.04" transform="translate(60.46 303.05) rotate(-46.51)"/><path class="cls-21" d="M312.32,110.14V88l-11.05,14.29S302.8,107.57,312.32,110.14Z" transform="translate(26.76 47.54)"/><path class="cls-18" d="M305.71,65.9,312.32,88l-21.66,5.29s-2.05-9.54,2.64-16.89A29.62,29.62,0,0,1,305.71,65.9Z" transform="translate(26.76 47.54)"/><path class="cls-22" d="M294.38,92.36s.78,6.71,4,10.15L312.32,88Z" transform="translate(26.76 47.54)"/><polygon class="cls-20" points="325.14 150.05 328.02 149.82 339.08 135.53 325.14 150.05"/><path class="cls-19" d="M312.32,110.62s-10.11.46-16.16-7.89l5.11-.46s2.26,6,11.05,7.6Z" transform="translate(26.76 47.54)"/><polygon class="cls-20" points="317.41 140.81 319.14 141.22 339.08 135.53 317.41 140.81"/><polygon class="cls-20" points="332.47 113.44 333.65 115.95 339.08 135.53 332.47 113.44"/><g class="cls-25"><g class="cls-26"/></g><polyline class="cls-9" points="403.56 300.9 403.56 212.88 386.12 212.88 386.12 184.17"/><polygon class="cls-10" points="53.27 324.51 403.56 299.58 403.56 324.51 53.27 324.51"/><polygon class="cls-9" points="53.27 324.51 403.56 299.58 403.56 324.51 53.27 324.51"/><circle class="cls-13" cx="53.27" cy="324.51" r="1.46"/><circle class="cls-13" cx="386.12" cy="184.17" r="2.25"/><circle class="cls-13" cx="403.57" cy="324.51" r="1.46"/><circle class="cls-13" cx="403.57" cy="299.58" r="1.46"/><circle class="cls-13" cx="386.12" cy="212.79" r="1.46"/><circle class="cls-13" cx="403.57" cy="212.79" r="1.46"/><rect class="cls-22" x="369.95" y="251.51" width="15" height="15" rx="0.75"/><rect class="cls-27" x="271.7" y="75.1" width="15" height="15" rx="0.75"/><rect class="cls-27" x="58.46" y="154.11" width="15" height="15" rx="0.75"/><path class="cls-28" d="M311.46,156.07V145.82a.77.77,0,0,0-.77-.77H297.28a.78.78,0,0,0-.77.77v13.41a.77.77,0,0,0,.77.77h10.25a.78.78,0,0,1,.78.78V171a.76.76,0,0,0,.77.77h13.41a.77.77,0,0,0,.77-.77V157.62a.78.78,0,0,0-.77-.77H312.24A.78.78,0,0,1,311.46,156.07Z" transform="translate(26.76 47.54)"/><path class="cls-18" d="M63.64,53.32V43.06a.76.76,0,0,0-.76-.76H49.46a.76.76,0,0,0-.76.76V56.48a.76.76,0,0,0,.76.76H59.72a.78.78,0,0,1,.78.78V68.28a.76.76,0,0,0,.76.76H74.68a.76.76,0,0,0,.76-.76V54.86a.76.76,0,0,0-.76-.76H64.42A.78.78,0,0,1,63.64,53.32Z" transform="translate(26.76 47.54)"/><polyline class="cls-9" points="118.28 61.42 47.63 61.42 47.63 80.38"/><circle class="cls-13" cx="118.28" cy="61.42" r="2.25"/><circle class="cls-13" cx="47.63" cy="80.38" r="2.25"/><circle class="cls-13" cx="47.63" cy="61.42" r="1.46"/><polyline class="cls-9" points="237.68 67.8 237.68 94.27 222.33 94.27"/><circle class="cls-13" cx="237.68" cy="67.8" r="2.25"/><circle class="cls-13" cx="222.33" cy="94.27" r="2.25"/><circle class="cls-13" cx="237.68" cy="94.27" r="1.46"/><line class="cls-9" x1="266.65" y1="59.52" x2="336.53" y2="59.52"/><polygon class="cls-10" points="364.07 59.52 367.42 74.87 364.38 99.48 356.2 101.3 355.94 80.63 350.4 81.48 351.44 108.63 324.63 113.06 319.45 92.82 335.5 59.52 364.07 59.52"/><polygon class="cls-9" points="364.07 59.52 367.42 74.87 364.38 99.48 356.2 101.3 355.94 80.63 350.4 81.48 351.44 108.63 324.63 113.06 319.45 92.82 335.5 59.52 364.07 59.52"/><line class="cls-12" x1="331.42" y1="111.93" x2="326.58" y2="92.15"/><line class="cls-12" x1="338.11" y1="110.83" x2="333.27" y2="91.33"/><line class="cls-12" x1="344.95" y1="109.7" x2="339.88" y2="90.59"/><circle class="cls-13" cx="324.63" cy="113.06" r="1.46"/><circle class="cls-13" cx="331.42" cy="111.93" r="1.46"/><circle class="cls-13" cx="338.11" cy="110.83" r="1.46"/><circle class="cls-13" cx="344.95" cy="109.7" r="1.46"/><circle class="cls-13" cx="351.43" cy="108.62" r="1.46"/><circle class="cls-13" cx="350.53" cy="82.02" r="1.46"/><circle class="cls-13" cx="355.97" cy="80.56" r="1.46"/><circle class="cls-13" cx="356.3" cy="101.2" r="1.46"/><circle class="cls-13" cx="364.33" cy="99.38" r="1.46"/><circle class="cls-13" cx="339.88" cy="90.96" r="1.46"/><circle class="cls-13" cx="333.27" cy="91.65" r="1.46"/><circle class="cls-13" cx="326.58" cy="92.43" r="1.46"/><circle class="cls-13" cx="319.45" cy="93.11" r="1.46"/><circle class="cls-13" cx="367.42" cy="75.44" r="1.46"/><circle class="cls-13" cx="364.1" cy="59.52" r="1.46"/><circle class="cls-13" cx="335.69" cy="59.52" r="1.46"/><circle class="cls-13" cx="266.65" cy="59.52" r="2.25"/><rect class="cls-29" x="247.79" y="205.01" width="6.19" height="11.2"/><path class="cls-4" d="M249.38,172.36c-25,0-46.64,19.79-48.34,44.2s17.19,44.21,42.18,44.21,46.64-19.79,48.34-44.21S274.37,172.36,249.38,172.36Zm23.81,44.2c-1,14.51-13.87,26.27-28.72,26.27s-26.07-11.76-25.06-26.27,13.87-26.26,28.72-26.26S274.2,202.06,273.19,216.56Z" transform="translate(26.76 47.54)"/><ellipse class="cls-17" cx="246.3" cy="216.56" rx="25.33" ry="23.55" transform="translate(-52.63 225.51) rotate(-34.57)"/><path class="cls-30" d="M249.13,175.94c-23,0-42.86,18.19-44.42,40.62s15.79,40.63,38.76,40.63,42.86-18.19,44.42-40.63S272.1,175.94,249.13,175.94ZM271,216.56c-.93,13.34-12.75,24.14-26.4,24.14s-24-10.8-23-24.14,12.75-24.14,26.4-24.14S271.94,203.23,271,216.56Z" transform="translate(26.76 47.54)"/><path class="cls-2" d="M119.75,118.78,150.85,147A70.38,70.38,0,0,0,134,166.32L104.3,137.68Z" transform="translate(26.76 47.54)"/><g class="cls-31"><path class="cls-32" d="M146.29,141.45c-.35.09-11.14,6.05-19.38,21.66l6.22,4.5,19.19-21.16Z" transform="translate(26.76 47.54)"/></g><path class="cls-3" d="M131.88,164.24s13.49-21.15,19-17.27c0,0,7.09,7.36,10.82,13.16,3.48,5.42,4.17,13.75,5,24s2.08,51.64,2.08,51.64,0,1.73-3.29,2.89c-2,.72-4.79-.47-5.94-1.71l-5.4-30.53s-4.12-.71-5.74-7.9-2.26-21-2.26-21Z" transform="translate(26.76 47.54)"/><g class="cls-33"><path class="cls-32" d="M154.75,210.11A75.49,75.49,0,0,0,168.1,208l3.3,1.77s-.7,23.51-2.17,25.41-8.72,7.8-11.81,4.54-4.36-28.88-4.36-28.88Z" transform="translate(26.76 47.54)"/></g><path class="cls-20" d="M159.35,236.51s4.54,4.81,9.37-.79c0,0,2.29,2.58,7.92,3.89s6.13,4,6.13,4-2.26,1.21-7.59,1.23-13.45.87-16-.8S159.35,236.51,159.35,236.51Z" transform="translate(26.76 47.54)"/><polygon class="cls-34" points="189.11 292.43 189.17 293.88 191.59 293.83 191.61 292.58 189.11 292.43"/><polygon class="cls-34" points="200.42 292.38 206.31 292.03 206.4 293.18 200.57 293.47 200.42 292.38"/><polygon class="cls-35" points="188.3 293.92 208.02 292.96 208.08 294.47 188.45 295.74 188.3 293.92"/><rect class="cls-29" x="131.06" y="190.09" width="4.63" height="12.78"/><path class="cls-36" d="M80.11,139c-1.38,3.11,27.47,8.17,31.28,8.67s9.6-6.55,5-12.79S80.94,137.15,80.11,139Z" transform="translate(26.76 47.54)"/><path class="cls-36" d="M204.1,171.58l-46,58.43s1.87,8.29-1.32,11.07c-3.91,3.41-7.74-.69-7.74-.69v-7.73L108.93,155s-6.25-1.48-8.34.49c-1.63,1.54.73,4.79,3.71,10.81S140,237,140,237l6.75,4.94c1.89,3.49,5.24,5.47,10.36,4.42,3.52-.73,9.17-6.28,9.17-6.28L225.1,170Z" transform="translate(26.76 47.54)"/><path class="cls-29" d="M109.88,177.69l113.57-11.37s4-1.1,7.14,7.1c2.81,7.45,17.89,43.26,17.89,43.26l-3.77,1.51s-14.65-25.71-15.87-29a6.69,6.69,0,0,1,.7-5.92L224,171.41l-112.12,9.76L75.59,231.82a5.17,5.17,0,0,0,0,6.27c2,2.87,7.19,2.33,13.8,2.3s58,0,58,0v2.46l-67.1.73c-2.73,0-8.2-2.34-8.65-7.9-.18-2.25.29-3.47,2.89-7.26C84.94,213.2,109.88,177.69,109.88,177.69Z" transform="translate(26.76 47.54)"/><path class="cls-21" d="M88.16,271.64s3.8-30.32-2.37-38.5-22-3.47-29.62,7C49.78,248.79,43,260.83,37,275.51Z" transform="translate(26.76 47.54)"/><circle class="cls-30" cx="101.21" cy="285.78" r="3.4"/><circle class="cls-30" cx="108.34" cy="296.47" r="2.43"/><polygon class="cls-37" points="174.81 291.54 171.24 302.71 178.63 303.11 176.78 291.91 174.81 291.54"/><polygon class="cls-37" points="173.81 290.26 162.72 290.5 164.65 297.69 174.13 291.88 173.81 290.26"/><polygon class="cls-37" points="187.57 283.94 182.35 278.71 176.23 288.26 177.45 289.86 187.57 283.94"/><polygon class="cls-37" points="178.03 290.39 177.5 291.91 185.85 298.82 188.86 292.36 178.03 290.39"/><polygon class="cls-37" points="175.37 288.67 170.99 277.79 165.05 282.19 173.61 289.64 175.37 288.67"/><path class="cls-28" d="M149.41,227.31a16.06,16.06,0,0,0-16,15.65,15.24,15.24,0,0,0,15.29,15.65,16.06,16.06,0,0,0,16-15.65A15.24,15.24,0,0,0,149.41,227.31Zm-.6,27.86A11.89,11.89,0,0,1,136.88,243a12.52,12.52,0,0,1,12.46-12.21A11.9,11.9,0,0,1,161.27,243,12.54,12.54,0,0,1,148.81,255.17Z" transform="translate(26.76 47.54)"/><path class="cls-28" d="M149.13,240.06a3,3,0,0,0-2.95,2.9,2.82,2.82,0,0,0,2.83,2.89,3,3,0,0,0,3-2.89A2.82,2.82,0,0,0,149.13,240.06Z" transform="translate(26.76 47.54)"/><path class="cls-38" d="M72.31,242.6c-.93-1.3-2.67-4.12-.93-6.7,1.14-1.69,3.44-1.87,5.61-2,2.67-.14,69.83-6.61,74.12-6.61,6.15,0,12.06,4.51,13.6,13s-5.72,18.68-16,18.29c-9.55-.37-64.7-4.94-68.19-7.18C76.64,248.93,72.31,242.6,72.31,242.6Z" transform="translate(26.76 47.54)"/><ellipse class="cls-39" cx="246.3" cy="216.56" rx="3.04" ry="2.83" transform="translate(-52.63 225.51) rotate(-34.57)"/><rect class="cls-36" x="217.05" y="203.3" width="53.57" height="2.67"/><rect class="cls-2" x="209.96" y="199.93" width="63.1" height="3.37"/><rect class="cls-29" x="217.05" y="203.3" width="11.56" height="2.67"/><polygon class="cls-2" points="257.72 159.71 289.27 159.71 273.06 199.93 241.51 199.93 257.72 159.71"/><polygon class="cls-23" points="258.96 161.79 286.35 161.79 271.81 197.85 244.43 197.85 258.96 161.79"/><polyline class="cls-40" points="247.34 189.04 259.5 189.04 269.81 182.23 279.2 180.87"/><polyline class="cls-41" points="251.47 178.16 259.27 181.47 270.97 173.3 280.55 177.21"/><ellipse class="cls-2" cx="154.82" cy="37.18" rx="5.38" ry="5.68" transform="translate(56.27 182.96) rotate(-51.6)"/><polygon class="cls-42" points="157.78 99.12 166.62 86.66 174.02 96.44 167.83 106.37 157.78 99.12"/><path class="cls-3" d="M141.21,45.58s1,4.63,3.76,7.21l-1.2,1.72a19.41,19.41,0,0,1-2.91-9.3Z" transform="translate(26.76 47.54)"/><path class="cls-42" d="M140.37,42.88c-.5-2.37-1.91-9.42.6-12.39,2.18-2.59,10.6-5.4,14-1.37s3.56,18.22,2.19,20.72-2.25,2.49-2.25,3.93-.25,3.37-2.44,2.81c-1.24-.34-.73.6-2.12.36s-5.91-4.17-7.3-6.69A41.39,41.39,0,0,1,140.37,42.88Z" transform="translate(26.76 47.54)"/><path class="cls-43" d="M154,28.78a13.22,13.22,0,0,1,2.13,5.35c.73,3.86,1.61,13.41.25,15.73a9.26,9.26,0,0,0-1.45,3.56s1.49-2.33,1.86-3,1.77-3.73,1.27-9c-.6-6.36-1-8.12-2-10.58A3.65,3.65,0,0,0,154,28.78Z" transform="translate(26.76 47.54)"/><path class="cls-44" d="M156.1,31.15a3.44,3.44,0,0,0-4.59-2.3c-2.23.74-2,3.81-2,3.81s-1.07-3.07-5.46-2-4.48,6-4.1,10.05l-1.33.17-9.14,12.94s-3.37-.6-14.37-.48a56.74,56.74,0,0,0-6.63.48s-.75-5.84,6.31-6c0,0,1.27-3.49,7.31-2s9.68-1.65,11.07-4.58,2.26-5,2.26-5-2.58-7.9,5.08-9.8,10.33-2,11.32-1.35S154.48,26.38,156.1,31.15Z" transform="translate(26.76 47.54)"/><polygon class="cls-2" points="159.5 89.04 162.82 92 160.36 95.51 156.87 92 159.5 89.04"/><path class="cls-3" d="M197.07,134.56c-22.6-36.4-25-32.75-25-32.75L161,83.85l-14.24,6.92,9.35,15.06,35.14,32.54" transform="translate(26.76 47.54)"/><path class="cls-4" d="M132.87,49s6,5.79,9.8,7.3l-2.48,4.12s6.74,2,9.55,4.93S161.9,85.37,161.9,85.37s-8.44,3-12,6.79c0,0-17.64-25.71-27.75-37l2.55-2.63,4.49,1.21Z" transform="translate(26.76 47.54)"/><g class="cls-45"><path class="cls-32" d="M146.72,87.92s4.52-4.6,13.23-7.42l3.13,4.59-14.24,8.08Z" transform="translate(26.76 47.54)"/></g><path class="cls-46" d="M140.86,55.34s-4.53,7.38-4.86,8.31.16,11-.44,12.4" transform="translate(26.76 47.54)"/><path class="cls-4" d="M109.14,60.53c1.8-2.48,4.85-7.61,10.94-7.69s9.52,3.65,12.2,9.89S143,82.09,143,82.09s-9.2,4.17-12.7,8.78l3.11,6.8L119.7,119.2,93.48,124s-.1-21.87,6.15-41.09C103.37,71.38,106.26,64.46,109.14,60.53Z" transform="translate(26.76 47.54)"/><g class="cls-47"><path class="cls-17" d="M127.34,85.35a32.59,32.59,0,0,1,12.72-8.12L144,83.85,130.6,91.7Z" transform="translate(26.76 47.54)"/><polygon class="cls-18" points="120.86 154.02 125.56 154.2 125.2 167.82 119.29 169.15 120.86 154.02"/></g><path class="cls-5" d="M156.35,142.87l-20,16.21,18.07,7.46S145,174.92,140.85,181s-1.79,9.6-1.79,9.6l-18.47,24.91c-.11,1.69,2.43,4.54,4.57,4.86s5-2,5-2,27.86-26.17,34.72-33.77,10.66-12.45,10.87-18.89-6.33-10.13-6.33-10.13-2-7.33-13.1-12.74" transform="translate(26.76 47.54)"/><g class="cls-48"><path class="cls-17" d="M136.8,193.69a75.56,75.56,0,0,0,10.74,8.22l1,3.61S131,221.16,128.57,221.41s-11.66-1-11.41-5.46,18-23,18-23Z" transform="translate(26.76 47.54)"/></g><path class="cls-6" d="M119.75,118.78h0a10.29,10.29,0,0,0,5.78,9.06l31.55,15.38s-11.61,11.9-14.13,18.61c0,0-33.48-13.52-42.61-20.69A17.79,17.79,0,0,1,93.48,124Z" transform="translate(26.76 47.54)"/><g class="cls-49"><path class="cls-17" d="M152.5,138.78c-.35.12-10.4,6.94-17.45,23.11l5.78,2.89,17.56-22.53Z" transform="translate(26.76 47.54)"/></g><path class="cls-19" d="M120.59,215.55s3,6.27,10.12,2.36c0,0,.85,2,6,4.5s5.1,5.24,5.1,5.24-2.47.68-7.67-.48-13.31-2.14-15.4-4.33S120.59,215.55,120.59,215.55Z" transform="translate(26.76 47.54)"/><polygon class="cls-34" points="148.41 271.93 148.15 273.36 150.52 273.84 150.81 272.63 148.41 271.93"/><polygon class="cls-34" points="159.45 274.39 165.27 275.35 165.11 276.5 159.35 275.48 159.45 274.39"/><polygon class="cls-35" points="147.29 273.2 166.73 276.63 166.46 278.12 147.04 275.01 147.29 273.2"/><polygon class="cls-35" points="158.3 276.73 173.72 288.57 173.1 289.64 155.47 276.27 158.3 276.73"/><path class="cls-19" d="M150.74,50.7a2,2,0,0,0,1.4.51.76.76,0,0,1,.3,0,.21.21,0,0,1,.15.22.26.26,0,0,1-.18.17,1.81,1.81,0,0,1-1.89-.36,2.15,2.15,0,0,1-.59-1c-.06-.2-.26-.88-.06-1s.27.34.31.49A2,2,0,0,0,150.74,50.7Z" transform="translate(26.76 47.54)"/><path class="cls-20" d="M149.9,47.14a1.85,1.85,0,0,1,.85-.83.77.77,0,0,1,1,.38,1.15,1.15,0,0,1,.58-.55.81.81,0,0,1,.78.09,1.06,1.06,0,0,1,.34.62,2.06,2.06,0,0,1-.21,1.44c-.08.13-.19.27-.35.27a.57.57,0,0,1-.27-.13,1.07,1.07,0,0,0-1.26-.07c-.15.13-.24.32-.39.44a.85.85,0,0,1-.81.14C149.3,48.63,149.52,47.75,149.9,47.14Z" transform="translate(26.76 47.54)"/><path class="cls-19" d="M151.16,44.53a.63.63,0,0,0,.73-.47c0-.15,0-.35.17-.41a.27.27,0,0,1,.25.07.68.68,0,0,1,.17.71,1.15,1.15,0,0,1-1,.81,1.43,1.43,0,0,1-1.2-.65.61.61,0,0,1-.11-.5c.09-.29.33-.21.45,0S150.86,44.48,151.16,44.53Z" transform="translate(26.76 47.54)"/><ellipse class="cls-2" cx="148.51" cy="40.09" rx="0.59" ry="0.5" transform="translate(48.73 175.1) rotate(-49.76)"/><ellipse class="cls-2" cx="153.14" cy="39.21" rx="0.59" ry="0.5" transform="matrix(0.65, -0.76, 0.76, 0.65, 51.03, 178.32)"/><path class="cls-44" d="M148.8,37.25l.1,0a.24.24,0,0,0,.06-.11.39.39,0,0,0-.26-.39.9.9,0,0,0-.49,0,3.91,3.91,0,0,0-1.55.56,1.08,1.08,0,0,0-.36.31c-.13.2-.11.54.17.6s.44-.22.63-.32A7.39,7.39,0,0,1,148.8,37.25Z" transform="translate(26.76 47.54)"/><path class="cls-44" d="M154.22,37.3s.07,0,.11,0a.16.16,0,0,0,.11,0,.39.39,0,0,0,0-.46.93.93,0,0,0-.38-.33,3.94,3.94,0,0,0-1.57-.48,1.05,1.05,0,0,0-.47,0c-.23.09-.42.37-.23.58s.49.1.7.13A7.21,7.21,0,0,1,154.22,37.3Z" transform="translate(26.76 47.54)"/><path class="cls-5" d="M197.72,91.48s-31.09,23.68-43.63,24.12-19.61-14.24-24.7-26.26l12.86-8.2,14.47,19.64a289.44,289.44,0,0,1,42.64-18.46" transform="translate(26.76 47.54)"/><path class="cls-43" d="M136.92,46.57s-5.57,8.44-6.32,8.77-6.88-3-6.88-3l5.37.82,6.12-7.64Z" transform="translate(26.76 47.54)"/><path class="cls-43" d="M100.19,69s-6.94,8.56-8.32,15.8c-.93,4.91-2.14,11.73.48,15.5,0,0-2.66-.74-3.42-6.14-.65-4.57.76-11.33,3.75-16.18A45.81,45.81,0,0,1,100.19,69Z" transform="translate(26.76 47.54)"/><path class="cls-43" d="M94.6,123.72s-2.25,8.4,7.27,18.59A18.91,18.91,0,0,1,94,132.14c-1.64-5.62-.54-8.15-.54-8.15Z" transform="translate(26.76 47.54)"/><path class="cls-19" d="M106.45,55.67s-9.92,7.48-13,17.37c0,0-.21,2,2.93,1.5S107.05,57.16,106.45,55.67Z" transform="translate(26.76 47.54)"/><path class="cls-22" d="M145.66,62.57S146.36,74,143,82.09l1.93,2.62s4.4-7.14,3.56-20.49C148.44,64.22,147.68,62.07,145.66,62.57Z" transform="translate(26.76 47.54)"/><path class="cls-22" d="M96.07,97.25s16.84-3.07,29.55-14.9l1.72,3a60.88,60.88,0,0,1-31.9,15.56Z" transform="translate(26.76 47.54)"/><path class="cls-22" d="M133.28,64.89s-3.67-11.35-11.36-12a12.25,12.25,0,0,0-11.37,5.72s4.22-4.13,9.47-3.86C125.46,55,127.33,56.64,133.28,64.89Z" transform="translate(26.76 47.54)"/><path class="cls-6" d="M152.81,48.3a1.14,1.14,0,0,0-.92-.5A1.15,1.15,0,0,0,150.74,49a1,1,0,0,0,.23.65l1.14,1.59L154,49.84Z" transform="translate(26.76 47.54)"/><circle class="cls-50" cx="179.79" cy="98.06" r="1.15"/><path class="cls-51" d="M153.1,50.64s3.32,3.49,2.2,7-3.94,5.58-12.68,3.14-15.17-6.59-17-7.37a13.12,13.12,0,0,0-12.91,1.83" transform="translate(26.76 47.54)"/><path class="cls-22" d="M115.12,53.31s-4.78,5.39-6,7.22-7.91,13.73-12,31.63a84.12,84.12,0,0,0-1.67,8.75s-8,1.5-6.13-12.69,9.29-13.85,12.76-22.8C104.85,58.25,105.21,52.33,115.12,53.31Z" transform="translate(26.76 47.54)"/><path class="cls-2" d="M137.6,36.62s-2.55-6.71.29-8,13.68-3.65,15-2.83,2.48,3.39,3.43,6.06c0,0-1.33-7.92-4.75-8.37-4.75-.63-14.45,2.22-15.31,3s-3.75,2.14-.7,10.38Z" transform="translate(26.76 47.54)"/><path class="cls-52" d="M158.42,41.54s3.31,4.35,3.11,5.67-3.29,1.28-5.68,1.51" transform="translate(26.76 47.54)"/><path class="cls-2" d="M155.3,48.09c0,.38.1,1,.14,1.43a.27.27,0,0,0,.31.24l3.56-.38a.28.28,0,0,0,.24-.31l-.19-1.42a.28.28,0,0,0-.3-.24l-3.52.39A.26.26,0,0,0,155.3,48.09Z" transform="translate(26.76 47.54)"/><ellipse class="cls-2" cx="137.89" cy="41.21" rx="5.38" ry="5.68" transform="translate(46.7 171.22) rotate(-51.6)"/><ellipse class="cls-50" cx="136.92" cy="42.04" rx="3.2" ry="3.38" transform="translate(45.69 170.77) rotate(-51.6)"/><path class="cls-2" d="M116.21,68.63s4.57,5.84,13.18,20.71l1.7-1.12A57.25,57.25,0,0,0,116.21,68.63Z" transform="translate(26.76 47.54)"/><path class="cls-53" d="M201,146.05c-.16.38,0,1.31-1.24.9s-3.82-1.47-3.82-1.47l-.39-2,4.94-1.2Z" transform="translate(26.76 47.54)"/><path class="cls-3" d="M192.74,127.81a37,37,0,0,0,7.43,9.46c1.27,1.12,2.57,1.72,2.83,2.63.18.62.32,2.09.57,3.31.42,2.14,1,5.46,3.57,8.06,1.26.75-.55,1.81-2.6.31s-4.34-5.83-4.84-8.13l-3.24.56s.76,4.47.15,6.65-2.4,2.28-2.91,1c-.41-1,.32-4-.89-7.38s-2.38-2.94-2.81-5.27a7.65,7.65,0,0,0-3.41-5.54A66.94,66.94,0,0,1,192.74,127.81Z" transform="translate(26.76 47.54)"/><path class="cls-54" d="M193.7,151.66s-.16-1.47.34-1.65a.89.89,0,0,1,1.29.84,5.65,5.65,0,0,1,0,1.54A1.17,1.17,0,0,1,193.7,151.66Z" transform="translate(26.76 47.54)"/><path class="cls-55" d="M190.17,85.83s4.12-1.39,7-7.41,1.64-6.33,2.5-6.41,1.73,1.29,1.38,4.17-.77,5.25-.77,5.25,4.69-1.33,5.19.46a1.66,1.66,0,0,1-1,2.18,1.38,1.38,0,0,1,1.82,1.28c.22,1.44-.93,1.63-1.68,1.74,0,0,1.07-.08,1.13,1.33s-1.76,1.51-1.76,1.51,1.46,1.53-.92,2.31c-1.8.58-7.36,2.21-9.87.76S190.17,85.83,190.17,85.83Z" transform="translate(26.76 47.54)"/><path class="cls-54" d="M199.25,72.35a1.08,1.08,0,0,1,.42,1.09,1.27,1.27,0,0,1-.88.91Z" transform="translate(26.76 47.54)"/><path class="cls-43" d="M194.4,82.7c-1.93,1.49-3,2.44-7.74,4.17-8.82,3.37-20.93,8.44-29.94,13.91l-10,6,40.45-18.87S192.87,85.44,194.4,82.7Z" transform="translate(26.76 47.54)"/><g class="cls-56"/></g></g></g></g></svg>