<?xml version="1.0" encoding="UTF-8"?>
<svg width="425px" height="350px" viewBox="0 0 425 350" version="1.1" xmlns="http://www.w3.org/2000/svg" xmlns:xlink="http://www.w3.org/1999/xlink">
    <!-- Generator: Sketch 52.1 (67048) - http://www.bohemiancoding.com/sketch -->
    <title>Slice 1</title>
    <desc>Created with Sketch.</desc>
    <defs>
        <radialGradient cx="50%" cy="50%" fx="50%" fy="50%" r="50%" gradientTransform="translate(0.500000,0.500000),scale(1.000000,0.976245),translate(-0.500000,-0.500000)" id="radialGradient-1">
            <stop stop-color="#FFC239" stop-opacity="0.5" offset="0%"></stop>
            <stop stop-color="#FFC239" stop-opacity="0.25" offset="70.7741651%"></stop>
            <stop stop-color="#A8E5E0" stop-opacity="0" offset="100%"></stop>
        </radialGradient>
        <radialGradient cx="50%" cy="50%" fx="50%" fy="50%" r="50%" gradientTransform="translate(0.500000,0.500000),scale(1.000000,0.976245),translate(-0.500000,-0.500000)" id="radialGradient-2">
            <stop stop-color="#6FE4DA" stop-opacity="0.15" offset="0%"></stop>
            <stop stop-color="#74E3DA" stop-opacity="0.15" offset="38.6794365%"></stop>
            <stop stop-color="#A8E5E0" stop-opacity="0" offset="100%"></stop>
        </radialGradient>
        <radialGradient cx="50%" cy="50%" fx="50%" fy="50%" r="50%" gradientTransform="translate(0.500000,0.500000),scale(1.000000,0.976245),translate(-0.500000,-0.500000)" id="radialGradient-3">
            <stop stop-color="#6FE4DA" stop-opacity="0.1" offset="0%"></stop>
            <stop stop-color="#74E3DA" stop-opacity="0.1" offset="38.6794365%"></stop>
            <stop stop-color="#A8E5E0" stop-opacity="0" offset="100%"></stop>
        </radialGradient>
    </defs>
    <g id="Page-1" stroke="none" stroke-width="1" fill="none" fill-rule="evenodd">
        <g id="Illustration-4" transform="translate(-10.000000, -11.000000)">
            <path d="M226.02,221.46 C222.97,219.26 221.75,216.7 220.7,212.91 L189.68,110.99 C189.292801,109.603923 188.356596,108.435956 187.08802,107.756362 C185.819444,107.076768 184.328433,106.94444 182.96,107.39 L89.34,138.06 C87.0247825,138.818029 84.5047225,137.756278 83.43,135.57 L81.32,131.28 C80.2585135,129.128488 77.7953174,128.06195 75.5,128.76 L42.14,138.91 C41.4192466,139.128007 40.8172176,139.628096 40.4707076,140.296634 C40.1241976,140.965173 40.062632,141.745389 40.3,142.46 L78.89,265.12 C80.1802888,269.04009 82.456431,272.562773 85.5,275.35" id="Path" fill="#1571CB"></path>
            <g id="Group" opacity="0.12" style="mix-blend-mode: multiply;" transform="translate(222.000000, 146.000000)" fill="url(#radialGradient-1)">
                <circle id="Oval" cx="106.5" cy="106.5" r="106.5"></circle>
            </g>
            <path d="M85.5,275.35 C87.335323,277.031013 89.4200592,278.417464 91.68,279.46 L208.54,326.72 C210.406116,327.57773 212.537799,327.653348 214.46,326.93 L347.46,277.21 C349.121895,276.59033 350.218946,274.997613 350.205526,273.224 C350.192107,271.450386 349.071081,269.874452 347.4,269.28 L229.74,223.59 C228.434249,223.005514 227.188393,222.29551 226.02,221.47" id="Path" fill="#6ECAFF"></path>
            <ellipse id="Oval" fill="#FF96CC" transform="translate(56.385201, 142.678911) rotate(-18.040000) translate(-56.385201, -142.678911) " cx="56.3852011" cy="142.678911" rx="4.69" ry="4.74"></ellipse>
            <ellipse id="Oval" fill="#FFFFFF" transform="translate(56.385201, 142.678911) rotate(-18.040000) translate(-56.385201, -142.678911) " cx="56.3852011" cy="142.678911" rx="1.69" ry="1.71"></ellipse>
            <polyline id="Path" fill="#FFFFFF" points="284.87 284.69 227.53 261.76 140.3 293.91 197.64 316.85"></polyline>
            <polygon id="Path" fill="#FFFFFF" points="280.05 267.3 263.68 273.34 288.62 283.31 304.99 277.28"></polygon>
            <polygon id="Path" fill="#FFFFFF" points="300.41 257.02 280.69 264.29 309.24 275.71 328.96 268.44"></polygon>
            <path d="M300.04,272.03 L319.76,264.76" id="Path" stroke="#5291EE"></path>
            <path d="M289.89,267.97 L309.61,260.7" id="Path" stroke="#5291EE"></path>
            <path d="M286.79,261.95 L315.55,273.46" id="Path" stroke="#5291EE"></path>
            <path d="M294.06,259.34 L322.82,270.85" id="Path" stroke="#5291EE"></path>
            <polygon id="Path" fill="#FFFFFF" points="265.68 243.13 245.96 250.4 274.52 261.82 294.24 254.55"></polygon>
            <path d="M265.32,258.14 L285.04,250.87" id="Path" stroke="#5291EE"></path>
            <path d="M255.16,254.08 L274.88,246.81" id="Path" stroke="#5291EE"></path>
            <path d="M252.06,248.06 L280.83,259.57" id="Path" stroke="#5291EE"></path>
            <path d="M259.33,245.45 L288.09,256.96" id="Path" stroke="#5291EE"></path>
            <g id="Group" opacity="0.35" transform="translate(105.000000, 110.000000)" fill="#FFC239">
                <path d="M126,0.69 L7.89,45.1 C4.66,46.32 2,50.29 1.94,53.98 L0.19,168.31 C0.13,172 2.71,174.01 5.94,172.79 L124.05,128.37 C127.28,127.16 129.94,123.18 130,119.49 L131.75,5.16 C131.81,1.46 129.23,-0.54 126,0.69 Z" id="Path"></path>
            </g>
            <g id="Group" opacity="0.5" transform="translate(94.000000, 105.000000)" fill="#FFF2D6">
                <path d="M126.18,1.19 L8.07,45.61 C4.84,46.82 2.17,50.8 2.07,54.49 L0.36,168.82 C0.31,172.51 2.88,174.51 6.11,173.3 L124.22,128.88 C127.46,127.66 130.12,123.69 130.22,120 L131.97,5.67 C131.98,1.98 129.41,-0.03 126.18,1.19 Z" id="Path"></path>
            </g>
            <path d="M347.68,272.03 C348.68,272.48 349.14,274.77 348.26,276.77 C348.26,276.77 350.85,275.46 349.98,271.96 C349.42,269.72 347.37,269.25 333.72,263.96 L246.38,230.05 L246.38,231.05 C246.38,231.05 346.68,271.57 347.68,272.03 Z" id="Path" fill="#6EFFFF"></path>
            <rect id="Rectangle" fill="#F14C0E" x="139.17" y="62.1" width="16.35" height="16.35" rx="0.81"></rect>
            <polygon id="Path" fill="#96F9F4" opacity="0.5" points="106.97 156.82 135.57 145.86 130.65 117.94 131.23 117.79 139.87 127 147.72 124.13 131.49 99.81 69.63 50.61 41.21 50.61 41.21 74.34 86.56 99.81 101.49 128.92"></polygon>
            <path d="M42.3,50.61 L126.14,50.61" id="Path" stroke="#88EDEA" stroke-width="2"></path>
            <path d="M109.4,127.55 L114.11,154.23" id="Path" stroke="#6EFFFF"></path>
            <path d="M116.6,124.76 L121.31,151.44" id="Path" stroke="#6EFFFF"></path>
            <path d="M123.42,122.09 L128.13,148.77" id="Path" stroke="#6EFFFF"></path>
            <polygon id="Path" stroke="#88EDEA" stroke-width="2" points="106.97 156.82 135.57 145.86 130.65 117.94 131.23 117.79 139.87 127 147.72 124.13 131.49 99.81 69.63 50.61 41.21 50.61 41.21 74.34 86.56 99.81 101.42 128.57"></polygon>
            <circle id="Oval" fill="#2EC1B3" cx="106.9" cy="156.82" r="1.67"></circle>
            <circle id="Oval" fill="#2EC1B3" cx="114.11" cy="154.23" r="1.67"></circle>
            <circle id="Oval" fill="#2EC1B3" cx="121.31" cy="151.44" r="1.67"></circle>
            <circle id="Oval" fill="#2EC1B3" cx="128.13" cy="148.77" r="1.67"></circle>
            <circle id="Oval" fill="#2EC1B3" cx="135.37" cy="145.86" r="1.67"></circle>
            <circle id="Oval" fill="#2EC1B3" cx="131.06" cy="118.17" r="1.67"></circle>
            <circle id="Oval" fill="#2EC1B3" cx="131.6" cy="99.81" r="1.67"></circle>
            <circle id="Oval" fill="#2EC1B3" cx="123.42" cy="122.09" r="1.67"></circle>
            <circle id="Oval" fill="#2EC1B3" cx="116.6" cy="124.76" r="1.67"></circle>
            <circle id="Oval" fill="#2EC1B3" cx="109.4" cy="127.55" r="1.67"></circle>
            <circle id="Oval" fill="#2EC1B3" cx="101.71" cy="130.23" r="1.67"></circle>
            <circle id="Oval" fill="#2EC1B3" cx="41.21" cy="74.34" r="1.67"></circle>
            <circle id="Oval" fill="#2EC1B3" cx="41.21" cy="50.61" r="1.67"></circle>
            <circle id="Oval" fill="#2EC1B3" cx="70.77" cy="50.61" r="1.67"></circle>
            <circle id="Oval" fill="#2EC1B3" cx="139.8" cy="126.9" r="1.67"></circle>
            <circle id="Oval" fill="#2EC1B3" cx="147.51" cy="124.07" r="1.67"></circle>
            <circle id="Oval" fill="#2EC1B3" cx="126.14" cy="50.61" r="2"></circle>
            <polyline id="Path" stroke="#88EDEA" stroke-width="2" points="324.54 54.66 386.11 54.66 386.11 73.66 408.17 73.66 408.17 304.65 344.04 304.65 344.04 320.37"></polyline>
            <circle id="Oval" fill="url(#radialGradient-2)" cx="106.382715" cy="110.2" r="95.5"></circle>
            <path d="M255.68,71.83 C255.48,72.41 255.79,103.83 255.79,103.83 L277.14,103.83 L284.22,115.46 L263.68,115.46 L263.68,124.73 L305.19,133.19 L408.19,135.61 L408.19,94.97 L304.99,101.56 L279.76,71.56 L255.68,71.83 Z" id="Path" fill="#A9FFFD" opacity="0.7"></path>
            <path d="M255.68,71.83 C255.48,72.41 255.79,103.83 255.79,103.83 L277.14,103.83 L284.22,115.46 L263.68,115.46 L263.68,124.73 L305.19,133.19 L408.19,135.61 L408.19,94.97 L304.99,101.56 L279.76,71.56 L255.68,71.83 Z" id="Path" stroke="#88EDEA" stroke-width="2"></path>
            <path d="M255.67,95.48 L277.93,95.48" id="Path" stroke="#6EFFFF"></path>
            <path d="M255.67,87.8 L277.93,87.8" id="Path" stroke="#6EFFFF"></path>
            <path d="M255.67,80.12 L277.93,80.12" id="Path" stroke="#6EFFFF"></path>
            <circle id="Oval" fill="#2EC1B3" cx="263.68" cy="115.41" r="1.67"></circle>
            <circle id="Oval" fill="#2EC1B3" cx="263.68" cy="124.59" r="1.67"></circle>
            <circle id="Oval" fill="#2EC1B3" cx="283.91" cy="115.41" r="1.67"></circle>
            <circle id="Oval" fill="#2EC1B3" cx="304.99" cy="101.56" r="1.67"></circle>
            <circle id="Oval" fill="#2EC1B3" cx="305.38" cy="133.3" r="1.67"></circle>
            <circle id="Oval" fill="#2EC1B3" cx="408.17" cy="135.56" r="1.67"></circle>
            <circle id="Oval" fill="#2EC1B3" cx="408.17" cy="94.99" r="1.67"></circle>
            <circle id="Oval" fill="#2EC1B3" cx="255.75" cy="103.8" r="1.67"></circle>
            <circle id="Oval" fill="#2EC1B3" cx="255.75" cy="95.48" r="1.67"></circle>
            <circle id="Oval" fill="#2EC1B3" cx="255.75" cy="87.8" r="1.67"></circle>
            <circle id="Oval" fill="#2EC1B3" cx="255.75" cy="80.12" r="1.67"></circle>
            <circle id="Oval" fill="#2EC1B3" cx="255.75" cy="71.94" r="1.67"></circle>
            <circle id="Oval" fill="#2EC1B3" cx="279.84" cy="71.53" r="1.67"></circle>
            <circle id="Oval" fill="#2EC1B3" cx="278.56" cy="80.12" r="1.67"></circle>
            <circle id="Oval" fill="#2EC1B3" cx="277.93" cy="87.8" r="1.67"></circle>
            <circle id="Oval" fill="#2EC1B3" cx="277.5" cy="95.48" r="1.67"></circle>
            <circle id="Oval" fill="#2EC1B3" cx="277.14" cy="103.8" r="1.67"></circle>
            <circle id="Oval" fill="#2EC1B3" cx="408.17" cy="73.6" r="1.67"></circle>
            <circle id="Oval" fill="#2EC1B3" cx="386.33" cy="73.6" r="1.67"></circle>
            <circle id="Oval" fill="#2EC1B3" cx="386.33" cy="54.66" r="1.67"></circle>
            <circle id="Oval" fill="#2EC1B3" cx="408.17" cy="304.65" r="1.67"></circle>
            <circle id="Oval" fill="#2EC1B3" cx="344.23" cy="304.65" r="1.67"></circle>
            <circle id="Oval" fill="#2EC1B3" cx="324.54" cy="54.66" r="2"></circle>
            <circle id="Oval" fill="#2EC1B3" cx="344.05" cy="320.37" r="2"></circle>
            <path d="M85.68,300.37 L85.68,289.15 C85.6800326,288.689958 85.3100092,288.315477 84.85,288.31 L70.19,288.31 C69.7299908,288.315477 69.3599674,288.689958 69.36,289.15 L69.36,303.82 C69.3573268,304.041857 69.4435915,304.255549 69.5995374,304.413374 C69.7554832,304.571199 69.9681267,304.660016 70.19,304.66 L81.41,304.66 C81.635434,304.66 81.8516348,304.749553 82.0110408,304.908959 C82.1704467,305.068365 82.26,305.284566 82.26,305.51 L82.26,316.73 C82.2654001,317.191664 82.6383361,317.5646 83.1,317.57 L97.77,317.57 C98.2316639,317.5646 98.6045999,317.191664 98.61,316.73 L98.61,302.06 C98.61,301.596081 98.2339192,301.22 97.77,301.22 L86.56,301.22 C86.3301928,301.225361 86.1078041,301.138498 85.9424678,300.978798 C85.7771316,300.819098 85.6826104,300.599855 85.68,300.37 Z" id="Path" fill="#FFC239"></path>
            <polyline id="Path" stroke="#88EDEA" stroke-width="1.86" points="38.03 224.99 38.03 292.37 53.13 292.37 53.13 316.71"></polyline>
            <circle id="Oval" fill="#2EC1B3" cx="53.13" cy="316.71" r="1.86"></circle>
            <circle id="Oval" fill="#2EC1B3" cx="38.03" cy="224.99" r="1.86"></circle>
            <circle id="Oval" fill="#2EC1B3" cx="53.13" cy="292.48" r="1.55"></circle>
            <circle id="Oval" fill="#2EC1B3" cx="38.03" cy="292.48" r="1.55"></circle>
            <g id="Group" opacity="0.35" transform="translate(84.000000, 101.000000)" fill="#FFF2D6">
                <path d="M126.54,0.92 L8.43,45.33 C5.2,46.55 2.54,50.52 2.43,54.21 L0.73,168.54 C0.67,172.23 3.25,174.24 6.48,173.02 L124.59,128.6 C127.82,127.39 130.49,123.41 130.59,119.72 L132.34,5.39 C132.35,1.7 129.78,-0.3 126.54,0.92 Z" id="Path"></path>
            </g>
            <path d="M133.53,217.83 C133.53,217.83 145.2,204.24 167.25,204.59 L167.03,207.51 L134.2,220.04 L133.53,217.83 Z" id="Path" fill="#000000"></path>
            <path d="M164.07,191.79 L136.79,202.2 L133.98,221.55 L140.64,224.25 C146.69,226.71 154.44,223.78 160.5,216.73 L167.28,208.84 L164.07,191.79 Z" id="Path" fill="#933718"></path>
            <path d="M164.68,165.83 C164.68,165.83 162.09,154.57 160.51,152.02 C159.22,149.94 150.51,155.52 147.41,157.62 C144.2,158.87 135.32,162.62 134.56,165.77 C133.64,169.65 133.5,182.35 133.5,182.35 C133.5,182.35 129.73,182.13 130.5,185.92 C131.27,189.71 131.88,194.04 133.88,193.12 C133.88,193.12 135.73,202.56 136.99,204.12 C138.25,205.68 142.36,207.12 148.9,208.62 C149.744262,208.78553 150.614458,208.765054 151.45,208.56 L151.53,208.56 C151.901762,208.44448 152.260388,208.290304 152.6,208.1 C152.955196,207.911163 153.290255,207.686674 153.6,207.43 L153.67,207.38 C154.537612,206.641767 155.31019,205.798649 155.97,204.87 C161.55,196.96 164.97,191.51 165.79,188.87 C166.61,186.23 166.45,175.87 166.45,175.87 C168.45,174.7 168.18,170.14 168.09,166.02 C168,161.9 164.68,165.83 164.68,165.83 Z" id="Path" fill="#A54820"></path>
            <path d="M166.74,177.75 C166.69216,177.098284 166.585051,176.452282 166.42,175.82 C165.35,175.46 164.48,177.02 164.42,178.01 C164.33445,178.93695 164.415735,179.87173 164.66,180.77 C164.670444,180.832903 164.670444,180.897097 164.66,180.96 C164.633037,181.069032 164.577856,181.169047 164.5,181.25 C163.724604,182.2649 163.585442,183.629468 164.14,184.78 C163.479919,185.715715 163.410085,186.945579 163.96,187.95 C163.496914,188.192949 163.140546,188.599209 162.96,189.09 C162.733832,189.620361 162.684735,190.20952 162.82,190.77 C162.314373,191.007448 161.915152,191.424491 161.7,191.94 C161.440471,192.491532 161.360046,193.110456 161.47,193.71 C160.818817,193.917522 160.276054,194.374018 159.96,194.98 C159.565198,195.65866 159.371015,196.435393 159.4,197.22 C158.9,197.14 158.4,197.67 157.99,198.32 C157.627456,198.996792 157.371128,199.725303 157.23,200.48 C156.652375,200.441871 156.098746,200.716776 155.78,201.2 C155.338954,201.774743 155.093632,202.475662 155.08,203.2 C154.727918,203.089339 154.343507,203.181598 154.08,203.44 C153.721971,203.760265 153.47069,204.182558 153.36,204.65 C153.288137,204.486104 153.1528,204.358416 152.985005,204.2962 C152.817209,204.233984 152.631342,204.242573 152.47,204.32 L152.4,204.32 L152.32,204.32 C151.935862,204.606555 151.674927,205.02834 151.59,205.5 C151.405357,205.202354 151.050316,205.05711 150.71,205.14 C150.277859,205.263753 149.916006,205.560473 149.71,205.96 C149.644493,205.420004 149.242366,204.981685 148.71,204.87 C148.117206,204.873521 147.568525,205.183809 147.26,205.69 C147.028301,205.189594 146.642935,204.776202 146.16,204.51 C145.627649,204.275728 145.003937,204.456942 144.68,204.94 C144.63824,204.329471 144.287478,203.782585 143.75,203.49 C143.187579,203.307261 142.570194,203.45389 142.15,203.87 C142.186166,203.359021 141.982953,202.860226 141.6,202.52 C141.211178,202.28241 140.715069,202.314417 140.36,202.6 C140.423581,202.098905 140.258326,201.595797 139.91,201.23 C139.562836,200.982822 139.097164,200.982822 138.75,201.23 C139.13,200.06 138.75,198.78 137.97,198.57 C138.35,197.26 137.86,195.89 136.97,195.77 C136.9,195.77 136.81,195.77 136.78,195.67 C136.768978,195.607146 136.768978,195.542854 136.78,195.48 C136.847335,194.602475 136.641225,193.725633 136.19,192.97 C135.68,192.14 134.85,192.13 133.87,193.03 C133.925006,193.805693 133.925006,194.584307 133.87,195.36 C133.75,196.36 134.52,196.57 134.65,197.52 C134.879734,198.979675 135.241211,200.415542 135.73,201.81 C136.65,204.6 137.32,205.43 139.03,206.39 C142.446034,208.327579 146.387008,209.136073 150.29,208.7 C151.133693,208.573234 151.95108,208.309779 152.71,207.92 L152.77,207.92 L152.83,207.92 C153.675517,207.447049 154.455477,206.86544 155.15,206.19 C158.59,202.99 161.28,198.26 163.73,193.56 C165.202705,191.011943 166.265681,188.248205 166.88,185.37 C167.111936,183.737063 167.155556,182.082891 167.01,180.44 C166.86,179.46 166.83,178.71 166.74,177.75 Z" id="Path" fill="#000000"></path>
            <path d="M157,188.96 C155.724853,189.369356 154.554323,190.051881 153.57,190.96 C152.97507,191.803721 152.225073,192.526569 151.36,193.09 L151.31,192.92 C151.229356,193.046522 151.123898,193.155381 151,193.24 C150.889122,193.273363 150.770878,193.273363 150.66,193.24 L150.66,193.46 C149.908065,193.797711 149.073067,193.905565 148.26,193.77 C146.986271,194.043221 145.798533,194.623359 144.8,195.46 C142.8,196.98 142.55,200.16 142.8,201.23 C142.823138,201.54504 143.021064,201.820463 143.312278,201.942857 C143.603491,202.065251 143.938749,202.01392 144.18,201.81 C144.891505,201.352875 145.279751,200.529793 145.18,199.69 C145.18,198.79 145.1,196.8 147.29,196.55 C149.48,196.3 149.8,197.13 150.94,196.16 C151.084409,196.035126 151.206194,195.886277 151.3,195.72 C151.430019,195.762046 151.569981,195.762046 151.7,195.72 C152.91,195.44 153.04,194.38 155.06,192.4 C157.08,190.42 157.38,192.28 157.56,193.09 C157.74,193.9 158.06,194.36 158.87,193.99 C159.567693,193.614307 159.999156,192.882362 159.99,192.09 C159.93,190.91 159.1,188.3 157,188.96 Z" id="Path" fill="#000000"></path>
            <path d="M98.93,243.76 L103.22,268.68 L89.22,274.01 C89.22,274.01 89.71,259.84 93.41,251.81 C97.11,243.78 98.93,243.76 98.93,243.76 Z" id="Path" fill="#FFF2D6"></path>
            <path d="M202.1,204.4 L197.8,232.59 L211.8,227.26 C211.8,227.26 211.3,213.48 207.6,208.26 C203.9,203.04 202.1,204.4 202.1,204.4 Z" id="Path" fill="#FFF2D6"></path>
            <path d="M202.09,204.4 L169.62,206.86 C169.62,206.86 159.89,219.99 150.51,225.6 C141.13,227.15 131.4,221.44 131.4,221.44 L98.93,243.76 L102.42,268.95 L198.6,232.29 L202.09,204.4 Z" id="Path" fill="#FFFFFF"></path>
            <path d="M131.4,221.46 L133.01,218.73 C133.01,218.73 137.01,228.02 150.39,222.92 C163.77,217.82 167.82,205.12 167.82,205.12 L169.64,206.76 C169.64,206.76 165.21,221.26 150.79,226.76 C135.8,232.46 131.4,221.46 131.4,221.46 Z" id="Path" fill="#FFF2D6"></path>
            <path d="M134.68,188.17 C135.25021,189.671876 136.035031,191.083205 137.01,192.36 C138.946241,194.660101 140.270489,197.411785 140.86,200.36" id="Path" stroke="#933718" stroke-width="0.5"></path>
            <path d="M164.78,171.69 C164.523561,173.831709 164.078499,175.946589 163.45,178.01 C162.190612,181.695646 161.515781,185.555681 161.45,189.45" id="Path" stroke="#933718" stroke-width="0.5"></path>
            <path d="M155.82,186.78 C156.133293,187.558723 155.769781,188.445337 155,188.78 C154.270344,189.13981 153.702751,189.760949 153.41,190.52 C152.847259,191.617228 151.974417,192.524844 150.9,193.13 C150.075174,193.618926 149.063746,193.674909 148.19,193.28 C147.86,193.11 147.62,192.75 146.43,193.28 C145.02,193.94 145.3,192.28 145.3,192.28 C144.88,192.47 144.96,193.09 145.08,193.54 C145.25,194.19 146.17,193.8 146.91,193.45 C147.65,193.1 148.4,193.79 149.09,194.04 C149.717499,194.150192 150.363801,194.040709 150.92,193.73 C151.637188,193.369174 152.242271,192.819413 152.67,192.14 C153.104701,191.127484 153.729283,190.207583 154.51,189.43 C155.25,188.99 156.14,188.43 156.17,187.67 C156.28,187.17 156.24,186.53 155.82,186.78 Z" id="Path" fill="#00437A"></path>
            <path d="M151.68,177.39 C151.8,177.27 151.91,177.78 151.79,178.5 C151.596664,179.519758 151.617095,180.568545 151.85,181.58 C152.337089,183.160099 152.973284,184.690315 153.75,186.15 C154.62,187.64 154.04,187.67 153.88,187.47 C153.321,186.658187 152.82936,185.801997 152.41,184.91 C151.758324,183.543359 151.361814,182.069156 151.24,180.56 C151.190763,179.485279 151.339918,178.410683 151.68,177.39 Z" id="Path" fill="#000000"></path>
            <ellipse id="Oval" fill="#000000" transform="translate(142.123964, 183.683102) rotate(-51.230000) translate(-142.123964, -183.683102) " cx="142.123964" cy="183.683102" rx="1.37" ry="1"></ellipse>
            <ellipse id="Oval" fill="#FFFFFF" transform="translate(142.721114, 182.983822) rotate(-54.120000) translate(-142.721114, -182.983822) " cx="142.721114" cy="182.983822" rx="1" ry="1"></ellipse>
            <path d="M138.29,185.46 C138.29,185.55 138.5,185.59 139.7,184.89 C140.9,184.19 141.37,183.83 141.81,183.62 C142.588355,183.264988 143.394359,182.974024 144.22,182.75 C145.09,182.51 145.15,181.97 144.96,181.98 C144.159754,181.899602 143.352086,182.019893 142.61,182.33 C141.254027,183.101682 139.960125,183.977657 138.74,184.95 C138.37,185.2 138.27,185.27 138.29,185.46 Z" id="Path" fill="#000000"></path>
            <path d="M144.34,176.46 C144.887119,176.558967 145.278807,177.04432 145.26,177.6 C145.26,178.32 145.26,178.53 144.6,179.01 C143.94,179.49 143.14,179.36 141.29,180.57 C139.44,181.78 137.96,183.06 137.29,183.35 C136.62,183.64 135.78,183.2 136.89,181.75 C138,180.3 138.02,180.65 138.73,179.68 C139.44,178.71 140.66,177.73 141.55,177.74 C142.44,177.75 143.2,176.29 144.34,176.46 Z" id="Path" fill="#000000"></path>
            <ellipse id="Oval" fill="#000000" transform="translate(157.064373, 175.765423) rotate(-51.230000) translate(-157.064373, -175.765423) " cx="157.064373" cy="175.765423" rx="1.37" ry="1"></ellipse>
            <ellipse id="Oval" fill="#FFFFFF" transform="translate(156.380914, 175.742570) rotate(-54.120000) translate(-156.380914, -175.742570) " cx="156.380914" cy="175.74257" rx="1" ry="1"></ellipse>
            <path d="M160.84,173.46 C160.84,173.55 160.72,174.01 159.5,174.46 C158.766349,174.717694 158.048448,175.01821 157.35,175.36 C156.386511,175.843051 155.48915,176.448013 154.68,177.16 C153.86,177.85 154.03,177.24 154.2,177.07 C154.811504,176.273706 155.547658,175.581452 156.38,175.02 C157.663221,174.382309 159.002146,173.863475 160.38,173.47 C160.68,173.35 160.83,173.32 160.84,173.46 Z" id="Path" fill="#000000"></path>
            <path d="M153.68,171.52 C153.244506,172.072791 153.030593,172.768008 153.08,173.47 C153.18,174.16 153.21,174.35 153.94,174.06 C154.67,173.77 155.32,172.92 157.21,172.14 C159.1,171.36 160.68,171.03 161.38,170.57 C162.08,170.11 162.7,168.92 161.43,168.73 C160.16,168.54 160.2,168.88 159.38,168.73 C158.28744,168.597821 157.198704,169.004233 156.46,169.82 C155.68,170.73 154.68,170.22 153.68,171.52 Z" id="Path" fill="#000000"></path>
            <path d="M131.97,220.46 L133.53,217.8 C133.53,217.8 137.04,226.54 150.39,221.45 C158.2086,218.55501 164.368914,212.383734 167.25,204.56 L169.07,206.21 C169.07,206.21 164.63,220.01 150.79,225.29 C136.26,230.86 131.97,220.46 131.97,220.46 Z" id="Path" fill="#FFFFFF"></path>
            <path d="M145.68,163.37 C145.68,163.37 144.06,165.97 146.04,166.86 C145.217564,167.747574 144.948722,169.014972 145.34,170.16 C145.99,172.16 146.83,172.16 146.83,172.16 C146.83,172.16 145.01,175.29 143.83,173.06 C143.122157,171.703452 143.122157,170.086548 143.83,168.73 C143.83,168.73 141.92,167.9 142.83,164.93 L145.68,163.37 Z" id="Path" fill="#000000"></path>
            <path d="M157.15,191.26 C156.083729,193.559357 154.267805,195.428171 152,196.56 L151.38,196.9 C151.153333,197.013333 150.943333,197.123333 150.75,197.23 C146.65,199.23 145.14,197.76 145.14,197.76 C144.677214,198.925355 145.215244,200.248379 146.36,200.76 C148.126806,201.592174 150.201254,201.432601 151.82,200.34 C153.82,199.27 154.82,198.28 156.6,195.34 C158.53,192.07 157.15,191.26 157.15,191.26 Z" id="Path" fill="#5B0D00"></path>
            <path d="M155.78,191.26 C154.59,191.77 153.48,193.08 152.33,194.12 C152.19,194.25 152.05,194.37 151.92,194.47 C151.349064,194.911779 150.68601,195.219381 149.98,195.37 C148.74,195.59 147.5,195.53 146.33,196.27 C145.17323,196.964797 144.673657,198.383752 145.14,199.65 C145.14,199.65 144.72,198.44 147.55,198.34 C148.303802,198.280076 149.052368,198.166455 149.79,198 C149.932456,197.988417 150.073261,197.961597 150.21,197.92 C150.525574,197.847244 150.831144,197.736433 151.12,197.59 C152.12,197.12 153.04,196.44 155.05,194.28 C157.61,191.53 157.56,192.86 157.56,192.86 C157.88,191.39 156.97,190.76 155.78,191.26 Z" id="Path" fill="#7A1A00"></path>
            <path d="M151.33,196.89 C151.48,197 152.7,196.57 152.67,196.26 C152.64,195.95 151.77,196.4 151.54,196.49 C151.31,196.58 151.16,196.76 151.33,196.89 Z" id="Path" fill="#F14C0E"></path>
            <path d="M145.619988,197.4 C146.036721,197.010704 146.535718,196.720192 147.08,196.55 C147.64,196.38 148.29,196.62 149.14,196.36 C149.633721,196.211714 150.112477,196.017533 150.57,195.78 C149.786339,195.988232 148.980663,196.10237 148.17,196.12 C147.4621,196.018421 146.742816,196.201838 146.17,196.63 C145.61,197.09 145.619988,197.4 145.619988,197.4 Z" id="Path" fill="#D73021"></path>
            <path d="M166.25,157.78 C165.62,156.29 165.79,154.9 165.48,153.68 C165.17,152.46 163.34,152.46 163.34,152.46 C163.34,152.46 161.89,147.07 156.64,150.03 C156.64,150.03 155,145.91 146.64,150.8 L146.52,150.87 L146.41,150.87 C137.98,154.87 137.3,160.21 137.3,160.21 C132.01,162.84 131.76,169.13 131.76,169.13 C131.76,169.13 130.12,170.96 130.08,172.38 C130.04,173.8 130.46,174.86 130.18,176.83 C129.24,182.02 132.18,182.53 132.18,182.53 L133.37,182.91 C134.29,182.14 135.5,180.07 134.95,176.84 C134.4,173.61 136.01,168.6 138.95,167.3 C141.6,166.11 146.95,163.19 147.82,162.71 C148.69,162.23 154.06,159.51 156.67,157.91 C159.52,156.17 161.93,159.05 162.07,162.5 C162.21,165.95 163.69,166.58 164.67,166.35 L165.67,164.82 C167.08029,162.735927 167.300192,160.066783 166.25,157.78 Z" id="Path" fill="#3D0700"></path>
            <g id="Group" transform="translate(128.000000, 147.000000)" fill="#000000">
                <path d="M28.68,4.1 C28.4673509,4.96532132 27.9881006,5.74191678 27.31,6.32 C27.84,6.61 27.93,7.51 27.86,8.32 C27.7843757,9.09774892 27.6268356,9.8653381 27.39,10.61 C27.2452335,11.1032279 27.0403627,11.5767818 26.78,12.02 C25.9831031,13.1486747 24.7970889,13.9429124 23.45,14.25 C24.2112751,13.0865178 24.7378118,11.7854626 25,10.42 C25.2,9.1 24.93,7.79 24.15,7.26 C25.1457436,6.51033866 25.7749442,5.37195843 25.88,4.13 C26.0080813,3.09341943 25.6920837,2.05099049 25.01,1.26 C25.4861233,1.18237901 25.9570146,1.07551007 26.42,0.94 C26.8919294,0.933842734 27.3572845,1.05104329 27.77,1.28 C28.7123144,1.87862175 29.0946648,3.06348779 28.68,4.1 Z" id="Path"></path>
                <path d="M29.51,10.63 C30.3826468,10.6241694 31.1955735,10.1858633 31.68,9.46 C32.3017928,8.65198048 32.6139406,7.64814155 32.56,6.63 C32.6017256,6.92915952 32.7149201,7.21386084 32.89,7.46 C33.25,7.84 33.95,7.59 34.42,7.04 C34.8742621,6.45860394 35.1705127,5.76964922 35.28,5.04 C35.28,4.95 35.39,4.91 35.46,4.9 C36.1296826,4.74554905 36.8313803,4.81221032 37.46,5.09 C38.1003229,5.45913268 38.4848693,6.15131613 38.46,6.89 C38.4854868,7.82940551 38.0848317,8.72996066 37.37,9.34 C36.856515,9.76505394 36.1925186,9.96353115 35.53,9.89 C34.9327016,9.77598681 34.4349332,9.36495079 34.21,8.8 C33.9032351,9.87164772 33.1839903,10.7778962 32.21,11.32 C31.438525,11.7506772 30.4642351,11.4837484 30.02,10.72 C30.02,10.72 30.02,10.72 29.96,10.72 C29.9,10.72 29.96,10.79 29.96,10.72" id="Path"></path>
                <path d="M22.05,3.46 C21.9327321,4.18542116 21.5815686,4.85263181 21.05,5.36 C21.7762095,5.64299379 22.2718693,6.32208664 22.32,7.1 C22.3976495,8.10122045 22.0779176,9.09274867 21.43,9.86 C21.9375646,10.1853594 22.2547502,10.7376355 22.28,11.34 C22.4590404,12.6649195 22.2723036,14.0135743 21.74,15.24 C21.6803108,15.4092194 21.5886475,15.5653865 21.47,15.7 C21.3972996,15.7635449 21.3166186,15.8173323 21.23,15.86 C20.5180232,16.2619648 19.783472,16.6225626 19.03,16.94 C18.8712606,17.0193273 18.6973437,17.0636591 18.52,17.07 C18.36,17.07 17.69,17.57 17.58,17.46 C16.97,16.89 16.85,15.23 16.99,14.16 C17.1403788,13.0119541 17.5140743,11.9044565 18.09,10.9 C17.6962427,10.5292852 17.3801152,10.0839874 17.16,9.59 C16.9867095,9.22599855 16.9207996,8.82013246 16.97,8.42 C17.1007875,7.90457632 17.3355979,7.42134336 17.66,7 C17.4,6.67 16.98,6.59 16.66,6.36 C16.1661549,5.95094867 15.8983985,5.32990257 15.94,4.69 C15.9356553,4.58017662 15.9561653,4.47078974 16,4.37 C16.043034,4.28428473 16.1045036,4.20915514 16.18,4.15 C17.0023064,3.39537723 17.928357,2.76229535 18.93,2.27 C20.19,1.7 22.43,1.14 22.05,3.46 Z" id="Path"></path>
                <path d="M9.44,13.46 C9.66952167,14.294504 10.4985676,14.8153706 11.35,14.66 C10.8829282,15.7864687 10.8124082,17.0381982 11.15,18.21 C11.4071403,18.7644405 11.7948846,19.248263 12.28,19.62 C12.4379344,19.7965887 12.6630952,19.8982742 12.9,19.9 C13.1481789,19.830193 13.375026,19.699584 13.56,19.52 L14.27,18.92 C14.41,18.79 14.54,19.31 14.62,19.11 C14.79,18.68 14.47,18.19 14.22,17.63 C13.6112274,16.2717611 13.6112274,14.7182389 14.22,13.36 C13.3496585,12.9730695 12.6421177,12.2938303 12.22,11.44 C11.7305346,10.3224064 11.6840646,9.06056874 12.09,7.91 C11.86,7.75 11.49,8.06 11.23,8.37 C9.91,9.83 8.85,11.79 9.44,13.46 Z" id="Path"></path>
                <path d="M4.23,22.38 C4.98353728,22.5389675 5.76140815,22.2511553 6.23,21.64 C6.35692011,22.2233479 6.87300478,22.6395452 7.47,22.64 C8.13981662,22.5773771 8.75958434,22.2585371 9.2,21.75 C8.98,22.75 8.75,23.68 8.49,24.64 C8.45777377,24.7871551 8.40385111,24.928702 8.33,25.06 C8.25090371,25.1904856 8.14529227,25.3029107 8.02,25.39 C7.58171675,25.7278047 7.00263649,25.8218112 6.48,25.64 C6.01702208,25.4442626 5.61603125,25.1262354 5.32,24.72 C4.93895966,25.7649949 4.23938403,26.6639496 3.32,27.29 C2.9635833,27.5421555 2.53656459,27.6751614 2.1,27.67 C1.17,27.6 0.68,26.43 0.81,25.17 C1.01298161,23.8579249 1.51979224,22.6114447 2.29,21.53 C2.75,20.84 3.14,20.46 3.36,21.16 C3.58,21.86 3.73,22.2 4.23,22.38 Z" id="Path"></path>
            </g>
            <path d="M126.58,234.55 C128.67,235.95 129.26,230.62 130.31,231.2 C131.36,231.78 129.98,236.11 132.57,235.2 C135.16,234.29 134.08,240.06 131.97,240.2 C129.86,240.34 128.44,237.91 127.46,241.13 C126.48,244.35 123.57,243.18 124.72,241 C125.87,238.82 126.05,238.79 124.81,238.16 C123.57,237.53 125.51,233.84 126.58,234.55 Z" id="Path" fill="#A9975B"></path>
            <ellipse id="Oval" fill="#A9975B" transform="translate(127.998867, 244.431603) rotate(-81.640000) translate(-127.998867, -244.431603) " cx="127.998867" cy="244.431603" rx="1.18" ry="1"></ellipse>
            <path d="M145.12,184.14 C145.12,184.14 144.48,188.82 140.27,190.65" id="Path" fill="#933718"></path>
            <path d="M154.17,179.46 C154.17,179.46 156.17,182.34 159.95,179.76" id="Path" fill="#933718"></path>
            <path d="M134.34,168.83 C134.34,168.83 131.52,170.47 130.26,166.57 C129,162.67 126.1,166.38 126.26,167.77" id="Path" stroke="#3D0700"></path>
            <path d="M130.96,176.99 C130.96,176.99 129.2,175.16 127.84,178.18" id="Path" stroke="#3D0700"></path>
            <path d="M137.68,160.46 C136.62,158.54 137.68,158.46 136.85,157.3 C136.02,156.14 134.47,157.14 134,158.39 L134.22,159.56 C134.22,159.56 135.07,158.36 135.5,158.44 C135.93,158.52 136.07,158.44 136.5,160.91 L137.68,160.46 Z" id="Path" fill="#3D0700"></path>
            <path d="M144,152.6 C143.330321,150.669402 143.956344,148.526477 145.56,147.26" id="Path" stroke="#3D0700"></path>
            <path d="M153.59,149.53 C153.59,147.88 153.51,147.39 154.17,146.31 C154.83,145.23 156.87,144.06 157.59,145.8 L158.8,143.6 C158.8,143.6 155.63,142.43 153.43,144.6 C152.13,145.9 152.03,147.22 152.11,149.25 C152.19,151.28 153.59,149.53 153.59,149.53 Z" id="Path" fill="#3D0700"></path>
            <path d="M144.48,176.64 L135.54,180.05 C133.61985,181.010466 132.461634,183.027496 132.6,185.17 L132.79,187.52 C133.01,190.11 134.79,191.44 137.02,190.61 L141.75,188.8 C144.23,187.86 146.4,185.02 147.09,181.8 L147.42,180.27 C147.98,177.7 146.51,175.87 144.48,176.64 Z M146.48,180.8 L146.19,182.05 C145.621506,184.60338 143.889261,186.742777 141.51,187.83 L137.39,189.46 C136.579018,189.855535 135.620325,189.79866 134.861798,189.310013 C134.10327,188.821366 133.655133,187.971954 133.68,187.07 L133.51,185.17 C133.428764,183.368772 134.449764,181.698764 136.09,180.95 L143.94,177.95 C145.68,177.22 147.01,178.67 146.52,180.8 L146.48,180.8 Z" id="Shape" fill="#3A7BEB" fill-rule="nonzero"></path>
            <path d="M141.55,187.83 L137.39,189.46 C136.579018,189.855535 135.620325,189.79866 134.861798,189.310013 C134.10327,188.821366 133.655133,187.971954 133.68,187.07 L133.51,185.17 C133.428764,183.368772 134.449764,181.698764 136.09,180.95 L143.94,177.95 C145.72,177.26 147.01,178.71 146.52,180.84 L146.23,182.09 C145.650251,184.62835 143.919607,186.750977 141.55,187.83 Z" id="Path" fill="#FFFFFF" opacity="0.4"></path>
            <path d="M151.13,178.9 L151.46,180.17 C152.15,182.83 154.32,184.01 156.79,183.07 L161.53,181.26 C163.71,180.43 165.53,177.7 165.76,174.95 L165.95,172.44 C166.13,170.24 164.76,168.91 163.01,169.57 L154.07,172.98 C151.87878,174.076206 150.679191,176.491705 151.13,178.9 Z M154.61,173.83 L162.46,170.83 C163.99,170.24 165.19,171.29 165.04,173.08 L164.87,175.08 C164.650848,177.358843 163.238365,179.350026 161.16,180.31 L157,181.89 C156.096783,182.342051 155.035977,182.354177 154.122663,181.922889 C153.209349,181.491602 152.54475,180.664702 152.32,179.68 L152.03,178.68 C151.692589,176.665638 152.751011,174.675968 154.61,173.83 Z" id="Shape" fill="#3A7BEB" fill-rule="nonzero"></path>
            <path d="M157,181.93 L161.16,180.35 C163.238365,179.390026 164.650848,177.398843 164.87,175.12 L165.04,173.12 C165.19,171.33 163.99,170.28 162.46,170.87 L154.61,173.87 C152.742813,174.71797 151.682776,176.718892 152.03,178.74 L152.32,179.74 C152.549702,180.721079 153.21631,181.542801 154.128941,181.969866 C155.041572,182.39693 156.099579,182.382239 157,181.93 Z" id="Path" fill="#FFFFFF" opacity="0.4"></path>
            <path d="M149.31,175.73 L149.1,175.8 C147.994068,176.16976 146.844105,176.391683 145.68,176.46 L147.39,180.28 C147.666104,179.254564 148.329313,178.37626 149.24,177.83 C150.028755,177.602279 150.854934,178.046461 151.1,178.83 L152.81,173.7 C151.714657,174.492782 150.542039,175.1729 149.31,175.73 Z" id="Path" fill="#1571CB"></path>
            <path d="M257.93,55.01 L139.82,99.46 C136.59,100.68 133.92,104.66 133.82,108.34 L132.07,222.67 C132.02,226.36 134.59,228.37 137.82,227.15 L255.93,182.73 C259.17,181.52 261.83,177.54 261.93,173.86 L263.68,59.46 C263.73,55.8 261.16,53.79 257.93,55.01 Z" id="Path" fill="#FF96CC" opacity="0.2"></path>
            <ellipse id="Oval" fill="#FFFFFF" transform="translate(229.799275, 91.330700) rotate(-52.660000) translate(-229.799275, -91.330700) " cx="229.799275" cy="91.3306998" rx="17.87" ry="13.16"></ellipse>
            <path d="M226.18,87.36 C228.81,84.64 229.84,83.36 231.7,78.6 C233.15,74.91 234.64,77.91 234.42,80.26 C234.206405,82.4925128 233.503031,84.6504365 232.36,86.58 C234.488457,85.3650493 236.77291,84.4465578 239.15,83.85 C240.44,83.53 241.29,85.26 240.36,86.53 C240.002251,87.0271826 239.562669,87.4600022 239.06,87.81 C239.86,87.32 241.22,86.81 241.26,88.31 C241.26,89.47 240.57,90.09 239.54,90.54 C239.958516,90.4132479 240.409779,90.4526439 240.8,90.65 C241.44,91 241.26,92.44 240.59,93.15 C240.23531,93.5909036 239.809447,93.9694482 239.33,94.27 C240.71,93.8 240.53,95.77 239.66,96.51 C238.728295,97.2969933 237.72376,97.9934706 236.66,98.59 C235.174855,99.4547611 233.646164,100.242471 232.08,100.95 C228.235675,102.740039 224.05984,103.707361 219.82,103.79 C219.69,100.52 219.66,94.56 219.73,91.97 C222.216988,90.9699067 224.428565,89.3892293 226.18,87.36 Z" id="Path" fill="#A54820"></path>
            <path d="M237.6,85.46 C235.14,87.01 233.53,87.87 231.09,89.53 C230.318591,89.9773171 229.639753,90.5679057 229.09,91.27 C228.653368,91.9015936 228.756334,92.7596422 229.33,93.27 C229.612457,93.4133785 229.923338,93.4919527 230.24,93.5 C229.535085,93.8619774 229.015774,94.5047617 228.81,95.27 C228.66,96 229.11,96.66 229.81,96.55 C229.11134,96.8989231 228.781374,97.7131242 229.04,98.45 C229.451417,98.99437 230.197132,99.1596137 230.8,98.84 C230.328303,99.2395671 230.081825,99.844559 230.14,100.46 C230.27,101.46 231.48,101.16 232.03,101.02 C230.35,100.31 231.21,98.93 231.97,98.02 C231.43,98.2 230.74,98.41 230.3,98.02 C229.86,97.63 230.11,96.96 230.3,96.64 C230.628139,96.257036 231.038277,95.9528505 231.5,95.75 C231.07,95.81 230.59,95.85 230.3,95.43 C230.070665,94.9985841 230.070665,94.4814159 230.3,94.05 C230.630814,93.4146588 231.187255,92.9259894 231.86,92.68 C231.45,92.68 230.98,92.68 230.68,92.58 C230.11,92.43 229.89,91.41 230.68,90.68 C233,88.46 235.45,87.46 237.6,85.46 Z" id="Path" fill="#7A250E"></path>
            <path d="M232.68,77.06 C232.800059,77.8279743 232.703077,78.6142187 232.4,79.33 C232.16537,79.7143686 231.702771,79.8944957 231.27,79.77 C231.27,79.77 232.02,77.46 232.68,77.06 Z" id="Path" fill="#7A250E"></path>
            <path d="M331.59,174.87 L331.59,163.65 C331.5846,163.188336 331.211664,162.8154 330.75,162.81 L316.08,162.81 C315.618336,162.8154 315.2454,163.188336 315.24,163.65 L315.24,178.32 C315.2454,178.781664 315.618336,179.1546 316.08,179.16 L327.29,179.16 C327.517162,179.157327 327.73594,179.245699 327.897516,179.405396 C328.059091,179.565092 328.150016,179.782823 328.15,180.01 L328.15,191.23 C328.15,191.688396 328.521604,192.06 328.98,192.06 L343.68,192.06 C343.90013,192.06 344.111243,191.972554 344.266899,191.816899 C344.422554,191.661243 344.51,191.45013 344.51,191.23 L344.51,176.55 C344.51,176.091604 344.138396,175.72 343.68,175.72 L332.44,175.72 C331.970558,175.72 331.59,175.339442 331.59,174.87 Z" id="Path" fill="#F14C0E"></path>
            <rect id="Rectangle" fill="#FF96CC" x="292.82" y="223.08" width="16.35" height="16.35" rx="0.81"></rect>
            <rect id="Rectangle" fill="#FFC239" x="371.73" y="202.48" width="16.35" height="16.35" rx="0.81"></rect>
            <rect id="Rectangle" fill="#FF96CC" x="319.82" y="72.07" width="16.35" height="16.35" rx="1.31"></rect>
            <path d="M81.53,270.65 C81.53,270.65 86.83,281.06 100.53,286.07 C114.23,291.08 203.61,327.8 206.87,328.98 C210.13,330.16 213.41,330.03 219.75,327.39 C224.91,325.25 343.64,281.27 345.92,280.26 C348.2,279.25 350.21,277.16 350.2,275.26 C350.19,273.36 350.49,275.99 343.53,278.61 C336.57,281.23 219.31,325.09 216.53,326.1 C213.75,327.11 212.01,327.93 204.35,324.95 C196.69,321.97 99.85,282.74 95.75,281.08 C90.3288123,278.642802 85.4831737,275.088652 81.53,270.65 Z" id="Path" fill="#1571CB"></path>
            <path d="M167.16,215.02 C167.16,215.02 175.79,220.54 179.41,219.9 C184.41,219 186.01,213.99 186.01,213.99 C184.909123,215.503224 183.556044,216.81571 182.01,217.87 C179.34,219.5 175.95,217.19 175.95,217.19 C175.95,217.19 170.11,214.31 167.56,211.84 L167.16,215.02 Z" id="Path" fill="#240115"></path>
            <path d="M189.05,313.41 L276.28,281.26" id="Path" stroke="#5291EE"></path>
            <path d="M179.41,309.55 L266.64,277.4" id="Path" stroke="#5291EE"></path>
            <path d="M169.78,305.7 L257.01,273.55" id="Path" stroke="#5291EE"></path>
            <path d="M160.15,301.85 L247.37,269.7" id="Path" stroke="#5291EE"></path>
            <path d="M150.51,297.99 L237.74,265.84" id="Path" stroke="#5291EE"></path>
            <path d="M148.21,290.99 L196.96,310.49" id="Path" stroke="#5291EE"></path>
            <path d="M156.14,288.07 L213.72,311.1" id="Path" stroke="#5291EE"></path>
            <path d="M164.07,285.14 L212.82,304.65" id="Path" stroke="#5291EE"></path>
            <path d="M172,282.22 L220.75,301.72" id="Path" stroke="#5291EE"></path>
            <path d="M179.94,279.3 L228.68,298.8" id="Path" stroke="#5291EE"></path>
            <path d="M188,276.32 L236.75,295.83" id="Path" stroke="#5291EE"></path>
            <path d="M195.94,273.4 L244.68,292.9" id="Path" stroke="#5291EE"></path>
            <path d="M203.87,270.48 L261.44,293.51" id="Path" stroke="#5291EE"></path>
            <path d="M211.8,267.55 L260.55,287.06" id="Path" stroke="#5291EE"></path>
            <path d="M219.73,264.63 L268.48,284.13" id="Path" stroke="#5291EE"></path>
            <g id="Group" opacity="0.5" transform="translate(116.000000, 112.000000)" fill="#FFC239">
                <path d="M126.36,1.3 L8.25,45.72 C5.02,46.94 2.36,50.91 2.3,54.6 L0.55,168.93 C0.49,172.62 3.07,174.63 6.3,173.41 L124.41,128.99 C127.64,127.78 130.3,123.8 130.41,120.11 L132.16,5.78 C132.17,2.09 129.59,0.09 126.36,1.3 Z" id="Path"></path>
            </g>
            <path d="M164.42,229.72 C164.109816,227.655874 163.916175,225.575911 163.84,223.49 C164.01,222.9 165.11,221.67 167.25,220.12 C169.39,218.57 194.5,209.75 196.13,209.37 C197.76,208.99 198.86,209.93 198.8,210.71 C198.74,211.49 198.2,217.15 198.2,217.15 L164.42,229.72 Z" id="Path" fill="#00437A"></path>
            <polygon id="Path" fill="#F4F4F4" points="198.2 217.15 196.68 257.6 165.85 269.07 164.42 229.72 181.24 235.03"></polygon>
            <polygon id="Path" fill="#933718" points="194.75 201.63 167.62 211.73 165.85 224.49 181.31 238.17 196.68 212.48"></polygon>
            <path d="M196.92,175.09 C196.92,175.09 195.56,162.44 194.31,159.38 C193.31,156.88 184.48,161.17 181.31,162.82 C178.14,163.53 169.31,165.82 168.31,169.06 C167.05,173.06 165.69,186.71 165.69,186.71 C165.69,186.71 162.13,185.71 162.44,189.95 C162.75,194.19 162.97,198.95 164.96,198.38 C164.96,198.38 165.8,208.92 166.84,210.83 C167.88,212.74 171.66,215.14 177.73,218.04 C178.491354,218.384709 179.326115,218.535859 180.16,218.48 L180.23,218.48 C180.597912,218.436665 180.95802,218.342431 181.3,218.2 C181.670974,218.069404 182.026447,217.898374 182.36,217.69 L182.43,217.69 C183.334817,217.053026 184.148924,216.296108 184.85,215.44 C190.93,208.02 194.7,202.82 195.74,200.13 C196.78,197.44 197.68,186.21 197.68,186.21 C199.68,185.33 199.88,180.37 200.19,175.92 C200.5,171.47 196.92,175.09 196.92,175.09 Z" id="Path" fill="#A54820"></path>
            <path d="M188.15,203.13 L188.15,202.59 C188.15,202.59 187.7,199.95 184.1,203.36 C180.5,206.77 177.37,204.29 175.8,205.85 C174.23,207.41 174.48,208.1 174.48,208.1 C174.603821,208.70465 174.911122,209.256395 175.36,209.68 C176.02,210.15 179.62,212.25 183.75,209.06 C187.88,205.87 188.15,203.13 188.15,203.13 Z" id="Path" fill="#FFFFFF"></path>
            <path d="M199,165.46 C199.23,158.6 197.23,154.4 192.55,154.54 C188.78,154.64 183.24,156.97 181.24,157.86 C179.24,158.45 173.69,160.26 169.92,162.96 C165.24,166.31 163.25,171.96 163.48,178.68 C163.71,185.4 163.23,187.19 163.23,187.19 C163.23,187.19 164.69,185.99 165.62,187.34 C165.62,187.34 167.87,186.25 167.9,179.65 C167.93,173.05 171.42,171.42 180.55,168.21 L181.24,167.95 L181.92,167.7 C191.05,164.11 194.55,163.15 194.58,169.7 C194.61,176.25 196.85,175.7 196.85,175.7 C197.78,173.64 199.25,173.76 199.25,173.76 C199.25,173.76 198.76,172.29 199,165.46 Z" id="Path" fill="#000000"></path>
            <path d="M164.46,190.97 C164.986056,193.296333 165.802456,195.547312 166.89,197.67 C169.073935,201.539399 170.400568,205.833054 170.78,210.26 C169.68,208.94 165.39,201.46 164.46,190.97 Z" id="Path" fill="#933718"></path>
            <path d="M197.91,178.52 C197.337674,181.419213 196.524864,184.265719 195.48,187.03 C193.439288,191.977459 192.128909,197.195394 191.59,202.52 C194.970761,194.910926 197.10472,186.807284 197.91,178.52 Z" id="Path" fill="#933718"></path>
            <path d="M181.31,206.2 L181.31,209.31" id="Path" stroke="#E2DCE2" stroke-width="0.47"></path>
            <path d="M177.64,206.34 L177.64,209.66" id="Path" stroke="#E2DCE2" stroke-width="0.47"></path>
            <path d="M179.41,206.52 L179.41,209.83" id="Path" stroke="#E2DCE2" stroke-width="0.47"></path>
            <path d="M175.98,206.14 L175.98,209.45" id="Path" stroke="#E2DCE2" stroke-width="0.47"></path>
            <path d="M185.04,203.59 L185.04,206.9" id="Path" stroke="#E2DCE2" stroke-width="0.47"></path>
            <path d="M183.27,205.08 L183.27,208.39" id="Path" stroke="#E2DCE2" stroke-width="0.47"></path>
            <path d="M186.71,202.14 L186.71,205.46" id="Path" stroke="#E2DCE2" stroke-width="0.47"></path>
            <path d="M186.04,200.74 C184.87,201.05 183.69,202.24 182.49,203.14 L182.07,203.43 C181.484743,203.790031 180.816609,203.993227 180.13,204.02 C178.94,204.02 177.76,203.7 176.58,204.26 C175.4,204.82 174.05,206.88 174.48,208.1 C174.48,208.1 174.84,206.1 177.55,206.53 C178.261137,206.661755 178.978838,206.755223 179.7,206.81 C179.835915,206.830267 179.974085,206.830267 180.11,206.81 C180.417573,206.797486 180.721273,206.736747 181.01,206.63 C182.01,206.33 182.95,205.63 185.07,203.73 C187.77,201.27 188.14,203.01 188.14,203.01 C188.339488,202.399755 188.192885,201.729332 187.756896,201.258048 C187.320906,200.786764 186.663899,200.588522 186.04,200.74 Z" id="Path" fill="#7A1A00"></path>
            <path d="M188.14,203.01 C186.690575,205.432155 184.5239,207.343721 181.94,208.48 C181.75,208.55 181.54,208.62 181.31,208.72 C181.08,208.8 180.87,208.87 180.68,208.95 C176.58,210.35 174.48,208.1 174.48,208.1 C174.39712,209.54446 175.100728,210.921085 176.32,211.7 C178.32,213.12 180.06,212.09 181.32,211.53 C183.41459,211.115531 185.233226,209.827937 186.32,207.99 C188.44,204.83 188.14,203.01 188.14,203.01 Z" id="Path" fill="#7A1A00"></path>
            <path d="M182.08,209.38 C182.23,209.51 183.45,209.09 183.41,208.76 C183.37,208.43 182.51,208.88 182.29,208.96 C182.07,209.04 181.91,209.24 182.08,209.38 Z" id="Path" fill="#F14C0E"></path>
            <path d="M175.8,205.34 C176.223134,205.005828 176.726579,204.788588 177.26,204.71 C177.81,204.64 178.41,205.03 179.26,204.92 C179.742126,204.859175 180.215395,204.741697 180.67,204.57 C179.902371,204.642128 179.128472,204.60848 178.37,204.47 C177.739214,204.22687 177.031844,204.285818 176.45,204.63 C175.81,205 175.8,205.34 175.8,205.34 Z" id="Path" fill="#D73021"></path>
            <path d="M186.52,195.91 C186.753005,196.73486 186.319691,197.601488 185.52,197.91 C184.777619,198.181189 184.175693,198.739863 183.85,199.46 C183.244853,200.502905 182.313758,201.318052 181.2,201.78 C180.361258,202.116879 179.407923,201.995821 178.68,201.46 C178.39,201.2 178.2,200.77 177.01,201.15 C175.61,201.59 176.01,199.88 176.01,199.88 C175.59,200.01 175.61,200.69 175.68,201.2 C175.78,201.93 176.68,201.7 177.43,201.47 C178.18,201.24 178.81,202.12 179.43,202.53 C179.996378,202.766111 180.633622,202.766111 181.2,202.53 L181.26,202.53 C181.98731,202.265622 182.618067,201.788198 183.07,201.16 C183.65,200.23 184.46,198.87 185.07,198.6 C185.68,198.33 186.72,197.84 186.82,197.03 C186.92,196.46 186.94,195.73 186.52,195.91 Z" id="Path" fill="#00437A"></path>
            <path d="M183.45,184.97 C183.57,184.86 183.63,185.43 183.45,186.19 C183.16137,187.275042 183.079947,188.404783 183.21,189.52 C183.518416,191.31974 183.969847,193.092023 184.56,194.82 C185.24,196.6 184.69,196.51 184.56,196.26 C184.107161,195.272066 183.726173,194.252754 183.42,193.21 C182.922747,191.621942 182.686345,189.963748 182.72,188.3 C182.9,186.89 183.14,185.25 183.45,184.97 Z" id="Path" fill="#6EFFFF"></path>
            <ellipse id="Oval" fill="#000000" transform="translate(173.795294, 189.846637) rotate(-54.110000) translate(-173.795294, -189.846637) " cx="173.795294" cy="189.846637" rx="1.35" ry="1"></ellipse>
            <ellipse id="Oval" fill="#FFFFFF" transform="translate(174.442820, 189.210331) rotate(-57.670000) translate(-174.442820, -189.210331) " cx="174.44282" cy="189.210331" rx="1" ry="1"></ellipse>
            <path d="M169.99,190.99 C169.99,191.09 170.1,191.18 171.3,190.5 C172.5,189.82 173.09,189.61 173.53,189.38 C174.373593,189.001874 175.315198,188.900363 176.22,189.09 C176.96,189.41 176.84,188.59 176.66,188.56 C175.9304,188.316532 175.14665,188.28532 174.4,188.47 C173.028406,189.038959 171.709918,189.728321 170.46,190.53 C170.09,190.75 169.99,190.82 169.99,190.99 Z" id="Path" fill="#000000"></path>
            <path d="M176.61,182.53 C177.145695,182.776569 177.455059,183.34645 177.37,183.93 C177.37,184.72 177.37,184.93 176.61,185.32 C175.85,185.71 175.19,185.41 173.32,186.32 C171.45,187.23 169.91,188.32 169.2,188.52 C168.49,188.72 167.78,188.06 168.98,186.71 C170.18,185.36 170.16,185.71 170.92,184.86 C171.68,184.01 172.92,183.13 173.8,183.32 C174.68,183.51 175.54,182.11 176.61,182.53 Z" id="Path" fill="#000000"></path>
            <ellipse id="Oval" fill="#000000" transform="translate(188.768670, 184.273475) rotate(-54.110000) translate(-188.768670, -184.273475) " cx="188.76867" cy="184.273475" rx="1.35" ry="1"></ellipse>
            <ellipse id="Oval" fill="#FFFFFF" transform="translate(189.310222, 183.655788) rotate(-57.670000) translate(-189.310222, -183.655788) " cx="189.310222" cy="183.655788" rx="1" ry="1"></ellipse>
            <path d="M185.96,179.05 C185.469471,179.600603 185.198918,180.312585 185.2,181.05 C185.2,181.82 185.2,182.05 185.96,181.87 C186.72,181.69 187.38,180.87 189.26,180.44 C191.14,180.01 192.66,179.93 193.37,179.58 C194.08,179.23 194.79,178.06 193.59,177.58 C192.39,177.1 192.41,177.49 191.65,177.17 C190.653979,176.806515 189.538005,177.039009 188.77,177.77 C187.92,178.59 187.03,177.84 185.96,179.05 Z" id="Path" fill="#000000"></path>
            <path d="M192.58,182.58 C192.58,182.68 192.47,182.86 191.27,183.07 C190.517023,183.207541 189.772485,183.387832 189.04,183.61 C188.023761,183.965546 187.103231,184.550716 186.35,185.32 C185.61,186.19 185.73,185.32 185.91,185.12 C186.557126,184.402996 187.321325,183.801105 188.17,183.34 C189.450337,182.916791 190.770502,182.625283 192.11,182.47 C192.49,182.46 192.58,182.46 192.58,182.58 Z" id="Path" fill="#000000"></path>
            <path d="M200.98,213.99 L233.15,216.1 C233.15,216.1 228.83,227.1 229.06,245.55 L203.59,255.02 L200.98,213.99 Z" id="Path" fill="#1571CB"></path>
            <path d="M233.15,216.1 C233.15,216.1 234.54,214.61 236.15,217.1 C237.76,219.59 241.55,226.1 241.63,240.85 L229.05,245.54 C229.05,245.54 227.36,224.63 233.15,216.1 Z" id="Path" fill="#00437A"></path>
            <path d="M198.8,210.71 L194.4,258.46 L206.52,253.95 C206.52,253.95 211.15,237.73 210.61,236.73 C210.07,235.73 203.9,231.09 203.9,231.09 C203.9,231.09 208.45,227.84 208.6,226.68 C208.75,225.52 198.8,210.71 198.8,210.71 Z" id="Path" fill="#00437A"></path>
            <path d="M161.62,228.46 L129.45,254.52 C129.45,254.52 133.78,262.47 133.55,281.05 L159.02,271.58 L161.62,228.46 Z" id="Path" fill="#1571CB"></path>
            <path d="M129.45,254.55 C129.45,254.55 128.06,254.09 126.45,257.79 C124.84,261.49 121.06,270.94 120.98,285.79 L133.56,281.1 C133.56,281.1 135.24,258.77 129.45,254.55 Z" id="Path" fill="#00437A"></path>
            <path d="M163.8,223.58 L168.2,268.19 L156.08,272.7 C156.08,272.7 151.45,259.78 151.99,258.38 C152.53,256.98 158.68,247.74 158.68,247.74 C158.68,247.74 154.13,247.88 153.97,246.84 C153.81,245.8 163.8,223.58 163.8,223.58 Z" id="Path" fill="#00437A"></path>
            <path d="M178.49,238.28 C178.49,238.28 179.88,240.56 181.31,240.03 C182.74,239.5 184.14,236.18 184.14,236.18 L181.56,230.67 L180.88,230.92 L178.49,238.28 Z" id="Path" fill="#F14C0E"></path>
            <path d="M182.01,239.21 C183.482244,246.710092 184.484198,254.294883 185.01,261.92 L177.61,264.68 C177.61,264.68 178.52,246.21 180.85,239.63 L182.01,239.21 Z" id="Path" fill="#F14C0E"></path>
            <path d="M196.68,212.46 L181.31,230.95 L185.49,240.37 L198.2,217.13 C198.2,217.13 197.33,217.36 197.2,215.99 C197.07,214.62 196.68,212.46 196.68,212.46 Z" id="Path" fill="#FFFFFF"></path>
            <path d="M165.94,223.91 L181.31,230.97 L177.13,243.46 L164.42,229.68 C165.050717,229.254304 165.426188,228.540909 165.42,227.78 C165.61,226.38 165.94,223.91 165.94,223.91 Z" id="Path" fill="#FFFFFF"></path>
            <polygon id="Path" fill="#6EFFFF" points="198.8 210.71 200.98 213.99 231.94 216.03 202.8 216.77 198.63 212.82"></polygon>
            <polygon id="Path" fill="#6EFFFF" points="193.18 204.57 194.82 201.99 196.68 212.48 194.57 215.02"></polygon>
            <path d="M196.85,175.7 C196.85,175.7 199.35,174.43 199.25,175.7 C199.15,176.97 199.32,183.7 197.9,184.78 C196.48,185.86 195.85,193.01 195.51,197.18 C195.17,201.35 194.82,201.99 194.82,201.99 C194.82,201.99 196.44,200.87 197.03,193.72 L197.66,186.21 C197.66,186.21 199.31,185.63 199.66,181.41 C200.01,177.19 200.96,174.73 199.66,173.82 C198.36,172.91 197.09,174.98 196.85,175.7 Z" id="Path" fill="#6EFFFF"></path>
            <g id="Group" opacity="0.12" style="mix-blend-mode: multiply;" transform="translate(222.000000, 146.000000)" fill="url(#radialGradient-1)">
                <circle id="Oval" cx="106.5" cy="106.5" r="106.5"></circle>
            </g>
            <circle id="Oval" fill="url(#radialGradient-3)" cx="95.7832422" cy="96.29" r="95.5"></circle>
        </g>
    </g>
</svg>