<?xml version="1.0" encoding="UTF-8"?>
<svg width="425px" height="350px" viewBox="0 0 425 350" version="1.1" xmlns="http://www.w3.org/2000/svg" xmlns:xlink="http://www.w3.org/1999/xlink">
    <!-- Generator: Sketch 52.1 (67048) - http://www.bohemiancoding.com/sketch -->
    <title>Slice 1</title>
    <desc>Created with Sketch.</desc>
    <defs>
        <radialGradient cx="50%" cy="50%" fx="50%" fy="50%" r="50%" gradientTransform="translate(0.500000,0.500000),scale(1.000000,0.976245),translate(-0.500000,-0.500000)" id="radialGradient-1">
            <stop stop-color="#6FE4DA" stop-opacity="0.25" offset="0%"></stop>
            <stop stop-color="#74E3DA" stop-opacity="0.25" offset="56.5537646%"></stop>
            <stop stop-color="#A8E5E0" stop-opacity="0" offset="100%"></stop>
        </radialGradient>
        <radialGradient cx="50%" cy="50%" fx="50%" fy="50%" r="50%" gradientTransform="translate(0.500000,0.500000),scale(1.000000,0.976245),translate(-0.500000,-0.500000)" id="radialGradient-2">
            <stop stop-color="#FF96CC" stop-opacity="0.25" offset="0%"></stop>
            <stop stop-color="#FF96CC" stop-opacity="0.1" offset="65.9071024%"></stop>
            <stop stop-color="#A8E5E0" stop-opacity="0" offset="100%"></stop>
        </radialGradient>
    </defs>
    <g id="Page-1" stroke="none" stroke-width="1" fill="none" fill-rule="evenodd">
        <g id="Illustration-2" transform="translate(2.000000, 1.000000)">
            <circle id="Oval" fill="url(#radialGradient-1)" cx="279.882715" cy="221.7" r="117"></circle>
            <ellipse id="Oval" fill="#A9975B" cx="220" cy="172.5" rx="114" ry="118.5"></ellipse>
            <circle id="Oval" fill="#FFF2D6" cx="209" cy="171" r="119"></circle>
            <g id="Group" transform="translate(109.000000, 78.000000)">
                <path d="M123.428109,160.0108 L137.400746,182.8588 C137.400746,182.8588 130.098259,205.003 100.276368,203.4322 C70.4544776,201.8614 68.6084577,180.9412 68.6084577,180.9412 L74.8298507,164.0194 L123.428109,160.0108 Z" id="Path" fill="#E7B079"></path>
                <path d="M72.3922886,170.6494 C90.0900093,182.012008 112.628901,182.620908 130.914179,172.2304 L123.468905,159.9904 L74.8196517,164.0194 L72.3922886,170.6494 Z" id="Path" fill="#240115"></path>
                <polygon id="Path" fill="#8FF5F0" points="119.868657 160.3066 133.647512 187.2244 136.686816 181.4104 123.428109 160.021"></polygon>
                <polygon id="Path" fill="#3A7BEB" points="75.7681592 163.948 70.4952736 187.1224 66.9766169 181.849 74.8196517 164.0296"></polygon>
                <path d="M0.0303482587,164.5192 C9.35619078,156.766734 21.6740714,153.620481 33.5748756,155.9512 C50.709204,159.1438 61.6425373,168.079 68.6084577,180.9412 C72.6880597,188.5504 82.7850746,201.3412 103.009701,201.3412 C121.755473,201.3412 131.668905,188.7136 135.493532,181.7572 C142.020896,169.8946 151.536567,160.072 159.09403,155.9818 C182.86791,143.1094 206.284826,154.9618 206.284826,154.9618 C206.284826,154.9618 173.800995,199.4236 141.337562,208.5322 C119.256716,214.7236 77.1042289,220.66 27.9042289,189.2236 C5.58880597,175.0558 0.0303482587,164.5192 0.0303482587,164.5192 Z" id="Path" fill="#FFC239"></path>
                <path d="M38.368408,87.1216 C39.2455224,67.8436 39.1231343,41.3236 60.5410448,26.0236 C82.3465174,10.4482 119.001741,9.418 139.216169,28.4716 C157.227612,45.4546 155.463184,79.9204 153.739552,94.7716 C151.822139,111.3976 149.129602,120.7 149.129602,120.7 C149.129602,120.7 143.642537,142.426 126.620398,159.7048 C114.718159,171.7816 107.099502,173.587 96.0233831,174.0562 C84.9472637,174.5254 73.0858209,168.4972 66.5278607,162.8362 C60.5002488,157.6444 43.3557214,142.528 39.6432836,116.4058 C37.6952736,103.2886 38.368408,87.1216 38.368408,87.1216 Z" id="Path" fill="#E7B079"></path>
                <path d="M127.73209,6.205 C82.5606965,-11.135 34.6865672,9.4996 21.5196517,53.482 C14.0437811,80.716 13.1462687,101.6566 13.1462687,101.6566 C13.1462687,101.6566 25.1097015,117.2218 40.9691542,120.8122 C40.9691542,120.8122 39.4699005,81.7054 42.44801,54.6244 C60.4900498,48.5758 85.2838308,46.2604 107.007711,46.3522 L115.299502,19.159 C116.212273,28.2505805 116.318077,37.4051486 115.615672,46.5154 L116.849751,46.5154 C117.278109,43.7104 119.246517,29.5528 116.768159,18.6082 L118.002239,18.6082 C119.266588,27.8874606 119.706865,37.2604639 119.31791,46.6174 L121.174129,46.7194 C122.550995,36.9376 119.491294,19.108 119.491294,19.108 C124.274627,29.8282 127.334328,43.1698 128.201244,47.2192 C138.9,48.1678 147.324378,49.7692 151.465174,51.7786 C152.689055,60.3874 156.880846,85.4998 148.079104,120.7612 C148.079104,120.7612 170.516915,120.7612 178.900498,93.2212 C178.900498,93.2824 172.913682,23.5654 127.73209,6.205 Z" id="Path" fill="#240115"></path>
                <path d="M70.9032338,124.4332 L70.5156716,129.7168 C70.4318928,131.731793 71.5432617,133.606911 73.350995,134.5006 C76.5738806,136.3876 97.1044776,137.6728 117.06393,135.5206 C119.599653,135.144236 121.540433,133.067948 121.745274,130.5124 C121.65538,127.628677 121.413669,124.751692 121.021144,121.8934 C121.021144,121.8934 107.43607,118.1092 96.1253731,118.7212 C84.8146766,119.3332 75.2378109,120.649 70.9032338,124.4332 Z" id="Path" fill="#FFFFFF"></path>
                <path d="M70.4952736,125.9836 C70.4952736,125.9836 89.8733831,128.8804 121.490299,125.7184" id="Path" stroke="#E1E1E1" stroke-width="1.02"></path>
                <path d="M95.890796,120.5368 L95.890796,133.5214" id="Path" stroke="#E1E1E1" stroke-width="1.02"></path>
                <path d="M105.467662,120.547 L105.467662,126.922" id="Path" stroke="#E1E1E1" stroke-width="1.02"></path>
                <path d="M112.810945,120.547 L112.810945,126.922" id="Path" stroke="#E1E1E1" stroke-width="1.02"></path>
                <path d="M86.0691542,120.547 L86.0691542,126.922" id="Path" stroke="#E1E1E1" stroke-width="1.02"></path>
                <path d="M77.7671642,120.547 L77.7671642,126.922" id="Path" stroke="#E1E1E1" stroke-width="1.02"></path>
                <path d="M88.7106965,127.3096 L88.7106965,133.6846" id="Path" stroke="#E1E1E1" stroke-width="1.02"></path>
                <path d="M81.2450249,127.3096 L81.2450249,135.6838" id="Path" stroke="#E1E1E1" stroke-width="1.02"></path>
                <path d="M73.7793532,126.565 L73.7793532,134.9494" id="Path" stroke="#E1E1E1" stroke-width="1.02"></path>
                <path d="M102.999502,126.6772 L102.999502,133.5316" id="Path" stroke="#E1E1E1" stroke-width="1.02"></path>
                <path d="M110.454975,126.6772 L110.454975,135.0616" id="Path" stroke="#E1E1E1" stroke-width="1.02"></path>
                <path d="M117.920647,125.9326 L117.920647,134.317" id="Path" stroke="#E1E1E1" stroke-width="1.02"></path>
                <path d="M121.510697,117.8236 C117.431095,113.0908 108.343781,114.8554 104.804726,115.5286 C101.857345,115.989335 98.883198,116.258499 95.900995,116.3344 C92.9969175,116.253178 90.1011438,115.984015 87.2318408,115.5286 C83.6927861,114.8554 74.6156716,113.0908 70.5258706,117.8236 C66.4360697,122.5564 70.1485075,126.3712 70.1485075,126.3712 C70.1485075,126.3712 78.0527363,120.8122 96.0233831,120.7204 C113.99403,120.8122 121.88806,126.3712 121.88806,126.3712 C121.88806,126.3712 125.600498,122.5972 121.510697,117.8236 Z" id="Path" fill="#D73021"></path>
                <path d="M122.326617,129.4924 L121.847264,125.8102 L120.888557,125.3716 C121.009725,127.110291 121.009725,128.855309 120.888557,130.594 C120.643781,131.8384 118.777363,136.5814 110.118408,134.5618 C101.459453,132.5422 99.7256219,131.7466 93.8,132.124 C90.6791045,132.3178 88.0885572,133.144 81.8977612,134.5516 C73.238806,136.5916 71.3723881,131.8282 71.1276119,130.5838 C71.0064438,128.845109 71.0064438,127.100091 71.1276119,125.3614 L70.1689055,125.8 L69.6895522,129.4822 C69.6895522,129.4822 69.0266169,136.1326 78.0221393,137.428 C83.0653857,138.054267 88.1489257,138.296364 93.2288557,138.1522 C93.2288557,138.1522 105.732836,138.5806 113.973632,137.428 C122.999751,136.1836 122.326617,129.4924 122.326617,129.4924 Z" id="Path" fill="#D73021"></path>
                <path d="M86.4057214,115.4062 C86.4057214,115.4062 79.1746269,113.9068 76.1557214,114.6412 C73.1368159,115.3756 70.4340796,116.8546 69.3529851,119.6086 C69.0062189,120.7102 70.5870647,118.9252 73.0246269,117.8542 C75.5210493,116.560556 78.3013431,115.911874 81.1124378,115.9672 C82.8947474,116.038373 84.6779146,115.849386 86.4057214,115.4062 Z" id="Path" fill="#F14C0E"></path>
                <path d="M102.877114,115.855 C104.05,116.5894 108.782338,115.9978 109.843035,115.9366 C112.390759,115.500677 115.003515,115.636554 117.492289,116.3344 C121.174129,117.3544 122.591791,120.2818 123.295522,121.21 C123.087707,119.981924 122.583594,118.823051 121.826866,117.8338 C120.522465,116.241875 118.73044,115.123543 116.727363,114.6514 C114.354883,114.387985 111.96054,114.387985 109.58806,114.6514 C107.986816,114.886 104.76393,115.5796 102.877114,115.855 Z" id="Path" fill="#F14C0E"></path>
                <path d="M96.6659204,134.4802 C97.2064677,134.98 101.59204,135.082 101.459453,134.1334 C101.326866,133.1848 98.2263682,133.5418 97.3798507,133.5316 C96.5333333,133.5214 96.0641791,133.9192 96.6659204,134.4802 Z" id="Path" fill="#6EFFFF"></path>
                <path d="M71.9639303,125.3716 C78.0237408,122.720026 84.5282187,121.232155 91.1380597,120.9856 C106.722139,120.2818 114.19801,123.1174 117.757463,124.372 C115.503483,122.8828 107.711443,120.3838 99.5318408,120.19 C93.1611369,119.811528 86.7700945,120.413542 80.5820896,121.975 C77.57914,122.743837 74.6839996,123.884873 71.9639303,125.3716 Z" id="Path" fill="#FF96CC"></path>
                <path d="M97.2574627,103.2886 C97.2574627,103.2886 99.960199,99.5758 103.315672,102.9826" id="Path" fill="#F14C0E"></path>
                <path d="M71.7599502,110.0002 L72.2597015,110.4388 C72.2597015,110.4388 64.1004975,115.5388 62.5196517,120.6388 C61.6786711,123.128387 61.4512472,125.784258 61.8567164,128.3806 C61.8866719,128.642259 61.6999592,128.879088 61.4385572,128.911 C61.1735749,128.967697 60.9075647,128.819415 60.8164179,128.5642 C59.7392847,124.448156 60.6074747,120.065436 63.1723881,116.671 C65.3996437,113.73193 68.3614577,111.4312 71.7599502,110.0002 Z" id="Path" fill="#F14C0E"></path>
                <path d="M120.215423,110.0002 L119.715672,110.4388 C119.715672,110.4388 127.874876,115.5388 129.46592,120.6388 C130.301502,123.129633 130.525385,125.785004 130.118657,128.3806 C130.088701,128.642259 130.275414,128.879088 130.536816,128.911 C130.80449,128.96868 131.073883,128.820934 131.169154,128.5642 C132.240311,124.446513 131.368603,120.065004 128.802985,116.671 C126.575729,113.73193 123.613915,111.4312 120.215423,110.0002 Z" id="Path" fill="#8FF5F0"></path>
                <path d="M67.129602,152.1874 C66.985055,151.97875 66.947263,151.714181 67.0276119,151.4734 C67.4049751,150.9022 68.5064677,151.4734 69.138806,151.861 C71.166594,153.29681 73.4978485,154.246156 75.9517413,154.6354 C79.7355721,154.9618 83.0400498,154.9618 89.750995,152.5036 C96.4619403,150.0454 99.5420398,152.6158 102.907711,152.983 C106.548756,153.3706 110.414179,153.3706 115.993035,149.056 C116.513184,148.5562 117.012935,148.8826 116.839552,149.3518 C115.355216,151.670017 113.030165,153.322573 110.352985,153.9622 C106.603069,154.66228 102.743412,154.505368 99.0626866,153.5032 C96.4925373,152.7382 92.2293532,153.5032 88.7004975,155.6962 C84.7277264,157.993867 79.9854911,158.558123 75.5845771,157.2568 C72.0965174,156.247 68.1393035,153.8398 67.129602,152.1874 Z" id="Path" fill="#240115"></path>
                <path d="M96.9514925,75.871 L97.6042289,75.871 C97.6042289,75.871 100.082587,92.191 86.5893035,97.036 L93.0860697,104.635 C93.26262,104.85261 93.341873,105.133279 93.3052191,105.411104 C93.2685653,105.688928 93.1192336,105.939434 92.8922886,106.1038 C92.4781894,106.385845 91.9205746,106.325322 91.5766169,105.961 C89.1524296,103.342795 86.9583279,100.520557 85.0186567,97.5256 C84.8272849,97.2049624 84.7848163,96.8169369 84.9023014,96.4624889 C85.0197865,96.108041 85.2856075,95.8222209 85.630597,95.6794 C87.54801,94.8838 91.0666667,93.1906 92.7699005,90.7528 C94.7077114,88.0702 96.6659204,84.643 96.9514925,75.871 Z" id="Path" fill="#F14C0E"></path>
                <path d="M95.890796,73.3924 C95.890796,73.3924 91.688806,91.6402 85.0084577,95.7406 C78.3281095,99.841 86.5893035,97.036 86.5893035,97.036 L95.6358209,94.4962 C95.6358209,94.4962 101.49005,78.5944 98.8893035,74.5756 C96.2885572,70.5568 95.890796,73.3924 95.890796,73.3924 Z" id="Path" fill="#8FF5F0"></path>
                <path d="M147.762935,19.21 C147.762935,19.21 174.514925,54.7774 173.709204,104.89 C175.999174,101.303495 177.748382,97.3991857 178.900498,93.3028 C178.900498,93.3028 176.146766,47.2906 147.762935,19.21 Z" id="Path" fill="#8FF5F0"></path>
                <g opacity="0.2" transform="translate(42.845771, 9.520000)" fill="#FFC239" id="Path">
                    <path d="M53.0654229,29.172 C53.4485049,25.4263603 54.0891593,21.7115652 54.9828358,18.054 C53.0636045,21.2283242 51.3236493,24.5076596 49.7711443,27.8766 L50.6584577,19.6554 L45.028607,29.9472 C45.2121891,25.4796 46.4972637,21.1344 47.7721393,16.8402 C44.994749,21.3805819 43.001865,26.3563814 41.8771144,31.5588 C41.4997512,26.5812 42.8052239,21.6444 44.1106965,16.83 L36.3288557,31.6608 L39.05199,18.5436 L32.1268657,32.4054 L34.5950249,18.8904 C31.8113741,23.6079047 29.4234339,28.5480115 27.4557214,33.66 C27.4557214,28.7538 29.0773632,24.0108 30.688806,19.38 L23.1823383,33.2418 L26.690796,18.4416 C23.3236158,23.1376577 20.3165261,28.0817682 17.6952736,33.2316 L21.6626866,18.0132 C20.6427861,17.8908 19.9696517,18.8496 19.4902985,19.6962 C16.8471082,24.2755829 14.5559262,29.0493443 12.6365672,33.9762 C13.2593344,29.3520219 14.3389078,24.800971 15.8594527,20.3898 C12.6569652,25.4762 9.67885572,30.6952 6.92512438,36.0468 C7.54794012,31.937085 8.52734287,27.8894021 9.85223881,23.9496 C7.50938519,28.062622 5.89135343,32.548009 5.06890547,37.2096 C5.16245523,32.4015378 6.23840482,27.6634266 8.23059701,23.2866 C5.05739611,29.3371932 2.44900043,35.6676086 0.438557214,42.1974 C0.356965174,33.8436 2.58034826,24.7758 7.23109453,17.8296 C12.0756219,10.5978 19.6126866,4.9776 26.75199,0.0102 C22.9281834,3.90858032 19.857713,8.48015459 17.6952736,13.4946 C20.9055125,9.49521601 24.3955419,5.72875246 28.1390547,2.2236 C26.1879868,4.90798098 24.4813298,7.76178979 23.0395522,10.7508 C25.7205812,7.52223673 28.631485,4.49173806 31.7495025,1.683 C29.3864958,4.50341992 27.4736892,7.67224496 26.0788557,11.0772 C28.7056525,7.71374468 31.6798129,4.63672682 34.95199,1.8972 C33.0536515,4.65052462 31.3757941,7.54954479 29.9340796,10.5672 C33.074225,6.70357064 36.7130171,3.27364882 40.7552239,0.3672 C37.8066892,3.65307345 35.4931778,7.4574245 33.9320896,11.5872 C36.5632441,7.77494833 39.8181309,4.43353623 43.5599502,1.7034 C41.8541283,4.60052245 40.3677137,7.6213752 39.1131841,10.7406 C40.9954989,7.87447435 43.0814762,5.14744058 45.3549751,2.5806 C43.8791303,5.40011199 42.6769483,8.35462598 41.7649254,11.4036 C43.8300506,8.22445367 46.2717093,5.30650665 49.0368159,2.7132 L46.3136816,10.7916 C48.2797096,7.60347564 50.8176389,4.8059482 53.7997512,2.5398 C52.2922558,5.96323684 51.0245239,9.48732997 50.0057214,13.0866 C51.8889422,9.18985622 54.4871194,5.68145588 57.6651741,2.7438 C56.8933677,6.26553947 55.8044316,9.71019073 54.4116915,13.0356 C57.2554655,8.5193483 60.6242155,4.35593404 64.4475124,0.6324 C59.8086114,9.78644419 55.9993453,19.3378479 53.0654229,29.172 Z"></path>
                </g>
                <g opacity="0.2" transform="translate(117.298507, 10.540000)" fill="#FFC239" id="Path">
                    <path d="M11.4738806,27.438 L11.4738806,21.8484 L13.5136816,26.8668 L13.7482587,23.2152 C15.0783617,24.6417539 15.9919837,26.405675 16.389801,28.3152 C16.5148876,26.2698003 16.4088271,24.2168162 16.0736318,22.1952 L18.9701493,29.427 C18.8071932,26.1614344 18.2769006,22.9246231 17.3893035,19.7778 C20.3499287,23.291895 22.5390324,27.3890457 23.8146766,31.8036 C23.9767066,28.7588828 23.6320518,25.7083903 22.7947761,22.7766 C25.8399812,26.8045587 28.2478761,31.2767998 29.9340796,36.0366 C28.2948088,23.9164235 22.9517074,12.5986306 14.6355721,3.6312 C15.49256,5.47076277 16.1754731,7.38652078 16.6753731,9.3534 C16.0855521,8.385273 15.3294138,7.52892322 14.441791,6.8238 L15.4616915,13.3518 L11.5758706,5.0694 C12.0563044,7.90453621 12.3696147,10.7654745 12.5141791,13.6374 C11.0522297,10.4865938 9.25717405,7.50138144 7.15970149,4.7328 C8.4213306,7.66924617 9.30549885,10.7538549 9.79104478,13.9128 C7.8083429,8.89259127 4.69524801,4.39701122 0.693532338,0.7752 C5.61965174,8.9658 9.0159204,18.2376 11.4738806,27.438 Z"></path>
                </g>
                <g opacity="0.2" transform="translate(11.228856, 14.620000)" fill="#FFC239" id="Path">
                    <path d="M6.60895522,90.2496 C3.83482587,89.7906 2.76393035,87.1896 2.09079602,84.4356 C1.41766169,81.6816 0.520149254,77.112 0.928109453,74.3274 C3.40646766,57.12 5.60945274,41.2998 15.7268657,22.8786 C19.3475124,16.2792 30.1584577,3.9474 37.1447761,0.4386 C28.0268657,8.8536 21.4893035,15.5448 15.1149254,33.8436 C11.3004975,44.8188 8.47537313,61.0164 7.43507463,72.6036 C6.84353234,79.1622 6.60895522,83.8236 6.60895522,90.2496 Z"></path>
                </g>
                <path d="M112.413184,75.361 C112.413184,75.361 123.41791,84.031 135.51393,75.361 C135.51393,75.361 130.414428,67.966 123.560697,68.9146 C116.706965,69.8632 114.412189,72.0766 112.413184,75.361 Z" id="Path" fill="#FFFFFF"></path>
                <ellipse id="Oval" fill="#240115" cx="124.641791" cy="72.913" rx="3.81442786" ry="4.3656"></ellipse>
                <ellipse id="Oval" fill="#6EFFFF" opacity="0.7" cx="126.222637" cy="71.5054" rx="1.17288557" ry="1"></ellipse>
                <path d="M111.383085,55.8382 C109.883831,56.1748 108.537562,57.6436 109.210697,61.5808 C109.883831,65.518 115.63607,64.2124 117.3699,63.4984 C119.103731,62.7844 130.271642,61.846 134.177861,63.4984 C136.980176,64.4788301 139.41008,66.303217 141.133582,68.7208 C143.285572,71.2912 143.418159,66.6808 141.347761,62.6008 C139.277363,58.5208 132.95398,56.1952 127.528109,56.6236 C122.102239,57.052 114.136816,55.2262 111.383085,55.8382 Z" id="Path" fill="#240115"></path>
                <path d="M126.620398,79.0636 C129.578569,78.5243048 132.317012,77.1390067 134.504229,75.0754 L135.524129,75.412 C135.524129,75.412 133.484328,79.0738 125.223134,79.7674 C122.862885,79.6751432 120.533767,79.1961801 118.328607,78.3496 C121.005951,79.196817 123.837654,79.4406528 126.620398,79.0636 Z" id="Path" fill="#8FF5F0"></path>
                <path d="M125.68209,69.1492 C124.882998,68.9608033 124.065482,68.8615972 123.244527,68.8534 C121.715488,69.6278117 120.775947,71.2204106 120.837562,72.9334 C120.80089,74.4831391 121.573764,75.9401495 122.877363,76.7788 C121.592289,70.9648 125.68209,69.1492 125.68209,69.1492 Z" id="Path" fill="#F14C0E" opacity="0.35"></path>
                <path d="M112.413184,75.361 C112.413184,75.361 114.452985,67.6192 124.560199,68.0476 C129.238617,68.4030925 133.391815,71.1760285 135.51393,75.361 C135.51393,75.361 134.8,76.33 134.045274,75.871 C133.290547,75.412 131.373134,71.0668 127.51791,69.9754 C123.691116,68.7537722 119.507295,69.5187135 116.360199,72.0154 C113.229104,74.6266 114.269403,76.3606 112.413184,75.361 Z" id="Path" fill="#240115"></path>
                <path d="M60.3982587,75.871 C60.3982587,75.871 64.4778607,82.654 72.3718905,80.4916 C76.1149254,79.39 76.2169154,77.3296 80.4189055,76.2586 C80.4189055,76.2586 78.9094527,76.2586 76.5432836,71.2606 C74.1771144,66.2626 67.4253731,66.9562 65.6099502,69.5368 C63.7945274,72.1174 60.3982587,75.871 60.3982587,75.871 Z" id="Path" fill="#FFFFFF"></path>
                <path d="M78.8992537,56.2564 C76.1149254,55.7872 68.2208955,57.9496 62.8154229,57.8476 C57.4099502,57.7456 52.3920398,60.1222 50.5766169,64.294 C48.761194,68.4658 50.2706468,72.6478 52.2798507,69.9652 C54.2890547,67.2826 56.1452736,64.9672 59.9699005,63.1108 C63.7945274,61.2544 72.2087065,63.1108 74.0445274,63.784 C75.8803483,64.4572 80.9492537,65.824 81.408209,61.8766 C81.8671642,57.9292 80.4393035,56.5012 78.8992537,56.2564 Z" id="Path" fill="#240115"></path>
                <path d="M81.581592,55.726 C81.1228699,55.2841372 80.5237961,55.0170542 79.8885572,54.9712 C79.409204,54.9712 79.8885572,55.3486 80.0415423,55.4812 C80.243397,55.735593 80.4306789,56.0012186 80.6024876,56.2768 C80.9702211,56.8643263 81.2647763,57.4945989 81.479602,58.1536 C81.6849469,58.7959718 81.8150054,59.4600197 81.8671642,60.1324 C81.8671642,60.3772 82.0201493,62.0194 81.7855721,62.1724 C82.6227707,61.7513253 83.1795437,60.923818 83.2542289,59.9896 C83.2791152,58.4188014 82.6771857,56.9028188 81.581592,55.777 L81.581592,55.726 Z" id="Path" fill="#240115"></path>
                <path d="M84.8452736,57.6436 C84.8120329,57.0659445 84.6368794,56.5053988 84.3353234,56.0116 C83.8967662,55.3078 82.5912935,53.89 81.8365672,54.349 C82.5181511,55.1348247 83.065996,56.0273132 83.458209,56.9908 C83.8092338,57.9913973 83.9244167,59.0595612 83.7947761,60.112 C84.4962661,59.4876012 84.8816384,58.5820751 84.8452736,57.6436 Z" id="Path" fill="#240115"></path>
                <path d="M60.3982587,75.871 C60.3982587,75.871 61.1631841,76.7074 62.8766169,73.5964 C64.5900498,70.4854 67.221393,68.0272 70.3830846,68.0782 C73.0960199,68.0782 74.7686567,68.935 77.7059701,74.1982 C79.6845771,76.5952 79.6947761,76.2382 80.4189055,76.2382 C79.1908615,75.0759982 78.194172,73.6915722 77.481592,72.1582 C75.6763682,68.5882 73.40199,67.5172 71.0664179,67.2928 C68.100061,66.8961321 65.177179,68.2778477 63.6007463,70.822 C62.4481975,72.4495101 61.3793159,74.1346948 60.3982587,75.871 Z" id="Path" fill="#240115"></path>
                <ellipse id="Oval" fill="#240115" cx="69.7711443" cy="73.2598" rx="3.64104478" ry="4.539"></ellipse>
                <ellipse id="Oval" fill="#6EFFFF" opacity="0.7" cx="71.199005" cy="71.0158" rx="1.17288557" ry="1"></ellipse>
                <path d="M58.0116915,72.76 C58.0116915,72.76 62.4788557,66.0484 70.4034826,66.2422 C78.3281095,66.436 81.489801,72.2296 81.489801,72.2296 C81.489801,72.2296 81.428607,72.7906 80.4699005,71.7502 C79.511194,70.7098 75.9313433,66.8542 70.9440299,66.9256 C66.1810945,66.9868 63.4273632,68.17 59.4395522,71.9236 C58.5012438,72.76 58.5012438,72.9436 58.0116915,72.76 Z" id="Path" fill="#240115"></path>
                <path d="M81.0410448,78.4108 C81.0410448,78.4108 77.0838308,85.102 70.0363184,86.8972" id="Path" fill="#240115"></path>
                <path d="M71.199005,69.0778 C70.3274204,68.6344715 69.2964601,68.6344715 68.4248756,69.0778 C66.8677567,70.004773 65.9766522,71.7396257 66.1300995,73.5454 C66.1129164,75.0904688 66.8810967,76.53863 68.1699005,77.3908 C66.8950249,71.5564 71.199005,69.0778 71.199005,69.0778 Z" id="Path" fill="#F14C0E" opacity="0.35"></path>
                <polyline id="Path" stroke="#2F75C8" stroke-width="1.29" points="59.0621891 110.449 59.1131841 108.8884 60.6634328 108.8884"></polyline>
                <path d="M63.7639303,108.8884 L130.281841,108.8884" id="Path" stroke="#2F75C8" stroke-width="1.29" stroke-dasharray="3.03"></path>
                <polyline id="Path" stroke="#2F75C8" stroke-width="1.29" points="131.83209 108.8884 133.392537 108.8884 133.36194 110.449"></polyline>
                <path d="M133.321144,113.3866 L132.862189,141.2734" id="Path" stroke="#2F75C8" stroke-width="1.29" stroke-dasharray="2.88"></path>
                <polyline id="Path" stroke="#2F75C8" stroke-width="1.29" points="132.841791 142.7422 132.811194 144.2926 131.260945 144.2722"></polyline>
                <path d="M128.14005,144.2314 L61.071393,143.293" id="Path" stroke="#2F75C8" stroke-width="1.29" stroke-dasharray="3.06"></path>
                <polyline id="Path" stroke="#2F75C8" stroke-width="1.29" points="59.5109453 143.2726 57.9606965 143.2522 58.0116915 141.6916"></polyline>
                <path d="M58.1034826,138.856 L59.011194,111.8668" id="Path" stroke="#2F75C8" stroke-width="1.29" stroke-dasharray="2.79"></path>
                <polyline id="Path" stroke="#3A7BEB" stroke-width="1.02" points="45.3445274 54.757 45.3751244 53.1964 46.9253731 53.1964"></polyline>
                <path d="M49.8626866,53.1964 L83.55,53.1964" id="Path" stroke="#3A7BEB" stroke-width="1.02" stroke-dasharray="2.87"></path>
                <polyline id="Path" stroke="#3A7BEB" stroke-width="1.02" points="85.0186567 53.1964 86.5689055 53.1964 86.5587065 54.757"></polyline>
                <path d="M86.5281095,57.6538 L86.2833333,85.153" id="Path" stroke="#3A7BEB" stroke-width="1.02" stroke-dasharray="2.84"></path>
                <polyline id="Path" stroke="#3A7BEB" stroke-width="1.02" points="86.2629353 86.5912 86.2527363 88.1518 84.6922886 88.111"></polyline>
                <path d="M81.7447761,88.0396 L47.7718905,87.193" id="Path" stroke="#3A7BEB" stroke-width="1.02" stroke-dasharray="2.9"></path>
                <polyline id="Path" stroke="#3A7BEB" stroke-width="1.02" points="46.2930348 87.1624 44.7325871 87.1216 44.7631841 85.561"></polyline>
                <path d="M44.8243781,82.144 L45.3139303,56.4706" id="Path" stroke="#3A7BEB" stroke-width="1.02" stroke-dasharray="3.36"></path>
                <circle id="Oval" fill-opacity="0.15" fill="url(#radialGradient-1)" cx="199.382715" cy="172.2" r="90.5"></circle>
            </g>
            <circle id="Oval" fill="url(#radialGradient-2)" cx="118.5" cy="119.065" r="118.5"></circle>
            <polygon id="Path" fill="#E7B079" points="105 169 157.239185 169.658945 158 200.330759 106.490786 201"></polygon>
            <path d="M105.378332,170.334671 L155.917187,170.966348 L156.652297,200.023464 L106.797504,200.665329 L105.378332,170.334671 Z M104,169 L105.54169,202 L158,201.32757 L157.20363,169.67243 L104,169 Z" id="Shape" fill="#000000" fill-rule="nonzero"></path>
            <circle id="Oval" fill="#000000" cx="157.5" cy="169.5" r="1.5"></circle>
            <circle id="Oval" fill="#000000" cx="158.5" cy="201.5" r="1.5"></circle>
            <circle id="Oval" fill="#000000" cx="104.5" cy="168.5" r="1.5"></circle>
            <path d="M144,193.289081 C144,193.289081 133.048102,201.638648 121,193.289081 C121,193.289081 126.075022,186.167391 132.906002,187.080932 C139.736981,187.994473 142.000441,190.116246 144,193.289081 Z" id="Path" fill="#FFFFFF"></path>
            <ellipse id="Oval" fill="#1D1814" cx="132" cy="190.5" rx="4" ry="4.5"></ellipse>
            <path d="M144.635956,173.133249 C146.134118,173.475826 147.498881,174.970704 146.82163,178.97781 C146.144379,182.984916 140.35696,181.656135 138.612526,180.929457 C136.868091,180.20278 125.631879,179.247719 121.70177,180.929457 C118.879412,181.921784 116.433131,183.779715 114.703508,186.244582 C112.538357,188.86062 112.404959,184.168362 114.488019,180.01592 C116.57108,175.863479 122.984443,173.486207 128.422975,173.89107 C133.861506,174.295933 141.865383,172.510383 144.635956,173.133249 Z" id="Path" fill="#1D1814"></path>
            <circle id="Oval" fill="#6EFFFF" opacity="0.7" cx="133" cy="190" r="1"></circle>
            <path d="M135.16081,197.25 C138.098474,196.678295 140.81782,195.201652 142.987493,193 L144,193.358696 C144,193.358696 141.974985,197.26087 133.76355,198 C131.452565,197.917118 129.168974,197.436359 127,196.576087 C129.644497,197.422221 132.42688,197.651988 135.16081,197.25 Z" id="Path" fill="#8FF5F0"></path>
            <path d="M133,187.288288 C132.175557,187.100657 131.332243,187.003959 130.485814,187 C128.906836,187.779743 127.936977,189.388632 128.003187,191.118404 C127.967426,192.682253 128.764093,194.152051 130.107109,195 C128.792158,189.131274 133,187.288288 133,187.288288 Z" id="Path" fill="#F14C0E" opacity="0.35"></path>
            <path d="M144,193.363709 C144,193.363709 141.969991,185.586885 131.911297,186.017223 C127.252962,186.374802 123.116857,189.159608 121,193.363709 C121,193.363709 121.710503,194.337093 122.471756,193.876017 C123.23301,193.41494 125.131068,189.050082 128.967785,187.953745 C132.772562,186.720862 136.936019,187.489916 140.061783,190.002974 C143.157546,192.625987 142.142542,194.367832 144,193.363709 Z" id="Path" fill="#1D1814"></path>
            <circle id="Oval" fill="#000000" cx="287.5" cy="202.5" r="1.5"></circle>
            <circle id="Oval" fill="#000000" cx="285.5" cy="238.5" r="1.5"></circle>
            <circle id="Oval" fill="#000000" cx="222.5" cy="237.5" r="1.5"></circle>
            <circle id="Oval" fill="#000000" cx="224.5" cy="203.5" r="1.5"></circle>
            <polygon id="Path" fill="#E7B079" points="223 237.379785 224.912432 204.64055 287 204 284.75008 238"></polygon>
            <path d="M286.597342,204.310107 L284.452697,236.689893 L224.392494,236.095307 L226.211884,204.934927 L286.597342,204.310107 Z M288,203 L224.982017,203.644976 L223,237.385258 L285.6724,238 L287.989836,203 L288,203 Z" id="Shape" fill="#000000" fill-rule="nonzero"></path>
            <circle id="Oval" fill="#000000" cx="287.5" cy="202.5" r="1.5"></circle>
            <circle id="Oval" fill="#000000" cx="285.5" cy="238.5" r="1.5"></circle>
            <circle id="Oval" fill="#000000" cx="222.5" cy="237.5" r="1.5"></circle>
            <circle id="Oval" fill="#000000" cx="224.5" cy="203.5" r="1.5"></circle>
            <path d="M235,216 C235,216 235.194182,226.320897 244.872642,230.467416 C254.551101,234.613935 271.659591,230.285817 274,218.219548 C274,218.219548 256.891509,224.01055 235.582547,216" id="Path" fill="#D73805"></path>
            <path d="M233,215.572166 C233,215.572166 236.047091,208.467901 246.11265,211.970561 C252.034164,214.147355 251.353647,217.175078 256.503232,216.987082 C261.652816,216.799086 260.484765,211.258155 267.381348,211.05037 C274.277932,210.842585 277,217.046449 277,217.046449 C277,217.046449 265.735919,225.179744 253.781163,223.853878 C246.245386,222.854258 239.09428,220.004397 233,215.572166 Z" id="Path" fill="#D73021"></path>
            <path d="M279.019693,213.991844 C279.123983,214.60069 279.367579,215.179196 279.732618,215.684937 C279.92321,215.937563 280.252812,216.053009 280.566037,215.97685 C280.823391,215.826184 280.982703,215.557855 280.987768,215.266529 C281.045807,214.531415 280.896563,213.794838 280.555996,213.135567 C280.292592,212.582497 279.954966,212.065559 279.551876,211.598161 C279.386776,211.392107 279.177884,211.222865 278.939363,211.101909 C278.700712,210.96603 278.404843,210.96603 278.166191,211.101909 C277.543637,211.520318 278.859034,213.466402 279.019693,213.991844 Z" id="Path" fill="#6EFFFF"></path>
            <path d="M231.759045,212.348766 C231.570079,212.567845 231.33585,212.75634 231.067612,212.905195 C230.785225,213.049408 230.425795,213.02747 230.17091,212.850464 C230.035031,212.71022 229.97612,212.527838 230.008855,212.348766 C230.071333,212.159596 230.177843,211.982838 230.322161,211.828824 C230.862343,211.172056 232.558514,209.639596 233.714504,210.077441 C234.870494,210.515287 232.169583,211.974773 231.759045,212.348766 Z" id="Path" fill="#F14C0E"></path>
            <path d="M235,219 C235,219 239.127679,228.673754 248.606053,229.983302 C258.084426,231.292849 265.575399,228.198515 269.743845,223.456686 C273.912291,218.714857 271.028012,223.277151 271.028012,223.277151 C271.028012,223.277151 266.676113,230.912658 254.721132,231.894819 C242.766151,232.876979 236.854908,226.857285 235,219 Z" id="Path" fill="#F14C0E"></path>
            <path d="M262.253302,224.012358 C262.491653,223.966826 262.735279,224.04857 262.912423,224.233513 C263.029192,224.435194 263.029192,224.695298 262.912423,224.896979 C262.779308,225.084952 262.606971,225.233084 262.410704,225.328232 C261.763081,225.697066 261.058346,225.92232 260.334966,225.991698 C259.528281,226.08016 258.367442,225.449867 259.420067,224.664766 C260.300377,224.182074 261.275045,223.957638 262.253302,224.012358 Z" id="Path" fill="#6EFFFF"></path>
            <path d="M256.391523,226.076968 C256.693971,226.01177 257.017223,225.987528 257.337551,226.006019 C257.669303,226.025353 257.938636,226.17332 257.996178,226.367857 C258.012027,226.45465 257.978295,226.542084 257.900378,226.616178 C257.719881,226.826891 257.374166,226.970535 256.9783,226.9993 C256.578115,227.010974 256.206998,226.875666 256.044247,226.658747 C255.909486,226.431737 256.091991,226.181496 256.463374,226.084063" id="Path" fill="#FFFFFF"></path>
            <path d="M234,216 C234,216 249.016184,222.579845 256.122609,222.579845 C263.229034,222.579845 272.889652,219.451551 276,217.678851 C270.15715,221.770585 263.226874,223.973765 256.122609,223.998005 C244.062285,224.143992 234.298676,216.229408 234,216 Z" id="Path" fill="#FF96CC"></path>
            <path d="M242.873846,212.108033 C244.703018,212.529061 246.443148,213.294162 248.008812,214.365778 C249.035806,215.00779 250.062799,215.853107 251.089792,216.559321 C251.749498,217.003135 252.387062,217.481699 253,217.993149 C252.655513,218.014554 252.309846,217.985742 251.973007,217.907547 C248.41961,217.03013 245.25647,214.429979 241.374435,214.012671 C240.949857,214.030341 240.532513,213.894221 240.193393,213.627463 C239.935536,213.297117 239.935536,212.823587 240.193393,212.493241 C240.71716,211.840528 242.15495,211.979631 242.873846,212.108033 Z" id="Path" fill="#F14C0E"></path>
            <path d="M262.106946,215.034472 C262.794181,214.352148 263.535064,213.724215 264.322701,213.156517 C265.063983,212.622145 265.920248,212.26259 266.825317,212.105641 C268.243169,211.790043 269.727595,212.191599 270.782022,213.175978 C270.925981,213.297172 271.006065,213.476212 270.999641,213.662495 C270.945351,213.854481 270.790531,214.00306 270.594079,214.051708 C270.171567,214.179467 269.729999,214.235408 269.288366,214.217124 C267.581302,214.195674 265.891118,214.551471 264.342484,215.25827 C263.69952,215.55018 262.759802,216.134 262.116837,216.435641 C261.454335,216.755003 260.735775,216.946575 260,217 C260.712207,216.299416 261.374955,215.744787 262.106946,215.034472 Z" id="Path" fill="#F14C0E"></path>
            <path d="M378.259143,186.358941 L378.259143,174.851698 C378.259127,174.624062 378.350089,174.405894 378.511729,174.245886 C378.673368,174.085879 378.892229,173.99735 379.119465,174.00006 L394.139678,174.00006 C394.366914,173.99735 394.585775,174.085879 394.747414,174.245886 C394.909054,174.405894 395.000016,174.624062 395,174.851698 L395,189.90743 C394.994456,190.379411 394.610896,190.7591 394.139678,190.759067 L382.60124,190.759067 C382.118874,190.764621 381.730764,191.157907 381.730796,191.64112 L381.730796,203.138224 C381.730829,203.610238 381.351781,203.994447 380.880595,204 L365.850261,204 C365.623009,204.000016 365.405209,203.9089 365.245471,203.746987 C365.085734,203.585075 364.997355,203.365844 365.00006,203.138224 L365.00006,188.092631 C364.997355,187.865011 365.085734,187.64578 365.245471,187.483868 C365.405209,187.321955 365.623009,187.230839 365.850261,187.230855 L377.338092,187.230855 C377.578361,187.247911 377.814764,187.163291 377.989828,186.997566 C378.164891,186.831842 378.262579,186.600194 378.259143,186.358941 Z" id="Path" fill="#5291EE"></path>
            <path d="M55.230855,157.318351 L55.230855,145.851639 C55.2364081,145.379656 55.6206166,144.999967 56.0926309,145 L71.1382241,145 C71.6102384,144.999967 71.9944469,145.379656 72,145.851639 L72,160.907401 C72,161.383348 71.6141698,161.769179 71.1382241,161.769179 L59.6309813,161.769179 C59.3997352,161.769179 59.1779604,161.861041 59.0144447,162.024557 C58.850929,162.188073 58.7590669,162.409848 58.7590669,162.641095 L58.7590669,174.138222 C58.7590996,174.610238 58.3794112,174.994447 57.9074295,175 L42.8516978,175 C42.6240619,175.000016 42.4058938,174.9089 42.2458862,174.746987 C42.0858785,174.585074 41.9973505,174.365843 42.0000604,174.138222 L42.0000604,159.031767 C41.9973505,158.804147 42.0858785,158.584916 42.2458862,158.423003 C42.4058938,158.26109 42.6240619,158.169974 42.8516978,158.16999 L54.3589406,158.16999 C54.8326768,158.170118 55.2198379,157.79196 55.230855,157.318351 Z" id="Path" fill="#5291EE"></path>
            <rect id="Rectangle" fill="#88EDEA" x="341" y="230" width="17" height="17" rx="0.82"></rect>
            <rect id="Rectangle" fill="#6ECAFF" x="127" y="281" width="17" height="17" rx="0.82"></rect>
            <rect id="Rectangle" fill="#88EDEA" x="79" y="107" width="17" height="17" rx="0.82"></rect>
            <rect id="Rectangle" fill="#6ECAFF" x="274" y="40" width="17" height="17" rx="0.82"></rect>
            <polyline id="Path" stroke="#88EDEA" stroke-width="2" points="32 219 32 281.806867 54.7753482 281.806867 54.7243052 309.026912 255.935472 309.026912 255.935472 322 356 322 356 284.996636"></polyline>
            <polygon id="Path" stroke="#88EDEA" stroke-width="2" points="279.071073 256.492015 276.534895 238.088604 266 238.088604 267.755816 263.669855 294.185464 277.322025 294.000642 322 330 322 324.722285 213.29243 287.583186 209 286.063533 231.349183 294.318948 232.796986 294.945291 256.257512"></polygon>
            <polyline id="Path" stroke="#88EDEA" stroke-width="1.29" points="286 224 304.301317 226.573727 305 254"></polyline>
            <polyline id="Path" stroke="#88EDEA" stroke-width="1.29" points="287 218 312.099611 221.718839 313 254"></polyline>
            <polyline id="Path" stroke="#88EDEA" stroke-width="1.29" points="287 213 319.475613 217.776299 321 254"></polyline>
            <circle id="Oval" fill="#2EC1B3" cx="276.5" cy="238.5" r="1.5"></circle>
            <circle id="Oval" fill="#2EC1B3" cx="266.5" cy="238.5" r="1.5"></circle>
            <circle id="Oval" fill="#2EC1B3" cx="293.5" cy="277.5" r="1.5"></circle>
            <circle id="Oval" fill="#2EC1B3" cx="293.5" cy="321.5" r="1.5"></circle>
            <circle id="Oval" fill="#2EC1B3" cx="329.5" cy="321.5" r="1.5"></circle>
            <circle id="Oval" fill="#2EC1B3" cx="279.5" cy="255.5" r="1.5"></circle>
            <circle id="Oval" fill="#2EC1B3" cx="268.5" cy="263.5" r="1.5"></circle>
            <circle id="Oval" fill="#2EC1B3" cx="294.5" cy="255.5" r="1.5"></circle>
            <circle id="Oval" fill="#2EC1B3" cx="293.5" cy="232.5" r="1.5"></circle>
            <circle id="Oval" fill="#2EC1B3" cx="285.5" cy="231.5" r="1.5"></circle>
            <circle id="Oval" fill="#2EC1B3" cx="287.5" cy="208.5" r="1.5"></circle>
            <circle id="Oval" fill="#2EC1B3" cx="324.5" cy="212.5" r="1.5"></circle>
            <circle id="Oval" fill="#2EC1B3" cx="305.5" cy="253.5" r="1.5"></circle>
            <circle id="Oval" fill="#2EC1B3" cx="313.5" cy="253.5" r="1.5"></circle>
            <circle id="Oval" fill="#2EC1B3" cx="320.5" cy="253.5" r="1.5"></circle>
            <circle id="Oval" fill="#2EC1B3" cx="286.5" cy="224.5" r="1.5"></circle>
            <circle id="Oval" fill="#2EC1B3" cx="286.5" cy="218.5" r="1.5"></circle>
            <circle id="Oval" fill="#2EC1B3" cx="287.5" cy="212.5" r="1.5"></circle>
            <circle id="Oval" fill="#2EC1B3" cx="318.5" cy="217.5" r="1.5"></circle>
            <circle id="Oval" fill="#2EC1B3" cx="312.5" cy="222.5" r="1.5"></circle>
            <circle id="Oval" fill="#2EC1B3" cx="304.5" cy="226.5" r="1.5"></circle>
            <polygon id="Path" fill="#96F9F4" opacity="0.5" points="279.071073 256.492015 276.534895 238.088604 266 238.088604 267.755816 263.669855 294.185464 277.322025 294.000642 322 330 322 324.722285 213.29243 287.583186 209 286.063533 231.349183 294.318948 232.796986 294.945291 256.257512"></polygon>
            <polygon id="Path" fill="#96F9F4" opacity="0.5" points="109.352852 217.164965 114.544768 202.065019 125 202.065019 112.922932 236.144546 111.739705 309 74.2436721 309 71 224.679205 80.1088024 179.062869 104.436343 176 105.741972 202.401934 96.4189649 204.944116 94.4197204 217.022031"></polygon>
            <polygon id="Path" stroke="#88EDEA" stroke-width="2" points="109.352852 217.164965 114.544768 202.065019 125 202.065019 112.922932 236.144546 111.739705 309 74.2436721 309 71 224.679205 80.1088024 179.062869 104.436343 176 105.741972 202.401934 96.4189649 204.944116 94.4197204 217.022031"></polygon>
            <polyline id="Path" stroke="#88EDEA" stroke-width="1.29" points="88 217 91.9269299 198.053529 105 195"></polyline>
            <polyline id="Path" stroke="#88EDEA" stroke-width="1.29" points="105 189 87.5909902 192.064075 82 217"></polyline>
            <polyline id="Path" stroke="#88EDEA" stroke-width="1.29" points="104 182 83.7626168 184.740286 77 217"></polyline>
            <circle id="Oval" fill="#2EC1B3" cx="114.5" cy="201.5" r="1.5"></circle>
            <circle id="Oval" fill="#2EC1B3" cx="109.5" cy="216.5" r="1.5"></circle>
            <circle id="Oval" fill="#2EC1B3" cx="125.5" cy="201.5" r="1.5"></circle>
            <circle id="Oval" fill="#2EC1B3" cx="112.5" cy="236.5" r="1.5"></circle>
            <circle id="Oval" fill="#2EC1B3" cx="71.5" cy="224.5" r="1.5"></circle>
            <circle id="Oval" fill="#2EC1B3" cx="94.5" cy="216.5" r="1.5"></circle>
            <circle id="Oval" fill="#2EC1B3" cx="96.5" cy="204.5" r="1.5"></circle>
            <circle id="Oval" fill="#2EC1B3" cx="105.5" cy="202.5" r="1.5"></circle>
            <circle id="Oval" fill="#2EC1B3" cx="104.5" cy="175.5" r="1.5"></circle>
            <circle id="Oval" fill="#2EC1B3" cx="79.5" cy="178.5" r="1.5"></circle>
            <circle id="Oval" fill="#2EC1B3" cx="111.5" cy="308.5" r="1.5"></circle>
            <circle id="Oval" fill="#2EC1B3" cx="74.5" cy="308.5" r="1.5"></circle>
            <circle id="Oval" fill="#2EC1B3" cx="77.5" cy="216.5" r="1.5"></circle>
            <circle id="Oval" fill="#2EC1B3" cx="82.5" cy="216.5" r="1.5"></circle>
            <circle id="Oval" fill="#2EC1B3" cx="88.5" cy="216.5" r="1.5"></circle>
            <circle id="Oval" fill="#2EC1B3" cx="92.5" cy="198.5" r="1.5"></circle>
            <circle id="Oval" fill="#2EC1B3" cx="84.5" cy="184.5" r="1.5"></circle>
            <circle id="Oval" fill="#2EC1B3" cx="88.5" cy="191.5" r="1.5"></circle>
            <circle id="Oval" fill="#2EC1B3" cx="105.5" cy="195.5" r="1.5"></circle>
            <circle id="Oval" fill="#2EC1B3" cx="105.5" cy="188.5" r="1.5"></circle>
            <circle id="Oval" fill="#2EC1B3" cx="104.5" cy="181.5" r="1.5"></circle>
            <circle id="Oval" fill="#2EC1B3" cx="356.5" cy="321.5" r="1.5"></circle>
            <circle id="Oval" fill="#2EC1B3" cx="256.5" cy="321.5" r="1.5"></circle>
            <circle id="Oval" fill="#2EC1B3" cx="256.5" cy="308.5" r="1.5"></circle>
            <circle id="Oval" fill="#2EC1B3" cx="55.5" cy="308.5" r="1.5"></circle>
            <circle id="Oval" fill="#2EC1B3" cx="55.5" cy="281.5" r="1.5"></circle>
            <circle id="Oval" fill="#2EC1B3" cx="32.5" cy="281.5" r="1.5"></circle>
            <circle id="Oval" fill="#2EC1B3" cx="33" cy="219" r="2"></circle>
            <circle id="Oval" fill="#2EC1B3" cx="356" cy="285" r="2"></circle>
            <path d="M288,209 L286,231" id="Path" fill="#2EC1B3"></path>
            <path d="M266,237.5 L276,237.5" id="Path" fill="#2EC1B3"></path>
            <path d="M114,201.565 L125,201.435" id="Path" fill="#2EC1B3"></path>
            <path d="M105,176 L106,203" id="Path" fill="#2EC1B3"></path>
            <polyline id="Path" stroke="#88EDEA" stroke-width="2" points="41 127.345337 41 81.7290105 65.4641736 81.7290105 65.4641736 36 195.960153 36 195.960153 71.0445665 336.02774 71.0445665 336.02774 47.2581054 382 47.2581054 382 133 363.325681 133"></polyline>
            <circle id="Oval" fill="#2EC1B3" cx="382.5" cy="132.5" r="1.5"></circle>
            <circle id="Oval" fill="#2EC1B3" cx="382.5" cy="47.5" r="1.5"></circle>
            <circle id="Oval" fill="#2EC1B3" cx="335.5" cy="47.5" r="1.5"></circle>
            <circle id="Oval" fill="#2EC1B3" cx="335.5" cy="71.5" r="1.5"></circle>
            <circle id="Oval" fill="#2EC1B3" cx="195.5" cy="71.5" r="1.5"></circle>
            <circle id="Oval" fill="#2EC1B3" cx="196.5" cy="36.5" r="1.5"></circle>
            <circle id="Oval" fill="#2EC1B3" cx="65.5" cy="36.5" r="1.5"></circle>
            <circle id="Oval" fill="#2EC1B3" cx="65.5" cy="81.5" r="1.5"></circle>
            <circle id="Oval" fill="#2EC1B3" cx="40.5" cy="81.5" r="1.5"></circle>
            <circle id="Oval" fill="#2EC1B3" cx="41" cy="127" r="2"></circle>
            <circle id="Oval" fill="#2EC1B3" cx="364" cy="133" r="2"></circle>
        </g>
    </g>
</svg>